%TF.GenerationSoftware,KiCad,Pcbnew,9.0.7-247-ge1e00acccb*%
%TF.CreationDate,2026-05-12T01:43:47+02:00*%
%TF.ProjectId,version finale,76657273-696f-46e2-9066-696e616c652e,rev?*%
%TF.SameCoordinates,Original*%
%TF.FileFunction,Soldermask,Top*%
%TF.FilePolarity,Negative*%
%FSLAX46Y46*%
G04 Gerber Fmt 4.6, Leading zero omitted, Abs format (unit mm)*
G04 Created by KiCad (PCBNEW 9.0.7-247-ge1e00acccb) date 2026-05-12 01:43:47*
%MOMM*%
%LPD*%
G01*
G04 APERTURE LIST*
G04 Aperture macros list*
%AMRoundRect*
0 Rectangle with rounded corners*
0 $1 Rounding radius*
0 $2 $3 $4 $5 $6 $7 $8 $9 X,Y pos of 4 corners*
0 Add a 4 corners polygon primitive as box body*
4,1,4,$2,$3,$4,$5,$6,$7,$8,$9,$2,$3,0*
0 Add four circle primitives for the rounded corners*
1,1,$1+$1,$2,$3*
1,1,$1+$1,$4,$5*
1,1,$1+$1,$6,$7*
1,1,$1+$1,$8,$9*
0 Add four rect primitives between the rounded corners*
20,1,$1+$1,$2,$3,$4,$5,0*
20,1,$1+$1,$4,$5,$6,$7,0*
20,1,$1+$1,$6,$7,$8,$9,0*
20,1,$1+$1,$8,$9,$2,$3,0*%
G04 Aperture macros list end*
%ADD10C,0.010000*%
%ADD11C,5.700000*%
%ADD12RoundRect,0.237500X-0.250000X-0.237500X0.250000X-0.237500X0.250000X0.237500X-0.250000X0.237500X0*%
%ADD13RoundRect,0.237500X0.300000X0.237500X-0.300000X0.237500X-0.300000X-0.237500X0.300000X-0.237500X0*%
%ADD14RoundRect,0.237500X-0.300000X-0.237500X0.300000X-0.237500X0.300000X0.237500X-0.300000X0.237500X0*%
%ADD15RoundRect,0.150000X-0.150000X0.512500X-0.150000X-0.512500X0.150000X-0.512500X0.150000X0.512500X0*%
%ADD16C,2.600000*%
%ADD17R,0.500000X0.800000*%
%ADD18R,1.000000X0.500000*%
%ADD19R,0.300000X0.800000*%
%ADD20R,1.480000X0.500000*%
%ADD21RoundRect,0.250000X0.600000X0.725000X-0.600000X0.725000X-0.600000X-0.725000X0.600000X-0.725000X0*%
%ADD22O,1.700000X1.950000*%
%ADD23RoundRect,0.237500X-0.237500X0.250000X-0.237500X-0.250000X0.237500X-0.250000X0.237500X0.250000X0*%
%ADD24C,0.650000*%
%ADD25O,1.204000X2.304000*%
%ADD26O,1.204000X2.004000*%
%ADD27RoundRect,0.102000X0.450000X0.300000X-0.450000X0.300000X-0.450000X-0.300000X0.450000X-0.300000X0*%
%ADD28RoundRect,0.198500X-0.508500X-0.198500X0.508500X-0.198500X0.508500X0.198500X-0.508500X0.198500X0*%
%ADD29RoundRect,0.191000X-0.726000X-0.191000X0.726000X-0.191000X0.726000X0.191000X-0.726000X0.191000X0*%
%ADD30RoundRect,0.237500X0.250000X0.237500X-0.250000X0.237500X-0.250000X-0.237500X0.250000X-0.237500X0*%
%ADD31R,0.600000X0.515000*%
%ADD32R,0.500000X0.515000*%
%ADD33R,0.535000X0.500000*%
%ADD34R,2.316000X1.200000*%
%ADD35RoundRect,0.250000X-0.600000X-0.750000X0.600000X-0.750000X0.600000X0.750000X-0.600000X0.750000X0*%
%ADD36O,1.700000X2.000000*%
%ADD37RoundRect,0.150000X-0.512500X-0.150000X0.512500X-0.150000X0.512500X0.150000X-0.512500X0.150000X0*%
%ADD38RoundRect,0.250000X-0.550000X-0.550000X0.550000X-0.550000X0.550000X0.550000X-0.550000X0.550000X0*%
%ADD39C,1.600000*%
%ADD40RoundRect,0.125000X-0.625000X-0.125000X0.625000X-0.125000X0.625000X0.125000X-0.625000X0.125000X0*%
%ADD41RoundRect,0.125000X-0.125000X-0.625000X0.125000X-0.625000X0.125000X0.625000X-0.125000X0.625000X0*%
%ADD42RoundRect,0.237500X0.237500X-0.250000X0.237500X0.250000X-0.237500X0.250000X-0.237500X-0.250000X0*%
%ADD43RoundRect,0.102000X0.800000X0.300000X-0.800000X0.300000X-0.800000X-0.300000X0.800000X-0.300000X0*%
G04 APERTURE END LIST*
D10*
%TO.C,J1*%
X136774900Y-28101500D02*
X136074900Y-28101500D01*
X136074900Y-26851500D01*
X136774900Y-26851500D01*
X136774900Y-28101500D01*
G36*
X136774900Y-28101500D02*
G01*
X136074900Y-28101500D01*
X136074900Y-26851500D01*
X136774900Y-26851500D01*
X136774900Y-28101500D01*
G37*
X137574900Y-28101500D02*
X136874900Y-28101500D01*
X136874900Y-26851500D01*
X137574900Y-26851500D01*
X137574900Y-28101500D01*
G36*
X137574900Y-28101500D02*
G01*
X136874900Y-28101500D01*
X136874900Y-26851500D01*
X137574900Y-26851500D01*
X137574900Y-28101500D01*
G37*
X138074900Y-28101500D02*
X137674900Y-28101500D01*
X137674900Y-26851500D01*
X138074900Y-26851500D01*
X138074900Y-28101500D01*
G36*
X138074900Y-28101500D02*
G01*
X137674900Y-28101500D01*
X137674900Y-26851500D01*
X138074900Y-26851500D01*
X138074900Y-28101500D01*
G37*
X138574900Y-28101500D02*
X138174900Y-28101500D01*
X138174900Y-26851500D01*
X138574900Y-26851500D01*
X138574900Y-28101500D01*
G36*
X138574900Y-28101500D02*
G01*
X138174900Y-28101500D01*
X138174900Y-26851500D01*
X138574900Y-26851500D01*
X138574900Y-28101500D01*
G37*
X139074900Y-28101500D02*
X138674900Y-28101500D01*
X138674900Y-26851500D01*
X139074900Y-26851500D01*
X139074900Y-28101500D01*
G36*
X139074900Y-28101500D02*
G01*
X138674900Y-28101500D01*
X138674900Y-26851500D01*
X139074900Y-26851500D01*
X139074900Y-28101500D01*
G37*
X139574900Y-28101500D02*
X139174900Y-28101500D01*
X139174900Y-26851500D01*
X139574900Y-26851500D01*
X139574900Y-28101500D01*
G36*
X139574900Y-28101500D02*
G01*
X139174900Y-28101500D01*
X139174900Y-26851500D01*
X139574900Y-26851500D01*
X139574900Y-28101500D01*
G37*
X140074900Y-28101500D02*
X139674900Y-28101500D01*
X139674900Y-26851500D01*
X140074900Y-26851500D01*
X140074900Y-28101500D01*
G36*
X140074900Y-28101500D02*
G01*
X139674900Y-28101500D01*
X139674900Y-26851500D01*
X140074900Y-26851500D01*
X140074900Y-28101500D01*
G37*
X140574900Y-28101500D02*
X140174900Y-28101500D01*
X140174900Y-26851500D01*
X140574900Y-26851500D01*
X140574900Y-28101500D01*
G36*
X140574900Y-28101500D02*
G01*
X140174900Y-28101500D01*
X140174900Y-26851500D01*
X140574900Y-26851500D01*
X140574900Y-28101500D01*
G37*
X141074900Y-28101500D02*
X140674900Y-28101500D01*
X140674900Y-26851500D01*
X141074900Y-26851500D01*
X141074900Y-28101500D01*
G36*
X141074900Y-28101500D02*
G01*
X140674900Y-28101500D01*
X140674900Y-26851500D01*
X141074900Y-26851500D01*
X141074900Y-28101500D01*
G37*
X141574900Y-28101500D02*
X141174900Y-28101500D01*
X141174900Y-26851500D01*
X141574900Y-26851500D01*
X141574900Y-28101500D01*
G36*
X141574900Y-28101500D02*
G01*
X141174900Y-28101500D01*
X141174900Y-26851500D01*
X141574900Y-26851500D01*
X141574900Y-28101500D01*
G37*
X142374900Y-28101500D02*
X141674900Y-28101500D01*
X141674900Y-26851500D01*
X142374900Y-26851500D01*
X142374900Y-28101500D01*
G36*
X142374900Y-28101500D02*
G01*
X141674900Y-28101500D01*
X141674900Y-26851500D01*
X142374900Y-26851500D01*
X142374900Y-28101500D01*
G37*
X143174900Y-28101500D02*
X142474900Y-28101500D01*
X142474900Y-26851500D01*
X143174900Y-26851500D01*
X143174900Y-28101500D01*
G36*
X143174900Y-28101500D02*
G01*
X142474900Y-28101500D01*
X142474900Y-26851500D01*
X143174900Y-26851500D01*
X143174900Y-28101500D01*
G37*
%TD*%
D11*
%TO.C,REF\u002A\u002A*%
X144094900Y-40563800D03*
%TD*%
%TO.C,REF\u002A\u002A*%
X24892000Y-40563800D03*
%TD*%
%TO.C,REF\u002A\u002A*%
X24892000Y-59461400D03*
%TD*%
%TO.C,REF\u002A\u002A*%
X144094900Y-59461400D03*
%TD*%
D12*
%TO.C,R8*%
X96675000Y-50000000D03*
X98500000Y-50000000D03*
%TD*%
%TO.C,R7*%
X96587500Y-55000000D03*
X98412500Y-55000000D03*
%TD*%
D13*
%TO.C,C2*%
X112292300Y-40182800D03*
X110567300Y-40182800D03*
%TD*%
D14*
%TO.C,C5*%
X115725000Y-31000000D03*
X117450000Y-31000000D03*
%TD*%
%TO.C,C1*%
X125637500Y-35500000D03*
X127362500Y-35500000D03*
%TD*%
%TO.C,C9*%
X84481500Y-45974000D03*
X86206500Y-45974000D03*
%TD*%
D12*
%TO.C,R9*%
X93499300Y-42519600D03*
X95324300Y-42519600D03*
%TD*%
D15*
%TO.C,U3*%
X110950000Y-34862500D03*
X110000000Y-34862500D03*
X109050000Y-34862500D03*
X109050000Y-37137500D03*
X110000000Y-37137500D03*
X110950000Y-37137500D03*
%TD*%
D16*
%TO.C,FB4*%
X31725000Y-33000000D03*
X31725000Y-36500000D03*
%TD*%
D17*
%TO.C,D5*%
X65725000Y-47500000D03*
D18*
X65655000Y-48350000D03*
D19*
X64825000Y-47500000D03*
D17*
X63925000Y-47500000D03*
X63925000Y-49200000D03*
D19*
X64825000Y-49200000D03*
D20*
X64235000Y-48350000D03*
D17*
X65725000Y-49200000D03*
%TD*%
D16*
%TO.C,FB2*%
X140725000Y-45750000D03*
X140725000Y-49250000D03*
%TD*%
D14*
%TO.C,C8*%
X73483300Y-51638200D03*
X75208300Y-51638200D03*
%TD*%
D21*
%TO.C,J2*%
X48225000Y-25500000D03*
D22*
X45725000Y-25500000D03*
X43225000Y-25500000D03*
X40725000Y-25500000D03*
X38225000Y-25500000D03*
%TD*%
D23*
%TO.C,RC1*%
X53725000Y-39250000D03*
X53725000Y-41075000D03*
%TD*%
D13*
%TO.C,C13*%
X83590300Y-57988200D03*
X81865300Y-57988200D03*
%TD*%
%TO.C,C4*%
X127362500Y-38000000D03*
X125637500Y-38000000D03*
%TD*%
D12*
%TO.C,R4*%
X125452500Y-32867600D03*
X127277500Y-32867600D03*
%TD*%
D23*
%TO.C,R6*%
X87487500Y-49175000D03*
X87487500Y-51000000D03*
%TD*%
%TO.C,R15*%
X65225000Y-42750000D03*
X65225000Y-44575000D03*
%TD*%
D24*
%TO.C,J1*%
X142514900Y-26401500D03*
X136734900Y-26401500D03*
D25*
X143944900Y-26901500D03*
X135304900Y-26901500D03*
D26*
X143944900Y-22721500D03*
X135304900Y-22721500D03*
%TD*%
D16*
%TO.C,FB1*%
X130725000Y-45500000D03*
X130725000Y-49000000D03*
%TD*%
D27*
%TO.C,PS1*%
X90800000Y-46000000D03*
X90800000Y-45050000D03*
X90800000Y-44100000D03*
X88000000Y-44100000D03*
X88000000Y-46000000D03*
%TD*%
D23*
%TO.C,R13*%
X42367200Y-41454700D03*
X42367200Y-43279700D03*
%TD*%
%TO.C,R5*%
X83489800Y-49455700D03*
X83489800Y-51280700D03*
%TD*%
D21*
%TO.C,J3*%
X77225000Y-25500000D03*
D22*
X74725000Y-25500000D03*
X72225000Y-25500000D03*
X69725000Y-25500000D03*
X67225000Y-25500000D03*
%TD*%
D12*
%TO.C,R10*%
X93500000Y-39000000D03*
X95325000Y-39000000D03*
%TD*%
D28*
%TO.C,U6*%
X67215000Y-53600000D03*
X67215000Y-54550000D03*
X67215000Y-55500000D03*
X69725000Y-55500000D03*
X69725000Y-53600000D03*
%TD*%
D29*
%TO.C,U5*%
X35080000Y-50230000D03*
X35080000Y-52770000D03*
X41370000Y-52770000D03*
X41370000Y-51500000D03*
X41370000Y-50230000D03*
%TD*%
D30*
%TO.C,R2*%
X125050000Y-22500000D03*
X123225000Y-22500000D03*
%TD*%
D31*
%TO.C,IC1*%
X83413600Y-55651400D03*
D32*
X82613600Y-55651400D03*
X81863600Y-55651400D03*
X81113600Y-55651400D03*
X80363600Y-55651400D03*
X79613600Y-55651400D03*
X78863600Y-55651400D03*
D33*
X83781600Y-54593400D03*
D34*
X81113600Y-54593400D03*
D33*
X78445600Y-54593400D03*
D32*
X83363600Y-53535400D03*
X82613600Y-53535400D03*
X81863600Y-53535400D03*
X81113600Y-53535400D03*
X80363600Y-53535400D03*
X79613600Y-53535400D03*
X78863600Y-53535400D03*
%TD*%
D35*
%TO.C,LS1*%
X134750000Y-59475000D03*
D36*
X137250000Y-59475000D03*
%TD*%
D37*
%TO.C,U4*%
X71308800Y-58267600D03*
X71308800Y-59217600D03*
X71308800Y-60167600D03*
X73583800Y-60167600D03*
X73583800Y-58267600D03*
%TD*%
D16*
%TO.C,FB3*%
X42341800Y-36548000D03*
X42341800Y-33048000D03*
%TD*%
D13*
%TO.C,C12*%
X142362500Y-54000000D03*
X140637500Y-54000000D03*
%TD*%
D17*
%TO.C,D4*%
X71725000Y-47500000D03*
D18*
X71655000Y-48350000D03*
D19*
X70825000Y-47500000D03*
D17*
X69925000Y-47500000D03*
X69925000Y-49200000D03*
D19*
X70825000Y-49200000D03*
D20*
X70235000Y-48350000D03*
D17*
X71725000Y-49200000D03*
%TD*%
D14*
%TO.C,C7*%
X115748900Y-32842200D03*
X117473900Y-32842200D03*
%TD*%
D38*
%TO.C,D3*%
X34725000Y-46500000D03*
D39*
X42345000Y-46500000D03*
%TD*%
D16*
%TO.C,FB5*%
X53725000Y-35250000D03*
X53725000Y-31750000D03*
%TD*%
D14*
%TO.C,C3*%
X125637500Y-40500000D03*
X127362500Y-40500000D03*
%TD*%
D16*
%TO.C,FB6*%
X65225000Y-35250000D03*
X65225000Y-31750000D03*
%TD*%
D14*
%TO.C,C11*%
X130637500Y-54000000D03*
X132362500Y-54000000D03*
%TD*%
D21*
%TO.C,J4*%
X101725000Y-31000000D03*
D22*
X99225000Y-31000000D03*
X96725000Y-31000000D03*
X94225000Y-31000000D03*
X91725000Y-31000000D03*
X89225000Y-31000000D03*
%TD*%
D40*
%TO.C,U1*%
X74825000Y-37200000D03*
X74825000Y-38000000D03*
X74825000Y-38800000D03*
X74825000Y-39600000D03*
X74825000Y-40400000D03*
X74825000Y-41200000D03*
X74825000Y-42000000D03*
X74825000Y-42800000D03*
D41*
X76200000Y-44175000D03*
X77000000Y-44175000D03*
X77800000Y-44175000D03*
X78600000Y-44175000D03*
X79400000Y-44175000D03*
X80200000Y-44175000D03*
X81000000Y-44175000D03*
X81800000Y-44175000D03*
D40*
X83175000Y-42800000D03*
X83175000Y-42000000D03*
X83175000Y-41200000D03*
X83175000Y-40400000D03*
X83175000Y-39600000D03*
X83175000Y-38800000D03*
X83175000Y-38000000D03*
X83175000Y-37200000D03*
D41*
X81800000Y-35825000D03*
X81000000Y-35825000D03*
X80200000Y-35825000D03*
X79400000Y-35825000D03*
X78600000Y-35825000D03*
X77800000Y-35825000D03*
X77000000Y-35825000D03*
X76200000Y-35825000D03*
%TD*%
D23*
%TO.C,RA1*%
X65225000Y-38750000D03*
X65225000Y-40575000D03*
%TD*%
D12*
%TO.C,R11*%
X93500000Y-35500000D03*
X95325000Y-35500000D03*
%TD*%
D42*
%TO.C,R14*%
X70725000Y-44825000D03*
X70725000Y-43000000D03*
%TD*%
D13*
%TO.C,C14*%
X77545100Y-58267600D03*
X75820100Y-58267600D03*
%TD*%
%TO.C,C10*%
X95452100Y-48006000D03*
X93727100Y-48006000D03*
%TD*%
D43*
%TO.C,U2*%
X120725000Y-44000000D03*
X120725000Y-42730000D03*
X120725000Y-41460000D03*
X120725000Y-40190000D03*
X120725000Y-38920000D03*
X120725000Y-37650000D03*
X120725000Y-36380000D03*
X120725000Y-35110000D03*
X115325000Y-35110000D03*
X115325000Y-36380000D03*
X115325000Y-37650000D03*
X115325000Y-38920000D03*
X115325000Y-40190000D03*
X115325000Y-41460000D03*
X115325000Y-42730000D03*
X115325000Y-44000000D03*
%TD*%
D30*
%TO.C,R1*%
X125050000Y-28000000D03*
X123225000Y-28000000D03*
%TD*%
D14*
%TO.C,C6*%
X67514300Y-58267600D03*
X69239300Y-58267600D03*
%TD*%
M02*
