%TF.GenerationSoftware,KiCad,Pcbnew,9.0.7-247-ge1e00acccb*%
%TF.CreationDate,2026-05-12T01:45:48+02:00*%
%TF.ProjectId,version finale,76657273-696f-46e2-9066-696e616c652e,rev?*%
%TF.SameCoordinates,Original*%
%TF.FileFunction,Drillmap*%
%TF.FilePolarity,Positive*%
%FSLAX45Y45*%
G04 Gerber Fmt 4.5, Leading zero omitted, Abs format (unit mm)*
G04 Created by KiCad (PCBNEW 9.0.7-247-ge1e00acccb) date 2026-05-12 01:45:48*
%MOMM*%
%LPD*%
G01*
G04 APERTURE LIST*
%ADD10C,0.050000*%
%ADD11C,0.200000*%
%ADD12C,0.100000*%
G04 APERTURE END LIST*
D10*
X2000000Y-2250000D02*
G75*
G02*
X2250000Y-2000000I250000J0D01*
G01*
X2000000Y-6350000D02*
X2000000Y-2250000D01*
X2250000Y-2000000D02*
X14747570Y-2003930D01*
X2250000Y-6600000D02*
G75*
G02*
X2000000Y-6350000I0J250000D01*
G01*
X14747570Y-2003760D02*
G75*
G02*
X14997570Y-2263140I0J-250170D01*
G01*
X14750000Y-6600000D02*
X2250000Y-6600000D01*
X14997573Y-2263059D02*
X15000000Y-6350000D01*
X15000000Y-6350000D02*
G75*
G02*
X14750000Y-6600000I-250000J0D01*
G01*
D11*
D12*
X13640990Y-2607650D02*
X13705990Y-2672650D01*
X13705990Y-2607650D02*
X13640990Y-2672650D01*
X14218990Y-2607650D02*
X14283990Y-2672650D01*
X14283990Y-2607650D02*
X14218990Y-2672650D01*
D11*
X2258277Y-6913984D02*
X2258277Y-6713984D01*
X2258277Y-6713984D02*
X2305896Y-6713984D01*
X2305896Y-6713984D02*
X2334467Y-6723508D01*
X2334467Y-6723508D02*
X2353515Y-6742555D01*
X2353515Y-6742555D02*
X2363039Y-6761603D01*
X2363039Y-6761603D02*
X2372563Y-6799698D01*
X2372563Y-6799698D02*
X2372563Y-6828269D01*
X2372563Y-6828269D02*
X2363039Y-6866365D01*
X2363039Y-6866365D02*
X2353515Y-6885412D01*
X2353515Y-6885412D02*
X2334467Y-6904460D01*
X2334467Y-6904460D02*
X2305896Y-6913984D01*
X2305896Y-6913984D02*
X2258277Y-6913984D01*
X2458277Y-6913984D02*
X2458277Y-6780650D01*
X2458277Y-6818746D02*
X2467801Y-6799698D01*
X2467801Y-6799698D02*
X2477324Y-6790174D01*
X2477324Y-6790174D02*
X2496372Y-6780650D01*
X2496372Y-6780650D02*
X2515420Y-6780650D01*
X2582086Y-6913984D02*
X2582086Y-6780650D01*
X2582086Y-6713984D02*
X2572563Y-6723508D01*
X2572563Y-6723508D02*
X2582086Y-6733031D01*
X2582086Y-6733031D02*
X2591610Y-6723508D01*
X2591610Y-6723508D02*
X2582086Y-6713984D01*
X2582086Y-6713984D02*
X2582086Y-6733031D01*
X2705896Y-6913984D02*
X2686848Y-6904460D01*
X2686848Y-6904460D02*
X2677324Y-6885412D01*
X2677324Y-6885412D02*
X2677324Y-6713984D01*
X2810658Y-6913984D02*
X2791610Y-6904460D01*
X2791610Y-6904460D02*
X2782086Y-6885412D01*
X2782086Y-6885412D02*
X2782086Y-6713984D01*
X3039229Y-6913984D02*
X3039229Y-6713984D01*
X3039229Y-6713984D02*
X3105896Y-6856841D01*
X3105896Y-6856841D02*
X3172562Y-6713984D01*
X3172562Y-6713984D02*
X3172562Y-6913984D01*
X3353515Y-6913984D02*
X3353515Y-6809222D01*
X3353515Y-6809222D02*
X3343991Y-6790174D01*
X3343991Y-6790174D02*
X3324943Y-6780650D01*
X3324943Y-6780650D02*
X3286848Y-6780650D01*
X3286848Y-6780650D02*
X3267801Y-6790174D01*
X3353515Y-6904460D02*
X3334467Y-6913984D01*
X3334467Y-6913984D02*
X3286848Y-6913984D01*
X3286848Y-6913984D02*
X3267801Y-6904460D01*
X3267801Y-6904460D02*
X3258277Y-6885412D01*
X3258277Y-6885412D02*
X3258277Y-6866365D01*
X3258277Y-6866365D02*
X3267801Y-6847317D01*
X3267801Y-6847317D02*
X3286848Y-6837793D01*
X3286848Y-6837793D02*
X3334467Y-6837793D01*
X3334467Y-6837793D02*
X3353515Y-6828269D01*
X3448753Y-6780650D02*
X3448753Y-6980650D01*
X3448753Y-6790174D02*
X3467801Y-6780650D01*
X3467801Y-6780650D02*
X3505896Y-6780650D01*
X3505896Y-6780650D02*
X3524943Y-6790174D01*
X3524943Y-6790174D02*
X3534467Y-6799698D01*
X3534467Y-6799698D02*
X3543991Y-6818746D01*
X3543991Y-6818746D02*
X3543991Y-6875888D01*
X3543991Y-6875888D02*
X3534467Y-6894936D01*
X3534467Y-6894936D02*
X3524943Y-6904460D01*
X3524943Y-6904460D02*
X3505896Y-6913984D01*
X3505896Y-6913984D02*
X3467801Y-6913984D01*
X3467801Y-6913984D02*
X3448753Y-6904460D01*
X3629705Y-6894936D02*
X3639229Y-6904460D01*
X3639229Y-6904460D02*
X3629705Y-6913984D01*
X3629705Y-6913984D02*
X3620182Y-6904460D01*
X3620182Y-6904460D02*
X3629705Y-6894936D01*
X3629705Y-6894936D02*
X3629705Y-6913984D01*
X3629705Y-6790174D02*
X3639229Y-6799698D01*
X3639229Y-6799698D02*
X3629705Y-6809222D01*
X3629705Y-6809222D02*
X3620182Y-6799698D01*
X3620182Y-6799698D02*
X3629705Y-6790174D01*
X3629705Y-6790174D02*
X3629705Y-6809222D01*
D12*
X1932500Y-7210000D02*
X1997500Y-7275000D01*
X1997500Y-7210000D02*
X1932500Y-7275000D01*
D11*
X2296372Y-7133984D02*
X2315420Y-7133984D01*
X2315420Y-7133984D02*
X2334467Y-7143508D01*
X2334467Y-7143508D02*
X2343991Y-7153031D01*
X2343991Y-7153031D02*
X2353515Y-7172079D01*
X2353515Y-7172079D02*
X2363039Y-7210174D01*
X2363039Y-7210174D02*
X2363039Y-7257793D01*
X2363039Y-7257793D02*
X2353515Y-7295888D01*
X2353515Y-7295888D02*
X2343991Y-7314936D01*
X2343991Y-7314936D02*
X2334467Y-7324460D01*
X2334467Y-7324460D02*
X2315420Y-7333984D01*
X2315420Y-7333984D02*
X2296372Y-7333984D01*
X2296372Y-7333984D02*
X2277324Y-7324460D01*
X2277324Y-7324460D02*
X2267801Y-7314936D01*
X2267801Y-7314936D02*
X2258277Y-7295888D01*
X2258277Y-7295888D02*
X2248753Y-7257793D01*
X2248753Y-7257793D02*
X2248753Y-7210174D01*
X2248753Y-7210174D02*
X2258277Y-7172079D01*
X2258277Y-7172079D02*
X2267801Y-7153031D01*
X2267801Y-7153031D02*
X2277324Y-7143508D01*
X2277324Y-7143508D02*
X2296372Y-7133984D01*
X2448753Y-7314936D02*
X2458277Y-7324460D01*
X2458277Y-7324460D02*
X2448753Y-7333984D01*
X2448753Y-7333984D02*
X2439229Y-7324460D01*
X2439229Y-7324460D02*
X2448753Y-7314936D01*
X2448753Y-7314936D02*
X2448753Y-7333984D01*
X2629705Y-7133984D02*
X2591610Y-7133984D01*
X2591610Y-7133984D02*
X2572563Y-7143508D01*
X2572563Y-7143508D02*
X2563039Y-7153031D01*
X2563039Y-7153031D02*
X2543991Y-7181603D01*
X2543991Y-7181603D02*
X2534467Y-7219698D01*
X2534467Y-7219698D02*
X2534467Y-7295888D01*
X2534467Y-7295888D02*
X2543991Y-7314936D01*
X2543991Y-7314936D02*
X2553515Y-7324460D01*
X2553515Y-7324460D02*
X2572563Y-7333984D01*
X2572563Y-7333984D02*
X2610658Y-7333984D01*
X2610658Y-7333984D02*
X2629705Y-7324460D01*
X2629705Y-7324460D02*
X2639229Y-7314936D01*
X2639229Y-7314936D02*
X2648753Y-7295888D01*
X2648753Y-7295888D02*
X2648753Y-7248269D01*
X2648753Y-7248269D02*
X2639229Y-7229222D01*
X2639229Y-7229222D02*
X2629705Y-7219698D01*
X2629705Y-7219698D02*
X2610658Y-7210174D01*
X2610658Y-7210174D02*
X2572563Y-7210174D01*
X2572563Y-7210174D02*
X2553515Y-7219698D01*
X2553515Y-7219698D02*
X2543991Y-7229222D01*
X2543991Y-7229222D02*
X2534467Y-7248269D01*
X2829705Y-7133984D02*
X2734467Y-7133984D01*
X2734467Y-7133984D02*
X2724944Y-7229222D01*
X2724944Y-7229222D02*
X2734467Y-7219698D01*
X2734467Y-7219698D02*
X2753515Y-7210174D01*
X2753515Y-7210174D02*
X2801134Y-7210174D01*
X2801134Y-7210174D02*
X2820182Y-7219698D01*
X2820182Y-7219698D02*
X2829705Y-7229222D01*
X2829705Y-7229222D02*
X2839229Y-7248269D01*
X2839229Y-7248269D02*
X2839229Y-7295888D01*
X2839229Y-7295888D02*
X2829705Y-7314936D01*
X2829705Y-7314936D02*
X2820182Y-7324460D01*
X2820182Y-7324460D02*
X2801134Y-7333984D01*
X2801134Y-7333984D02*
X2753515Y-7333984D01*
X2753515Y-7333984D02*
X2734467Y-7324460D01*
X2734467Y-7324460D02*
X2724944Y-7314936D01*
X2963039Y-7133984D02*
X2982086Y-7133984D01*
X2982086Y-7133984D02*
X3001134Y-7143508D01*
X3001134Y-7143508D02*
X3010658Y-7153031D01*
X3010658Y-7153031D02*
X3020182Y-7172079D01*
X3020182Y-7172079D02*
X3029705Y-7210174D01*
X3029705Y-7210174D02*
X3029705Y-7257793D01*
X3029705Y-7257793D02*
X3020182Y-7295888D01*
X3020182Y-7295888D02*
X3010658Y-7314936D01*
X3010658Y-7314936D02*
X3001134Y-7324460D01*
X3001134Y-7324460D02*
X2982086Y-7333984D01*
X2982086Y-7333984D02*
X2963039Y-7333984D01*
X2963039Y-7333984D02*
X2943991Y-7324460D01*
X2943991Y-7324460D02*
X2934467Y-7314936D01*
X2934467Y-7314936D02*
X2924943Y-7295888D01*
X2924943Y-7295888D02*
X2915420Y-7257793D01*
X2915420Y-7257793D02*
X2915420Y-7210174D01*
X2915420Y-7210174D02*
X2924943Y-7172079D01*
X2924943Y-7172079D02*
X2934467Y-7153031D01*
X2934467Y-7153031D02*
X2943991Y-7143508D01*
X2943991Y-7143508D02*
X2963039Y-7133984D01*
X3115420Y-7333984D02*
X3115420Y-7200650D01*
X3115420Y-7219698D02*
X3124943Y-7210174D01*
X3124943Y-7210174D02*
X3143991Y-7200650D01*
X3143991Y-7200650D02*
X3172563Y-7200650D01*
X3172563Y-7200650D02*
X3191610Y-7210174D01*
X3191610Y-7210174D02*
X3201134Y-7229222D01*
X3201134Y-7229222D02*
X3201134Y-7333984D01*
X3201134Y-7229222D02*
X3210658Y-7210174D01*
X3210658Y-7210174D02*
X3229705Y-7200650D01*
X3229705Y-7200650D02*
X3258277Y-7200650D01*
X3258277Y-7200650D02*
X3277324Y-7210174D01*
X3277324Y-7210174D02*
X3286848Y-7229222D01*
X3286848Y-7229222D02*
X3286848Y-7333984D01*
X3382086Y-7333984D02*
X3382086Y-7200650D01*
X3382086Y-7219698D02*
X3391610Y-7210174D01*
X3391610Y-7210174D02*
X3410658Y-7200650D01*
X3410658Y-7200650D02*
X3439229Y-7200650D01*
X3439229Y-7200650D02*
X3458277Y-7210174D01*
X3458277Y-7210174D02*
X3467801Y-7229222D01*
X3467801Y-7229222D02*
X3467801Y-7333984D01*
X3467801Y-7229222D02*
X3477324Y-7210174D01*
X3477324Y-7210174D02*
X3496372Y-7200650D01*
X3496372Y-7200650D02*
X3524943Y-7200650D01*
X3524943Y-7200650D02*
X3543991Y-7210174D01*
X3543991Y-7210174D02*
X3553515Y-7229222D01*
X3553515Y-7229222D02*
X3553515Y-7333984D01*
X3943991Y-7124460D02*
X3772563Y-7381603D01*
X4201134Y-7133984D02*
X4220182Y-7133984D01*
X4220182Y-7133984D02*
X4239229Y-7143508D01*
X4239229Y-7143508D02*
X4248753Y-7153031D01*
X4248753Y-7153031D02*
X4258277Y-7172079D01*
X4258277Y-7172079D02*
X4267801Y-7210174D01*
X4267801Y-7210174D02*
X4267801Y-7257793D01*
X4267801Y-7257793D02*
X4258277Y-7295888D01*
X4258277Y-7295888D02*
X4248753Y-7314936D01*
X4248753Y-7314936D02*
X4239229Y-7324460D01*
X4239229Y-7324460D02*
X4220182Y-7333984D01*
X4220182Y-7333984D02*
X4201134Y-7333984D01*
X4201134Y-7333984D02*
X4182086Y-7324460D01*
X4182086Y-7324460D02*
X4172563Y-7314936D01*
X4172563Y-7314936D02*
X4163039Y-7295888D01*
X4163039Y-7295888D02*
X4153515Y-7257793D01*
X4153515Y-7257793D02*
X4153515Y-7210174D01*
X4153515Y-7210174D02*
X4163039Y-7172079D01*
X4163039Y-7172079D02*
X4172563Y-7153031D01*
X4172563Y-7153031D02*
X4182086Y-7143508D01*
X4182086Y-7143508D02*
X4201134Y-7133984D01*
X4353515Y-7314936D02*
X4363039Y-7324460D01*
X4363039Y-7324460D02*
X4353515Y-7333984D01*
X4353515Y-7333984D02*
X4343991Y-7324460D01*
X4343991Y-7324460D02*
X4353515Y-7314936D01*
X4353515Y-7314936D02*
X4353515Y-7333984D01*
X4486848Y-7133984D02*
X4505896Y-7133984D01*
X4505896Y-7133984D02*
X4524944Y-7143508D01*
X4524944Y-7143508D02*
X4534468Y-7153031D01*
X4534468Y-7153031D02*
X4543991Y-7172079D01*
X4543991Y-7172079D02*
X4553515Y-7210174D01*
X4553515Y-7210174D02*
X4553515Y-7257793D01*
X4553515Y-7257793D02*
X4543991Y-7295888D01*
X4543991Y-7295888D02*
X4534468Y-7314936D01*
X4534468Y-7314936D02*
X4524944Y-7324460D01*
X4524944Y-7324460D02*
X4505896Y-7333984D01*
X4505896Y-7333984D02*
X4486848Y-7333984D01*
X4486848Y-7333984D02*
X4467801Y-7324460D01*
X4467801Y-7324460D02*
X4458277Y-7314936D01*
X4458277Y-7314936D02*
X4448753Y-7295888D01*
X4448753Y-7295888D02*
X4439229Y-7257793D01*
X4439229Y-7257793D02*
X4439229Y-7210174D01*
X4439229Y-7210174D02*
X4448753Y-7172079D01*
X4448753Y-7172079D02*
X4458277Y-7153031D01*
X4458277Y-7153031D02*
X4467801Y-7143508D01*
X4467801Y-7143508D02*
X4486848Y-7133984D01*
X4629706Y-7153031D02*
X4639229Y-7143508D01*
X4639229Y-7143508D02*
X4658277Y-7133984D01*
X4658277Y-7133984D02*
X4705896Y-7133984D01*
X4705896Y-7133984D02*
X4724944Y-7143508D01*
X4724944Y-7143508D02*
X4734468Y-7153031D01*
X4734468Y-7153031D02*
X4743991Y-7172079D01*
X4743991Y-7172079D02*
X4743991Y-7191127D01*
X4743991Y-7191127D02*
X4734468Y-7219698D01*
X4734468Y-7219698D02*
X4620182Y-7333984D01*
X4620182Y-7333984D02*
X4743991Y-7333984D01*
X4924944Y-7133984D02*
X4829706Y-7133984D01*
X4829706Y-7133984D02*
X4820182Y-7229222D01*
X4820182Y-7229222D02*
X4829706Y-7219698D01*
X4829706Y-7219698D02*
X4848753Y-7210174D01*
X4848753Y-7210174D02*
X4896372Y-7210174D01*
X4896372Y-7210174D02*
X4915420Y-7219698D01*
X4915420Y-7219698D02*
X4924944Y-7229222D01*
X4924944Y-7229222D02*
X4934468Y-7248269D01*
X4934468Y-7248269D02*
X4934468Y-7295888D01*
X4934468Y-7295888D02*
X4924944Y-7314936D01*
X4924944Y-7314936D02*
X4915420Y-7324460D01*
X4915420Y-7324460D02*
X4896372Y-7333984D01*
X4896372Y-7333984D02*
X4848753Y-7333984D01*
X4848753Y-7333984D02*
X4829706Y-7324460D01*
X4829706Y-7324460D02*
X4820182Y-7314936D01*
X5105896Y-7133984D02*
X5067801Y-7133984D01*
X5067801Y-7133984D02*
X5048753Y-7143508D01*
X5048753Y-7143508D02*
X5039229Y-7153031D01*
X5039229Y-7153031D02*
X5020182Y-7181603D01*
X5020182Y-7181603D02*
X5010658Y-7219698D01*
X5010658Y-7219698D02*
X5010658Y-7295888D01*
X5010658Y-7295888D02*
X5020182Y-7314936D01*
X5020182Y-7314936D02*
X5029706Y-7324460D01*
X5029706Y-7324460D02*
X5048753Y-7333984D01*
X5048753Y-7333984D02*
X5086849Y-7333984D01*
X5086849Y-7333984D02*
X5105896Y-7324460D01*
X5105896Y-7324460D02*
X5115420Y-7314936D01*
X5115420Y-7314936D02*
X5124944Y-7295888D01*
X5124944Y-7295888D02*
X5124944Y-7248269D01*
X5124944Y-7248269D02*
X5115420Y-7229222D01*
X5115420Y-7229222D02*
X5105896Y-7219698D01*
X5105896Y-7219698D02*
X5086849Y-7210174D01*
X5086849Y-7210174D02*
X5048753Y-7210174D01*
X5048753Y-7210174D02*
X5029706Y-7219698D01*
X5029706Y-7219698D02*
X5020182Y-7229222D01*
X5020182Y-7229222D02*
X5010658Y-7248269D01*
X5201134Y-7133984D02*
X5201134Y-7172079D01*
X5277325Y-7133984D02*
X5277325Y-7172079D01*
X5572563Y-7410174D02*
X5563039Y-7400650D01*
X5563039Y-7400650D02*
X5543991Y-7372079D01*
X5543991Y-7372079D02*
X5534468Y-7353031D01*
X5534468Y-7353031D02*
X5524944Y-7324460D01*
X5524944Y-7324460D02*
X5515420Y-7276841D01*
X5515420Y-7276841D02*
X5515420Y-7238746D01*
X5515420Y-7238746D02*
X5524944Y-7191127D01*
X5524944Y-7191127D02*
X5534468Y-7162555D01*
X5534468Y-7162555D02*
X5543991Y-7143508D01*
X5543991Y-7143508D02*
X5563039Y-7114936D01*
X5563039Y-7114936D02*
X5572563Y-7105412D01*
X5639229Y-7153031D02*
X5648753Y-7143508D01*
X5648753Y-7143508D02*
X5667801Y-7133984D01*
X5667801Y-7133984D02*
X5715420Y-7133984D01*
X5715420Y-7133984D02*
X5734468Y-7143508D01*
X5734468Y-7143508D02*
X5743991Y-7153031D01*
X5743991Y-7153031D02*
X5753515Y-7172079D01*
X5753515Y-7172079D02*
X5753515Y-7191127D01*
X5753515Y-7191127D02*
X5743991Y-7219698D01*
X5743991Y-7219698D02*
X5629706Y-7333984D01*
X5629706Y-7333984D02*
X5753515Y-7333984D01*
X5991610Y-7333984D02*
X5991610Y-7133984D01*
X6077325Y-7333984D02*
X6077325Y-7229222D01*
X6077325Y-7229222D02*
X6067801Y-7210174D01*
X6067801Y-7210174D02*
X6048753Y-7200650D01*
X6048753Y-7200650D02*
X6020182Y-7200650D01*
X6020182Y-7200650D02*
X6001134Y-7210174D01*
X6001134Y-7210174D02*
X5991610Y-7219698D01*
X6201134Y-7333984D02*
X6182087Y-7324460D01*
X6182087Y-7324460D02*
X6172563Y-7314936D01*
X6172563Y-7314936D02*
X6163039Y-7295888D01*
X6163039Y-7295888D02*
X6163039Y-7238746D01*
X6163039Y-7238746D02*
X6172563Y-7219698D01*
X6172563Y-7219698D02*
X6182087Y-7210174D01*
X6182087Y-7210174D02*
X6201134Y-7200650D01*
X6201134Y-7200650D02*
X6229706Y-7200650D01*
X6229706Y-7200650D02*
X6248753Y-7210174D01*
X6248753Y-7210174D02*
X6258277Y-7219698D01*
X6258277Y-7219698D02*
X6267801Y-7238746D01*
X6267801Y-7238746D02*
X6267801Y-7295888D01*
X6267801Y-7295888D02*
X6258277Y-7314936D01*
X6258277Y-7314936D02*
X6248753Y-7324460D01*
X6248753Y-7324460D02*
X6229706Y-7333984D01*
X6229706Y-7333984D02*
X6201134Y-7333984D01*
X6382087Y-7333984D02*
X6363039Y-7324460D01*
X6363039Y-7324460D02*
X6353515Y-7305412D01*
X6353515Y-7305412D02*
X6353515Y-7133984D01*
X6534468Y-7324460D02*
X6515420Y-7333984D01*
X6515420Y-7333984D02*
X6477325Y-7333984D01*
X6477325Y-7333984D02*
X6458277Y-7324460D01*
X6458277Y-7324460D02*
X6448753Y-7305412D01*
X6448753Y-7305412D02*
X6448753Y-7229222D01*
X6448753Y-7229222D02*
X6458277Y-7210174D01*
X6458277Y-7210174D02*
X6477325Y-7200650D01*
X6477325Y-7200650D02*
X6515420Y-7200650D01*
X6515420Y-7200650D02*
X6534468Y-7210174D01*
X6534468Y-7210174D02*
X6543991Y-7229222D01*
X6543991Y-7229222D02*
X6543991Y-7248269D01*
X6543991Y-7248269D02*
X6448753Y-7267317D01*
X6620182Y-7324460D02*
X6639230Y-7333984D01*
X6639230Y-7333984D02*
X6677325Y-7333984D01*
X6677325Y-7333984D02*
X6696372Y-7324460D01*
X6696372Y-7324460D02*
X6705896Y-7305412D01*
X6705896Y-7305412D02*
X6705896Y-7295888D01*
X6705896Y-7295888D02*
X6696372Y-7276841D01*
X6696372Y-7276841D02*
X6677325Y-7267317D01*
X6677325Y-7267317D02*
X6648753Y-7267317D01*
X6648753Y-7267317D02*
X6629706Y-7257793D01*
X6629706Y-7257793D02*
X6620182Y-7238746D01*
X6620182Y-7238746D02*
X6620182Y-7229222D01*
X6620182Y-7229222D02*
X6629706Y-7210174D01*
X6629706Y-7210174D02*
X6648753Y-7200650D01*
X6648753Y-7200650D02*
X6677325Y-7200650D01*
X6677325Y-7200650D02*
X6696372Y-7210174D01*
X6772563Y-7410174D02*
X6782087Y-7400650D01*
X6782087Y-7400650D02*
X6801134Y-7372079D01*
X6801134Y-7372079D02*
X6810658Y-7353031D01*
X6810658Y-7353031D02*
X6820182Y-7324460D01*
X6820182Y-7324460D02*
X6829706Y-7276841D01*
X6829706Y-7276841D02*
X6829706Y-7238746D01*
X6829706Y-7238746D02*
X6820182Y-7191127D01*
X6820182Y-7191127D02*
X6810658Y-7162555D01*
X6810658Y-7162555D02*
X6801134Y-7143508D01*
X6801134Y-7143508D02*
X6782087Y-7114936D01*
X6782087Y-7114936D02*
X6772563Y-7105412D01*
X7134468Y-7410174D02*
X7124944Y-7400650D01*
X7124944Y-7400650D02*
X7105896Y-7372079D01*
X7105896Y-7372079D02*
X7096372Y-7353031D01*
X7096372Y-7353031D02*
X7086849Y-7324460D01*
X7086849Y-7324460D02*
X7077325Y-7276841D01*
X7077325Y-7276841D02*
X7077325Y-7238746D01*
X7077325Y-7238746D02*
X7086849Y-7191127D01*
X7086849Y-7191127D02*
X7096372Y-7162555D01*
X7096372Y-7162555D02*
X7105896Y-7143508D01*
X7105896Y-7143508D02*
X7124944Y-7114936D01*
X7124944Y-7114936D02*
X7134468Y-7105412D01*
X7210658Y-7200650D02*
X7210658Y-7333984D01*
X7210658Y-7219698D02*
X7220182Y-7210174D01*
X7220182Y-7210174D02*
X7239230Y-7200650D01*
X7239230Y-7200650D02*
X7267801Y-7200650D01*
X7267801Y-7200650D02*
X7286849Y-7210174D01*
X7286849Y-7210174D02*
X7296372Y-7229222D01*
X7296372Y-7229222D02*
X7296372Y-7333984D01*
X7420182Y-7333984D02*
X7401134Y-7324460D01*
X7401134Y-7324460D02*
X7391611Y-7314936D01*
X7391611Y-7314936D02*
X7382087Y-7295888D01*
X7382087Y-7295888D02*
X7382087Y-7238746D01*
X7382087Y-7238746D02*
X7391611Y-7219698D01*
X7391611Y-7219698D02*
X7401134Y-7210174D01*
X7401134Y-7210174D02*
X7420182Y-7200650D01*
X7420182Y-7200650D02*
X7448753Y-7200650D01*
X7448753Y-7200650D02*
X7467801Y-7210174D01*
X7467801Y-7210174D02*
X7477325Y-7219698D01*
X7477325Y-7219698D02*
X7486849Y-7238746D01*
X7486849Y-7238746D02*
X7486849Y-7295888D01*
X7486849Y-7295888D02*
X7477325Y-7314936D01*
X7477325Y-7314936D02*
X7467801Y-7324460D01*
X7467801Y-7324460D02*
X7448753Y-7333984D01*
X7448753Y-7333984D02*
X7420182Y-7333984D01*
X7543992Y-7200650D02*
X7620182Y-7200650D01*
X7572563Y-7133984D02*
X7572563Y-7305412D01*
X7572563Y-7305412D02*
X7582087Y-7324460D01*
X7582087Y-7324460D02*
X7601134Y-7333984D01*
X7601134Y-7333984D02*
X7620182Y-7333984D01*
X7839230Y-7200650D02*
X7839230Y-7400650D01*
X7839230Y-7210174D02*
X7858277Y-7200650D01*
X7858277Y-7200650D02*
X7896373Y-7200650D01*
X7896373Y-7200650D02*
X7915420Y-7210174D01*
X7915420Y-7210174D02*
X7924944Y-7219698D01*
X7924944Y-7219698D02*
X7934468Y-7238746D01*
X7934468Y-7238746D02*
X7934468Y-7295888D01*
X7934468Y-7295888D02*
X7924944Y-7314936D01*
X7924944Y-7314936D02*
X7915420Y-7324460D01*
X7915420Y-7324460D02*
X7896373Y-7333984D01*
X7896373Y-7333984D02*
X7858277Y-7333984D01*
X7858277Y-7333984D02*
X7839230Y-7324460D01*
X8048753Y-7333984D02*
X8029706Y-7324460D01*
X8029706Y-7324460D02*
X8020182Y-7305412D01*
X8020182Y-7305412D02*
X8020182Y-7133984D01*
X8210658Y-7333984D02*
X8210658Y-7229222D01*
X8210658Y-7229222D02*
X8201134Y-7210174D01*
X8201134Y-7210174D02*
X8182087Y-7200650D01*
X8182087Y-7200650D02*
X8143992Y-7200650D01*
X8143992Y-7200650D02*
X8124944Y-7210174D01*
X8210658Y-7324460D02*
X8191611Y-7333984D01*
X8191611Y-7333984D02*
X8143992Y-7333984D01*
X8143992Y-7333984D02*
X8124944Y-7324460D01*
X8124944Y-7324460D02*
X8115420Y-7305412D01*
X8115420Y-7305412D02*
X8115420Y-7286365D01*
X8115420Y-7286365D02*
X8124944Y-7267317D01*
X8124944Y-7267317D02*
X8143992Y-7257793D01*
X8143992Y-7257793D02*
X8191611Y-7257793D01*
X8191611Y-7257793D02*
X8210658Y-7248269D01*
X8277325Y-7200650D02*
X8353515Y-7200650D01*
X8305896Y-7133984D02*
X8305896Y-7305412D01*
X8305896Y-7305412D02*
X8315420Y-7324460D01*
X8315420Y-7324460D02*
X8334468Y-7333984D01*
X8334468Y-7333984D02*
X8353515Y-7333984D01*
X8496373Y-7324460D02*
X8477325Y-7333984D01*
X8477325Y-7333984D02*
X8439230Y-7333984D01*
X8439230Y-7333984D02*
X8420182Y-7324460D01*
X8420182Y-7324460D02*
X8410658Y-7305412D01*
X8410658Y-7305412D02*
X8410658Y-7229222D01*
X8410658Y-7229222D02*
X8420182Y-7210174D01*
X8420182Y-7210174D02*
X8439230Y-7200650D01*
X8439230Y-7200650D02*
X8477325Y-7200650D01*
X8477325Y-7200650D02*
X8496373Y-7210174D01*
X8496373Y-7210174D02*
X8505896Y-7229222D01*
X8505896Y-7229222D02*
X8505896Y-7248269D01*
X8505896Y-7248269D02*
X8410658Y-7267317D01*
X8677325Y-7333984D02*
X8677325Y-7133984D01*
X8677325Y-7324460D02*
X8658277Y-7333984D01*
X8658277Y-7333984D02*
X8620182Y-7333984D01*
X8620182Y-7333984D02*
X8601135Y-7324460D01*
X8601135Y-7324460D02*
X8591611Y-7314936D01*
X8591611Y-7314936D02*
X8582087Y-7295888D01*
X8582087Y-7295888D02*
X8582087Y-7238746D01*
X8582087Y-7238746D02*
X8591611Y-7219698D01*
X8591611Y-7219698D02*
X8601135Y-7210174D01*
X8601135Y-7210174D02*
X8620182Y-7200650D01*
X8620182Y-7200650D02*
X8658277Y-7200650D01*
X8658277Y-7200650D02*
X8677325Y-7210174D01*
X8753516Y-7410174D02*
X8763039Y-7400650D01*
X8763039Y-7400650D02*
X8782087Y-7372079D01*
X8782087Y-7372079D02*
X8791611Y-7353031D01*
X8791611Y-7353031D02*
X8801135Y-7324460D01*
X8801135Y-7324460D02*
X8810658Y-7276841D01*
X8810658Y-7276841D02*
X8810658Y-7238746D01*
X8810658Y-7238746D02*
X8801135Y-7191127D01*
X8801135Y-7191127D02*
X8791611Y-7162555D01*
X8791611Y-7162555D02*
X8782087Y-7143508D01*
X8782087Y-7143508D02*
X8763039Y-7114936D01*
X8763039Y-7114936D02*
X8753516Y-7105412D01*
M02*
