M48
; DRILL file {KiCad 9.0.7-247-ge1e00acccb} date 2026-05-12T01:45:48+0200
; FORMAT={-:-/ absolute / metric / decimal}
; #@! TF.CreationDate,2026-05-12T01:45:48+02:00
; #@! TF.GenerationSoftware,Kicad,Pcbnew,9.0.7-247-ge1e00acccb
; #@! TF.FileFunction,Plated,1,2,PTH
FMAT,2
METRIC
; #@! TA.AperFunction,Plated,PTH,ViaDrill
T1C0.300
; #@! TA.AperFunction,Plated,PTH,ViaDrill
T2C0.500
; #@! TA.AperFunction,Plated,PTH,ViaDrill
T3C0.600
; #@! TA.AperFunction,Plated,PTH,ComponentDrill
T4C0.600
; #@! TA.AperFunction,Plated,PTH,ComponentDrill
T5C0.800
; #@! TA.AperFunction,Plated,PTH,ComponentDrill
T6C0.950
; #@! TA.AperFunction,Plated,PTH,ComponentDrill
T7C1.000
; #@! TA.AperFunction,Plated,PTH,ComponentDrill
T8C1.300
; #@! TA.AperFunction,Plated,PTH,ComponentDrill
T9C3.200
%
G90
G05
T1
X56.49Y-41.681
X62.154Y-44.475
X65.761Y-53.594
X66.091Y-46.05
X67.767Y-56.794
X68.783Y-46.38
X70.714Y-51.181
X72.136Y-45.517
X72.822Y-50.114
X72.898Y-44.475
X74.219Y-48.184
X74.295Y-46.228
X76.987Y-45.796
X78.054Y-47.904
X78.308Y-45.974
X79.197Y-50.788
X80.34Y-49.682
X80.366Y-56.515
X80.494Y-45.236
X81.015Y-57.15
X81.458Y-50.825
X82.855Y-43.967
X83.083Y-47.803
X83.744Y-56.617
X84.404Y-47.828
X84.455Y-55.651
X84.709Y-52.756
X84.836Y-50.546
X85.522Y-47.803
X85.522Y-49.352
X86.385Y-42.6
X87.046Y-44.933
X87.122Y-53.924
X87.554Y-47.777
X88.976Y-47.349
X89.027Y-49.073
X89.662Y-41.25
X89.992Y-33.96
X90.272Y-47.828
X90.609Y-41.891
X91.923Y-42.164
X92.075Y-44.171
X93.421Y-33.96
X96.291Y-32.995
X97.028Y-47.473
X174.0Y27.0
T2
X23.038Y-34.188
X25.095Y-45.644
X25.121Y-50.114
X26.568Y-55.55
X32.106Y-58.979
X32.182Y-24.054
X37.465Y-39.319
X37.465Y-44.348
X37.516Y-32.029
X37.516Y-34.138
X37.516Y-36.728
X37.516Y-41.681
X47.422Y-58.725
X52.197Y-38.557
X55.22Y-23.393
X57.023Y-38.583
X58.572Y-58.344
X59.03Y-26.695
X59.03Y-30.988
X62.535Y-23.292
X62.865Y-39.04
X67.335Y-39.04
X71.272Y-39.827
X76.454Y-41.783
X77.165Y-38.481
X78.836Y-38.831
X79.35Y-30.429
X79.35Y-42.723
X80.747Y-42.088
X81.458Y-37.821
X83.337Y-26.797
X86.309Y-39.726
X87.02Y-58.039
X88.062Y-63.779
X88.722Y-58.014
X89.51Y-37.109
X91.161Y-58.09
X93.269Y-51.613
X96.444Y-40.386
X100.0Y-51.613
X101.829Y-37.16
X104.648Y-44.856
X105.994Y-57.836
X106.985Y-47.65
X107.163Y-27.305
X110.211Y-33.071
X111.506Y-31.953
X111.591Y-38.421
X112.522Y-32.461
X112.649Y-38.913
X113.919Y-33.376
X114.122Y-27.102
X119.151Y-38.913
X125.324Y-59.69
X127.329Y-29.423
X129.515Y-23.698
X135.738Y-29.362
X145.872Y-32.512
X146.837Y-25.171
X147.472Y-44.882
T3
X75.286Y-53.975
X79.096Y-47.193
X83.21Y-44.907
X93.675Y-45.441
X96.291Y-46.101
X106.096Y-40.615
T5
X34.725Y-46.5
X42.345Y-46.5
T6
X38.225Y-25.5
X40.725Y-25.5
X43.225Y-25.5
X45.725Y-25.5
X48.225Y-25.5
X67.225Y-25.5
X69.725Y-25.5
X72.225Y-25.5
X74.725Y-25.5
X77.225Y-25.5
X89.225Y-31.0
X91.725Y-31.0
X94.225Y-31.0
X96.725Y-31.0
X99.225Y-31.0
X101.725Y-31.0
T7
X134.75Y-59.475
X137.25Y-59.475
T8
X31.725Y-33.0
X31.725Y-36.5
X42.342Y-33.048
X42.342Y-36.548
X53.725Y-31.75
X53.725Y-35.25
X65.225Y-31.75
X65.225Y-35.25
X130.725Y-45.5
X130.725Y-49.0
X140.725Y-45.75
X140.725Y-49.25
T9
X24.892Y-40.564
X24.892Y-59.461
X144.095Y-40.564
X144.095Y-59.461
T4
G00X135.305Y-23.121
M15
G01X135.305Y-22.322
M16
G05
G00X135.305Y-27.451
M15
G01X135.305Y-26.351
M16
G05
G00X143.945Y-23.121
M15
G01X143.945Y-22.322
M16
G05
G00X143.945Y-27.451
M15
G01X143.945Y-26.351
M16
G05
M30
