%TF.GenerationSoftware,KiCad,Pcbnew,9.0.7-247-ge1e00acccb*%
%TF.CreationDate,2026-05-12T01:43:47+02:00*%
%TF.ProjectId,version finale,76657273-696f-46e2-9066-696e616c652e,rev?*%
%TF.SameCoordinates,Original*%
%TF.FileFunction,Legend,Top*%
%TF.FilePolarity,Positive*%
%FSLAX46Y46*%
G04 Gerber Fmt 4.6, Leading zero omitted, Abs format (unit mm)*
G04 Created by KiCad (PCBNEW 9.0.7-247-ge1e00acccb) date 2026-05-12 01:43:47*
%MOMM*%
%LPD*%
G01*
G04 APERTURE LIST*
%ADD10C,0.100000*%
%ADD11C,0.150000*%
%ADD12C,0.254000*%
%ADD13C,0.000000*%
%ADD14C,0.120000*%
%ADD15C,0.200000*%
%ADD16C,0.127000*%
%ADD17C,0.406400*%
G04 APERTURE END LIST*
D10*
X81683926Y-75252619D02*
X81112498Y-75252619D01*
X81398212Y-75252619D02*
X81398212Y-74252619D01*
X81398212Y-74252619D02*
X81302974Y-74395476D01*
X81302974Y-74395476D02*
X81207736Y-74490714D01*
X81207736Y-74490714D02*
X81112498Y-74538333D01*
X82636307Y-75252619D02*
X82064879Y-75252619D01*
X82350593Y-75252619D02*
X82350593Y-74252619D01*
X82350593Y-74252619D02*
X82255355Y-74395476D01*
X82255355Y-74395476D02*
X82160117Y-74490714D01*
X82160117Y-74490714D02*
X82064879Y-74538333D01*
X83112498Y-75252619D02*
X83302974Y-75252619D01*
X83302974Y-75252619D02*
X83398212Y-75205000D01*
X83398212Y-75205000D02*
X83445831Y-75157380D01*
X83445831Y-75157380D02*
X83541069Y-75014523D01*
X83541069Y-75014523D02*
X83588688Y-74824047D01*
X83588688Y-74824047D02*
X83588688Y-74443095D01*
X83588688Y-74443095D02*
X83541069Y-74347857D01*
X83541069Y-74347857D02*
X83493450Y-74300238D01*
X83493450Y-74300238D02*
X83398212Y-74252619D01*
X83398212Y-74252619D02*
X83207736Y-74252619D01*
X83207736Y-74252619D02*
X83112498Y-74300238D01*
X83112498Y-74300238D02*
X83064879Y-74347857D01*
X83064879Y-74347857D02*
X83017260Y-74443095D01*
X83017260Y-74443095D02*
X83017260Y-74681190D01*
X83017260Y-74681190D02*
X83064879Y-74776428D01*
X83064879Y-74776428D02*
X83112498Y-74824047D01*
X83112498Y-74824047D02*
X83207736Y-74871666D01*
X83207736Y-74871666D02*
X83398212Y-74871666D01*
X83398212Y-74871666D02*
X83493450Y-74824047D01*
X83493450Y-74824047D02*
X83541069Y-74776428D01*
X83541069Y-74776428D02*
X83588688Y-74681190D01*
X84017260Y-75157380D02*
X84064879Y-75205000D01*
X84064879Y-75205000D02*
X84017260Y-75252619D01*
X84017260Y-75252619D02*
X83969641Y-75205000D01*
X83969641Y-75205000D02*
X84017260Y-75157380D01*
X84017260Y-75157380D02*
X84017260Y-75252619D01*
X84445831Y-74347857D02*
X84493450Y-74300238D01*
X84493450Y-74300238D02*
X84588688Y-74252619D01*
X84588688Y-74252619D02*
X84826783Y-74252619D01*
X84826783Y-74252619D02*
X84922021Y-74300238D01*
X84922021Y-74300238D02*
X84969640Y-74347857D01*
X84969640Y-74347857D02*
X85017259Y-74443095D01*
X85017259Y-74443095D02*
X85017259Y-74538333D01*
X85017259Y-74538333D02*
X84969640Y-74681190D01*
X84969640Y-74681190D02*
X84398212Y-75252619D01*
X84398212Y-75252619D02*
X85017259Y-75252619D01*
X85636307Y-74252619D02*
X85731545Y-74252619D01*
X85731545Y-74252619D02*
X85826783Y-74300238D01*
X85826783Y-74300238D02*
X85874402Y-74347857D01*
X85874402Y-74347857D02*
X85922021Y-74443095D01*
X85922021Y-74443095D02*
X85969640Y-74633571D01*
X85969640Y-74633571D02*
X85969640Y-74871666D01*
X85969640Y-74871666D02*
X85922021Y-75062142D01*
X85922021Y-75062142D02*
X85874402Y-75157380D01*
X85874402Y-75157380D02*
X85826783Y-75205000D01*
X85826783Y-75205000D02*
X85731545Y-75252619D01*
X85731545Y-75252619D02*
X85636307Y-75252619D01*
X85636307Y-75252619D02*
X85541069Y-75205000D01*
X85541069Y-75205000D02*
X85493450Y-75157380D01*
X85493450Y-75157380D02*
X85445831Y-75062142D01*
X85445831Y-75062142D02*
X85398212Y-74871666D01*
X85398212Y-74871666D02*
X85398212Y-74633571D01*
X85398212Y-74633571D02*
X85445831Y-74443095D01*
X85445831Y-74443095D02*
X85493450Y-74347857D01*
X85493450Y-74347857D02*
X85541069Y-74300238D01*
X85541069Y-74300238D02*
X85636307Y-74252619D01*
X86350593Y-74347857D02*
X86398212Y-74300238D01*
X86398212Y-74300238D02*
X86493450Y-74252619D01*
X86493450Y-74252619D02*
X86731545Y-74252619D01*
X86731545Y-74252619D02*
X86826783Y-74300238D01*
X86826783Y-74300238D02*
X86874402Y-74347857D01*
X86874402Y-74347857D02*
X86922021Y-74443095D01*
X86922021Y-74443095D02*
X86922021Y-74538333D01*
X86922021Y-74538333D02*
X86874402Y-74681190D01*
X86874402Y-74681190D02*
X86302974Y-75252619D01*
X86302974Y-75252619D02*
X86922021Y-75252619D01*
X87398212Y-75252619D02*
X87588688Y-75252619D01*
X87588688Y-75252619D02*
X87683926Y-75205000D01*
X87683926Y-75205000D02*
X87731545Y-75157380D01*
X87731545Y-75157380D02*
X87826783Y-75014523D01*
X87826783Y-75014523D02*
X87874402Y-74824047D01*
X87874402Y-74824047D02*
X87874402Y-74443095D01*
X87874402Y-74443095D02*
X87826783Y-74347857D01*
X87826783Y-74347857D02*
X87779164Y-74300238D01*
X87779164Y-74300238D02*
X87683926Y-74252619D01*
X87683926Y-74252619D02*
X87493450Y-74252619D01*
X87493450Y-74252619D02*
X87398212Y-74300238D01*
X87398212Y-74300238D02*
X87350593Y-74347857D01*
X87350593Y-74347857D02*
X87302974Y-74443095D01*
X87302974Y-74443095D02*
X87302974Y-74681190D01*
X87302974Y-74681190D02*
X87350593Y-74776428D01*
X87350593Y-74776428D02*
X87398212Y-74824047D01*
X87398212Y-74824047D02*
X87493450Y-74871666D01*
X87493450Y-74871666D02*
X87683926Y-74871666D01*
X87683926Y-74871666D02*
X87779164Y-74824047D01*
X87779164Y-74824047D02*
X87826783Y-74776428D01*
X87826783Y-74776428D02*
X87874402Y-74681190D01*
X24892000Y-59961400D02*
X24892000Y-76481620D01*
X144094900Y-76481620D02*
X144094900Y-59961400D01*
X24892000Y-75895200D02*
X144094900Y-75895200D01*
X24892000Y-75895200D02*
X26018504Y-75308779D01*
X24892000Y-75895200D02*
X26018504Y-76481621D01*
X144094900Y-75895200D02*
X142968396Y-76481621D01*
X144094900Y-75895200D02*
X142968396Y-75308779D01*
X187977819Y-52345933D02*
X187977819Y-52917361D01*
X187977819Y-52631647D02*
X186977819Y-52631647D01*
X186977819Y-52631647D02*
X187120676Y-52726885D01*
X187120676Y-52726885D02*
X187215914Y-52822123D01*
X187215914Y-52822123D02*
X187263533Y-52917361D01*
X187406390Y-51774504D02*
X187358771Y-51869742D01*
X187358771Y-51869742D02*
X187311152Y-51917361D01*
X187311152Y-51917361D02*
X187215914Y-51964980D01*
X187215914Y-51964980D02*
X187168295Y-51964980D01*
X187168295Y-51964980D02*
X187073057Y-51917361D01*
X187073057Y-51917361D02*
X187025438Y-51869742D01*
X187025438Y-51869742D02*
X186977819Y-51774504D01*
X186977819Y-51774504D02*
X186977819Y-51584028D01*
X186977819Y-51584028D02*
X187025438Y-51488790D01*
X187025438Y-51488790D02*
X187073057Y-51441171D01*
X187073057Y-51441171D02*
X187168295Y-51393552D01*
X187168295Y-51393552D02*
X187215914Y-51393552D01*
X187215914Y-51393552D02*
X187311152Y-51441171D01*
X187311152Y-51441171D02*
X187358771Y-51488790D01*
X187358771Y-51488790D02*
X187406390Y-51584028D01*
X187406390Y-51584028D02*
X187406390Y-51774504D01*
X187406390Y-51774504D02*
X187454009Y-51869742D01*
X187454009Y-51869742D02*
X187501628Y-51917361D01*
X187501628Y-51917361D02*
X187596866Y-51964980D01*
X187596866Y-51964980D02*
X187787342Y-51964980D01*
X187787342Y-51964980D02*
X187882580Y-51917361D01*
X187882580Y-51917361D02*
X187930200Y-51869742D01*
X187930200Y-51869742D02*
X187977819Y-51774504D01*
X187977819Y-51774504D02*
X187977819Y-51584028D01*
X187977819Y-51584028D02*
X187930200Y-51488790D01*
X187930200Y-51488790D02*
X187882580Y-51441171D01*
X187882580Y-51441171D02*
X187787342Y-51393552D01*
X187787342Y-51393552D02*
X187596866Y-51393552D01*
X187596866Y-51393552D02*
X187501628Y-51441171D01*
X187501628Y-51441171D02*
X187454009Y-51488790D01*
X187454009Y-51488790D02*
X187406390Y-51584028D01*
X187882580Y-50964980D02*
X187930200Y-50917361D01*
X187930200Y-50917361D02*
X187977819Y-50964980D01*
X187977819Y-50964980D02*
X187930200Y-51012599D01*
X187930200Y-51012599D02*
X187882580Y-50964980D01*
X187882580Y-50964980D02*
X187977819Y-50964980D01*
X187406390Y-50345933D02*
X187358771Y-50441171D01*
X187358771Y-50441171D02*
X187311152Y-50488790D01*
X187311152Y-50488790D02*
X187215914Y-50536409D01*
X187215914Y-50536409D02*
X187168295Y-50536409D01*
X187168295Y-50536409D02*
X187073057Y-50488790D01*
X187073057Y-50488790D02*
X187025438Y-50441171D01*
X187025438Y-50441171D02*
X186977819Y-50345933D01*
X186977819Y-50345933D02*
X186977819Y-50155457D01*
X186977819Y-50155457D02*
X187025438Y-50060219D01*
X187025438Y-50060219D02*
X187073057Y-50012600D01*
X187073057Y-50012600D02*
X187168295Y-49964981D01*
X187168295Y-49964981D02*
X187215914Y-49964981D01*
X187215914Y-49964981D02*
X187311152Y-50012600D01*
X187311152Y-50012600D02*
X187358771Y-50060219D01*
X187358771Y-50060219D02*
X187406390Y-50155457D01*
X187406390Y-50155457D02*
X187406390Y-50345933D01*
X187406390Y-50345933D02*
X187454009Y-50441171D01*
X187454009Y-50441171D02*
X187501628Y-50488790D01*
X187501628Y-50488790D02*
X187596866Y-50536409D01*
X187596866Y-50536409D02*
X187787342Y-50536409D01*
X187787342Y-50536409D02*
X187882580Y-50488790D01*
X187882580Y-50488790D02*
X187930200Y-50441171D01*
X187930200Y-50441171D02*
X187977819Y-50345933D01*
X187977819Y-50345933D02*
X187977819Y-50155457D01*
X187977819Y-50155457D02*
X187930200Y-50060219D01*
X187930200Y-50060219D02*
X187882580Y-50012600D01*
X187882580Y-50012600D02*
X187787342Y-49964981D01*
X187787342Y-49964981D02*
X187596866Y-49964981D01*
X187596866Y-49964981D02*
X187501628Y-50012600D01*
X187501628Y-50012600D02*
X187454009Y-50060219D01*
X187454009Y-50060219D02*
X187406390Y-50155457D01*
X187977819Y-49488790D02*
X187977819Y-49298314D01*
X187977819Y-49298314D02*
X187930200Y-49203076D01*
X187930200Y-49203076D02*
X187882580Y-49155457D01*
X187882580Y-49155457D02*
X187739723Y-49060219D01*
X187739723Y-49060219D02*
X187549247Y-49012600D01*
X187549247Y-49012600D02*
X187168295Y-49012600D01*
X187168295Y-49012600D02*
X187073057Y-49060219D01*
X187073057Y-49060219D02*
X187025438Y-49107838D01*
X187025438Y-49107838D02*
X186977819Y-49203076D01*
X186977819Y-49203076D02*
X186977819Y-49393552D01*
X186977819Y-49393552D02*
X187025438Y-49488790D01*
X187025438Y-49488790D02*
X187073057Y-49536409D01*
X187073057Y-49536409D02*
X187168295Y-49584028D01*
X187168295Y-49584028D02*
X187406390Y-49584028D01*
X187406390Y-49584028D02*
X187501628Y-49536409D01*
X187501628Y-49536409D02*
X187549247Y-49488790D01*
X187549247Y-49488790D02*
X187596866Y-49393552D01*
X187596866Y-49393552D02*
X187596866Y-49203076D01*
X187596866Y-49203076D02*
X187549247Y-49107838D01*
X187549247Y-49107838D02*
X187501628Y-49060219D01*
X187501628Y-49060219D02*
X187406390Y-49012600D01*
X186977819Y-48679266D02*
X186977819Y-48012600D01*
X186977819Y-48012600D02*
X187977819Y-48441171D01*
X186977819Y-47203076D02*
X186977819Y-47393552D01*
X186977819Y-47393552D02*
X187025438Y-47488790D01*
X187025438Y-47488790D02*
X187073057Y-47536409D01*
X187073057Y-47536409D02*
X187215914Y-47631647D01*
X187215914Y-47631647D02*
X187406390Y-47679266D01*
X187406390Y-47679266D02*
X187787342Y-47679266D01*
X187787342Y-47679266D02*
X187882580Y-47631647D01*
X187882580Y-47631647D02*
X187930200Y-47584028D01*
X187930200Y-47584028D02*
X187977819Y-47488790D01*
X187977819Y-47488790D02*
X187977819Y-47298314D01*
X187977819Y-47298314D02*
X187930200Y-47203076D01*
X187930200Y-47203076D02*
X187882580Y-47155457D01*
X187882580Y-47155457D02*
X187787342Y-47107838D01*
X187787342Y-47107838D02*
X187549247Y-47107838D01*
X187549247Y-47107838D02*
X187454009Y-47155457D01*
X187454009Y-47155457D02*
X187406390Y-47203076D01*
X187406390Y-47203076D02*
X187358771Y-47298314D01*
X187358771Y-47298314D02*
X187358771Y-47488790D01*
X187358771Y-47488790D02*
X187406390Y-47584028D01*
X187406390Y-47584028D02*
X187454009Y-47631647D01*
X187454009Y-47631647D02*
X187549247Y-47679266D01*
X144594900Y-40563800D02*
X189206820Y-40563800D01*
X189206820Y-59461400D02*
X144594900Y-59461400D01*
X188620400Y-40563800D02*
X188620400Y-59461400D01*
X188620400Y-40563800D02*
X189206821Y-41690304D01*
X188620400Y-40563800D02*
X188033979Y-41690304D01*
X188620400Y-59461400D02*
X188033979Y-58334896D01*
X188620400Y-59461400D02*
X189206821Y-58334896D01*
X44566493Y-63232838D02*
X44471255Y-63185219D01*
X44471255Y-63185219D02*
X44328398Y-63185219D01*
X44328398Y-63185219D02*
X44185541Y-63232838D01*
X44185541Y-63232838D02*
X44090303Y-63328076D01*
X44090303Y-63328076D02*
X44042684Y-63423314D01*
X44042684Y-63423314D02*
X43995065Y-63613790D01*
X43995065Y-63613790D02*
X43995065Y-63756647D01*
X43995065Y-63756647D02*
X44042684Y-63947123D01*
X44042684Y-63947123D02*
X44090303Y-64042361D01*
X44090303Y-64042361D02*
X44185541Y-64137600D01*
X44185541Y-64137600D02*
X44328398Y-64185219D01*
X44328398Y-64185219D02*
X44423636Y-64185219D01*
X44423636Y-64185219D02*
X44566493Y-64137600D01*
X44566493Y-64137600D02*
X44614112Y-64089980D01*
X44614112Y-64089980D02*
X44614112Y-63756647D01*
X44614112Y-63756647D02*
X44423636Y-63756647D01*
X45042684Y-64185219D02*
X45042684Y-63518552D01*
X45042684Y-63709028D02*
X45090303Y-63613790D01*
X45090303Y-63613790D02*
X45137922Y-63566171D01*
X45137922Y-63566171D02*
X45233160Y-63518552D01*
X45233160Y-63518552D02*
X45328398Y-63518552D01*
X45804589Y-64185219D02*
X45709351Y-64137600D01*
X45709351Y-64137600D02*
X45661732Y-64089980D01*
X45661732Y-64089980D02*
X45614113Y-63994742D01*
X45614113Y-63994742D02*
X45614113Y-63709028D01*
X45614113Y-63709028D02*
X45661732Y-63613790D01*
X45661732Y-63613790D02*
X45709351Y-63566171D01*
X45709351Y-63566171D02*
X45804589Y-63518552D01*
X45804589Y-63518552D02*
X45947446Y-63518552D01*
X45947446Y-63518552D02*
X46042684Y-63566171D01*
X46042684Y-63566171D02*
X46090303Y-63613790D01*
X46090303Y-63613790D02*
X46137922Y-63709028D01*
X46137922Y-63709028D02*
X46137922Y-63994742D01*
X46137922Y-63994742D02*
X46090303Y-64089980D01*
X46090303Y-64089980D02*
X46042684Y-64137600D01*
X46042684Y-64137600D02*
X45947446Y-64185219D01*
X45947446Y-64185219D02*
X45804589Y-64185219D01*
X46995065Y-63518552D02*
X46995065Y-64185219D01*
X46566494Y-63518552D02*
X46566494Y-64042361D01*
X46566494Y-64042361D02*
X46614113Y-64137600D01*
X46614113Y-64137600D02*
X46709351Y-64185219D01*
X46709351Y-64185219D02*
X46852208Y-64185219D01*
X46852208Y-64185219D02*
X46947446Y-64137600D01*
X46947446Y-64137600D02*
X46995065Y-64089980D01*
X47471256Y-63518552D02*
X47471256Y-64518552D01*
X47471256Y-63566171D02*
X47566494Y-63518552D01*
X47566494Y-63518552D02*
X47756970Y-63518552D01*
X47756970Y-63518552D02*
X47852208Y-63566171D01*
X47852208Y-63566171D02*
X47899827Y-63613790D01*
X47899827Y-63613790D02*
X47947446Y-63709028D01*
X47947446Y-63709028D02*
X47947446Y-63994742D01*
X47947446Y-63994742D02*
X47899827Y-64089980D01*
X47899827Y-64089980D02*
X47852208Y-64137600D01*
X47852208Y-64137600D02*
X47756970Y-64185219D01*
X47756970Y-64185219D02*
X47566494Y-64185219D01*
X47566494Y-64185219D02*
X47471256Y-64137600D01*
X48756970Y-64137600D02*
X48661732Y-64185219D01*
X48661732Y-64185219D02*
X48471256Y-64185219D01*
X48471256Y-64185219D02*
X48376018Y-64137600D01*
X48376018Y-64137600D02*
X48328399Y-64042361D01*
X48328399Y-64042361D02*
X48328399Y-63661409D01*
X48328399Y-63661409D02*
X48376018Y-63566171D01*
X48376018Y-63566171D02*
X48471256Y-63518552D01*
X48471256Y-63518552D02*
X48661732Y-63518552D01*
X48661732Y-63518552D02*
X48756970Y-63566171D01*
X48756970Y-63566171D02*
X48804589Y-63661409D01*
X48804589Y-63661409D02*
X48804589Y-63756647D01*
X48804589Y-63756647D02*
X48328399Y-63851885D01*
X49995066Y-64185219D02*
X49995066Y-63185219D01*
X49995066Y-63661409D02*
X50566494Y-63661409D01*
X50566494Y-64185219D02*
X50566494Y-63185219D01*
X51471256Y-64185219D02*
X51471256Y-63661409D01*
X51471256Y-63661409D02*
X51423637Y-63566171D01*
X51423637Y-63566171D02*
X51328399Y-63518552D01*
X51328399Y-63518552D02*
X51137923Y-63518552D01*
X51137923Y-63518552D02*
X51042685Y-63566171D01*
X51471256Y-64137600D02*
X51376018Y-64185219D01*
X51376018Y-64185219D02*
X51137923Y-64185219D01*
X51137923Y-64185219D02*
X51042685Y-64137600D01*
X51042685Y-64137600D02*
X50995066Y-64042361D01*
X50995066Y-64042361D02*
X50995066Y-63947123D01*
X50995066Y-63947123D02*
X51042685Y-63851885D01*
X51042685Y-63851885D02*
X51137923Y-63804266D01*
X51137923Y-63804266D02*
X51376018Y-63804266D01*
X51376018Y-63804266D02*
X51471256Y-63756647D01*
X51947447Y-64185219D02*
X51947447Y-63518552D01*
X51947447Y-63709028D02*
X51995066Y-63613790D01*
X51995066Y-63613790D02*
X52042685Y-63566171D01*
X52042685Y-63566171D02*
X52137923Y-63518552D01*
X52137923Y-63518552D02*
X52233161Y-63518552D01*
X52566495Y-63518552D02*
X52566495Y-64518552D01*
X52566495Y-63566171D02*
X52661733Y-63518552D01*
X52661733Y-63518552D02*
X52852209Y-63518552D01*
X52852209Y-63518552D02*
X52947447Y-63566171D01*
X52947447Y-63566171D02*
X52995066Y-63613790D01*
X52995066Y-63613790D02*
X53042685Y-63709028D01*
X53042685Y-63709028D02*
X53042685Y-63994742D01*
X53042685Y-63994742D02*
X52995066Y-64089980D01*
X52995066Y-64089980D02*
X52947447Y-64137600D01*
X52947447Y-64137600D02*
X52852209Y-64185219D01*
X52852209Y-64185219D02*
X52661733Y-64185219D01*
X52661733Y-64185219D02*
X52566495Y-64137600D01*
X53852209Y-64137600D02*
X53756971Y-64185219D01*
X53756971Y-64185219D02*
X53566495Y-64185219D01*
X53566495Y-64185219D02*
X53471257Y-64137600D01*
X53471257Y-64137600D02*
X53423638Y-64042361D01*
X53423638Y-64042361D02*
X53423638Y-63661409D01*
X53423638Y-63661409D02*
X53471257Y-63566171D01*
X53471257Y-63566171D02*
X53566495Y-63518552D01*
X53566495Y-63518552D02*
X53756971Y-63518552D01*
X53756971Y-63518552D02*
X53852209Y-63566171D01*
X53852209Y-63566171D02*
X53899828Y-63661409D01*
X53899828Y-63661409D02*
X53899828Y-63756647D01*
X53899828Y-63756647D02*
X53423638Y-63851885D01*
D11*
X97420833Y-49024819D02*
X97087500Y-48548628D01*
X96849405Y-49024819D02*
X96849405Y-48024819D01*
X96849405Y-48024819D02*
X97230357Y-48024819D01*
X97230357Y-48024819D02*
X97325595Y-48072438D01*
X97325595Y-48072438D02*
X97373214Y-48120057D01*
X97373214Y-48120057D02*
X97420833Y-48215295D01*
X97420833Y-48215295D02*
X97420833Y-48358152D01*
X97420833Y-48358152D02*
X97373214Y-48453390D01*
X97373214Y-48453390D02*
X97325595Y-48501009D01*
X97325595Y-48501009D02*
X97230357Y-48548628D01*
X97230357Y-48548628D02*
X96849405Y-48548628D01*
X97992262Y-48453390D02*
X97897024Y-48405771D01*
X97897024Y-48405771D02*
X97849405Y-48358152D01*
X97849405Y-48358152D02*
X97801786Y-48262914D01*
X97801786Y-48262914D02*
X97801786Y-48215295D01*
X97801786Y-48215295D02*
X97849405Y-48120057D01*
X97849405Y-48120057D02*
X97897024Y-48072438D01*
X97897024Y-48072438D02*
X97992262Y-48024819D01*
X97992262Y-48024819D02*
X98182738Y-48024819D01*
X98182738Y-48024819D02*
X98277976Y-48072438D01*
X98277976Y-48072438D02*
X98325595Y-48120057D01*
X98325595Y-48120057D02*
X98373214Y-48215295D01*
X98373214Y-48215295D02*
X98373214Y-48262914D01*
X98373214Y-48262914D02*
X98325595Y-48358152D01*
X98325595Y-48358152D02*
X98277976Y-48405771D01*
X98277976Y-48405771D02*
X98182738Y-48453390D01*
X98182738Y-48453390D02*
X97992262Y-48453390D01*
X97992262Y-48453390D02*
X97897024Y-48501009D01*
X97897024Y-48501009D02*
X97849405Y-48548628D01*
X97849405Y-48548628D02*
X97801786Y-48643866D01*
X97801786Y-48643866D02*
X97801786Y-48834342D01*
X97801786Y-48834342D02*
X97849405Y-48929580D01*
X97849405Y-48929580D02*
X97897024Y-48977200D01*
X97897024Y-48977200D02*
X97992262Y-49024819D01*
X97992262Y-49024819D02*
X98182738Y-49024819D01*
X98182738Y-49024819D02*
X98277976Y-48977200D01*
X98277976Y-48977200D02*
X98325595Y-48929580D01*
X98325595Y-48929580D02*
X98373214Y-48834342D01*
X98373214Y-48834342D02*
X98373214Y-48643866D01*
X98373214Y-48643866D02*
X98325595Y-48548628D01*
X98325595Y-48548628D02*
X98277976Y-48501009D01*
X98277976Y-48501009D02*
X98182738Y-48453390D01*
X97333333Y-54024819D02*
X97000000Y-53548628D01*
X96761905Y-54024819D02*
X96761905Y-53024819D01*
X96761905Y-53024819D02*
X97142857Y-53024819D01*
X97142857Y-53024819D02*
X97238095Y-53072438D01*
X97238095Y-53072438D02*
X97285714Y-53120057D01*
X97285714Y-53120057D02*
X97333333Y-53215295D01*
X97333333Y-53215295D02*
X97333333Y-53358152D01*
X97333333Y-53358152D02*
X97285714Y-53453390D01*
X97285714Y-53453390D02*
X97238095Y-53501009D01*
X97238095Y-53501009D02*
X97142857Y-53548628D01*
X97142857Y-53548628D02*
X96761905Y-53548628D01*
X97666667Y-53024819D02*
X98333333Y-53024819D01*
X98333333Y-53024819D02*
X97904762Y-54024819D01*
X111263133Y-41972380D02*
X111215514Y-42020000D01*
X111215514Y-42020000D02*
X111072657Y-42067619D01*
X111072657Y-42067619D02*
X110977419Y-42067619D01*
X110977419Y-42067619D02*
X110834562Y-42020000D01*
X110834562Y-42020000D02*
X110739324Y-41924761D01*
X110739324Y-41924761D02*
X110691705Y-41829523D01*
X110691705Y-41829523D02*
X110644086Y-41639047D01*
X110644086Y-41639047D02*
X110644086Y-41496190D01*
X110644086Y-41496190D02*
X110691705Y-41305714D01*
X110691705Y-41305714D02*
X110739324Y-41210476D01*
X110739324Y-41210476D02*
X110834562Y-41115238D01*
X110834562Y-41115238D02*
X110977419Y-41067619D01*
X110977419Y-41067619D02*
X111072657Y-41067619D01*
X111072657Y-41067619D02*
X111215514Y-41115238D01*
X111215514Y-41115238D02*
X111263133Y-41162857D01*
X111644086Y-41162857D02*
X111691705Y-41115238D01*
X111691705Y-41115238D02*
X111786943Y-41067619D01*
X111786943Y-41067619D02*
X112025038Y-41067619D01*
X112025038Y-41067619D02*
X112120276Y-41115238D01*
X112120276Y-41115238D02*
X112167895Y-41162857D01*
X112167895Y-41162857D02*
X112215514Y-41258095D01*
X112215514Y-41258095D02*
X112215514Y-41353333D01*
X112215514Y-41353333D02*
X112167895Y-41496190D01*
X112167895Y-41496190D02*
X111596467Y-42067619D01*
X111596467Y-42067619D02*
X112215514Y-42067619D01*
X116420833Y-29929580D02*
X116373214Y-29977200D01*
X116373214Y-29977200D02*
X116230357Y-30024819D01*
X116230357Y-30024819D02*
X116135119Y-30024819D01*
X116135119Y-30024819D02*
X115992262Y-29977200D01*
X115992262Y-29977200D02*
X115897024Y-29881961D01*
X115897024Y-29881961D02*
X115849405Y-29786723D01*
X115849405Y-29786723D02*
X115801786Y-29596247D01*
X115801786Y-29596247D02*
X115801786Y-29453390D01*
X115801786Y-29453390D02*
X115849405Y-29262914D01*
X115849405Y-29262914D02*
X115897024Y-29167676D01*
X115897024Y-29167676D02*
X115992262Y-29072438D01*
X115992262Y-29072438D02*
X116135119Y-29024819D01*
X116135119Y-29024819D02*
X116230357Y-29024819D01*
X116230357Y-29024819D02*
X116373214Y-29072438D01*
X116373214Y-29072438D02*
X116420833Y-29120057D01*
X117325595Y-29024819D02*
X116849405Y-29024819D01*
X116849405Y-29024819D02*
X116801786Y-29501009D01*
X116801786Y-29501009D02*
X116849405Y-29453390D01*
X116849405Y-29453390D02*
X116944643Y-29405771D01*
X116944643Y-29405771D02*
X117182738Y-29405771D01*
X117182738Y-29405771D02*
X117277976Y-29453390D01*
X117277976Y-29453390D02*
X117325595Y-29501009D01*
X117325595Y-29501009D02*
X117373214Y-29596247D01*
X117373214Y-29596247D02*
X117373214Y-29834342D01*
X117373214Y-29834342D02*
X117325595Y-29929580D01*
X117325595Y-29929580D02*
X117277976Y-29977200D01*
X117277976Y-29977200D02*
X117182738Y-30024819D01*
X117182738Y-30024819D02*
X116944643Y-30024819D01*
X116944643Y-30024819D02*
X116849405Y-29977200D01*
X116849405Y-29977200D02*
X116801786Y-29929580D01*
X128916133Y-34598780D02*
X128868514Y-34646400D01*
X128868514Y-34646400D02*
X128725657Y-34694019D01*
X128725657Y-34694019D02*
X128630419Y-34694019D01*
X128630419Y-34694019D02*
X128487562Y-34646400D01*
X128487562Y-34646400D02*
X128392324Y-34551161D01*
X128392324Y-34551161D02*
X128344705Y-34455923D01*
X128344705Y-34455923D02*
X128297086Y-34265447D01*
X128297086Y-34265447D02*
X128297086Y-34122590D01*
X128297086Y-34122590D02*
X128344705Y-33932114D01*
X128344705Y-33932114D02*
X128392324Y-33836876D01*
X128392324Y-33836876D02*
X128487562Y-33741638D01*
X128487562Y-33741638D02*
X128630419Y-33694019D01*
X128630419Y-33694019D02*
X128725657Y-33694019D01*
X128725657Y-33694019D02*
X128868514Y-33741638D01*
X128868514Y-33741638D02*
X128916133Y-33789257D01*
X129868514Y-34694019D02*
X129297086Y-34694019D01*
X129582800Y-34694019D02*
X129582800Y-33694019D01*
X129582800Y-33694019D02*
X129487562Y-33836876D01*
X129487562Y-33836876D02*
X129392324Y-33932114D01*
X129392324Y-33932114D02*
X129297086Y-33979733D01*
X85703580Y-44710666D02*
X85751200Y-44758285D01*
X85751200Y-44758285D02*
X85798819Y-44901142D01*
X85798819Y-44901142D02*
X85798819Y-44996380D01*
X85798819Y-44996380D02*
X85751200Y-45139237D01*
X85751200Y-45139237D02*
X85655961Y-45234475D01*
X85655961Y-45234475D02*
X85560723Y-45282094D01*
X85560723Y-45282094D02*
X85370247Y-45329713D01*
X85370247Y-45329713D02*
X85227390Y-45329713D01*
X85227390Y-45329713D02*
X85036914Y-45282094D01*
X85036914Y-45282094D02*
X84941676Y-45234475D01*
X84941676Y-45234475D02*
X84846438Y-45139237D01*
X84846438Y-45139237D02*
X84798819Y-44996380D01*
X84798819Y-44996380D02*
X84798819Y-44901142D01*
X84798819Y-44901142D02*
X84846438Y-44758285D01*
X84846438Y-44758285D02*
X84894057Y-44710666D01*
X85798819Y-44234475D02*
X85798819Y-44043999D01*
X85798819Y-44043999D02*
X85751200Y-43948761D01*
X85751200Y-43948761D02*
X85703580Y-43901142D01*
X85703580Y-43901142D02*
X85560723Y-43805904D01*
X85560723Y-43805904D02*
X85370247Y-43758285D01*
X85370247Y-43758285D02*
X84989295Y-43758285D01*
X84989295Y-43758285D02*
X84894057Y-43805904D01*
X84894057Y-43805904D02*
X84846438Y-43853523D01*
X84846438Y-43853523D02*
X84798819Y-43948761D01*
X84798819Y-43948761D02*
X84798819Y-44139237D01*
X84798819Y-44139237D02*
X84846438Y-44234475D01*
X84846438Y-44234475D02*
X84894057Y-44282094D01*
X84894057Y-44282094D02*
X84989295Y-44329713D01*
X84989295Y-44329713D02*
X85227390Y-44329713D01*
X85227390Y-44329713D02*
X85322628Y-44282094D01*
X85322628Y-44282094D02*
X85370247Y-44234475D01*
X85370247Y-44234475D02*
X85417866Y-44139237D01*
X85417866Y-44139237D02*
X85417866Y-43948761D01*
X85417866Y-43948761D02*
X85370247Y-43853523D01*
X85370247Y-43853523D02*
X85322628Y-43805904D01*
X85322628Y-43805904D02*
X85227390Y-43758285D01*
X94245133Y-41544419D02*
X93911800Y-41068228D01*
X93673705Y-41544419D02*
X93673705Y-40544419D01*
X93673705Y-40544419D02*
X94054657Y-40544419D01*
X94054657Y-40544419D02*
X94149895Y-40592038D01*
X94149895Y-40592038D02*
X94197514Y-40639657D01*
X94197514Y-40639657D02*
X94245133Y-40734895D01*
X94245133Y-40734895D02*
X94245133Y-40877752D01*
X94245133Y-40877752D02*
X94197514Y-40972990D01*
X94197514Y-40972990D02*
X94149895Y-41020609D01*
X94149895Y-41020609D02*
X94054657Y-41068228D01*
X94054657Y-41068228D02*
X93673705Y-41068228D01*
X94721324Y-41544419D02*
X94911800Y-41544419D01*
X94911800Y-41544419D02*
X95007038Y-41496800D01*
X95007038Y-41496800D02*
X95054657Y-41449180D01*
X95054657Y-41449180D02*
X95149895Y-41306323D01*
X95149895Y-41306323D02*
X95197514Y-41115847D01*
X95197514Y-41115847D02*
X95197514Y-40734895D01*
X95197514Y-40734895D02*
X95149895Y-40639657D01*
X95149895Y-40639657D02*
X95102276Y-40592038D01*
X95102276Y-40592038D02*
X95007038Y-40544419D01*
X95007038Y-40544419D02*
X94816562Y-40544419D01*
X94816562Y-40544419D02*
X94721324Y-40592038D01*
X94721324Y-40592038D02*
X94673705Y-40639657D01*
X94673705Y-40639657D02*
X94626086Y-40734895D01*
X94626086Y-40734895D02*
X94626086Y-40972990D01*
X94626086Y-40972990D02*
X94673705Y-41068228D01*
X94673705Y-41068228D02*
X94721324Y-41115847D01*
X94721324Y-41115847D02*
X94816562Y-41163466D01*
X94816562Y-41163466D02*
X95007038Y-41163466D01*
X95007038Y-41163466D02*
X95102276Y-41115847D01*
X95102276Y-41115847D02*
X95149895Y-41068228D01*
X95149895Y-41068228D02*
X95197514Y-40972990D01*
X111854819Y-36761904D02*
X112664342Y-36761904D01*
X112664342Y-36761904D02*
X112759580Y-36714285D01*
X112759580Y-36714285D02*
X112807200Y-36666666D01*
X112807200Y-36666666D02*
X112854819Y-36571428D01*
X112854819Y-36571428D02*
X112854819Y-36380952D01*
X112854819Y-36380952D02*
X112807200Y-36285714D01*
X112807200Y-36285714D02*
X112759580Y-36238095D01*
X112759580Y-36238095D02*
X112664342Y-36190476D01*
X112664342Y-36190476D02*
X111854819Y-36190476D01*
X111854819Y-35809523D02*
X111854819Y-35190476D01*
X111854819Y-35190476D02*
X112235771Y-35523809D01*
X112235771Y-35523809D02*
X112235771Y-35380952D01*
X112235771Y-35380952D02*
X112283390Y-35285714D01*
X112283390Y-35285714D02*
X112331009Y-35238095D01*
X112331009Y-35238095D02*
X112426247Y-35190476D01*
X112426247Y-35190476D02*
X112664342Y-35190476D01*
X112664342Y-35190476D02*
X112759580Y-35238095D01*
X112759580Y-35238095D02*
X112807200Y-35285714D01*
X112807200Y-35285714D02*
X112854819Y-35380952D01*
X112854819Y-35380952D02*
X112854819Y-35666666D01*
X112854819Y-35666666D02*
X112807200Y-35761904D01*
X112807200Y-35761904D02*
X112759580Y-35809523D01*
X36656009Y-35583333D02*
X36656009Y-35916666D01*
X37179819Y-35916666D02*
X36179819Y-35916666D01*
X36179819Y-35916666D02*
X36179819Y-35440476D01*
X36656009Y-34726190D02*
X36703628Y-34583333D01*
X36703628Y-34583333D02*
X36751247Y-34535714D01*
X36751247Y-34535714D02*
X36846485Y-34488095D01*
X36846485Y-34488095D02*
X36989342Y-34488095D01*
X36989342Y-34488095D02*
X37084580Y-34535714D01*
X37084580Y-34535714D02*
X37132200Y-34583333D01*
X37132200Y-34583333D02*
X37179819Y-34678571D01*
X37179819Y-34678571D02*
X37179819Y-35059523D01*
X37179819Y-35059523D02*
X36179819Y-35059523D01*
X36179819Y-35059523D02*
X36179819Y-34726190D01*
X36179819Y-34726190D02*
X36227438Y-34630952D01*
X36227438Y-34630952D02*
X36275057Y-34583333D01*
X36275057Y-34583333D02*
X36370295Y-34535714D01*
X36370295Y-34535714D02*
X36465533Y-34535714D01*
X36465533Y-34535714D02*
X36560771Y-34583333D01*
X36560771Y-34583333D02*
X36608390Y-34630952D01*
X36608390Y-34630952D02*
X36656009Y-34726190D01*
X36656009Y-34726190D02*
X36656009Y-35059523D01*
X36513152Y-33630952D02*
X37179819Y-33630952D01*
X36132200Y-33869047D02*
X36846485Y-34107142D01*
X36846485Y-34107142D02*
X36846485Y-33488095D01*
X63169819Y-49088094D02*
X62169819Y-49088094D01*
X62169819Y-49088094D02*
X62169819Y-48849999D01*
X62169819Y-48849999D02*
X62217438Y-48707142D01*
X62217438Y-48707142D02*
X62312676Y-48611904D01*
X62312676Y-48611904D02*
X62407914Y-48564285D01*
X62407914Y-48564285D02*
X62598390Y-48516666D01*
X62598390Y-48516666D02*
X62741247Y-48516666D01*
X62741247Y-48516666D02*
X62931723Y-48564285D01*
X62931723Y-48564285D02*
X63026961Y-48611904D01*
X63026961Y-48611904D02*
X63122200Y-48707142D01*
X63122200Y-48707142D02*
X63169819Y-48849999D01*
X63169819Y-48849999D02*
X63169819Y-49088094D01*
X62169819Y-47611904D02*
X62169819Y-48088094D01*
X62169819Y-48088094D02*
X62646009Y-48135713D01*
X62646009Y-48135713D02*
X62598390Y-48088094D01*
X62598390Y-48088094D02*
X62550771Y-47992856D01*
X62550771Y-47992856D02*
X62550771Y-47754761D01*
X62550771Y-47754761D02*
X62598390Y-47659523D01*
X62598390Y-47659523D02*
X62646009Y-47611904D01*
X62646009Y-47611904D02*
X62741247Y-47564285D01*
X62741247Y-47564285D02*
X62979342Y-47564285D01*
X62979342Y-47564285D02*
X63074580Y-47611904D01*
X63074580Y-47611904D02*
X63122200Y-47659523D01*
X63122200Y-47659523D02*
X63169819Y-47754761D01*
X63169819Y-47754761D02*
X63169819Y-47992856D01*
X63169819Y-47992856D02*
X63122200Y-48088094D01*
X63122200Y-48088094D02*
X63074580Y-48135713D01*
D10*
X65452628Y-46821428D02*
X65452628Y-46478571D01*
X65452628Y-46650000D02*
X66052628Y-46650000D01*
X66052628Y-46650000D02*
X65966914Y-46592857D01*
X65966914Y-46592857D02*
X65909771Y-46535714D01*
X65909771Y-46535714D02*
X65881200Y-46478571D01*
D11*
X145656009Y-48333333D02*
X145656009Y-48666666D01*
X146179819Y-48666666D02*
X145179819Y-48666666D01*
X145179819Y-48666666D02*
X145179819Y-48190476D01*
X145656009Y-47476190D02*
X145703628Y-47333333D01*
X145703628Y-47333333D02*
X145751247Y-47285714D01*
X145751247Y-47285714D02*
X145846485Y-47238095D01*
X145846485Y-47238095D02*
X145989342Y-47238095D01*
X145989342Y-47238095D02*
X146084580Y-47285714D01*
X146084580Y-47285714D02*
X146132200Y-47333333D01*
X146132200Y-47333333D02*
X146179819Y-47428571D01*
X146179819Y-47428571D02*
X146179819Y-47809523D01*
X146179819Y-47809523D02*
X145179819Y-47809523D01*
X145179819Y-47809523D02*
X145179819Y-47476190D01*
X145179819Y-47476190D02*
X145227438Y-47380952D01*
X145227438Y-47380952D02*
X145275057Y-47333333D01*
X145275057Y-47333333D02*
X145370295Y-47285714D01*
X145370295Y-47285714D02*
X145465533Y-47285714D01*
X145465533Y-47285714D02*
X145560771Y-47333333D01*
X145560771Y-47333333D02*
X145608390Y-47380952D01*
X145608390Y-47380952D02*
X145656009Y-47476190D01*
X145656009Y-47476190D02*
X145656009Y-47809523D01*
X145275057Y-46857142D02*
X145227438Y-46809523D01*
X145227438Y-46809523D02*
X145179819Y-46714285D01*
X145179819Y-46714285D02*
X145179819Y-46476190D01*
X145179819Y-46476190D02*
X145227438Y-46380952D01*
X145227438Y-46380952D02*
X145275057Y-46333333D01*
X145275057Y-46333333D02*
X145370295Y-46285714D01*
X145370295Y-46285714D02*
X145465533Y-46285714D01*
X145465533Y-46285714D02*
X145608390Y-46333333D01*
X145608390Y-46333333D02*
X146179819Y-46904761D01*
X146179819Y-46904761D02*
X146179819Y-46285714D01*
X74179133Y-50567780D02*
X74131514Y-50615400D01*
X74131514Y-50615400D02*
X73988657Y-50663019D01*
X73988657Y-50663019D02*
X73893419Y-50663019D01*
X73893419Y-50663019D02*
X73750562Y-50615400D01*
X73750562Y-50615400D02*
X73655324Y-50520161D01*
X73655324Y-50520161D02*
X73607705Y-50424923D01*
X73607705Y-50424923D02*
X73560086Y-50234447D01*
X73560086Y-50234447D02*
X73560086Y-50091590D01*
X73560086Y-50091590D02*
X73607705Y-49901114D01*
X73607705Y-49901114D02*
X73655324Y-49805876D01*
X73655324Y-49805876D02*
X73750562Y-49710638D01*
X73750562Y-49710638D02*
X73893419Y-49663019D01*
X73893419Y-49663019D02*
X73988657Y-49663019D01*
X73988657Y-49663019D02*
X74131514Y-49710638D01*
X74131514Y-49710638D02*
X74179133Y-49758257D01*
X74750562Y-50091590D02*
X74655324Y-50043971D01*
X74655324Y-50043971D02*
X74607705Y-49996352D01*
X74607705Y-49996352D02*
X74560086Y-49901114D01*
X74560086Y-49901114D02*
X74560086Y-49853495D01*
X74560086Y-49853495D02*
X74607705Y-49758257D01*
X74607705Y-49758257D02*
X74655324Y-49710638D01*
X74655324Y-49710638D02*
X74750562Y-49663019D01*
X74750562Y-49663019D02*
X74941038Y-49663019D01*
X74941038Y-49663019D02*
X75036276Y-49710638D01*
X75036276Y-49710638D02*
X75083895Y-49758257D01*
X75083895Y-49758257D02*
X75131514Y-49853495D01*
X75131514Y-49853495D02*
X75131514Y-49901114D01*
X75131514Y-49901114D02*
X75083895Y-49996352D01*
X75083895Y-49996352D02*
X75036276Y-50043971D01*
X75036276Y-50043971D02*
X74941038Y-50091590D01*
X74941038Y-50091590D02*
X74750562Y-50091590D01*
X74750562Y-50091590D02*
X74655324Y-50139209D01*
X74655324Y-50139209D02*
X74607705Y-50186828D01*
X74607705Y-50186828D02*
X74560086Y-50282066D01*
X74560086Y-50282066D02*
X74560086Y-50472542D01*
X74560086Y-50472542D02*
X74607705Y-50567780D01*
X74607705Y-50567780D02*
X74655324Y-50615400D01*
X74655324Y-50615400D02*
X74750562Y-50663019D01*
X74750562Y-50663019D02*
X74941038Y-50663019D01*
X74941038Y-50663019D02*
X75036276Y-50615400D01*
X75036276Y-50615400D02*
X75083895Y-50567780D01*
X75083895Y-50567780D02*
X75131514Y-50472542D01*
X75131514Y-50472542D02*
X75131514Y-50282066D01*
X75131514Y-50282066D02*
X75083895Y-50186828D01*
X75083895Y-50186828D02*
X75036276Y-50139209D01*
X75036276Y-50139209D02*
X74941038Y-50091590D01*
X42891666Y-28504819D02*
X42891666Y-29219104D01*
X42891666Y-29219104D02*
X42844047Y-29361961D01*
X42844047Y-29361961D02*
X42748809Y-29457200D01*
X42748809Y-29457200D02*
X42605952Y-29504819D01*
X42605952Y-29504819D02*
X42510714Y-29504819D01*
X43320238Y-28600057D02*
X43367857Y-28552438D01*
X43367857Y-28552438D02*
X43463095Y-28504819D01*
X43463095Y-28504819D02*
X43701190Y-28504819D01*
X43701190Y-28504819D02*
X43796428Y-28552438D01*
X43796428Y-28552438D02*
X43844047Y-28600057D01*
X43844047Y-28600057D02*
X43891666Y-28695295D01*
X43891666Y-28695295D02*
X43891666Y-28790533D01*
X43891666Y-28790533D02*
X43844047Y-28933390D01*
X43844047Y-28933390D02*
X43272619Y-29504819D01*
X43272619Y-29504819D02*
X43891666Y-29504819D01*
X55609819Y-40829166D02*
X55133628Y-41162499D01*
X55609819Y-41400594D02*
X54609819Y-41400594D01*
X54609819Y-41400594D02*
X54609819Y-41019642D01*
X54609819Y-41019642D02*
X54657438Y-40924404D01*
X54657438Y-40924404D02*
X54705057Y-40876785D01*
X54705057Y-40876785D02*
X54800295Y-40829166D01*
X54800295Y-40829166D02*
X54943152Y-40829166D01*
X54943152Y-40829166D02*
X55038390Y-40876785D01*
X55038390Y-40876785D02*
X55086009Y-40924404D01*
X55086009Y-40924404D02*
X55133628Y-41019642D01*
X55133628Y-41019642D02*
X55133628Y-41400594D01*
X55514580Y-39829166D02*
X55562200Y-39876785D01*
X55562200Y-39876785D02*
X55609819Y-40019642D01*
X55609819Y-40019642D02*
X55609819Y-40114880D01*
X55609819Y-40114880D02*
X55562200Y-40257737D01*
X55562200Y-40257737D02*
X55466961Y-40352975D01*
X55466961Y-40352975D02*
X55371723Y-40400594D01*
X55371723Y-40400594D02*
X55181247Y-40448213D01*
X55181247Y-40448213D02*
X55038390Y-40448213D01*
X55038390Y-40448213D02*
X54847914Y-40400594D01*
X54847914Y-40400594D02*
X54752676Y-40352975D01*
X54752676Y-40352975D02*
X54657438Y-40257737D01*
X54657438Y-40257737D02*
X54609819Y-40114880D01*
X54609819Y-40114880D02*
X54609819Y-40019642D01*
X54609819Y-40019642D02*
X54657438Y-39876785D01*
X54657438Y-39876785D02*
X54705057Y-39829166D01*
X55609819Y-38876785D02*
X55609819Y-39448213D01*
X55609819Y-39162499D02*
X54609819Y-39162499D01*
X54609819Y-39162499D02*
X54752676Y-39257737D01*
X54752676Y-39257737D02*
X54847914Y-39352975D01*
X54847914Y-39352975D02*
X54895533Y-39448213D01*
X82084942Y-59777780D02*
X82037323Y-59825400D01*
X82037323Y-59825400D02*
X81894466Y-59873019D01*
X81894466Y-59873019D02*
X81799228Y-59873019D01*
X81799228Y-59873019D02*
X81656371Y-59825400D01*
X81656371Y-59825400D02*
X81561133Y-59730161D01*
X81561133Y-59730161D02*
X81513514Y-59634923D01*
X81513514Y-59634923D02*
X81465895Y-59444447D01*
X81465895Y-59444447D02*
X81465895Y-59301590D01*
X81465895Y-59301590D02*
X81513514Y-59111114D01*
X81513514Y-59111114D02*
X81561133Y-59015876D01*
X81561133Y-59015876D02*
X81656371Y-58920638D01*
X81656371Y-58920638D02*
X81799228Y-58873019D01*
X81799228Y-58873019D02*
X81894466Y-58873019D01*
X81894466Y-58873019D02*
X82037323Y-58920638D01*
X82037323Y-58920638D02*
X82084942Y-58968257D01*
X83037323Y-59873019D02*
X82465895Y-59873019D01*
X82751609Y-59873019D02*
X82751609Y-58873019D01*
X82751609Y-58873019D02*
X82656371Y-59015876D01*
X82656371Y-59015876D02*
X82561133Y-59111114D01*
X82561133Y-59111114D02*
X82465895Y-59158733D01*
X83370657Y-58873019D02*
X83989704Y-58873019D01*
X83989704Y-58873019D02*
X83656371Y-59253971D01*
X83656371Y-59253971D02*
X83799228Y-59253971D01*
X83799228Y-59253971D02*
X83894466Y-59301590D01*
X83894466Y-59301590D02*
X83942085Y-59349209D01*
X83942085Y-59349209D02*
X83989704Y-59444447D01*
X83989704Y-59444447D02*
X83989704Y-59682542D01*
X83989704Y-59682542D02*
X83942085Y-59777780D01*
X83942085Y-59777780D02*
X83894466Y-59825400D01*
X83894466Y-59825400D02*
X83799228Y-59873019D01*
X83799228Y-59873019D02*
X83513514Y-59873019D01*
X83513514Y-59873019D02*
X83418276Y-59825400D01*
X83418276Y-59825400D02*
X83370657Y-59777780D01*
X126333333Y-39789580D02*
X126285714Y-39837200D01*
X126285714Y-39837200D02*
X126142857Y-39884819D01*
X126142857Y-39884819D02*
X126047619Y-39884819D01*
X126047619Y-39884819D02*
X125904762Y-39837200D01*
X125904762Y-39837200D02*
X125809524Y-39741961D01*
X125809524Y-39741961D02*
X125761905Y-39646723D01*
X125761905Y-39646723D02*
X125714286Y-39456247D01*
X125714286Y-39456247D02*
X125714286Y-39313390D01*
X125714286Y-39313390D02*
X125761905Y-39122914D01*
X125761905Y-39122914D02*
X125809524Y-39027676D01*
X125809524Y-39027676D02*
X125904762Y-38932438D01*
X125904762Y-38932438D02*
X126047619Y-38884819D01*
X126047619Y-38884819D02*
X126142857Y-38884819D01*
X126142857Y-38884819D02*
X126285714Y-38932438D01*
X126285714Y-38932438D02*
X126333333Y-38980057D01*
X127190476Y-39218152D02*
X127190476Y-39884819D01*
X126952381Y-38837200D02*
X126714286Y-39551485D01*
X126714286Y-39551485D02*
X127333333Y-39551485D01*
X126198333Y-31892419D02*
X125865000Y-31416228D01*
X125626905Y-31892419D02*
X125626905Y-30892419D01*
X125626905Y-30892419D02*
X126007857Y-30892419D01*
X126007857Y-30892419D02*
X126103095Y-30940038D01*
X126103095Y-30940038D02*
X126150714Y-30987657D01*
X126150714Y-30987657D02*
X126198333Y-31082895D01*
X126198333Y-31082895D02*
X126198333Y-31225752D01*
X126198333Y-31225752D02*
X126150714Y-31320990D01*
X126150714Y-31320990D02*
X126103095Y-31368609D01*
X126103095Y-31368609D02*
X126007857Y-31416228D01*
X126007857Y-31416228D02*
X125626905Y-31416228D01*
X127055476Y-31225752D02*
X127055476Y-31892419D01*
X126817381Y-30844800D02*
X126579286Y-31559085D01*
X126579286Y-31559085D02*
X127198333Y-31559085D01*
X89372319Y-50254166D02*
X88896128Y-50587499D01*
X89372319Y-50825594D02*
X88372319Y-50825594D01*
X88372319Y-50825594D02*
X88372319Y-50444642D01*
X88372319Y-50444642D02*
X88419938Y-50349404D01*
X88419938Y-50349404D02*
X88467557Y-50301785D01*
X88467557Y-50301785D02*
X88562795Y-50254166D01*
X88562795Y-50254166D02*
X88705652Y-50254166D01*
X88705652Y-50254166D02*
X88800890Y-50301785D01*
X88800890Y-50301785D02*
X88848509Y-50349404D01*
X88848509Y-50349404D02*
X88896128Y-50444642D01*
X88896128Y-50444642D02*
X88896128Y-50825594D01*
X88372319Y-49397023D02*
X88372319Y-49587499D01*
X88372319Y-49587499D02*
X88419938Y-49682737D01*
X88419938Y-49682737D02*
X88467557Y-49730356D01*
X88467557Y-49730356D02*
X88610414Y-49825594D01*
X88610414Y-49825594D02*
X88800890Y-49873213D01*
X88800890Y-49873213D02*
X89181842Y-49873213D01*
X89181842Y-49873213D02*
X89277080Y-49825594D01*
X89277080Y-49825594D02*
X89324700Y-49777975D01*
X89324700Y-49777975D02*
X89372319Y-49682737D01*
X89372319Y-49682737D02*
X89372319Y-49492261D01*
X89372319Y-49492261D02*
X89324700Y-49397023D01*
X89324700Y-49397023D02*
X89277080Y-49349404D01*
X89277080Y-49349404D02*
X89181842Y-49301785D01*
X89181842Y-49301785D02*
X88943747Y-49301785D01*
X88943747Y-49301785D02*
X88848509Y-49349404D01*
X88848509Y-49349404D02*
X88800890Y-49397023D01*
X88800890Y-49397023D02*
X88753271Y-49492261D01*
X88753271Y-49492261D02*
X88753271Y-49682737D01*
X88753271Y-49682737D02*
X88800890Y-49777975D01*
X88800890Y-49777975D02*
X88848509Y-49825594D01*
X88848509Y-49825594D02*
X88943747Y-49873213D01*
X67109819Y-44305357D02*
X66633628Y-44638690D01*
X67109819Y-44876785D02*
X66109819Y-44876785D01*
X66109819Y-44876785D02*
X66109819Y-44495833D01*
X66109819Y-44495833D02*
X66157438Y-44400595D01*
X66157438Y-44400595D02*
X66205057Y-44352976D01*
X66205057Y-44352976D02*
X66300295Y-44305357D01*
X66300295Y-44305357D02*
X66443152Y-44305357D01*
X66443152Y-44305357D02*
X66538390Y-44352976D01*
X66538390Y-44352976D02*
X66586009Y-44400595D01*
X66586009Y-44400595D02*
X66633628Y-44495833D01*
X66633628Y-44495833D02*
X66633628Y-44876785D01*
X67109819Y-43352976D02*
X67109819Y-43924404D01*
X67109819Y-43638690D02*
X66109819Y-43638690D01*
X66109819Y-43638690D02*
X66252676Y-43733928D01*
X66252676Y-43733928D02*
X66347914Y-43829166D01*
X66347914Y-43829166D02*
X66395533Y-43924404D01*
X66109819Y-42448214D02*
X66109819Y-42924404D01*
X66109819Y-42924404D02*
X66586009Y-42972023D01*
X66586009Y-42972023D02*
X66538390Y-42924404D01*
X66538390Y-42924404D02*
X66490771Y-42829166D01*
X66490771Y-42829166D02*
X66490771Y-42591071D01*
X66490771Y-42591071D02*
X66538390Y-42495833D01*
X66538390Y-42495833D02*
X66586009Y-42448214D01*
X66586009Y-42448214D02*
X66681247Y-42400595D01*
X66681247Y-42400595D02*
X66919342Y-42400595D01*
X66919342Y-42400595D02*
X67014580Y-42448214D01*
X67014580Y-42448214D02*
X67062200Y-42495833D01*
X67062200Y-42495833D02*
X67109819Y-42591071D01*
X67109819Y-42591071D02*
X67109819Y-42829166D01*
X67109819Y-42829166D02*
X67062200Y-42924404D01*
X67062200Y-42924404D02*
X67014580Y-42972023D01*
X140585866Y-29147419D02*
X140585866Y-29861704D01*
X140585866Y-29861704D02*
X140538247Y-30004561D01*
X140538247Y-30004561D02*
X140443009Y-30099800D01*
X140443009Y-30099800D02*
X140300152Y-30147419D01*
X140300152Y-30147419D02*
X140204914Y-30147419D01*
X141585866Y-30147419D02*
X141014438Y-30147419D01*
X141300152Y-30147419D02*
X141300152Y-29147419D01*
X141300152Y-29147419D02*
X141204914Y-29290276D01*
X141204914Y-29290276D02*
X141109676Y-29385514D01*
X141109676Y-29385514D02*
X141014438Y-29433133D01*
X135656009Y-48083333D02*
X135656009Y-48416666D01*
X136179819Y-48416666D02*
X135179819Y-48416666D01*
X135179819Y-48416666D02*
X135179819Y-47940476D01*
X135656009Y-47226190D02*
X135703628Y-47083333D01*
X135703628Y-47083333D02*
X135751247Y-47035714D01*
X135751247Y-47035714D02*
X135846485Y-46988095D01*
X135846485Y-46988095D02*
X135989342Y-46988095D01*
X135989342Y-46988095D02*
X136084580Y-47035714D01*
X136084580Y-47035714D02*
X136132200Y-47083333D01*
X136132200Y-47083333D02*
X136179819Y-47178571D01*
X136179819Y-47178571D02*
X136179819Y-47559523D01*
X136179819Y-47559523D02*
X135179819Y-47559523D01*
X135179819Y-47559523D02*
X135179819Y-47226190D01*
X135179819Y-47226190D02*
X135227438Y-47130952D01*
X135227438Y-47130952D02*
X135275057Y-47083333D01*
X135275057Y-47083333D02*
X135370295Y-47035714D01*
X135370295Y-47035714D02*
X135465533Y-47035714D01*
X135465533Y-47035714D02*
X135560771Y-47083333D01*
X135560771Y-47083333D02*
X135608390Y-47130952D01*
X135608390Y-47130952D02*
X135656009Y-47226190D01*
X135656009Y-47226190D02*
X135656009Y-47559523D01*
X136179819Y-46035714D02*
X136179819Y-46607142D01*
X136179819Y-46321428D02*
X135179819Y-46321428D01*
X135179819Y-46321428D02*
X135322676Y-46416666D01*
X135322676Y-46416666D02*
X135417914Y-46511904D01*
X135417914Y-46511904D02*
X135465533Y-46607142D01*
X93375314Y-45412819D02*
X93375314Y-44412819D01*
X93375314Y-44412819D02*
X93756266Y-44412819D01*
X93756266Y-44412819D02*
X93851504Y-44460438D01*
X93851504Y-44460438D02*
X93899123Y-44508057D01*
X93899123Y-44508057D02*
X93946742Y-44603295D01*
X93946742Y-44603295D02*
X93946742Y-44746152D01*
X93946742Y-44746152D02*
X93899123Y-44841390D01*
X93899123Y-44841390D02*
X93851504Y-44889009D01*
X93851504Y-44889009D02*
X93756266Y-44936628D01*
X93756266Y-44936628D02*
X93375314Y-44936628D01*
X94327695Y-45365200D02*
X94470552Y-45412819D01*
X94470552Y-45412819D02*
X94708647Y-45412819D01*
X94708647Y-45412819D02*
X94803885Y-45365200D01*
X94803885Y-45365200D02*
X94851504Y-45317580D01*
X94851504Y-45317580D02*
X94899123Y-45222342D01*
X94899123Y-45222342D02*
X94899123Y-45127104D01*
X94899123Y-45127104D02*
X94851504Y-45031866D01*
X94851504Y-45031866D02*
X94803885Y-44984247D01*
X94803885Y-44984247D02*
X94708647Y-44936628D01*
X94708647Y-44936628D02*
X94518171Y-44889009D01*
X94518171Y-44889009D02*
X94422933Y-44841390D01*
X94422933Y-44841390D02*
X94375314Y-44793771D01*
X94375314Y-44793771D02*
X94327695Y-44698533D01*
X94327695Y-44698533D02*
X94327695Y-44603295D01*
X94327695Y-44603295D02*
X94375314Y-44508057D01*
X94375314Y-44508057D02*
X94422933Y-44460438D01*
X94422933Y-44460438D02*
X94518171Y-44412819D01*
X94518171Y-44412819D02*
X94756266Y-44412819D01*
X94756266Y-44412819D02*
X94899123Y-44460438D01*
X95851504Y-45412819D02*
X95280076Y-45412819D01*
X95565790Y-45412819D02*
X95565790Y-44412819D01*
X95565790Y-44412819D02*
X95470552Y-44555676D01*
X95470552Y-44555676D02*
X95375314Y-44650914D01*
X95375314Y-44650914D02*
X95280076Y-44698533D01*
X44422219Y-43074357D02*
X43946028Y-43407690D01*
X44422219Y-43645785D02*
X43422219Y-43645785D01*
X43422219Y-43645785D02*
X43422219Y-43264833D01*
X43422219Y-43264833D02*
X43469838Y-43169595D01*
X43469838Y-43169595D02*
X43517457Y-43121976D01*
X43517457Y-43121976D02*
X43612695Y-43074357D01*
X43612695Y-43074357D02*
X43755552Y-43074357D01*
X43755552Y-43074357D02*
X43850790Y-43121976D01*
X43850790Y-43121976D02*
X43898409Y-43169595D01*
X43898409Y-43169595D02*
X43946028Y-43264833D01*
X43946028Y-43264833D02*
X43946028Y-43645785D01*
X44422219Y-42121976D02*
X44422219Y-42693404D01*
X44422219Y-42407690D02*
X43422219Y-42407690D01*
X43422219Y-42407690D02*
X43565076Y-42502928D01*
X43565076Y-42502928D02*
X43660314Y-42598166D01*
X43660314Y-42598166D02*
X43707933Y-42693404D01*
X43422219Y-41788642D02*
X43422219Y-41169595D01*
X43422219Y-41169595D02*
X43803171Y-41502928D01*
X43803171Y-41502928D02*
X43803171Y-41360071D01*
X43803171Y-41360071D02*
X43850790Y-41264833D01*
X43850790Y-41264833D02*
X43898409Y-41217214D01*
X43898409Y-41217214D02*
X43993647Y-41169595D01*
X43993647Y-41169595D02*
X44231742Y-41169595D01*
X44231742Y-41169595D02*
X44326980Y-41217214D01*
X44326980Y-41217214D02*
X44374600Y-41264833D01*
X44374600Y-41264833D02*
X44422219Y-41360071D01*
X44422219Y-41360071D02*
X44422219Y-41645785D01*
X44422219Y-41645785D02*
X44374600Y-41741023D01*
X44374600Y-41741023D02*
X44326980Y-41788642D01*
X85374619Y-50534866D02*
X84898428Y-50868199D01*
X85374619Y-51106294D02*
X84374619Y-51106294D01*
X84374619Y-51106294D02*
X84374619Y-50725342D01*
X84374619Y-50725342D02*
X84422238Y-50630104D01*
X84422238Y-50630104D02*
X84469857Y-50582485D01*
X84469857Y-50582485D02*
X84565095Y-50534866D01*
X84565095Y-50534866D02*
X84707952Y-50534866D01*
X84707952Y-50534866D02*
X84803190Y-50582485D01*
X84803190Y-50582485D02*
X84850809Y-50630104D01*
X84850809Y-50630104D02*
X84898428Y-50725342D01*
X84898428Y-50725342D02*
X84898428Y-51106294D01*
X84374619Y-49630104D02*
X84374619Y-50106294D01*
X84374619Y-50106294D02*
X84850809Y-50153913D01*
X84850809Y-50153913D02*
X84803190Y-50106294D01*
X84803190Y-50106294D02*
X84755571Y-50011056D01*
X84755571Y-50011056D02*
X84755571Y-49772961D01*
X84755571Y-49772961D02*
X84803190Y-49677723D01*
X84803190Y-49677723D02*
X84850809Y-49630104D01*
X84850809Y-49630104D02*
X84946047Y-49582485D01*
X84946047Y-49582485D02*
X85184142Y-49582485D01*
X85184142Y-49582485D02*
X85279380Y-49630104D01*
X85279380Y-49630104D02*
X85327000Y-49677723D01*
X85327000Y-49677723D02*
X85374619Y-49772961D01*
X85374619Y-49772961D02*
X85374619Y-50011056D01*
X85374619Y-50011056D02*
X85327000Y-50106294D01*
X85327000Y-50106294D02*
X85279380Y-50153913D01*
X71891666Y-28504819D02*
X71891666Y-29219104D01*
X71891666Y-29219104D02*
X71844047Y-29361961D01*
X71844047Y-29361961D02*
X71748809Y-29457200D01*
X71748809Y-29457200D02*
X71605952Y-29504819D01*
X71605952Y-29504819D02*
X71510714Y-29504819D01*
X72272619Y-28504819D02*
X72891666Y-28504819D01*
X72891666Y-28504819D02*
X72558333Y-28885771D01*
X72558333Y-28885771D02*
X72701190Y-28885771D01*
X72701190Y-28885771D02*
X72796428Y-28933390D01*
X72796428Y-28933390D02*
X72844047Y-28981009D01*
X72844047Y-28981009D02*
X72891666Y-29076247D01*
X72891666Y-29076247D02*
X72891666Y-29314342D01*
X72891666Y-29314342D02*
X72844047Y-29409580D01*
X72844047Y-29409580D02*
X72796428Y-29457200D01*
X72796428Y-29457200D02*
X72701190Y-29504819D01*
X72701190Y-29504819D02*
X72415476Y-29504819D01*
X72415476Y-29504819D02*
X72320238Y-29457200D01*
X72320238Y-29457200D02*
X72272619Y-29409580D01*
X93769642Y-38024819D02*
X93436309Y-37548628D01*
X93198214Y-38024819D02*
X93198214Y-37024819D01*
X93198214Y-37024819D02*
X93579166Y-37024819D01*
X93579166Y-37024819D02*
X93674404Y-37072438D01*
X93674404Y-37072438D02*
X93722023Y-37120057D01*
X93722023Y-37120057D02*
X93769642Y-37215295D01*
X93769642Y-37215295D02*
X93769642Y-37358152D01*
X93769642Y-37358152D02*
X93722023Y-37453390D01*
X93722023Y-37453390D02*
X93674404Y-37501009D01*
X93674404Y-37501009D02*
X93579166Y-37548628D01*
X93579166Y-37548628D02*
X93198214Y-37548628D01*
X94722023Y-38024819D02*
X94150595Y-38024819D01*
X94436309Y-38024819D02*
X94436309Y-37024819D01*
X94436309Y-37024819D02*
X94341071Y-37167676D01*
X94341071Y-37167676D02*
X94245833Y-37262914D01*
X94245833Y-37262914D02*
X94150595Y-37310533D01*
X95341071Y-37024819D02*
X95436309Y-37024819D01*
X95436309Y-37024819D02*
X95531547Y-37072438D01*
X95531547Y-37072438D02*
X95579166Y-37120057D01*
X95579166Y-37120057D02*
X95626785Y-37215295D01*
X95626785Y-37215295D02*
X95674404Y-37405771D01*
X95674404Y-37405771D02*
X95674404Y-37643866D01*
X95674404Y-37643866D02*
X95626785Y-37834342D01*
X95626785Y-37834342D02*
X95579166Y-37929580D01*
X95579166Y-37929580D02*
X95531547Y-37977200D01*
X95531547Y-37977200D02*
X95436309Y-38024819D01*
X95436309Y-38024819D02*
X95341071Y-38024819D01*
X95341071Y-38024819D02*
X95245833Y-37977200D01*
X95245833Y-37977200D02*
X95198214Y-37929580D01*
X95198214Y-37929580D02*
X95150595Y-37834342D01*
X95150595Y-37834342D02*
X95102976Y-37643866D01*
X95102976Y-37643866D02*
X95102976Y-37405771D01*
X95102976Y-37405771D02*
X95150595Y-37215295D01*
X95150595Y-37215295D02*
X95198214Y-37120057D01*
X95198214Y-37120057D02*
X95245833Y-37072438D01*
X95245833Y-37072438D02*
X95341071Y-37024819D01*
X67800476Y-51604295D02*
X67800476Y-52251914D01*
X67800476Y-52251914D02*
X67838571Y-52328104D01*
X67838571Y-52328104D02*
X67876666Y-52366200D01*
X67876666Y-52366200D02*
X67952857Y-52404295D01*
X67952857Y-52404295D02*
X68105238Y-52404295D01*
X68105238Y-52404295D02*
X68181428Y-52366200D01*
X68181428Y-52366200D02*
X68219523Y-52328104D01*
X68219523Y-52328104D02*
X68257619Y-52251914D01*
X68257619Y-52251914D02*
X68257619Y-51604295D01*
X68981428Y-51604295D02*
X68829047Y-51604295D01*
X68829047Y-51604295D02*
X68752856Y-51642390D01*
X68752856Y-51642390D02*
X68714761Y-51680485D01*
X68714761Y-51680485D02*
X68638571Y-51794771D01*
X68638571Y-51794771D02*
X68600475Y-51947152D01*
X68600475Y-51947152D02*
X68600475Y-52251914D01*
X68600475Y-52251914D02*
X68638571Y-52328104D01*
X68638571Y-52328104D02*
X68676666Y-52366200D01*
X68676666Y-52366200D02*
X68752856Y-52404295D01*
X68752856Y-52404295D02*
X68905237Y-52404295D01*
X68905237Y-52404295D02*
X68981428Y-52366200D01*
X68981428Y-52366200D02*
X69019523Y-52328104D01*
X69019523Y-52328104D02*
X69057618Y-52251914D01*
X69057618Y-52251914D02*
X69057618Y-52061438D01*
X69057618Y-52061438D02*
X69019523Y-51985247D01*
X69019523Y-51985247D02*
X68981428Y-51947152D01*
X68981428Y-51947152D02*
X68905237Y-51909057D01*
X68905237Y-51909057D02*
X68752856Y-51909057D01*
X68752856Y-51909057D02*
X68676666Y-51947152D01*
X68676666Y-51947152D02*
X68638571Y-51985247D01*
X68638571Y-51985247D02*
X68600475Y-52061438D01*
X37236155Y-47812591D02*
X37236155Y-48623709D01*
X37236155Y-48623709D02*
X37283867Y-48719135D01*
X37283867Y-48719135D02*
X37331580Y-48766848D01*
X37331580Y-48766848D02*
X37427006Y-48814560D01*
X37427006Y-48814560D02*
X37617857Y-48814560D01*
X37617857Y-48814560D02*
X37713283Y-48766848D01*
X37713283Y-48766848D02*
X37760995Y-48719135D01*
X37760995Y-48719135D02*
X37808708Y-48623709D01*
X37808708Y-48623709D02*
X37808708Y-47812591D01*
X38762965Y-47812591D02*
X38285837Y-47812591D01*
X38285837Y-47812591D02*
X38238124Y-48289719D01*
X38238124Y-48289719D02*
X38285837Y-48242007D01*
X38285837Y-48242007D02*
X38381262Y-48194294D01*
X38381262Y-48194294D02*
X38619826Y-48194294D01*
X38619826Y-48194294D02*
X38715252Y-48242007D01*
X38715252Y-48242007D02*
X38762965Y-48289719D01*
X38762965Y-48289719D02*
X38810677Y-48385145D01*
X38810677Y-48385145D02*
X38810677Y-48623709D01*
X38810677Y-48623709D02*
X38762965Y-48719135D01*
X38762965Y-48719135D02*
X38715252Y-48766848D01*
X38715252Y-48766848D02*
X38619826Y-48814560D01*
X38619826Y-48814560D02*
X38381262Y-48814560D01*
X38381262Y-48814560D02*
X38285837Y-48766848D01*
X38285837Y-48766848D02*
X38238124Y-48719135D01*
X123970833Y-24384819D02*
X123637500Y-23908628D01*
X123399405Y-24384819D02*
X123399405Y-23384819D01*
X123399405Y-23384819D02*
X123780357Y-23384819D01*
X123780357Y-23384819D02*
X123875595Y-23432438D01*
X123875595Y-23432438D02*
X123923214Y-23480057D01*
X123923214Y-23480057D02*
X123970833Y-23575295D01*
X123970833Y-23575295D02*
X123970833Y-23718152D01*
X123970833Y-23718152D02*
X123923214Y-23813390D01*
X123923214Y-23813390D02*
X123875595Y-23861009D01*
X123875595Y-23861009D02*
X123780357Y-23908628D01*
X123780357Y-23908628D02*
X123399405Y-23908628D01*
X124351786Y-23480057D02*
X124399405Y-23432438D01*
X124399405Y-23432438D02*
X124494643Y-23384819D01*
X124494643Y-23384819D02*
X124732738Y-23384819D01*
X124732738Y-23384819D02*
X124827976Y-23432438D01*
X124827976Y-23432438D02*
X124875595Y-23480057D01*
X124875595Y-23480057D02*
X124923214Y-23575295D01*
X124923214Y-23575295D02*
X124923214Y-23670533D01*
X124923214Y-23670533D02*
X124875595Y-23813390D01*
X124875595Y-23813390D02*
X124304167Y-24384819D01*
X124304167Y-24384819D02*
X124923214Y-24384819D01*
D12*
X79873837Y-55167718D02*
X79873837Y-53897718D01*
X81204314Y-55046765D02*
X81143838Y-55107242D01*
X81143838Y-55107242D02*
X80962409Y-55167718D01*
X80962409Y-55167718D02*
X80841457Y-55167718D01*
X80841457Y-55167718D02*
X80660028Y-55107242D01*
X80660028Y-55107242D02*
X80539076Y-54986289D01*
X80539076Y-54986289D02*
X80478599Y-54865337D01*
X80478599Y-54865337D02*
X80418123Y-54623432D01*
X80418123Y-54623432D02*
X80418123Y-54442003D01*
X80418123Y-54442003D02*
X80478599Y-54200099D01*
X80478599Y-54200099D02*
X80539076Y-54079146D01*
X80539076Y-54079146D02*
X80660028Y-53958194D01*
X80660028Y-53958194D02*
X80841457Y-53897718D01*
X80841457Y-53897718D02*
X80962409Y-53897718D01*
X80962409Y-53897718D02*
X81143838Y-53958194D01*
X81143838Y-53958194D02*
X81204314Y-54018670D01*
X82413838Y-55167718D02*
X81688123Y-55167718D01*
X82050980Y-55167718D02*
X82050980Y-53897718D01*
X82050980Y-53897718D02*
X81930028Y-54079146D01*
X81930028Y-54079146D02*
X81809076Y-54200099D01*
X81809076Y-54200099D02*
X81688123Y-54260575D01*
D11*
X135357142Y-56379819D02*
X134880952Y-56379819D01*
X134880952Y-56379819D02*
X134880952Y-55379819D01*
X135642857Y-56332200D02*
X135785714Y-56379819D01*
X135785714Y-56379819D02*
X136023809Y-56379819D01*
X136023809Y-56379819D02*
X136119047Y-56332200D01*
X136119047Y-56332200D02*
X136166666Y-56284580D01*
X136166666Y-56284580D02*
X136214285Y-56189342D01*
X136214285Y-56189342D02*
X136214285Y-56094104D01*
X136214285Y-56094104D02*
X136166666Y-55998866D01*
X136166666Y-55998866D02*
X136119047Y-55951247D01*
X136119047Y-55951247D02*
X136023809Y-55903628D01*
X136023809Y-55903628D02*
X135833333Y-55856009D01*
X135833333Y-55856009D02*
X135738095Y-55808390D01*
X135738095Y-55808390D02*
X135690476Y-55760771D01*
X135690476Y-55760771D02*
X135642857Y-55665533D01*
X135642857Y-55665533D02*
X135642857Y-55570295D01*
X135642857Y-55570295D02*
X135690476Y-55475057D01*
X135690476Y-55475057D02*
X135738095Y-55427438D01*
X135738095Y-55427438D02*
X135833333Y-55379819D01*
X135833333Y-55379819D02*
X136071428Y-55379819D01*
X136071428Y-55379819D02*
X136214285Y-55427438D01*
X137166666Y-56379819D02*
X136595238Y-56379819D01*
X136880952Y-56379819D02*
X136880952Y-55379819D01*
X136880952Y-55379819D02*
X136785714Y-55522676D01*
X136785714Y-55522676D02*
X136690476Y-55617914D01*
X136690476Y-55617914D02*
X136595238Y-55665533D01*
X71684395Y-56272419D02*
X71684395Y-57081942D01*
X71684395Y-57081942D02*
X71732014Y-57177180D01*
X71732014Y-57177180D02*
X71779633Y-57224800D01*
X71779633Y-57224800D02*
X71874871Y-57272419D01*
X71874871Y-57272419D02*
X72065347Y-57272419D01*
X72065347Y-57272419D02*
X72160585Y-57224800D01*
X72160585Y-57224800D02*
X72208204Y-57177180D01*
X72208204Y-57177180D02*
X72255823Y-57081942D01*
X72255823Y-57081942D02*
X72255823Y-56272419D01*
X73160585Y-56605752D02*
X73160585Y-57272419D01*
X72922490Y-56224800D02*
X72684395Y-56939085D01*
X72684395Y-56939085D02*
X73303442Y-56939085D01*
X38843809Y-40101733D02*
X38843809Y-40435066D01*
X39367619Y-40435066D02*
X38367619Y-40435066D01*
X38367619Y-40435066D02*
X38367619Y-39958876D01*
X38843809Y-39244590D02*
X38891428Y-39101733D01*
X38891428Y-39101733D02*
X38939047Y-39054114D01*
X38939047Y-39054114D02*
X39034285Y-39006495D01*
X39034285Y-39006495D02*
X39177142Y-39006495D01*
X39177142Y-39006495D02*
X39272380Y-39054114D01*
X39272380Y-39054114D02*
X39320000Y-39101733D01*
X39320000Y-39101733D02*
X39367619Y-39196971D01*
X39367619Y-39196971D02*
X39367619Y-39577923D01*
X39367619Y-39577923D02*
X38367619Y-39577923D01*
X38367619Y-39577923D02*
X38367619Y-39244590D01*
X38367619Y-39244590D02*
X38415238Y-39149352D01*
X38415238Y-39149352D02*
X38462857Y-39101733D01*
X38462857Y-39101733D02*
X38558095Y-39054114D01*
X38558095Y-39054114D02*
X38653333Y-39054114D01*
X38653333Y-39054114D02*
X38748571Y-39101733D01*
X38748571Y-39101733D02*
X38796190Y-39149352D01*
X38796190Y-39149352D02*
X38843809Y-39244590D01*
X38843809Y-39244590D02*
X38843809Y-39577923D01*
X38367619Y-38673161D02*
X38367619Y-38054114D01*
X38367619Y-38054114D02*
X38748571Y-38387447D01*
X38748571Y-38387447D02*
X38748571Y-38244590D01*
X38748571Y-38244590D02*
X38796190Y-38149352D01*
X38796190Y-38149352D02*
X38843809Y-38101733D01*
X38843809Y-38101733D02*
X38939047Y-38054114D01*
X38939047Y-38054114D02*
X39177142Y-38054114D01*
X39177142Y-38054114D02*
X39272380Y-38101733D01*
X39272380Y-38101733D02*
X39320000Y-38149352D01*
X39320000Y-38149352D02*
X39367619Y-38244590D01*
X39367619Y-38244590D02*
X39367619Y-38530304D01*
X39367619Y-38530304D02*
X39320000Y-38625542D01*
X39320000Y-38625542D02*
X39272380Y-38673161D01*
X140857142Y-55359580D02*
X140809523Y-55407200D01*
X140809523Y-55407200D02*
X140666666Y-55454819D01*
X140666666Y-55454819D02*
X140571428Y-55454819D01*
X140571428Y-55454819D02*
X140428571Y-55407200D01*
X140428571Y-55407200D02*
X140333333Y-55311961D01*
X140333333Y-55311961D02*
X140285714Y-55216723D01*
X140285714Y-55216723D02*
X140238095Y-55026247D01*
X140238095Y-55026247D02*
X140238095Y-54883390D01*
X140238095Y-54883390D02*
X140285714Y-54692914D01*
X140285714Y-54692914D02*
X140333333Y-54597676D01*
X140333333Y-54597676D02*
X140428571Y-54502438D01*
X140428571Y-54502438D02*
X140571428Y-54454819D01*
X140571428Y-54454819D02*
X140666666Y-54454819D01*
X140666666Y-54454819D02*
X140809523Y-54502438D01*
X140809523Y-54502438D02*
X140857142Y-54550057D01*
X141809523Y-55454819D02*
X141238095Y-55454819D01*
X141523809Y-55454819D02*
X141523809Y-54454819D01*
X141523809Y-54454819D02*
X141428571Y-54597676D01*
X141428571Y-54597676D02*
X141333333Y-54692914D01*
X141333333Y-54692914D02*
X141238095Y-54740533D01*
X142190476Y-54550057D02*
X142238095Y-54502438D01*
X142238095Y-54502438D02*
X142333333Y-54454819D01*
X142333333Y-54454819D02*
X142571428Y-54454819D01*
X142571428Y-54454819D02*
X142666666Y-54502438D01*
X142666666Y-54502438D02*
X142714285Y-54550057D01*
X142714285Y-54550057D02*
X142761904Y-54645295D01*
X142761904Y-54645295D02*
X142761904Y-54740533D01*
X142761904Y-54740533D02*
X142714285Y-54883390D01*
X142714285Y-54883390D02*
X142142857Y-55454819D01*
X142142857Y-55454819D02*
X142761904Y-55454819D01*
X69169819Y-49088094D02*
X68169819Y-49088094D01*
X68169819Y-49088094D02*
X68169819Y-48849999D01*
X68169819Y-48849999D02*
X68217438Y-48707142D01*
X68217438Y-48707142D02*
X68312676Y-48611904D01*
X68312676Y-48611904D02*
X68407914Y-48564285D01*
X68407914Y-48564285D02*
X68598390Y-48516666D01*
X68598390Y-48516666D02*
X68741247Y-48516666D01*
X68741247Y-48516666D02*
X68931723Y-48564285D01*
X68931723Y-48564285D02*
X69026961Y-48611904D01*
X69026961Y-48611904D02*
X69122200Y-48707142D01*
X69122200Y-48707142D02*
X69169819Y-48849999D01*
X69169819Y-48849999D02*
X69169819Y-49088094D01*
X68503152Y-47659523D02*
X69169819Y-47659523D01*
X68122200Y-47897618D02*
X68836485Y-48135713D01*
X68836485Y-48135713D02*
X68836485Y-47516666D01*
D10*
X71452628Y-46821428D02*
X71452628Y-46478571D01*
X71452628Y-46650000D02*
X72052628Y-46650000D01*
X72052628Y-46650000D02*
X71966914Y-46592857D01*
X71966914Y-46592857D02*
X71909771Y-46535714D01*
X71909771Y-46535714D02*
X71881200Y-46478571D01*
D11*
X116444733Y-31771780D02*
X116397114Y-31819400D01*
X116397114Y-31819400D02*
X116254257Y-31867019D01*
X116254257Y-31867019D02*
X116159019Y-31867019D01*
X116159019Y-31867019D02*
X116016162Y-31819400D01*
X116016162Y-31819400D02*
X115920924Y-31724161D01*
X115920924Y-31724161D02*
X115873305Y-31628923D01*
X115873305Y-31628923D02*
X115825686Y-31438447D01*
X115825686Y-31438447D02*
X115825686Y-31295590D01*
X115825686Y-31295590D02*
X115873305Y-31105114D01*
X115873305Y-31105114D02*
X115920924Y-31009876D01*
X115920924Y-31009876D02*
X116016162Y-30914638D01*
X116016162Y-30914638D02*
X116159019Y-30867019D01*
X116159019Y-30867019D02*
X116254257Y-30867019D01*
X116254257Y-30867019D02*
X116397114Y-30914638D01*
X116397114Y-30914638D02*
X116444733Y-30962257D01*
X116778067Y-30867019D02*
X117444733Y-30867019D01*
X117444733Y-30867019D02*
X117016162Y-31867019D01*
X37796905Y-44834819D02*
X37796905Y-43834819D01*
X37796905Y-43834819D02*
X38035000Y-43834819D01*
X38035000Y-43834819D02*
X38177857Y-43882438D01*
X38177857Y-43882438D02*
X38273095Y-43977676D01*
X38273095Y-43977676D02*
X38320714Y-44072914D01*
X38320714Y-44072914D02*
X38368333Y-44263390D01*
X38368333Y-44263390D02*
X38368333Y-44406247D01*
X38368333Y-44406247D02*
X38320714Y-44596723D01*
X38320714Y-44596723D02*
X38273095Y-44691961D01*
X38273095Y-44691961D02*
X38177857Y-44787200D01*
X38177857Y-44787200D02*
X38035000Y-44834819D01*
X38035000Y-44834819D02*
X37796905Y-44834819D01*
X38701667Y-43834819D02*
X39320714Y-43834819D01*
X39320714Y-43834819D02*
X38987381Y-44215771D01*
X38987381Y-44215771D02*
X39130238Y-44215771D01*
X39130238Y-44215771D02*
X39225476Y-44263390D01*
X39225476Y-44263390D02*
X39273095Y-44311009D01*
X39273095Y-44311009D02*
X39320714Y-44406247D01*
X39320714Y-44406247D02*
X39320714Y-44644342D01*
X39320714Y-44644342D02*
X39273095Y-44739580D01*
X39273095Y-44739580D02*
X39225476Y-44787200D01*
X39225476Y-44787200D02*
X39130238Y-44834819D01*
X39130238Y-44834819D02*
X38844524Y-44834819D01*
X38844524Y-44834819D02*
X38749286Y-44787200D01*
X38749286Y-44787200D02*
X38701667Y-44739580D01*
X34463095Y-45154819D02*
X34463095Y-44154819D01*
X35034523Y-45154819D02*
X34605952Y-44583390D01*
X35034523Y-44154819D02*
X34463095Y-44726247D01*
X48656009Y-34333333D02*
X48656009Y-34666666D01*
X49179819Y-34666666D02*
X48179819Y-34666666D01*
X48179819Y-34666666D02*
X48179819Y-34190476D01*
X48656009Y-33476190D02*
X48703628Y-33333333D01*
X48703628Y-33333333D02*
X48751247Y-33285714D01*
X48751247Y-33285714D02*
X48846485Y-33238095D01*
X48846485Y-33238095D02*
X48989342Y-33238095D01*
X48989342Y-33238095D02*
X49084580Y-33285714D01*
X49084580Y-33285714D02*
X49132200Y-33333333D01*
X49132200Y-33333333D02*
X49179819Y-33428571D01*
X49179819Y-33428571D02*
X49179819Y-33809523D01*
X49179819Y-33809523D02*
X48179819Y-33809523D01*
X48179819Y-33809523D02*
X48179819Y-33476190D01*
X48179819Y-33476190D02*
X48227438Y-33380952D01*
X48227438Y-33380952D02*
X48275057Y-33333333D01*
X48275057Y-33333333D02*
X48370295Y-33285714D01*
X48370295Y-33285714D02*
X48465533Y-33285714D01*
X48465533Y-33285714D02*
X48560771Y-33333333D01*
X48560771Y-33333333D02*
X48608390Y-33380952D01*
X48608390Y-33380952D02*
X48656009Y-33476190D01*
X48656009Y-33476190D02*
X48656009Y-33809523D01*
X48179819Y-32333333D02*
X48179819Y-32809523D01*
X48179819Y-32809523D02*
X48656009Y-32857142D01*
X48656009Y-32857142D02*
X48608390Y-32809523D01*
X48608390Y-32809523D02*
X48560771Y-32714285D01*
X48560771Y-32714285D02*
X48560771Y-32476190D01*
X48560771Y-32476190D02*
X48608390Y-32380952D01*
X48608390Y-32380952D02*
X48656009Y-32333333D01*
X48656009Y-32333333D02*
X48751247Y-32285714D01*
X48751247Y-32285714D02*
X48989342Y-32285714D01*
X48989342Y-32285714D02*
X49084580Y-32333333D01*
X49084580Y-32333333D02*
X49132200Y-32380952D01*
X49132200Y-32380952D02*
X49179819Y-32476190D01*
X49179819Y-32476190D02*
X49179819Y-32714285D01*
X49179819Y-32714285D02*
X49132200Y-32809523D01*
X49132200Y-32809523D02*
X49084580Y-32857142D01*
X126333333Y-39429580D02*
X126285714Y-39477200D01*
X126285714Y-39477200D02*
X126142857Y-39524819D01*
X126142857Y-39524819D02*
X126047619Y-39524819D01*
X126047619Y-39524819D02*
X125904762Y-39477200D01*
X125904762Y-39477200D02*
X125809524Y-39381961D01*
X125809524Y-39381961D02*
X125761905Y-39286723D01*
X125761905Y-39286723D02*
X125714286Y-39096247D01*
X125714286Y-39096247D02*
X125714286Y-38953390D01*
X125714286Y-38953390D02*
X125761905Y-38762914D01*
X125761905Y-38762914D02*
X125809524Y-38667676D01*
X125809524Y-38667676D02*
X125904762Y-38572438D01*
X125904762Y-38572438D02*
X126047619Y-38524819D01*
X126047619Y-38524819D02*
X126142857Y-38524819D01*
X126142857Y-38524819D02*
X126285714Y-38572438D01*
X126285714Y-38572438D02*
X126333333Y-38620057D01*
X126666667Y-38524819D02*
X127285714Y-38524819D01*
X127285714Y-38524819D02*
X126952381Y-38905771D01*
X126952381Y-38905771D02*
X127095238Y-38905771D01*
X127095238Y-38905771D02*
X127190476Y-38953390D01*
X127190476Y-38953390D02*
X127238095Y-39001009D01*
X127238095Y-39001009D02*
X127285714Y-39096247D01*
X127285714Y-39096247D02*
X127285714Y-39334342D01*
X127285714Y-39334342D02*
X127238095Y-39429580D01*
X127238095Y-39429580D02*
X127190476Y-39477200D01*
X127190476Y-39477200D02*
X127095238Y-39524819D01*
X127095238Y-39524819D02*
X126809524Y-39524819D01*
X126809524Y-39524819D02*
X126714286Y-39477200D01*
X126714286Y-39477200D02*
X126666667Y-39429580D01*
X60156009Y-34333333D02*
X60156009Y-34666666D01*
X60679819Y-34666666D02*
X59679819Y-34666666D01*
X59679819Y-34666666D02*
X59679819Y-34190476D01*
X60156009Y-33476190D02*
X60203628Y-33333333D01*
X60203628Y-33333333D02*
X60251247Y-33285714D01*
X60251247Y-33285714D02*
X60346485Y-33238095D01*
X60346485Y-33238095D02*
X60489342Y-33238095D01*
X60489342Y-33238095D02*
X60584580Y-33285714D01*
X60584580Y-33285714D02*
X60632200Y-33333333D01*
X60632200Y-33333333D02*
X60679819Y-33428571D01*
X60679819Y-33428571D02*
X60679819Y-33809523D01*
X60679819Y-33809523D02*
X59679819Y-33809523D01*
X59679819Y-33809523D02*
X59679819Y-33476190D01*
X59679819Y-33476190D02*
X59727438Y-33380952D01*
X59727438Y-33380952D02*
X59775057Y-33333333D01*
X59775057Y-33333333D02*
X59870295Y-33285714D01*
X59870295Y-33285714D02*
X59965533Y-33285714D01*
X59965533Y-33285714D02*
X60060771Y-33333333D01*
X60060771Y-33333333D02*
X60108390Y-33380952D01*
X60108390Y-33380952D02*
X60156009Y-33476190D01*
X60156009Y-33476190D02*
X60156009Y-33809523D01*
X59679819Y-32380952D02*
X59679819Y-32571428D01*
X59679819Y-32571428D02*
X59727438Y-32666666D01*
X59727438Y-32666666D02*
X59775057Y-32714285D01*
X59775057Y-32714285D02*
X59917914Y-32809523D01*
X59917914Y-32809523D02*
X60108390Y-32857142D01*
X60108390Y-32857142D02*
X60489342Y-32857142D01*
X60489342Y-32857142D02*
X60584580Y-32809523D01*
X60584580Y-32809523D02*
X60632200Y-32761904D01*
X60632200Y-32761904D02*
X60679819Y-32666666D01*
X60679819Y-32666666D02*
X60679819Y-32476190D01*
X60679819Y-32476190D02*
X60632200Y-32380952D01*
X60632200Y-32380952D02*
X60584580Y-32333333D01*
X60584580Y-32333333D02*
X60489342Y-32285714D01*
X60489342Y-32285714D02*
X60251247Y-32285714D01*
X60251247Y-32285714D02*
X60156009Y-32333333D01*
X60156009Y-32333333D02*
X60108390Y-32380952D01*
X60108390Y-32380952D02*
X60060771Y-32476190D01*
X60060771Y-32476190D02*
X60060771Y-32666666D01*
X60060771Y-32666666D02*
X60108390Y-32761904D01*
X60108390Y-32761904D02*
X60156009Y-32809523D01*
X60156009Y-32809523D02*
X60251247Y-32857142D01*
X130857142Y-52929580D02*
X130809523Y-52977200D01*
X130809523Y-52977200D02*
X130666666Y-53024819D01*
X130666666Y-53024819D02*
X130571428Y-53024819D01*
X130571428Y-53024819D02*
X130428571Y-52977200D01*
X130428571Y-52977200D02*
X130333333Y-52881961D01*
X130333333Y-52881961D02*
X130285714Y-52786723D01*
X130285714Y-52786723D02*
X130238095Y-52596247D01*
X130238095Y-52596247D02*
X130238095Y-52453390D01*
X130238095Y-52453390D02*
X130285714Y-52262914D01*
X130285714Y-52262914D02*
X130333333Y-52167676D01*
X130333333Y-52167676D02*
X130428571Y-52072438D01*
X130428571Y-52072438D02*
X130571428Y-52024819D01*
X130571428Y-52024819D02*
X130666666Y-52024819D01*
X130666666Y-52024819D02*
X130809523Y-52072438D01*
X130809523Y-52072438D02*
X130857142Y-52120057D01*
X131809523Y-53024819D02*
X131238095Y-53024819D01*
X131523809Y-53024819D02*
X131523809Y-52024819D01*
X131523809Y-52024819D02*
X131428571Y-52167676D01*
X131428571Y-52167676D02*
X131333333Y-52262914D01*
X131333333Y-52262914D02*
X131238095Y-52310533D01*
X132761904Y-53024819D02*
X132190476Y-53024819D01*
X132476190Y-53024819D02*
X132476190Y-52024819D01*
X132476190Y-52024819D02*
X132380952Y-52167676D01*
X132380952Y-52167676D02*
X132285714Y-52262914D01*
X132285714Y-52262914D02*
X132190476Y-52310533D01*
X95166666Y-20454819D02*
X95166666Y-21169104D01*
X95166666Y-21169104D02*
X95119047Y-21311961D01*
X95119047Y-21311961D02*
X95023809Y-21407200D01*
X95023809Y-21407200D02*
X94880952Y-21454819D01*
X94880952Y-21454819D02*
X94785714Y-21454819D01*
X96071428Y-20788152D02*
X96071428Y-21454819D01*
X95833333Y-20407200D02*
X95595238Y-21121485D01*
X95595238Y-21121485D02*
X96214285Y-21121485D01*
X78238095Y-33574819D02*
X78238095Y-34384342D01*
X78238095Y-34384342D02*
X78285714Y-34479580D01*
X78285714Y-34479580D02*
X78333333Y-34527200D01*
X78333333Y-34527200D02*
X78428571Y-34574819D01*
X78428571Y-34574819D02*
X78619047Y-34574819D01*
X78619047Y-34574819D02*
X78714285Y-34527200D01*
X78714285Y-34527200D02*
X78761904Y-34479580D01*
X78761904Y-34479580D02*
X78809523Y-34384342D01*
X78809523Y-34384342D02*
X78809523Y-33574819D01*
X79809523Y-34574819D02*
X79238095Y-34574819D01*
X79523809Y-34574819D02*
X79523809Y-33574819D01*
X79523809Y-33574819D02*
X79428571Y-33717676D01*
X79428571Y-33717676D02*
X79333333Y-33812914D01*
X79333333Y-33812914D02*
X79238095Y-33860533D01*
X67679819Y-40170238D02*
X67203628Y-40503571D01*
X67679819Y-40741666D02*
X66679819Y-40741666D01*
X66679819Y-40741666D02*
X66679819Y-40360714D01*
X66679819Y-40360714D02*
X66727438Y-40265476D01*
X66727438Y-40265476D02*
X66775057Y-40217857D01*
X66775057Y-40217857D02*
X66870295Y-40170238D01*
X66870295Y-40170238D02*
X67013152Y-40170238D01*
X67013152Y-40170238D02*
X67108390Y-40217857D01*
X67108390Y-40217857D02*
X67156009Y-40265476D01*
X67156009Y-40265476D02*
X67203628Y-40360714D01*
X67203628Y-40360714D02*
X67203628Y-40741666D01*
X67394104Y-39789285D02*
X67394104Y-39313095D01*
X67679819Y-39884523D02*
X66679819Y-39551190D01*
X66679819Y-39551190D02*
X67679819Y-39217857D01*
X67679819Y-38360714D02*
X67679819Y-38932142D01*
X67679819Y-38646428D02*
X66679819Y-38646428D01*
X66679819Y-38646428D02*
X66822676Y-38741666D01*
X66822676Y-38741666D02*
X66917914Y-38836904D01*
X66917914Y-38836904D02*
X66965533Y-38932142D01*
X93769642Y-34524819D02*
X93436309Y-34048628D01*
X93198214Y-34524819D02*
X93198214Y-33524819D01*
X93198214Y-33524819D02*
X93579166Y-33524819D01*
X93579166Y-33524819D02*
X93674404Y-33572438D01*
X93674404Y-33572438D02*
X93722023Y-33620057D01*
X93722023Y-33620057D02*
X93769642Y-33715295D01*
X93769642Y-33715295D02*
X93769642Y-33858152D01*
X93769642Y-33858152D02*
X93722023Y-33953390D01*
X93722023Y-33953390D02*
X93674404Y-34001009D01*
X93674404Y-34001009D02*
X93579166Y-34048628D01*
X93579166Y-34048628D02*
X93198214Y-34048628D01*
X94722023Y-34524819D02*
X94150595Y-34524819D01*
X94436309Y-34524819D02*
X94436309Y-33524819D01*
X94436309Y-33524819D02*
X94341071Y-33667676D01*
X94341071Y-33667676D02*
X94245833Y-33762914D01*
X94245833Y-33762914D02*
X94150595Y-33810533D01*
X95674404Y-34524819D02*
X95102976Y-34524819D01*
X95388690Y-34524819D02*
X95388690Y-33524819D01*
X95388690Y-33524819D02*
X95293452Y-33667676D01*
X95293452Y-33667676D02*
X95198214Y-33762914D01*
X95198214Y-33762914D02*
X95102976Y-33810533D01*
X69749819Y-44555357D02*
X69273628Y-44888690D01*
X69749819Y-45126785D02*
X68749819Y-45126785D01*
X68749819Y-45126785D02*
X68749819Y-44745833D01*
X68749819Y-44745833D02*
X68797438Y-44650595D01*
X68797438Y-44650595D02*
X68845057Y-44602976D01*
X68845057Y-44602976D02*
X68940295Y-44555357D01*
X68940295Y-44555357D02*
X69083152Y-44555357D01*
X69083152Y-44555357D02*
X69178390Y-44602976D01*
X69178390Y-44602976D02*
X69226009Y-44650595D01*
X69226009Y-44650595D02*
X69273628Y-44745833D01*
X69273628Y-44745833D02*
X69273628Y-45126785D01*
X69749819Y-43602976D02*
X69749819Y-44174404D01*
X69749819Y-43888690D02*
X68749819Y-43888690D01*
X68749819Y-43888690D02*
X68892676Y-43983928D01*
X68892676Y-43983928D02*
X68987914Y-44079166D01*
X68987914Y-44079166D02*
X69035533Y-44174404D01*
X69083152Y-42745833D02*
X69749819Y-42745833D01*
X68702200Y-42983928D02*
X69416485Y-43222023D01*
X69416485Y-43222023D02*
X69416485Y-42602976D01*
X76039742Y-60057180D02*
X75992123Y-60104800D01*
X75992123Y-60104800D02*
X75849266Y-60152419D01*
X75849266Y-60152419D02*
X75754028Y-60152419D01*
X75754028Y-60152419D02*
X75611171Y-60104800D01*
X75611171Y-60104800D02*
X75515933Y-60009561D01*
X75515933Y-60009561D02*
X75468314Y-59914323D01*
X75468314Y-59914323D02*
X75420695Y-59723847D01*
X75420695Y-59723847D02*
X75420695Y-59580990D01*
X75420695Y-59580990D02*
X75468314Y-59390514D01*
X75468314Y-59390514D02*
X75515933Y-59295276D01*
X75515933Y-59295276D02*
X75611171Y-59200038D01*
X75611171Y-59200038D02*
X75754028Y-59152419D01*
X75754028Y-59152419D02*
X75849266Y-59152419D01*
X75849266Y-59152419D02*
X75992123Y-59200038D01*
X75992123Y-59200038D02*
X76039742Y-59247657D01*
X76992123Y-60152419D02*
X76420695Y-60152419D01*
X76706409Y-60152419D02*
X76706409Y-59152419D01*
X76706409Y-59152419D02*
X76611171Y-59295276D01*
X76611171Y-59295276D02*
X76515933Y-59390514D01*
X76515933Y-59390514D02*
X76420695Y-59438133D01*
X77849266Y-59485752D02*
X77849266Y-60152419D01*
X77611171Y-59104800D02*
X77373076Y-59819085D01*
X77373076Y-59819085D02*
X77992123Y-59819085D01*
X93946742Y-49795580D02*
X93899123Y-49843200D01*
X93899123Y-49843200D02*
X93756266Y-49890819D01*
X93756266Y-49890819D02*
X93661028Y-49890819D01*
X93661028Y-49890819D02*
X93518171Y-49843200D01*
X93518171Y-49843200D02*
X93422933Y-49747961D01*
X93422933Y-49747961D02*
X93375314Y-49652723D01*
X93375314Y-49652723D02*
X93327695Y-49462247D01*
X93327695Y-49462247D02*
X93327695Y-49319390D01*
X93327695Y-49319390D02*
X93375314Y-49128914D01*
X93375314Y-49128914D02*
X93422933Y-49033676D01*
X93422933Y-49033676D02*
X93518171Y-48938438D01*
X93518171Y-48938438D02*
X93661028Y-48890819D01*
X93661028Y-48890819D02*
X93756266Y-48890819D01*
X93756266Y-48890819D02*
X93899123Y-48938438D01*
X93899123Y-48938438D02*
X93946742Y-48986057D01*
X94899123Y-49890819D02*
X94327695Y-49890819D01*
X94613409Y-49890819D02*
X94613409Y-48890819D01*
X94613409Y-48890819D02*
X94518171Y-49033676D01*
X94518171Y-49033676D02*
X94422933Y-49128914D01*
X94422933Y-49128914D02*
X94327695Y-49176533D01*
X95518171Y-48890819D02*
X95613409Y-48890819D01*
X95613409Y-48890819D02*
X95708647Y-48938438D01*
X95708647Y-48938438D02*
X95756266Y-48986057D01*
X95756266Y-48986057D02*
X95803885Y-49081295D01*
X95803885Y-49081295D02*
X95851504Y-49271771D01*
X95851504Y-49271771D02*
X95851504Y-49509866D01*
X95851504Y-49509866D02*
X95803885Y-49700342D01*
X95803885Y-49700342D02*
X95756266Y-49795580D01*
X95756266Y-49795580D02*
X95708647Y-49843200D01*
X95708647Y-49843200D02*
X95613409Y-49890819D01*
X95613409Y-49890819D02*
X95518171Y-49890819D01*
X95518171Y-49890819D02*
X95422933Y-49843200D01*
X95422933Y-49843200D02*
X95375314Y-49795580D01*
X95375314Y-49795580D02*
X95327695Y-49700342D01*
X95327695Y-49700342D02*
X95280076Y-49509866D01*
X95280076Y-49509866D02*
X95280076Y-49271771D01*
X95280076Y-49271771D02*
X95327695Y-49081295D01*
X95327695Y-49081295D02*
X95375314Y-48986057D01*
X95375314Y-48986057D02*
X95422933Y-48938438D01*
X95422933Y-48938438D02*
X95518171Y-48890819D01*
X117387581Y-44849159D02*
X117387581Y-45659345D01*
X117387581Y-45659345D02*
X117435239Y-45754661D01*
X117435239Y-45754661D02*
X117482897Y-45802320D01*
X117482897Y-45802320D02*
X117578213Y-45849978D01*
X117578213Y-45849978D02*
X117768845Y-45849978D01*
X117768845Y-45849978D02*
X117864161Y-45802320D01*
X117864161Y-45802320D02*
X117911819Y-45754661D01*
X117911819Y-45754661D02*
X117959477Y-45659345D01*
X117959477Y-45659345D02*
X117959477Y-44849159D01*
X118388400Y-44944475D02*
X118436058Y-44896817D01*
X118436058Y-44896817D02*
X118531374Y-44849159D01*
X118531374Y-44849159D02*
X118769664Y-44849159D01*
X118769664Y-44849159D02*
X118864980Y-44896817D01*
X118864980Y-44896817D02*
X118912638Y-44944475D01*
X118912638Y-44944475D02*
X118960296Y-45039791D01*
X118960296Y-45039791D02*
X118960296Y-45135107D01*
X118960296Y-45135107D02*
X118912638Y-45278081D01*
X118912638Y-45278081D02*
X118340742Y-45849978D01*
X118340742Y-45849978D02*
X118960296Y-45849978D01*
X123970833Y-29884819D02*
X123637500Y-29408628D01*
X123399405Y-29884819D02*
X123399405Y-28884819D01*
X123399405Y-28884819D02*
X123780357Y-28884819D01*
X123780357Y-28884819D02*
X123875595Y-28932438D01*
X123875595Y-28932438D02*
X123923214Y-28980057D01*
X123923214Y-28980057D02*
X123970833Y-29075295D01*
X123970833Y-29075295D02*
X123970833Y-29218152D01*
X123970833Y-29218152D02*
X123923214Y-29313390D01*
X123923214Y-29313390D02*
X123875595Y-29361009D01*
X123875595Y-29361009D02*
X123780357Y-29408628D01*
X123780357Y-29408628D02*
X123399405Y-29408628D01*
X124923214Y-29884819D02*
X124351786Y-29884819D01*
X124637500Y-29884819D02*
X124637500Y-28884819D01*
X124637500Y-28884819D02*
X124542262Y-29027676D01*
X124542262Y-29027676D02*
X124447024Y-29122914D01*
X124447024Y-29122914D02*
X124351786Y-29170533D01*
X68210133Y-57197180D02*
X68162514Y-57244800D01*
X68162514Y-57244800D02*
X68019657Y-57292419D01*
X68019657Y-57292419D02*
X67924419Y-57292419D01*
X67924419Y-57292419D02*
X67781562Y-57244800D01*
X67781562Y-57244800D02*
X67686324Y-57149561D01*
X67686324Y-57149561D02*
X67638705Y-57054323D01*
X67638705Y-57054323D02*
X67591086Y-56863847D01*
X67591086Y-56863847D02*
X67591086Y-56720990D01*
X67591086Y-56720990D02*
X67638705Y-56530514D01*
X67638705Y-56530514D02*
X67686324Y-56435276D01*
X67686324Y-56435276D02*
X67781562Y-56340038D01*
X67781562Y-56340038D02*
X67924419Y-56292419D01*
X67924419Y-56292419D02*
X68019657Y-56292419D01*
X68019657Y-56292419D02*
X68162514Y-56340038D01*
X68162514Y-56340038D02*
X68210133Y-56387657D01*
X69067276Y-56292419D02*
X68876800Y-56292419D01*
X68876800Y-56292419D02*
X68781562Y-56340038D01*
X68781562Y-56340038D02*
X68733943Y-56387657D01*
X68733943Y-56387657D02*
X68638705Y-56530514D01*
X68638705Y-56530514D02*
X68591086Y-56720990D01*
X68591086Y-56720990D02*
X68591086Y-57101942D01*
X68591086Y-57101942D02*
X68638705Y-57197180D01*
X68638705Y-57197180D02*
X68686324Y-57244800D01*
X68686324Y-57244800D02*
X68781562Y-57292419D01*
X68781562Y-57292419D02*
X68972038Y-57292419D01*
X68972038Y-57292419D02*
X69067276Y-57244800D01*
X69067276Y-57244800D02*
X69114895Y-57197180D01*
X69114895Y-57197180D02*
X69162514Y-57101942D01*
X69162514Y-57101942D02*
X69162514Y-56863847D01*
X69162514Y-56863847D02*
X69114895Y-56768609D01*
X69114895Y-56768609D02*
X69067276Y-56720990D01*
X69067276Y-56720990D02*
X68972038Y-56673371D01*
X68972038Y-56673371D02*
X68781562Y-56673371D01*
X68781562Y-56673371D02*
X68686324Y-56720990D01*
X68686324Y-56720990D02*
X68638705Y-56768609D01*
X68638705Y-56768609D02*
X68591086Y-56863847D01*
D13*
%TO.C,G\u002A\u002A\u002A*%
G36*
X117577145Y-47656223D02*
G01*
X117898923Y-47662207D01*
X118168870Y-47675820D01*
X118417504Y-47699682D01*
X118675342Y-47736413D01*
X118972901Y-47788632D01*
X119176799Y-47827257D01*
X119511418Y-47891515D01*
X119924296Y-47970703D01*
X120382812Y-48058571D01*
X120854342Y-48148867D01*
X121306261Y-48235340D01*
X121406355Y-48254481D01*
X121945648Y-48360004D01*
X122384815Y-48452602D01*
X122735294Y-48536572D01*
X123008526Y-48616211D01*
X123215952Y-48695817D01*
X123369011Y-48779688D01*
X123479143Y-48872121D01*
X123557790Y-48977414D01*
X123609155Y-49081984D01*
X123622868Y-49122735D01*
X123634501Y-49177985D01*
X123643931Y-49253793D01*
X123651039Y-49356219D01*
X123655701Y-49491325D01*
X123657798Y-49665171D01*
X123657208Y-49883816D01*
X123653811Y-50153322D01*
X123647484Y-50479748D01*
X123638106Y-50869155D01*
X123625557Y-51327603D01*
X123609716Y-51861152D01*
X123590460Y-52475863D01*
X123567669Y-53177797D01*
X123541223Y-53973012D01*
X123510998Y-54867571D01*
X123476875Y-55867532D01*
X123468713Y-56105777D01*
X123441007Y-56912896D01*
X123416401Y-57615114D01*
X123393995Y-58220351D01*
X123372889Y-58736525D01*
X123352181Y-59171553D01*
X123330972Y-59533355D01*
X123308360Y-59829847D01*
X123283444Y-60068949D01*
X123255325Y-60258578D01*
X123223101Y-60406653D01*
X123185871Y-60521092D01*
X123142736Y-60609813D01*
X123092795Y-60680734D01*
X123035146Y-60741773D01*
X122968889Y-60800849D01*
X122930991Y-60833202D01*
X122776980Y-60932181D01*
X122517349Y-61057342D01*
X122155938Y-61207239D01*
X121696583Y-61380424D01*
X121143122Y-61575452D01*
X120499391Y-61790875D01*
X119769466Y-62025172D01*
X119268138Y-62183026D01*
X118858574Y-62310441D01*
X118524798Y-62410677D01*
X118250830Y-62486993D01*
X118020693Y-62542649D01*
X117818410Y-62580904D01*
X117628002Y-62605018D01*
X117433493Y-62618249D01*
X117218904Y-62623859D01*
X116968259Y-62625105D01*
X116828594Y-62625111D01*
X116478384Y-62625951D01*
X116218062Y-62630336D01*
X116024632Y-62641058D01*
X115875095Y-62660912D01*
X115746454Y-62692690D01*
X115615711Y-62739187D01*
X115499709Y-62786539D01*
X115116179Y-62936843D01*
X114645506Y-63105418D01*
X114110461Y-63284774D01*
X113533810Y-63467422D01*
X112938324Y-63645873D01*
X112553565Y-63755615D01*
X112097620Y-63881007D01*
X111734775Y-63975723D01*
X111450322Y-64042565D01*
X111229549Y-64084332D01*
X111057746Y-64103822D01*
X110920202Y-64103837D01*
X110806599Y-64088098D01*
X110583365Y-64003190D01*
X110410814Y-63845098D01*
X110280806Y-63602258D01*
X110185202Y-63263111D01*
X110169603Y-63183305D01*
X110102894Y-62821261D01*
X109023624Y-63180152D01*
X108563053Y-63330041D01*
X108193905Y-63441410D01*
X107902325Y-63516480D01*
X107674456Y-63557476D01*
X107496444Y-63566620D01*
X107354432Y-63546136D01*
X107234565Y-63498248D01*
X107192863Y-63473910D01*
X107025256Y-63315096D01*
X106871773Y-63072354D01*
X106745540Y-62774638D01*
X106659686Y-62450905D01*
X106631402Y-62235455D01*
X106620951Y-62024416D01*
X106621978Y-62011758D01*
X106797996Y-62011758D01*
X106803480Y-62251655D01*
X106852278Y-62532768D01*
X106940858Y-62825193D01*
X106961711Y-62879111D01*
X107058927Y-63089926D01*
X107158089Y-63223289D01*
X107284309Y-63312238D01*
X107295244Y-63317876D01*
X107404086Y-63363756D01*
X107520157Y-63387340D01*
X107660446Y-63386099D01*
X107841938Y-63357505D01*
X108081622Y-63299028D01*
X108396484Y-63208141D01*
X108736369Y-63103374D01*
X109208849Y-62951309D01*
X109574354Y-62823505D01*
X109835644Y-62717732D01*
X109995481Y-62631760D01*
X110056626Y-62563360D01*
X110045689Y-62546678D01*
X110289264Y-62546678D01*
X110298930Y-62810250D01*
X110342524Y-63203386D01*
X110425694Y-63519758D01*
X110544413Y-63747874D01*
X110667402Y-63862145D01*
X110804006Y-63908951D01*
X110999186Y-63919581D01*
X111262999Y-63892696D01*
X111605499Y-63826954D01*
X112036742Y-63721018D01*
X112332993Y-63640206D01*
X112793295Y-63507233D01*
X113266996Y-63363356D01*
X113734526Y-63215087D01*
X114176310Y-63068935D01*
X114572779Y-62931411D01*
X114904359Y-62809026D01*
X115151478Y-62708288D01*
X115197466Y-62687391D01*
X115451466Y-62568392D01*
X114491910Y-62592015D01*
X114116037Y-62603370D01*
X113832851Y-62617792D01*
X113622156Y-62637496D01*
X113463753Y-62664697D01*
X113337444Y-62701611D01*
X113278355Y-62725116D01*
X113127202Y-62779939D01*
X112894423Y-62852321D01*
X112608421Y-62934559D01*
X112297595Y-63018955D01*
X111990347Y-63097806D01*
X111715078Y-63163413D01*
X111500190Y-63208074D01*
X111491167Y-63209685D01*
X111375226Y-63220440D01*
X111292860Y-63191195D01*
X111227443Y-63102930D01*
X111162346Y-62936628D01*
X111111723Y-62775679D01*
X111027296Y-62567477D01*
X110995534Y-62512222D01*
X111241239Y-62512222D01*
X111279433Y-62723889D01*
X111307906Y-62868802D01*
X111344593Y-62961937D01*
X111409983Y-63009548D01*
X111524563Y-63017893D01*
X111708822Y-62993229D01*
X111983249Y-62941811D01*
X111989278Y-62940653D01*
X112248625Y-62881305D01*
X112515855Y-62804366D01*
X112761864Y-62719889D01*
X112957547Y-62637926D01*
X113073797Y-62568530D01*
X113077977Y-62564629D01*
X113045269Y-62544860D01*
X112908813Y-62529288D01*
X112677689Y-62518447D01*
X112360978Y-62512872D01*
X112186419Y-62512222D01*
X111241239Y-62512222D01*
X110995534Y-62512222D01*
X110908292Y-62360451D01*
X110773964Y-62180381D01*
X110643568Y-62053046D01*
X110536358Y-62004226D01*
X110535532Y-62004222D01*
X110452322Y-62047423D01*
X110365165Y-62147028D01*
X110319563Y-62240462D01*
X110295169Y-62364595D01*
X110289264Y-62546678D01*
X110045689Y-62546678D01*
X110021840Y-62510302D01*
X109893884Y-62470355D01*
X109675519Y-62441290D01*
X109567133Y-62432472D01*
X109234128Y-62410031D01*
X108987708Y-62399118D01*
X108801958Y-62401837D01*
X108650969Y-62420291D01*
X108508829Y-62456584D01*
X108349626Y-62512818D01*
X108288550Y-62536256D01*
X108089120Y-62606160D01*
X107925511Y-62650276D01*
X107830028Y-62660073D01*
X107825000Y-62658662D01*
X107763129Y-62596556D01*
X107673673Y-62461941D01*
X107581665Y-62294763D01*
X107425619Y-62034071D01*
X107263835Y-61848378D01*
X107107789Y-61744669D01*
X106968957Y-61729927D01*
X106858815Y-61811139D01*
X106839356Y-61842983D01*
X106797996Y-62011758D01*
X106621978Y-62011758D01*
X106632027Y-61887895D01*
X106672299Y-61788374D01*
X106741271Y-61697768D01*
X106899278Y-61565305D01*
X107062730Y-61536862D01*
X107240655Y-61613772D01*
X107442078Y-61797371D01*
X107446266Y-61801984D01*
X107587947Y-61977603D01*
X107704301Y-62155495D01*
X107755343Y-62260595D01*
X107821214Y-62395367D01*
X107909095Y-62449293D01*
X107985729Y-62455777D01*
X108146220Y-62433430D01*
X108329077Y-62378706D01*
X108352132Y-62369456D01*
X108558728Y-62283135D01*
X108355387Y-62115524D01*
X108168081Y-61930534D01*
X108038989Y-61721305D01*
X107959800Y-61464445D01*
X107922204Y-61136559D01*
X107916133Y-60879075D01*
X107914604Y-60615281D01*
X107906089Y-60437054D01*
X107884697Y-60317074D01*
X107844536Y-60228024D01*
X107779714Y-60142586D01*
X107749878Y-60108216D01*
X107576195Y-59829675D01*
X107482432Y-59499476D01*
X107471747Y-59238444D01*
X107610446Y-59238444D01*
X107651650Y-59612303D01*
X107770641Y-59910252D01*
X107976688Y-60145800D01*
X108279059Y-60332456D01*
X108395910Y-60383356D01*
X108707208Y-60466410D01*
X109015537Y-60454935D01*
X109347717Y-60347194D01*
X109411910Y-60317540D01*
X109777137Y-60083990D01*
X110113644Y-59753599D01*
X110159105Y-59690000D01*
X110343244Y-59690000D01*
X110366881Y-59781720D01*
X110399688Y-59802889D01*
X110445548Y-59755614D01*
X110456133Y-59690000D01*
X110432495Y-59598279D01*
X110399688Y-59577111D01*
X110353828Y-59624386D01*
X110343244Y-59690000D01*
X110159105Y-59690000D01*
X110408337Y-59341331D01*
X110496287Y-59171034D01*
X110636231Y-59171034D01*
X110640846Y-59264173D01*
X110710133Y-59294889D01*
X110785219Y-59262649D01*
X110794799Y-59235113D01*
X110829433Y-59201521D01*
X110851642Y-59210468D01*
X110912671Y-59203179D01*
X110949630Y-59123456D01*
X110948484Y-59011306D01*
X110935891Y-58970333D01*
X110900476Y-58905592D01*
X110867831Y-58941059D01*
X110849152Y-58984444D01*
X110811520Y-59048982D01*
X110796971Y-59012666D01*
X110778523Y-58968115D01*
X110724531Y-59016677D01*
X110708337Y-59037566D01*
X110636231Y-59171034D01*
X110496287Y-59171034D01*
X110612694Y-58945637D01*
X110691349Y-58741945D01*
X110753439Y-58535131D01*
X110797674Y-58340618D01*
X110822763Y-58173833D01*
X110827415Y-58050200D01*
X110810342Y-57985144D01*
X110770253Y-57994091D01*
X110705858Y-58092465D01*
X110679564Y-58146089D01*
X110614902Y-58256414D01*
X110577841Y-58269461D01*
X110575025Y-58198876D01*
X110613102Y-58058309D01*
X110623309Y-58030561D01*
X110650185Y-57902926D01*
X110620053Y-57860456D01*
X110558003Y-57910831D01*
X110512577Y-57996666D01*
X110444615Y-58110954D01*
X110390355Y-58128970D01*
X110371434Y-58053053D01*
X110381570Y-57982499D01*
X110396630Y-57899661D01*
X110376168Y-57900278D01*
X110302887Y-57986475D01*
X110297745Y-57992801D01*
X110214387Y-58122048D01*
X110118597Y-58308570D01*
X110059067Y-58444356D01*
X109857593Y-58845025D01*
X109605268Y-59191494D01*
X109318341Y-59466111D01*
X109013060Y-59651226D01*
X108913399Y-59688917D01*
X108750015Y-59727052D01*
X108604830Y-59715037D01*
X108456237Y-59666260D01*
X108239439Y-59566864D01*
X108097314Y-59449581D01*
X108031159Y-59322092D01*
X108133951Y-59322092D01*
X108282189Y-59449602D01*
X108437757Y-59542032D01*
X108641600Y-59576052D01*
X108698714Y-59577111D01*
X108934983Y-59558871D01*
X109080012Y-59492456D01*
X109151213Y-59360319D01*
X109166000Y-59144915D01*
X109164586Y-59107691D01*
X109162799Y-59069111D01*
X109152340Y-58843333D01*
X109270799Y-58843333D01*
X109270799Y-59069111D01*
X109283102Y-59230796D01*
X109325856Y-59285930D01*
X109407833Y-59238749D01*
X109475305Y-59167889D01*
X109615955Y-59004337D01*
X109683326Y-58907717D01*
X109678947Y-58860415D01*
X109604349Y-58844819D01*
X109503488Y-58843333D01*
X109270799Y-58843333D01*
X109152340Y-58843333D01*
X109150027Y-58793396D01*
X109422080Y-58776031D01*
X109694133Y-58758666D01*
X109711489Y-58518777D01*
X109836108Y-58518777D01*
X109845020Y-58601254D01*
X109878221Y-58580976D01*
X109891688Y-58561111D01*
X109939513Y-58466537D01*
X109947268Y-58434111D01*
X109904893Y-58392959D01*
X109891688Y-58391777D01*
X109847968Y-58439583D01*
X109836108Y-58518777D01*
X109711489Y-58518777D01*
X109729349Y-58367715D01*
X109768821Y-58298325D01*
X109852659Y-58279397D01*
X109886361Y-58278889D01*
X109998555Y-58258663D01*
X110080140Y-58179315D01*
X110144934Y-58054784D01*
X110239690Y-57880205D01*
X110340530Y-57748856D01*
X110429774Y-57678362D01*
X110489741Y-57686352D01*
X110498090Y-57702689D01*
X110540242Y-57745943D01*
X110601159Y-57711195D01*
X110684622Y-57680334D01*
X110769035Y-57737061D01*
X110862008Y-57809107D01*
X110911720Y-57827333D01*
X110948619Y-57877252D01*
X110962729Y-58006139D01*
X110955426Y-58182692D01*
X110928086Y-58375607D01*
X110882084Y-58553581D01*
X110879466Y-58561111D01*
X110822334Y-58725320D01*
X110803265Y-58809193D01*
X110824946Y-58839597D01*
X110890063Y-58843400D01*
X110907688Y-58843333D01*
X110981799Y-58862457D01*
X111014373Y-58939587D01*
X111020577Y-59067125D01*
X110984845Y-59261976D01*
X110874018Y-59373628D01*
X110691660Y-59407777D01*
X110582803Y-59450200D01*
X110524991Y-59582795D01*
X110512577Y-59745022D01*
X110477429Y-59885228D01*
X110363623Y-59957189D01*
X110219461Y-59972222D01*
X110117921Y-60007014D01*
X109968291Y-60097573D01*
X109826138Y-60205623D01*
X109481847Y-60440670D01*
X109133816Y-60566463D01*
X108767625Y-60586132D01*
X108404881Y-60513968D01*
X108141910Y-60434826D01*
X108141910Y-60919481D01*
X108164144Y-61302509D01*
X108235661Y-61597785D01*
X108363685Y-61822314D01*
X108555438Y-61993105D01*
X108612998Y-62028715D01*
X108734525Y-62090840D01*
X108862219Y-62132396D01*
X109024597Y-62158447D01*
X109250173Y-62174060D01*
X109475286Y-62181892D01*
X110103106Y-62199282D01*
X110256415Y-62017085D01*
X110414435Y-61875432D01*
X110571246Y-61838314D01*
X110739810Y-61906540D01*
X110911630Y-62058000D01*
X111123871Y-62281111D01*
X113090113Y-62331250D01*
X113619324Y-62344064D01*
X114173025Y-62356256D01*
X114725693Y-62367349D01*
X115251804Y-62376864D01*
X115725835Y-62384324D01*
X116122262Y-62389251D01*
X116247452Y-62390361D01*
X116644257Y-62392888D01*
X116944756Y-62392722D01*
X117165523Y-62388424D01*
X117323134Y-62378553D01*
X117434165Y-62361670D01*
X117515190Y-62336335D01*
X117582785Y-62301107D01*
X117630341Y-62270226D01*
X117662604Y-62244099D01*
X118083686Y-62244099D01*
X118087882Y-62273112D01*
X118137464Y-62273111D01*
X118251057Y-62242506D01*
X118447287Y-62179703D01*
X118535378Y-62150981D01*
X118762252Y-62078653D01*
X119056217Y-61987215D01*
X119376056Y-61889395D01*
X119628355Y-61813458D01*
X120100739Y-61669377D01*
X120574064Y-61519205D01*
X121032826Y-61368339D01*
X121461520Y-61222173D01*
X121844640Y-61086104D01*
X122166680Y-60965525D01*
X122412137Y-60865834D01*
X122565504Y-60792425D01*
X122569934Y-60789860D01*
X122776751Y-60635304D01*
X122915020Y-60439031D01*
X122944234Y-60377325D01*
X122967787Y-60321655D01*
X122988593Y-60262771D01*
X123007104Y-60192779D01*
X123023773Y-60103786D01*
X123039052Y-59987899D01*
X123053395Y-59837224D01*
X123067254Y-59643870D01*
X123081082Y-59399942D01*
X123095331Y-59097548D01*
X123110455Y-58728795D01*
X123126907Y-58285789D01*
X123145138Y-57760638D01*
X123165602Y-57145448D01*
X123188751Y-56432326D01*
X123211923Y-55710666D01*
X123229276Y-55183454D01*
X123248778Y-54615488D01*
X123269319Y-54037478D01*
X123289790Y-53480134D01*
X123309083Y-52974166D01*
X123326086Y-52550284D01*
X123326107Y-52549777D01*
X123343840Y-52091891D01*
X123360663Y-51599733D01*
X123375535Y-51108236D01*
X123387411Y-50652335D01*
X123395249Y-50266964D01*
X123396280Y-50198590D01*
X123400782Y-49840816D01*
X123401593Y-49578106D01*
X123396820Y-49392648D01*
X123384571Y-49266632D01*
X123362953Y-49182246D01*
X123330074Y-49121679D01*
X123284042Y-49067121D01*
X123275025Y-49057433D01*
X123200269Y-48990867D01*
X123099092Y-48928151D01*
X122961864Y-48866791D01*
X122778954Y-48804291D01*
X122540732Y-48738157D01*
X122237567Y-48665892D01*
X121859828Y-48585003D01*
X121397885Y-48492994D01*
X120842107Y-48387370D01*
X120305688Y-48288131D01*
X119930858Y-48218883D01*
X119580704Y-48153278D01*
X119274936Y-48095080D01*
X119033264Y-48048054D01*
X118875400Y-48015965D01*
X118841248Y-48008416D01*
X118662452Y-47977261D01*
X118574484Y-47996410D01*
X118563214Y-48074608D01*
X118591084Y-48163220D01*
X118603942Y-48255430D01*
X118612587Y-48441076D01*
X118617289Y-48700797D01*
X118618315Y-49015230D01*
X118615932Y-49365011D01*
X118610409Y-49730778D01*
X118602013Y-50093169D01*
X118591012Y-50432819D01*
X118577674Y-50730367D01*
X118562266Y-50966450D01*
X118550715Y-51082222D01*
X118543515Y-51183216D01*
X118533670Y-51388514D01*
X118521467Y-51689568D01*
X118507189Y-52077830D01*
X118491120Y-52544755D01*
X118473547Y-53081794D01*
X118454752Y-53680400D01*
X118435020Y-54332026D01*
X118414636Y-55028124D01*
X118393885Y-55760147D01*
X118388205Y-55964666D01*
X118375763Y-56395232D01*
X118361124Y-56870921D01*
X118345689Y-57348044D01*
X118330857Y-57782913D01*
X118322630Y-58010777D01*
X118287484Y-58956222D01*
X118848581Y-58956222D01*
X119105341Y-58954952D01*
X119276110Y-58946790D01*
X119387785Y-58925205D01*
X119467262Y-58883670D01*
X119541438Y-58815654D01*
X119575461Y-58779771D01*
X119851469Y-58560382D01*
X120162653Y-58436665D01*
X120490236Y-58405132D01*
X120815442Y-58462292D01*
X121119495Y-58604658D01*
X121383617Y-58828738D01*
X121589033Y-59131045D01*
X121601294Y-59156236D01*
X121667256Y-59381947D01*
X121685009Y-59645048D01*
X121654131Y-59893008D01*
X121608244Y-60020286D01*
X121441919Y-60252037D01*
X121208347Y-60463853D01*
X120946364Y-60625336D01*
X120742754Y-60697781D01*
X120409879Y-60719199D01*
X120074302Y-60653391D01*
X119764966Y-60512353D01*
X119510813Y-60308085D01*
X119380864Y-60133242D01*
X119289097Y-60029556D01*
X119150085Y-59977298D01*
X118946212Y-59974253D01*
X118659861Y-60018203D01*
X118586911Y-60033343D01*
X118301910Y-60094465D01*
X118301910Y-60811265D01*
X118288632Y-61291153D01*
X118246872Y-61681425D01*
X118173738Y-62002416D01*
X118106251Y-62187666D01*
X118083686Y-62244099D01*
X117662604Y-62244099D01*
X117770648Y-62156603D01*
X117871091Y-62019831D01*
X117942468Y-61835185D01*
X117995574Y-61577940D01*
X118024486Y-61367678D01*
X118057713Y-61023769D01*
X118069548Y-60724906D01*
X118060825Y-60486309D01*
X118032378Y-60323203D01*
X117985041Y-60250808D01*
X117963244Y-60249964D01*
X117878887Y-60259996D01*
X117704102Y-60271542D01*
X117461315Y-60283417D01*
X117172955Y-60294434D01*
X117046251Y-60298444D01*
X116213924Y-60323181D01*
X116247115Y-60613368D01*
X116258731Y-60809163D01*
X116230842Y-60950805D01*
X116152122Y-61093457D01*
X116146983Y-61101111D01*
X115936192Y-61326362D01*
X115672678Y-61452823D01*
X115352440Y-61482337D01*
X115323217Y-61480489D01*
X115037104Y-61411801D01*
X114815824Y-61265776D01*
X114667631Y-61062489D01*
X114600775Y-60822014D01*
X114613278Y-60680347D01*
X114712500Y-60680347D01*
X114743848Y-60931208D01*
X114777981Y-61016581D01*
X114839339Y-61142358D01*
X114875956Y-61210755D01*
X114879342Y-61214849D01*
X114931854Y-61231989D01*
X115053444Y-61273700D01*
X115099347Y-61289644D01*
X115370278Y-61340502D01*
X115618084Y-61305909D01*
X115799705Y-61201727D01*
X115966952Y-60985099D01*
X116024890Y-60741531D01*
X115994388Y-60536771D01*
X115873046Y-60296848D01*
X115682729Y-60144692D01*
X115430517Y-60085684D01*
X115399969Y-60085111D01*
X115133083Y-60132388D01*
X114920573Y-60260787D01*
X114775893Y-60450157D01*
X114712500Y-60680347D01*
X114613278Y-60680347D01*
X114623508Y-60564427D01*
X114744082Y-60309800D01*
X114808369Y-60227995D01*
X114945849Y-60101321D01*
X115086801Y-60015342D01*
X115122217Y-60003124D01*
X115222946Y-59969568D01*
X115226426Y-59925730D01*
X115180138Y-59874259D01*
X115091294Y-59815127D01*
X114984839Y-59831447D01*
X114942895Y-59849323D01*
X114822178Y-59878389D01*
X114618302Y-59900712D01*
X114360919Y-59913635D01*
X114200913Y-59915777D01*
X113604783Y-59915777D01*
X113643684Y-59760555D01*
X113648726Y-59747274D01*
X113786355Y-59747274D01*
X113839366Y-59773404D01*
X113984879Y-59792424D01*
X114202611Y-59802112D01*
X114294355Y-59802889D01*
X114535007Y-59801429D01*
X114684410Y-59793440D01*
X114764201Y-59773503D01*
X114796012Y-59736200D01*
X114801481Y-59676112D01*
X114801479Y-59675889D01*
X114775535Y-59571403D01*
X114708878Y-59408515D01*
X114616924Y-59216878D01*
X114515086Y-59026147D01*
X114418778Y-58865976D01*
X114343415Y-58766019D01*
X114319250Y-58748150D01*
X114276060Y-58787789D01*
X114199038Y-58903915D01*
X114101978Y-59070663D01*
X113998674Y-59262169D01*
X113902921Y-59452570D01*
X113828515Y-59616002D01*
X113789250Y-59726602D01*
X113786355Y-59747274D01*
X113648726Y-59747274D01*
X113693583Y-59629119D01*
X113783127Y-59447239D01*
X113869085Y-59294889D01*
X114041487Y-58998917D01*
X114157551Y-58773372D01*
X114225690Y-58596212D01*
X114254318Y-58445390D01*
X114252165Y-58317554D01*
X114350799Y-58317554D01*
X114379983Y-58456142D01*
X114457965Y-58659353D01*
X114570394Y-58898238D01*
X114702918Y-59143848D01*
X114841185Y-59367233D01*
X114935760Y-59497462D01*
X115169964Y-59717779D01*
X115490747Y-59911886D01*
X115872387Y-60065076D01*
X115987688Y-60098915D01*
X116370222Y-60166375D01*
X116819342Y-60187321D01*
X117299504Y-60163330D01*
X117775162Y-60095983D01*
X118160799Y-60002404D01*
X118702874Y-59873145D01*
X119220589Y-59816377D01*
X119689713Y-59834115D01*
X119854133Y-59861634D01*
X120099633Y-59906760D01*
X120355664Y-59943853D01*
X120482541Y-59957438D01*
X120661617Y-59965572D01*
X120768016Y-59944262D01*
X120840387Y-59882771D01*
X120863541Y-59851615D01*
X120949708Y-59667664D01*
X120931527Y-59504792D01*
X120806309Y-59357780D01*
X120571365Y-59221406D01*
X120529400Y-59202795D01*
X120420854Y-59165278D01*
X120283444Y-59138254D01*
X120098054Y-59120116D01*
X119845567Y-59109254D01*
X119506867Y-59104059D01*
X119346133Y-59103218D01*
X118991301Y-59102937D01*
X118726933Y-59106460D01*
X118530609Y-59116288D01*
X118379913Y-59134923D01*
X118252425Y-59164863D01*
X118125727Y-59208611D01*
X118019688Y-59251183D01*
X117530709Y-59415074D01*
X117057855Y-59501646D01*
X116615500Y-59511611D01*
X116218016Y-59445680D01*
X115879779Y-59304566D01*
X115657729Y-59134263D01*
X115633965Y-59105455D01*
X115852957Y-59105455D01*
X115907660Y-59184340D01*
X115964953Y-59232676D01*
X116106437Y-59328328D01*
X116193658Y-59341442D01*
X116246390Y-59274701D01*
X116247806Y-59271077D01*
X116253184Y-59136773D01*
X116183044Y-59029832D01*
X116070252Y-58971316D01*
X115947676Y-58982287D01*
X115879586Y-59035121D01*
X115852957Y-59105455D01*
X115633965Y-59105455D01*
X115539148Y-58990512D01*
X115395464Y-58779289D01*
X115249475Y-58535347D01*
X115178405Y-58403596D01*
X115034494Y-58138302D01*
X114926098Y-57967085D01*
X114855491Y-57892296D01*
X114824951Y-57916285D01*
X114836753Y-58041403D01*
X114839044Y-58053111D01*
X114853019Y-58170800D01*
X114840203Y-58222348D01*
X114839082Y-58222444D01*
X114793068Y-58177665D01*
X114725695Y-58068331D01*
X114717688Y-58053111D01*
X114627633Y-57915928D01*
X114562807Y-57886874D01*
X114532643Y-57962300D01*
X114543556Y-58120489D01*
X114564609Y-58266373D01*
X114557435Y-58318217D01*
X114511853Y-58293419D01*
X114466104Y-58252852D01*
X114385141Y-58186588D01*
X114355151Y-58205229D01*
X114350799Y-58317554D01*
X114252165Y-58317554D01*
X114251850Y-58298863D01*
X114251298Y-58293485D01*
X114245618Y-58128807D01*
X114278173Y-58043573D01*
X114316695Y-58019335D01*
X114394315Y-57940033D01*
X114407244Y-57882839D01*
X114427181Y-57819257D01*
X114505166Y-57790118D01*
X114664214Y-57784973D01*
X114797604Y-57793760D01*
X114903830Y-57825965D01*
X114998142Y-57897249D01*
X115095789Y-58023275D01*
X115212020Y-58219705D01*
X115361576Y-58501225D01*
X115471705Y-58705393D01*
X115567553Y-58869534D01*
X115634243Y-58968723D01*
X115650580Y-58985407D01*
X115732237Y-58981517D01*
X115830815Y-58931270D01*
X116018180Y-58856959D01*
X116198265Y-58879324D01*
X116344034Y-58983895D01*
X116428451Y-59156202D01*
X116439244Y-59256916D01*
X116439244Y-59423436D01*
X116933133Y-59395160D01*
X117338588Y-59350754D01*
X117659493Y-59270537D01*
X117888537Y-59157536D01*
X118018411Y-59014774D01*
X118043503Y-58935747D01*
X118049829Y-58848015D01*
X118058663Y-58658025D01*
X118069652Y-58376369D01*
X118082447Y-58013642D01*
X118096698Y-57580438D01*
X118112054Y-57087349D01*
X118128165Y-56544970D01*
X118144681Y-55963896D01*
X118158530Y-55456666D01*
X118175417Y-54831256D01*
X118192172Y-54219750D01*
X118208424Y-53635042D01*
X118223806Y-53090023D01*
X118237947Y-52597586D01*
X118250479Y-52170623D01*
X118261033Y-51822027D01*
X118269239Y-51564689D01*
X118273264Y-51449111D01*
X118299740Y-50704022D01*
X118319628Y-50065820D01*
X118332955Y-49528698D01*
X118339748Y-49086846D01*
X118340033Y-48734459D01*
X118333839Y-48465727D01*
X118321191Y-48274842D01*
X118302117Y-48155998D01*
X118288713Y-48118889D01*
X118235702Y-48030255D01*
X118172851Y-47961139D01*
X118087171Y-47909935D01*
X117965670Y-47875037D01*
X117795359Y-47854838D01*
X117563248Y-47847733D01*
X117256348Y-47852116D01*
X116861668Y-47866379D01*
X116411389Y-47886777D01*
X115973599Y-47908410D01*
X115535127Y-47931742D01*
X115120419Y-47955350D01*
X114753916Y-47977812D01*
X114460062Y-47997704D01*
X114321068Y-48008458D01*
X114117349Y-48023848D01*
X113818742Y-48044055D01*
X113443091Y-48067986D01*
X113008243Y-48094548D01*
X112532042Y-48122647D01*
X112032335Y-48151190D01*
X111611734Y-48174476D01*
X111128293Y-48202108D01*
X110672854Y-48230566D01*
X110259571Y-48258783D01*
X109902594Y-48285694D01*
X109616075Y-48310232D01*
X109414167Y-48331330D01*
X109311590Y-48347764D01*
X109033109Y-48480403D01*
X108798069Y-48698120D01*
X108634368Y-48974179D01*
X108620976Y-49009584D01*
X108599740Y-49076900D01*
X108580388Y-49158476D01*
X108562504Y-49261815D01*
X108545677Y-49394425D01*
X108529492Y-49563809D01*
X108513535Y-49777474D01*
X108497394Y-50042925D01*
X108480653Y-50367667D01*
X108462901Y-50759206D01*
X108443722Y-51225047D01*
X108422705Y-51772696D01*
X108399434Y-52409657D01*
X108373496Y-53143436D01*
X108344478Y-53981538D01*
X108340339Y-54102000D01*
X108319763Y-54691840D01*
X108297997Y-55298781D01*
X108275811Y-55902445D01*
X108253977Y-56482456D01*
X108233264Y-57018436D01*
X108214444Y-57490008D01*
X108198288Y-57876794D01*
X108193058Y-57996157D01*
X108133951Y-59322092D01*
X108031159Y-59322092D01*
X108013692Y-59288432D01*
X107972402Y-59057435D01*
X107961079Y-58870699D01*
X107946328Y-58650952D01*
X107922679Y-58497463D01*
X107893674Y-58431542D01*
X107887910Y-58430663D01*
X107797689Y-58499622D01*
X107715712Y-58653292D01*
X107651656Y-58863507D01*
X107615194Y-59102098D01*
X107610446Y-59238444D01*
X107471747Y-59238444D01*
X107467922Y-59145012D01*
X107531993Y-58793677D01*
X107673977Y-58472863D01*
X107793865Y-58309169D01*
X107855966Y-58234376D01*
X107900510Y-58160674D01*
X107931459Y-58067380D01*
X107952779Y-57933809D01*
X107968432Y-57739278D01*
X107982384Y-57463102D01*
X107990067Y-57285424D01*
X108042342Y-56052009D01*
X108089678Y-54928579D01*
X108132191Y-53912339D01*
X108169996Y-53000500D01*
X108203209Y-52190268D01*
X108231947Y-51478851D01*
X108254388Y-50912889D01*
X108274121Y-50471548D01*
X108297203Y-50057909D01*
X108322313Y-49689911D01*
X108348129Y-49385494D01*
X108373329Y-49162599D01*
X108390947Y-49060068D01*
X108513924Y-48723187D01*
X108704515Y-48443937D01*
X108945956Y-48245708D01*
X108992203Y-48221084D01*
X109087103Y-48186407D01*
X109232847Y-48152201D01*
X109434949Y-48118003D01*
X109698920Y-48083348D01*
X110030271Y-48047773D01*
X110434516Y-48010813D01*
X110917166Y-47972005D01*
X111483734Y-47930886D01*
X112139730Y-47886991D01*
X112890668Y-47839855D01*
X113742060Y-47789017D01*
X114699416Y-47734011D01*
X114943466Y-47720255D01*
X115394089Y-47698560D01*
X115904969Y-47679856D01*
X116428153Y-47665540D01*
X116915687Y-47657010D01*
X117173021Y-47655249D01*
X117577145Y-47656223D01*
G37*
G36*
X111455638Y-61103668D02*
G01*
X111645466Y-61163701D01*
X111743599Y-61253715D01*
X111754355Y-61302049D01*
X111703777Y-61395113D01*
X111569202Y-61457233D01*
X111376367Y-61483962D01*
X111151009Y-61470852D01*
X110985342Y-61434912D01*
X110799658Y-61357233D01*
X110718301Y-61271369D01*
X110723759Y-61243720D01*
X110859295Y-61243720D01*
X110877973Y-61292844D01*
X110997291Y-61330051D01*
X111091133Y-61342004D01*
X111245182Y-61357283D01*
X111344746Y-61369772D01*
X111359244Y-61372701D01*
X111429768Y-61366858D01*
X111514466Y-61347757D01*
X111613127Y-61305182D01*
X111641466Y-61270365D01*
X111591128Y-61238024D01*
X111464521Y-61208444D01*
X111298253Y-61185906D01*
X111128934Y-61174692D01*
X110993172Y-61179083D01*
X110947377Y-61189187D01*
X110859295Y-61243720D01*
X110723759Y-61243720D01*
X110734513Y-61189239D01*
X110841539Y-61122766D01*
X111032620Y-61083870D01*
X111187210Y-61078771D01*
X111455638Y-61103668D01*
G37*
G36*
X110077721Y-61003878D02*
G01*
X110295614Y-61042569D01*
X110424738Y-61112742D01*
X110456133Y-61185777D01*
X110405082Y-61277718D01*
X110269183Y-61341789D01*
X110074318Y-61372102D01*
X109846368Y-61362764D01*
X109750577Y-61346365D01*
X109600031Y-61314360D01*
X109507024Y-61294474D01*
X109407452Y-61242000D01*
X109394135Y-61141449D01*
X109397615Y-61130095D01*
X109512399Y-61130095D01*
X109520137Y-61206361D01*
X109522478Y-61210244D01*
X109595755Y-61242332D01*
X109743130Y-61262065D01*
X109926702Y-61269184D01*
X110108574Y-61263431D01*
X110250846Y-61244546D01*
X110313999Y-61215654D01*
X110293787Y-61164430D01*
X110183922Y-61119691D01*
X110007641Y-61087765D01*
X109797614Y-61075046D01*
X109603066Y-61087221D01*
X109512399Y-61130095D01*
X109397615Y-61130095D01*
X109414976Y-61073455D01*
X109470797Y-61033519D01*
X109587895Y-61012076D01*
X109783044Y-60999979D01*
X110077721Y-61003878D01*
G37*
G36*
X116415141Y-56012124D02*
G01*
X116562679Y-56136415D01*
X116645952Y-56310415D01*
X116654830Y-56506998D01*
X116579185Y-56699041D01*
X116516213Y-56775414D01*
X116327917Y-56899170D01*
X116130261Y-56915067D01*
X115941343Y-56822802D01*
X115900456Y-56785676D01*
X115788192Y-56606975D01*
X115774161Y-56493188D01*
X115830565Y-56493188D01*
X115892003Y-56605859D01*
X115935340Y-56662610D01*
X116089816Y-56782979D01*
X116267794Y-56805881D01*
X116437454Y-56727889D01*
X116448910Y-56717918D01*
X116528543Y-56580175D01*
X116548937Y-56399912D01*
X116508668Y-56231252D01*
X116463434Y-56166254D01*
X116345543Y-56102966D01*
X116193382Y-56077555D01*
X116041257Y-56105667D01*
X115934817Y-56209955D01*
X115915191Y-56241486D01*
X115839092Y-56388408D01*
X115830565Y-56493188D01*
X115774161Y-56493188D01*
X115763763Y-56408870D01*
X115816552Y-56219205D01*
X115935945Y-56065821D01*
X116111328Y-55976560D01*
X116213466Y-55964666D01*
X116415141Y-56012124D01*
G37*
G36*
X110837133Y-56090773D02*
G01*
X112403466Y-56105777D01*
X112403466Y-56444444D01*
X112403466Y-56783111D01*
X110837133Y-56798115D01*
X109270799Y-56813119D01*
X109270799Y-56698444D01*
X109383688Y-56698444D01*
X110851244Y-56698444D01*
X112318799Y-56698444D01*
X112318799Y-56444444D01*
X112318799Y-56190444D01*
X110851244Y-56190444D01*
X109383688Y-56190444D01*
X109383688Y-56444444D01*
X109383688Y-56698444D01*
X109270799Y-56698444D01*
X109270799Y-56444444D01*
X109270799Y-56075769D01*
X110837133Y-56090773D01*
G37*
G36*
X116155829Y-49033457D02*
G01*
X116276114Y-49047586D01*
X116364893Y-49069984D01*
X116404550Y-49085766D01*
X116486460Y-49130651D01*
X116549830Y-49190379D01*
X116596164Y-49277876D01*
X116626968Y-49406068D01*
X116643745Y-49587881D01*
X116648000Y-49836241D01*
X116641237Y-50164075D01*
X116624960Y-50584309D01*
X116612063Y-50868828D01*
X116577465Y-51610339D01*
X116547308Y-52247360D01*
X116520627Y-52788159D01*
X116496455Y-53241004D01*
X116473827Y-53614165D01*
X116451775Y-53915909D01*
X116429333Y-54154505D01*
X116405536Y-54338222D01*
X116379417Y-54475329D01*
X116350010Y-54574094D01*
X116316348Y-54642786D01*
X116277465Y-54689673D01*
X116232395Y-54723023D01*
X116180171Y-54751106D01*
X116157021Y-54762738D01*
X116077484Y-54784637D01*
X115931315Y-54801879D01*
X115713475Y-54814471D01*
X115418922Y-54822421D01*
X115042613Y-54825737D01*
X114579507Y-54824426D01*
X114024563Y-54818496D01*
X113372739Y-54807954D01*
X112618994Y-54792808D01*
X111758285Y-54773066D01*
X111613244Y-54769553D01*
X111146945Y-54756738D01*
X110712565Y-54742037D01*
X110324001Y-54726131D01*
X109995153Y-54709702D01*
X109739916Y-54693431D01*
X109572190Y-54678000D01*
X109509555Y-54666389D01*
X109430104Y-54621048D01*
X109369753Y-54552881D01*
X109326640Y-54448262D01*
X109298905Y-54293566D01*
X109284686Y-54075165D01*
X109283102Y-53892591D01*
X109447207Y-53892591D01*
X109455813Y-54127869D01*
X109479515Y-54300071D01*
X109520858Y-54419155D01*
X109582389Y-54495079D01*
X109666656Y-54537800D01*
X109776205Y-54557275D01*
X109913582Y-54563463D01*
X110081335Y-54566321D01*
X110138491Y-54568036D01*
X110300275Y-54572051D01*
X110561145Y-54576267D01*
X110907298Y-54580553D01*
X111324932Y-54584781D01*
X111800244Y-54588822D01*
X112319431Y-54592547D01*
X112868691Y-54595827D01*
X113375831Y-54598285D01*
X116097975Y-54610000D01*
X116181888Y-54481931D01*
X116204581Y-54396258D01*
X116230172Y-54212804D01*
X116257883Y-53945842D01*
X116286933Y-53609648D01*
X116316542Y-53218496D01*
X116345930Y-52786663D01*
X116374317Y-52328422D01*
X116400922Y-51858049D01*
X116424965Y-51389819D01*
X116445667Y-50938007D01*
X116462247Y-50516887D01*
X116473925Y-50140736D01*
X116479920Y-49823826D01*
X116479454Y-49580435D01*
X116471744Y-49424837D01*
X116461005Y-49374745D01*
X116375104Y-49292170D01*
X116232476Y-49240694D01*
X116018937Y-49218557D01*
X115720303Y-49223997D01*
X115423244Y-49245888D01*
X115162795Y-49266432D01*
X114819036Y-49289645D01*
X114421456Y-49313749D01*
X113999548Y-49336967D01*
X113582802Y-49357522D01*
X113532355Y-49359824D01*
X112921280Y-49388178D01*
X112336444Y-49416747D01*
X111789311Y-49444879D01*
X111291344Y-49471921D01*
X110854006Y-49497220D01*
X110488762Y-49520123D01*
X110207074Y-49539976D01*
X110020406Y-49556126D01*
X109962384Y-49563196D01*
X109881116Y-49579000D01*
X109813295Y-49605700D01*
X109757169Y-49653268D01*
X109710986Y-49731677D01*
X109672993Y-49850899D01*
X109641438Y-50020907D01*
X109614568Y-50251672D01*
X109590631Y-50553168D01*
X109567875Y-50935367D01*
X109544546Y-51408241D01*
X109518893Y-51981762D01*
X109512801Y-52121565D01*
X109486493Y-52708724D01*
X109465094Y-53192976D01*
X109451150Y-53584279D01*
X109447207Y-53892591D01*
X109283102Y-53892591D01*
X109282121Y-53779433D01*
X109289350Y-53392744D01*
X109297524Y-53114222D01*
X109321419Y-52388762D01*
X109343981Y-51768245D01*
X109365751Y-51244740D01*
X109387273Y-50810318D01*
X109409089Y-50457047D01*
X109431743Y-50176998D01*
X109455777Y-49962240D01*
X109481734Y-49804842D01*
X109510157Y-49696875D01*
X109535317Y-49640283D01*
X109638140Y-49518975D01*
X109790623Y-49435721D01*
X110010603Y-49385247D01*
X110315916Y-49362274D01*
X110484355Y-49359508D01*
X110726178Y-49355263D01*
X111030860Y-49343898D01*
X111406095Y-49324945D01*
X111859582Y-49297931D01*
X112399014Y-49262386D01*
X113032088Y-49217840D01*
X113766499Y-49163822D01*
X114125021Y-49136833D01*
X114677141Y-49095910D01*
X115128385Y-49064810D01*
X115490314Y-49043273D01*
X115774490Y-49031042D01*
X115992474Y-49027856D01*
X116155829Y-49033457D01*
G37*
G36*
X119799605Y-55832195D02*
G01*
X120049057Y-55854889D01*
X120384261Y-55892137D01*
X120814475Y-55944754D01*
X121230127Y-55998053D01*
X121438138Y-56029593D01*
X121558194Y-56073720D01*
X121614462Y-56156157D01*
X121631109Y-56302630D01*
X121632133Y-56425971D01*
X121611598Y-56714145D01*
X121544498Y-56919033D01*
X121422589Y-57063535D01*
X121395145Y-57084222D01*
X121339403Y-57133070D01*
X121335473Y-57186195D01*
X121392373Y-57270848D01*
X121495842Y-57388546D01*
X121615174Y-57529229D01*
X121672261Y-57639733D01*
X121683678Y-57770690D01*
X121671103Y-57923889D01*
X121654470Y-58083555D01*
X121632468Y-58204031D01*
X121591022Y-58289281D01*
X121516062Y-58343271D01*
X121393513Y-58369968D01*
X121209304Y-58373338D01*
X120949362Y-58357345D01*
X120599614Y-58325957D01*
X120333910Y-58300732D01*
X120037533Y-58271331D01*
X119778557Y-58243048D01*
X119579126Y-58218499D01*
X119461385Y-58200297D01*
X119442421Y-58195495D01*
X119402276Y-58140673D01*
X119383885Y-58005543D01*
X119385297Y-57774973D01*
X119385977Y-57757594D01*
X119402577Y-57347555D01*
X119727133Y-57330627D01*
X119913193Y-57315458D01*
X120011853Y-57288306D01*
X120048579Y-57239427D01*
X120051688Y-57206432D01*
X120096597Y-57091426D01*
X120150466Y-57043711D01*
X120216105Y-56997312D01*
X120179560Y-56965994D01*
X120136355Y-56950881D01*
X119822597Y-56839991D01*
X119605202Y-56744999D01*
X119470130Y-56658257D01*
X119403336Y-56572119D01*
X119394980Y-56547161D01*
X119378733Y-56396270D01*
X119385564Y-56206444D01*
X119410688Y-56020765D01*
X119449319Y-55882314D01*
X119473161Y-55843282D01*
X119520917Y-55827208D01*
X119626645Y-55823240D01*
X119799605Y-55832195D01*
G37*
G36*
X119725047Y-53953181D02*
G01*
X119961274Y-53960195D01*
X120247974Y-53972873D01*
X120564475Y-53989945D01*
X120890103Y-54010143D01*
X121204185Y-54032195D01*
X121486050Y-54054834D01*
X121715025Y-54076790D01*
X121870436Y-54096793D01*
X121929092Y-54111209D01*
X121971391Y-54196539D01*
X121994706Y-54380702D01*
X121998713Y-54537486D01*
X121965386Y-54867293D01*
X121873932Y-55175678D01*
X121736334Y-55434605D01*
X121564579Y-55616034D01*
X121527181Y-55640554D01*
X121389162Y-55714536D01*
X121290053Y-55729188D01*
X121177599Y-55683502D01*
X121090904Y-55632155D01*
X120929806Y-55509512D01*
X120793563Y-55369473D01*
X120670562Y-55213103D01*
X120544570Y-55331125D01*
X120320956Y-55478838D01*
X120083408Y-55534367D01*
X119854884Y-55503619D01*
X119658339Y-55392497D01*
X119516731Y-55206905D01*
X119465917Y-55053698D01*
X119444593Y-54887702D01*
X119433433Y-54675743D01*
X119433412Y-54672626D01*
X119971247Y-54672626D01*
X119995244Y-54722889D01*
X120051935Y-54811499D01*
X120079910Y-54835777D01*
X120122037Y-54792630D01*
X120147362Y-54751111D01*
X121237021Y-54751111D01*
X121279102Y-54826012D01*
X121315649Y-54835777D01*
X121402786Y-54790248D01*
X121426767Y-54751111D01*
X121417589Y-54681501D01*
X121348139Y-54666444D01*
X121257602Y-54702156D01*
X121237021Y-54751111D01*
X120147362Y-54751111D01*
X120164577Y-54722889D01*
X120194492Y-54640387D01*
X120143298Y-54612259D01*
X120079910Y-54610000D01*
X119979810Y-54621078D01*
X119971247Y-54672626D01*
X119433412Y-54672626D01*
X119431865Y-54447916D01*
X119439316Y-54234318D01*
X119455214Y-54065042D01*
X119478985Y-53970186D01*
X119486701Y-53961224D01*
X119559965Y-53953101D01*
X119725047Y-53953181D01*
G37*
G36*
X121585117Y-51996568D02*
G01*
X121627169Y-52035797D01*
X121659315Y-52119042D01*
X121601827Y-52205131D01*
X121522838Y-52276386D01*
X121491021Y-52295777D01*
X121440397Y-52261000D01*
X121380216Y-52205131D01*
X121322118Y-52114965D01*
X121354873Y-52035797D01*
X121446950Y-51967657D01*
X121491021Y-51957111D01*
X121585117Y-51996568D01*
G37*
G36*
X120495809Y-51832083D02*
G01*
X120530467Y-51942498D01*
X120518447Y-51999444D01*
X120448965Y-52059574D01*
X120341689Y-52062364D01*
X120254612Y-52010213D01*
X120242470Y-51988036D01*
X120240689Y-51865529D01*
X120329266Y-51795205D01*
X120387647Y-51787777D01*
X120495809Y-51832083D01*
G37*
G36*
X122158333Y-51142631D02*
G01*
X122237674Y-51219796D01*
X122243915Y-51326699D01*
X122175987Y-51409456D01*
X122163738Y-51414850D01*
X122072332Y-51444327D01*
X122018147Y-51419309D01*
X121968448Y-51361611D01*
X121925812Y-51275732D01*
X121977225Y-51192729D01*
X121979738Y-51190204D01*
X122090299Y-51136467D01*
X122158333Y-51142631D01*
G37*
G36*
X121161143Y-50857787D02*
G01*
X121170392Y-50954645D01*
X121112688Y-51068402D01*
X121008716Y-51097765D01*
X120912634Y-51045701D01*
X120881028Y-50956011D01*
X120935411Y-50873394D01*
X121051601Y-50829552D01*
X121078525Y-50828222D01*
X121161143Y-50857787D01*
G37*
G36*
X119907472Y-50643389D02*
G01*
X119981101Y-50724642D01*
X119986038Y-50806115D01*
X119926495Y-50900002D01*
X119827133Y-50935404D01*
X119752602Y-50905432D01*
X119713876Y-50806417D01*
X119735029Y-50695590D01*
X119788696Y-50641927D01*
X119907472Y-50643389D01*
G37*
G36*
X121771661Y-50041593D02*
G01*
X121794049Y-50062837D01*
X121846635Y-50146010D01*
X121804280Y-50232164D01*
X121803817Y-50232722D01*
X121710710Y-50311587D01*
X121625720Y-50286969D01*
X121570619Y-50229447D01*
X121527693Y-50149424D01*
X121574757Y-50081586D01*
X121603473Y-50059562D01*
X121697810Y-50009581D01*
X121771661Y-50041593D01*
G37*
G36*
X120746262Y-49830785D02*
G01*
X120774339Y-49903815D01*
X120748552Y-50018924D01*
X120656794Y-50066537D01*
X120563127Y-50040125D01*
X120508865Y-49955287D01*
X120529555Y-49854732D01*
X120608933Y-49789253D01*
X120645128Y-49784000D01*
X120746262Y-49830785D01*
G37*
G36*
X114066112Y-51645143D02*
G01*
X114098906Y-51720886D01*
X114055041Y-51839689D01*
X113951167Y-51981072D01*
X113803934Y-52124555D01*
X113629994Y-52249659D01*
X113532355Y-52301655D01*
X113291921Y-52376685D01*
X113017605Y-52407402D01*
X112750284Y-52393747D01*
X112530833Y-52335661D01*
X112470414Y-52303200D01*
X112355895Y-52208461D01*
X112242709Y-52085033D01*
X112148630Y-51957974D01*
X112091433Y-51852348D01*
X112088894Y-51793214D01*
X112105098Y-51788134D01*
X112180125Y-51833117D01*
X112264893Y-51942078D01*
X112271550Y-51953476D01*
X112440231Y-52142437D01*
X112677368Y-52259945D01*
X112960517Y-52301484D01*
X113267232Y-52262540D01*
X113465040Y-52193512D01*
X113628783Y-52098247D01*
X113791852Y-51967360D01*
X113926108Y-51827921D01*
X114003410Y-51706999D01*
X114012133Y-51667227D01*
X114046629Y-51636859D01*
X114066112Y-51645143D01*
G37*
G36*
X111557395Y-50934735D02*
G01*
X111688487Y-51059833D01*
X111752726Y-51222299D01*
X111754355Y-51251555D01*
X111741553Y-51368350D01*
X111706209Y-51376552D01*
X111652912Y-51277148D01*
X111633812Y-51225639D01*
X111539361Y-51071472D01*
X111415770Y-51013165D01*
X111290742Y-51049046D01*
X111191980Y-51177443D01*
X111166151Y-51253870D01*
X111120430Y-51358503D01*
X111074871Y-51392666D01*
X111044299Y-51345461D01*
X111055305Y-51237444D01*
X111141805Y-51034856D01*
X111277254Y-50912743D01*
X111396214Y-50884666D01*
X111557395Y-50934735D01*
G37*
G36*
X114843229Y-50761927D02*
G01*
X114961832Y-50875712D01*
X115053047Y-51017691D01*
X115084577Y-51136101D01*
X115065570Y-51243398D01*
X115028133Y-51279777D01*
X114981410Y-51232789D01*
X114971688Y-51173142D01*
X114937424Y-51052621D01*
X114865269Y-50935083D01*
X114781449Y-50848672D01*
X114715071Y-50846493D01*
X114661833Y-50884177D01*
X114562898Y-51002998D01*
X114515649Y-51094013D01*
X114453623Y-51196767D01*
X114395004Y-51221127D01*
X114369270Y-51166583D01*
X114381705Y-51096333D01*
X114453164Y-50952104D01*
X114562260Y-50818223D01*
X114676075Y-50730690D01*
X114730093Y-50715333D01*
X114843229Y-50761927D01*
G37*
D14*
%TO.C,R8*%
X97332776Y-49477500D02*
X97842224Y-49477500D01*
X97332776Y-50522500D02*
X97842224Y-50522500D01*
%TO.C,R7*%
X97245276Y-54477500D02*
X97754724Y-54477500D01*
X97245276Y-55522500D02*
X97754724Y-55522500D01*
%TO.C,C2*%
X111576067Y-39672800D02*
X111283533Y-39672800D01*
X111576067Y-40692800D02*
X111283533Y-40692800D01*
%TO.C,C5*%
X116441233Y-30490000D02*
X116733767Y-30490000D01*
X116441233Y-31510000D02*
X116733767Y-31510000D01*
%TO.C,C1*%
X126353733Y-34990000D02*
X126646267Y-34990000D01*
X126353733Y-36010000D02*
X126646267Y-36010000D01*
%TO.C,C9*%
X85197733Y-45464000D02*
X85490267Y-45464000D01*
X85197733Y-46484000D02*
X85490267Y-46484000D01*
%TO.C,R9*%
X94157076Y-41997100D02*
X94666524Y-41997100D01*
X94157076Y-43042100D02*
X94666524Y-43042100D01*
%TO.C,U3*%
X108440000Y-35090000D02*
X108490000Y-35090000D01*
X108440000Y-36910000D02*
X108440000Y-35090000D01*
X108490000Y-36910000D02*
X108440000Y-36910000D01*
X111510000Y-35090000D02*
X111560000Y-35090000D01*
X111560000Y-35090000D02*
X111560000Y-36910000D01*
X111560000Y-36910000D02*
X111510000Y-36910000D01*
X111840000Y-34790000D02*
X111510000Y-34550000D01*
X111840000Y-34310000D01*
X111840000Y-34790000D01*
G36*
X111840000Y-34790000D02*
G01*
X111510000Y-34550000D01*
X111840000Y-34310000D01*
X111840000Y-34790000D01*
G37*
%TO.C,FB4*%
X35595000Y-34750000D02*
G75*
G02*
X27855000Y-34750000I-3870000J0D01*
G01*
X27855000Y-34750000D02*
G75*
G02*
X35595000Y-34750000I3870000J0D01*
G01*
%TO.C,D5*%
X63425000Y-47150000D02*
X63425000Y-47850000D01*
%TO.C,FB2*%
X144595000Y-47500000D02*
G75*
G02*
X136855000Y-47500000I-3870000J0D01*
G01*
X136855000Y-47500000D02*
G75*
G02*
X144595000Y-47500000I3870000J0D01*
G01*
%TO.C,C8*%
X74199533Y-51128200D02*
X74492067Y-51128200D01*
X74199533Y-52148200D02*
X74492067Y-52148200D01*
%TO.C,J2*%
X35675000Y-25700000D02*
X36425000Y-25700000D01*
X36425000Y-22750000D02*
X43225000Y-22750000D01*
X36425000Y-25700000D02*
X36425000Y-22750000D01*
X49825000Y-28250000D02*
X51075000Y-28250000D01*
X50025000Y-22750000D02*
X43225000Y-22750000D01*
X50025000Y-25700000D02*
X50025000Y-22750000D01*
X50775000Y-25700000D02*
X50025000Y-25700000D01*
X51075000Y-28250000D02*
X51075000Y-27000000D01*
X37475000Y-27950000D02*
X35675000Y-27950000D01*
X35675000Y-27200000D01*
X37475000Y-27200000D01*
X37475000Y-27950000D01*
X47475000Y-27950000D02*
X38975000Y-27950000D01*
X38975000Y-27200000D01*
X47475000Y-27200000D01*
X47475000Y-27950000D01*
X50775000Y-27950000D02*
X48975000Y-27950000D01*
X48975000Y-27200000D01*
X50775000Y-27200000D01*
X50775000Y-27950000D01*
X50785000Y-27960000D02*
X35665000Y-27960000D01*
X35665000Y-21990000D01*
X50785000Y-21990000D01*
X50785000Y-27960000D01*
%TO.C,RC1*%
X53202500Y-39907776D02*
X53202500Y-40417224D01*
X54247500Y-39907776D02*
X54247500Y-40417224D01*
%TO.C,C13*%
X82874067Y-57478200D02*
X82581533Y-57478200D01*
X82874067Y-58498200D02*
X82581533Y-58498200D01*
%TO.C,C4*%
X126646267Y-37490000D02*
X126353733Y-37490000D01*
X126646267Y-38510000D02*
X126353733Y-38510000D01*
%TO.C,R4*%
X126110276Y-32345100D02*
X126619724Y-32345100D01*
X126110276Y-33390100D02*
X126619724Y-33390100D01*
%TO.C,R6*%
X86965000Y-49832776D02*
X86965000Y-50342224D01*
X88010000Y-49832776D02*
X88010000Y-50342224D01*
%TO.C,R15*%
X64702500Y-43407776D02*
X64702500Y-43917224D01*
X65747500Y-43407776D02*
X65747500Y-43917224D01*
D15*
%TO.C,J1*%
X135154900Y-20121500D02*
X135154900Y-21401500D01*
X135154900Y-25371500D02*
X135154900Y-24121500D01*
X144094900Y-21401500D02*
X144094900Y-20121500D01*
X144094900Y-25371500D02*
X144094900Y-24121500D01*
X142974900Y-28721500D02*
G75*
G02*
X142774900Y-28721500I-100000J0D01*
G01*
X142774900Y-28721500D02*
G75*
G02*
X142974900Y-28721500I100000J0D01*
G01*
D14*
%TO.C,FB1*%
X134595000Y-47250000D02*
G75*
G02*
X126855000Y-47250000I-3870000J0D01*
G01*
X126855000Y-47250000D02*
G75*
G02*
X134595000Y-47250000I3870000J0D01*
G01*
D15*
%TO.C,PS1*%
X88800000Y-43600000D02*
X90000000Y-43600000D01*
X88800000Y-46500000D02*
X88800000Y-43600000D01*
X90000000Y-43600000D02*
X90000000Y-46500000D01*
X90000000Y-46500000D02*
X88800000Y-46500000D01*
X91250000Y-46550000D02*
X90350000Y-46550000D01*
D14*
%TO.C,R13*%
X41844700Y-42112476D02*
X41844700Y-42621924D01*
X42889700Y-42112476D02*
X42889700Y-42621924D01*
%TO.C,R5*%
X82967300Y-50113476D02*
X82967300Y-50622924D01*
X84012300Y-50113476D02*
X84012300Y-50622924D01*
%TO.C,J3*%
X64675000Y-25700000D02*
X65425000Y-25700000D01*
X65425000Y-22750000D02*
X72225000Y-22750000D01*
X65425000Y-25700000D02*
X65425000Y-22750000D01*
X78825000Y-28250000D02*
X80075000Y-28250000D01*
X79025000Y-22750000D02*
X72225000Y-22750000D01*
X79025000Y-25700000D02*
X79025000Y-22750000D01*
X79775000Y-25700000D02*
X79025000Y-25700000D01*
X80075000Y-28250000D02*
X80075000Y-27000000D01*
X66475000Y-27950000D02*
X64675000Y-27950000D01*
X64675000Y-27200000D01*
X66475000Y-27200000D01*
X66475000Y-27950000D01*
X76475000Y-27950000D02*
X67975000Y-27950000D01*
X67975000Y-27200000D01*
X76475000Y-27200000D01*
X76475000Y-27950000D01*
X79775000Y-27950000D02*
X77975000Y-27950000D01*
X77975000Y-27200000D01*
X79775000Y-27200000D01*
X79775000Y-27950000D01*
X79785000Y-27960000D02*
X64665000Y-27960000D01*
X64665000Y-21990000D01*
X79785000Y-21990000D01*
X79785000Y-27960000D01*
%TO.C,R10*%
X94157776Y-38477500D02*
X94667224Y-38477500D01*
X94157776Y-39522500D02*
X94667224Y-39522500D01*
D16*
%TO.C,U6*%
X68140000Y-53100000D02*
X68800000Y-53100000D01*
X68800000Y-56000000D02*
X68140000Y-56000000D01*
X69270000Y-54215000D02*
X69270000Y-54885000D01*
D15*
X66160000Y-53500000D02*
G75*
G02*
X65960000Y-53500000I-100000J0D01*
G01*
X65960000Y-53500000D02*
G75*
G02*
X66160000Y-53500000I100000J0D01*
G01*
D16*
%TO.C,U5*%
X35975000Y-49650000D02*
X40475000Y-49650000D01*
X35975000Y-53350000D02*
X40475000Y-53350000D01*
D15*
X34575000Y-49400000D02*
G75*
G02*
X34375000Y-49400000I-100000J0D01*
G01*
X34375000Y-49400000D02*
G75*
G02*
X34575000Y-49400000I100000J0D01*
G01*
D14*
%TO.C,R2*%
X124392224Y-21977500D02*
X123882776Y-21977500D01*
X124392224Y-23022500D02*
X123882776Y-23022500D01*
D15*
%TO.C,IC1*%
X77913600Y-53078400D02*
X77913600Y-53993400D01*
X77913600Y-55193400D02*
X77913600Y-56108400D01*
X77913600Y-56108400D02*
X78313600Y-56108400D01*
X78313600Y-53078400D02*
X77913600Y-53078400D01*
D10*
X83413600Y-56593400D02*
X83413600Y-56593400D01*
X83413600Y-56693400D02*
X83413600Y-56693400D01*
D15*
X83913600Y-53078400D02*
X84313600Y-53078400D01*
X84313600Y-53078400D02*
X84313600Y-53993400D01*
X84313600Y-55193400D02*
X84313600Y-56108400D01*
D10*
X83413600Y-56593400D02*
G75*
G02*
X83413600Y-56693400I0J-50000D01*
G01*
X83413600Y-56693400D02*
G75*
G02*
X83413600Y-56593400I0J50000D01*
G01*
D14*
%TO.C,LS1*%
X131900000Y-56725000D02*
X131900000Y-57975000D01*
X132200000Y-59275000D02*
X132950000Y-59275000D01*
X132950000Y-59275000D02*
X132950000Y-62225000D01*
X132950000Y-62225000D02*
X136000000Y-62225000D01*
X133150000Y-56725000D02*
X131900000Y-56725000D01*
X139050000Y-59275000D02*
X139050000Y-62225000D01*
X139050000Y-62225000D02*
X136000000Y-62225000D01*
X139800000Y-59275000D02*
X139050000Y-59275000D01*
X132190000Y-57015000D02*
X139810000Y-57015000D01*
X139810000Y-62985000D01*
X132190000Y-62985000D01*
X132190000Y-57015000D01*
X132200000Y-57025000D02*
X134000000Y-57025000D01*
X134000000Y-57775000D01*
X132200000Y-57775000D01*
X132200000Y-57025000D01*
X135500000Y-57025000D02*
X136500000Y-57025000D01*
X136500000Y-57775000D01*
X135500000Y-57775000D01*
X135500000Y-57025000D01*
X138000000Y-57025000D02*
X139800000Y-57025000D01*
X139800000Y-57775000D01*
X138000000Y-57775000D01*
X138000000Y-57025000D01*
%TO.C,U4*%
X71536300Y-57657600D02*
X73356300Y-57657600D01*
X71536300Y-57707600D02*
X71536300Y-57657600D01*
X71536300Y-60777600D02*
X71536300Y-60727600D01*
X73356300Y-57657600D02*
X73356300Y-57707600D01*
X73356300Y-58827600D02*
X73356300Y-59607600D01*
X73356300Y-60727600D02*
X73356300Y-60777600D01*
X73356300Y-60777600D02*
X71536300Y-60777600D01*
X70996300Y-57707600D02*
X70756300Y-57377600D01*
X71236300Y-57377600D01*
X70996300Y-57707600D01*
G36*
X70996300Y-57707600D02*
G01*
X70756300Y-57377600D01*
X71236300Y-57377600D01*
X70996300Y-57707600D01*
G37*
%TO.C,FB3*%
X46211800Y-34798000D02*
G75*
G02*
X38471800Y-34798000I-3870000J0D01*
G01*
X38471800Y-34798000D02*
G75*
G02*
X46211800Y-34798000I3870000J0D01*
G01*
%TO.C,C12*%
X141646267Y-53490000D02*
X141353733Y-53490000D01*
X141646267Y-54510000D02*
X141353733Y-54510000D01*
%TO.C,D4*%
X69425000Y-47150000D02*
X69425000Y-47850000D01*
%TO.C,C7*%
X116465133Y-32332200D02*
X116757667Y-32332200D01*
X116465133Y-33352200D02*
X116757667Y-33352200D01*
%TO.C,D3*%
X35765000Y-46500000D02*
X36415000Y-46500000D01*
X37015000Y-45380000D02*
X37015000Y-47620000D01*
X37135000Y-45380000D02*
X37135000Y-47620000D01*
X37255000Y-45380000D02*
X37255000Y-47620000D01*
X41305000Y-46500000D02*
X40655000Y-46500000D01*
X36415000Y-45380000D02*
X40655000Y-45380000D01*
X40655000Y-47620000D01*
X36415000Y-47620000D01*
X36415000Y-45380000D01*
%TO.C,FB5*%
X57595000Y-33500000D02*
G75*
G02*
X49855000Y-33500000I-3870000J0D01*
G01*
X49855000Y-33500000D02*
G75*
G02*
X57595000Y-33500000I3870000J0D01*
G01*
%TO.C,C3*%
X126353733Y-39990000D02*
X126646267Y-39990000D01*
X126353733Y-41010000D02*
X126646267Y-41010000D01*
%TO.C,FB6*%
X69095000Y-33500000D02*
G75*
G02*
X61355000Y-33500000I-3870000J0D01*
G01*
X61355000Y-33500000D02*
G75*
G02*
X69095000Y-33500000I3870000J0D01*
G01*
%TO.C,C11*%
X131353733Y-53490000D02*
X131646267Y-53490000D01*
X131353733Y-54510000D02*
X131646267Y-54510000D01*
%TO.C,J4*%
X86665000Y-21690000D02*
X86665000Y-33410000D01*
X86665000Y-33410000D02*
X88085000Y-33410000D01*
X88085000Y-28910000D02*
X95475000Y-28910000D01*
X88085000Y-33410000D02*
X88085000Y-28910000D01*
X95475000Y-21690000D02*
X86665000Y-21690000D01*
X95475000Y-21690000D02*
X104285000Y-21690000D01*
X101425000Y-33100000D02*
X101725000Y-32500000D01*
X101725000Y-32500000D02*
X102025000Y-33100000D01*
X102025000Y-33100000D02*
X101425000Y-33100000D01*
X102865000Y-28910000D02*
X95475000Y-28910000D01*
X102865000Y-33410000D02*
X102865000Y-28910000D01*
X104285000Y-21690000D02*
X104285000Y-33410000D01*
X104285000Y-33410000D02*
X102865000Y-33410000D01*
X89475000Y-27800000D02*
X88975000Y-27800000D01*
X88975000Y-22300000D01*
X89475000Y-22300000D01*
X89475000Y-27800000D01*
X91975000Y-27800000D02*
X91475000Y-27800000D01*
X91475000Y-22300000D01*
X91975000Y-22300000D01*
X91975000Y-27800000D01*
X94475000Y-27800000D02*
X93975000Y-27800000D01*
X93975000Y-22300000D01*
X94475000Y-22300000D01*
X94475000Y-27800000D01*
X96975000Y-27800000D02*
X96475000Y-27800000D01*
X96475000Y-22300000D01*
X96975000Y-22300000D01*
X96975000Y-27800000D01*
X99475000Y-27800000D02*
X98975000Y-27800000D01*
X98975000Y-22300000D01*
X99475000Y-22300000D01*
X99475000Y-27800000D01*
X101975000Y-27800000D02*
X101475000Y-27800000D01*
X101475000Y-22300000D01*
X101975000Y-22300000D01*
X101975000Y-27800000D01*
%TO.C,U1*%
X75390000Y-36390000D02*
X75690000Y-36390000D01*
X75390000Y-36690000D02*
X75390000Y-36390000D01*
X75390000Y-43610000D02*
X75390000Y-43310000D01*
X75690000Y-43610000D02*
X75390000Y-43610000D01*
X82310000Y-36390000D02*
X82610000Y-36390000D01*
X82610000Y-36390000D02*
X82610000Y-36690000D01*
X82610000Y-43310000D02*
X82610000Y-43610000D01*
X82610000Y-43610000D02*
X82310000Y-43610000D01*
X74750000Y-36680000D02*
X74410000Y-36210000D01*
X75090000Y-36210000D01*
X74750000Y-36680000D01*
G36*
X74750000Y-36680000D02*
G01*
X74410000Y-36210000D01*
X75090000Y-36210000D01*
X74750000Y-36680000D01*
G37*
%TO.C,RA1*%
X64702500Y-39407776D02*
X64702500Y-39917224D01*
X65747500Y-39407776D02*
X65747500Y-39917224D01*
%TO.C,R11*%
X94157776Y-34977500D02*
X94667224Y-34977500D01*
X94157776Y-36022500D02*
X94667224Y-36022500D01*
%TO.C,R14*%
X70202500Y-44167224D02*
X70202500Y-43657776D01*
X71247500Y-44167224D02*
X71247500Y-43657776D01*
%TO.C,C14*%
X76828867Y-57757600D02*
X76536333Y-57757600D01*
X76828867Y-58777600D02*
X76536333Y-58777600D01*
%TO.C,C10*%
X94735867Y-47496000D02*
X94443333Y-47496000D01*
X94735867Y-48516000D02*
X94443333Y-48516000D01*
D16*
%TO.C,U2*%
X116450000Y-34605000D02*
X116450000Y-44505000D01*
X116450000Y-44505000D02*
X119600000Y-44505000D01*
X119600000Y-34605000D02*
X116450000Y-34605000D01*
X119600000Y-44505000D02*
X119600000Y-34605000D01*
D17*
X122166419Y-44055000D02*
G75*
G02*
X121883581Y-44055000I-141419J0D01*
G01*
X121883581Y-44055000D02*
G75*
G02*
X122166419Y-44055000I141419J0D01*
G01*
D14*
%TO.C,R1*%
X124392224Y-27477500D02*
X123882776Y-27477500D01*
X124392224Y-28522500D02*
X123882776Y-28522500D01*
%TO.C,C6*%
X68230533Y-57757600D02*
X68523067Y-57757600D01*
X68230533Y-58777600D02*
X68523067Y-58777600D01*
%TD*%
M02*
