%TF.GenerationSoftware,KiCad,Pcbnew,9.0.7-247-ge1e00acccb*%
%TF.CreationDate,2026-05-12T01:43:47+02:00*%
%TF.ProjectId,version finale,76657273-696f-46e2-9066-696e616c652e,rev?*%
%TF.SameCoordinates,Original*%
%TF.FileFunction,Copper,L2,Bot*%
%TF.FilePolarity,Positive*%
%FSLAX46Y46*%
G04 Gerber Fmt 4.6, Leading zero omitted, Abs format (unit mm)*
G04 Created by KiCad (PCBNEW 9.0.7-247-ge1e00acccb) date 2026-05-12 01:43:47*
%MOMM*%
%LPD*%
G01*
G04 APERTURE LIST*
G04 Aperture macros list*
%AMRoundRect*
0 Rectangle with rounded corners*
0 $1 Rounding radius*
0 $2 $3 $4 $5 $6 $7 $8 $9 X,Y pos of 4 corners*
0 Add a 4 corners polygon primitive as box body*
4,1,4,$2,$3,$4,$5,$6,$7,$8,$9,$2,$3,0*
0 Add four circle primitives for the rounded corners*
1,1,$1+$1,$2,$3*
1,1,$1+$1,$4,$5*
1,1,$1+$1,$6,$7*
1,1,$1+$1,$8,$9*
0 Add four rect primitives between the rounded corners*
20,1,$1+$1,$2,$3,$4,$5,0*
20,1,$1+$1,$4,$5,$6,$7,0*
20,1,$1+$1,$6,$7,$8,$9,0*
20,1,$1+$1,$8,$9,$2,$3,0*%
G04 Aperture macros list end*
%TA.AperFunction,ComponentPad*%
%ADD10C,5.700000*%
%TD*%
%TA.AperFunction,ComponentPad*%
%ADD11C,2.600000*%
%TD*%
%TA.AperFunction,ComponentPad*%
%ADD12RoundRect,0.250000X0.600000X0.725000X-0.600000X0.725000X-0.600000X-0.725000X0.600000X-0.725000X0*%
%TD*%
%TA.AperFunction,ComponentPad*%
%ADD13O,1.700000X1.950000*%
%TD*%
%TA.AperFunction,ComponentPad*%
%ADD14O,1.000000X2.100000*%
%TD*%
%TA.AperFunction,ComponentPad*%
%ADD15O,1.000000X1.800000*%
%TD*%
%TA.AperFunction,ComponentPad*%
%ADD16RoundRect,0.250000X-0.600000X-0.750000X0.600000X-0.750000X0.600000X0.750000X-0.600000X0.750000X0*%
%TD*%
%TA.AperFunction,ComponentPad*%
%ADD17O,1.700000X2.000000*%
%TD*%
%TA.AperFunction,ComponentPad*%
%ADD18RoundRect,0.250000X-0.550000X-0.550000X0.550000X-0.550000X0.550000X0.550000X-0.550000X0.550000X0*%
%TD*%
%TA.AperFunction,ComponentPad*%
%ADD19C,1.600000*%
%TD*%
%TA.AperFunction,ViaPad*%
%ADD20C,0.800000*%
%TD*%
%TA.AperFunction,ViaPad*%
%ADD21C,0.600000*%
%TD*%
%TA.AperFunction,ViaPad*%
%ADD22C,0.700000*%
%TD*%
%TA.AperFunction,Conductor*%
%ADD23C,0.700000*%
%TD*%
%TA.AperFunction,Conductor*%
%ADD24C,0.500000*%
%TD*%
%TA.AperFunction,Conductor*%
%ADD25C,0.200000*%
%TD*%
%TA.AperFunction,Conductor*%
%ADD26C,0.250000*%
%TD*%
G04 APERTURE END LIST*
D10*
%TO.P,REF\u002A\u002A,1*%
%TO.N,N/C*%
X144094900Y-40563800D03*
%TD*%
%TO.P,REF\u002A\u002A,1*%
%TO.N,N/C*%
X24892000Y-40563800D03*
%TD*%
%TO.P,REF\u002A\u002A,1*%
%TO.N,N/C*%
X24892000Y-59461400D03*
%TD*%
%TO.P,REF\u002A\u002A,1*%
%TO.N,N/C*%
X144094900Y-59461400D03*
%TD*%
D11*
%TO.P,FB4,1*%
%TO.N,Net-(J2-Pin_5)*%
X31725000Y-33000000D03*
%TO.P,FB4,2*%
%TO.N,ANODE*%
X31725000Y-36500000D03*
%TD*%
%TO.P,FB2,1*%
%TO.N,-OUT_L*%
X140725000Y-45750000D03*
%TO.P,FB2,2*%
%TO.N,Net-(C12-Pad2)*%
X140725000Y-49250000D03*
%TD*%
D12*
%TO.P,J2,1,Pin_1*%
%TO.N,unconnected-(J2-Pin_1-Pad1)*%
X48225000Y-25500000D03*
D13*
%TO.P,J2,2,Pin_2*%
%TO.N,unconnected-(J2-Pin_2-Pad2)*%
X45725000Y-25500000D03*
%TO.P,J2,3,Pin_3*%
%TO.N,unconnected-(J2-Pin_3-Pad3)*%
X43225000Y-25500000D03*
%TO.P,J2,4,Pin_4*%
%TO.N,Net-(J2-Pin_4)*%
X40725000Y-25500000D03*
%TO.P,J2,5,Pin_5*%
%TO.N,Net-(J2-Pin_5)*%
X38225000Y-25500000D03*
%TD*%
D14*
%TO.P,J1,SH1*%
%TO.N,N/C*%
X143944900Y-26901500D03*
%TO.P,J1,SH2*%
X135304900Y-26901500D03*
D15*
%TO.P,J1,SH3*%
X143944900Y-22721500D03*
%TO.P,J1,SH4*%
X135304900Y-22721500D03*
%TD*%
D11*
%TO.P,FB1,1*%
%TO.N,+OUT_L*%
X130725000Y-45500000D03*
%TO.P,FB1,2*%
%TO.N,Net-(C11-Pad1)*%
X130725000Y-49000000D03*
%TD*%
D12*
%TO.P,J3,1,Pin_1*%
%TO.N,unconnected-(J3-Pin_1-Pad1)*%
X77225000Y-25500000D03*
D13*
%TO.P,J3,2,Pin_2*%
%TO.N,GND*%
X74725000Y-25500000D03*
%TO.P,J3,3,Pin_3*%
%TO.N,unconnected-(J3-Pin_3-Pad3)*%
X72225000Y-25500000D03*
%TO.P,J3,4,Pin_4*%
%TO.N,Net-(J3-Pin_4)*%
X69725000Y-25500000D03*
%TO.P,J3,5,Pin_5*%
%TO.N,Net-(J3-Pin_5)*%
X67225000Y-25500000D03*
%TD*%
D16*
%TO.P,LS1,1,1*%
%TO.N,Net-(C11-Pad1)*%
X134750000Y-59475000D03*
D17*
%TO.P,LS1,2,2*%
%TO.N,Net-(C12-Pad2)*%
X137250000Y-59475000D03*
%TD*%
D11*
%TO.P,FB3,1*%
%TO.N,Net-(FB3-Pad1)*%
X42341800Y-36548000D03*
%TO.P,FB3,2*%
%TO.N,Net-(J2-Pin_4)*%
X42341800Y-33048000D03*
%TD*%
D18*
%TO.P,D3,1,K*%
%TO.N,ANODE*%
X34725000Y-46500000D03*
D19*
%TO.P,D3,2,A*%
%TO.N,CATHODE*%
X42345000Y-46500000D03*
%TD*%
D11*
%TO.P,FB5,1*%
%TO.N,Net-(FB5-Pad1)*%
X53725000Y-35250000D03*
%TO.P,FB5,2*%
%TO.N,Net-(J3-Pin_5)*%
X53725000Y-31750000D03*
%TD*%
%TO.P,FB6,1*%
%TO.N,Net-(FB6-Pad1)*%
X65225000Y-35250000D03*
%TO.P,FB6,2*%
%TO.N,Net-(J3-Pin_4)*%
X65225000Y-31750000D03*
%TD*%
D12*
%TO.P,J4,1,Pin_1*%
%TO.N,IOVDD*%
X101725000Y-31000000D03*
D13*
%TO.P,J4,2,Pin_2*%
%TO.N,WSCLK*%
X99225000Y-31000000D03*
%TO.P,J4,3,Pin_3*%
%TO.N,GND*%
X96725000Y-31000000D03*
%TO.P,J4,4,Pin_4*%
%TO.N,SWDIO*%
X94225000Y-31000000D03*
%TO.P,J4,5,Pin_5*%
%TO.N,SW_Reset*%
X91725000Y-31000000D03*
%TO.P,J4,6,Pin_6*%
%TO.N,unconnected-(J4-Pin_6-Pad6)*%
X89225000Y-31000000D03*
%TD*%
D20*
%TO.N,GND*%
X147472400Y-44881800D03*
D21*
%TO.N,*%
X174000000Y27000000D03*
%TO.N,GND*%
X74218800Y-48183800D03*
D20*
X107162600Y-27305000D03*
X93268800Y-51612800D03*
X91160600Y-58089800D03*
X129514600Y-23698200D03*
D22*
X26568400Y-55549800D03*
X52197000Y-38557200D03*
D21*
X84404200Y-47828200D03*
D20*
X110210600Y-33070800D03*
D21*
X84836000Y-50546000D03*
D22*
X37465000Y-44348400D03*
D20*
X104648000Y-44856400D03*
X146837400Y-25171400D03*
D22*
X37515800Y-36728400D03*
D20*
X75285600Y-53975000D03*
D21*
X96291400Y-32994600D03*
D22*
X37515800Y-34137600D03*
D20*
X145872200Y-32512000D03*
X88061800Y-63779400D03*
D22*
X37465000Y-39319200D03*
D21*
X80494181Y-45235819D03*
D20*
X71272400Y-39827200D03*
X55219600Y-23393400D03*
X93675200Y-45440600D03*
D22*
X25120600Y-50114200D03*
D20*
X79349600Y-30429200D03*
X106984800Y-47650400D03*
D22*
X32105600Y-58978800D03*
D21*
X66090800Y-46050200D03*
D22*
X62865000Y-39039800D03*
X25095200Y-45643800D03*
X37515800Y-41681400D03*
D20*
X113919000Y-33375600D03*
D22*
X62534800Y-23291800D03*
D21*
X72821800Y-50114200D03*
D20*
X99999800Y-51612800D03*
D22*
X59029600Y-26695400D03*
D21*
X78308200Y-45974000D03*
D22*
X57023000Y-38582600D03*
D20*
X83337400Y-26797000D03*
D21*
X97028000Y-47472600D03*
D20*
X47421800Y-58724800D03*
D21*
X80340200Y-49682400D03*
X74295000Y-46228000D03*
D20*
X105994200Y-57835800D03*
X58572400Y-58343800D03*
D21*
X68783200Y-46380400D03*
D20*
X125323600Y-59690000D03*
D22*
X37515800Y-32029400D03*
D20*
X59029600Y-30988000D03*
D22*
X32181800Y-24053800D03*
D20*
X114122200Y-27101800D03*
D21*
X70713600Y-51181000D03*
D20*
X87020400Y-58039000D03*
D22*
X23037800Y-34188400D03*
D21*
X89027000Y-49072800D03*
D20*
X67335400Y-39039800D03*
X88722200Y-58013600D03*
%TO.N,+5V*%
X96291400Y-46101000D03*
X106095800Y-40614600D03*
D22*
%TO.N,INL*%
X96443800Y-40386000D03*
D21*
X78054200Y-47904400D03*
D20*
%TO.N,+3.3V*%
X79095600Y-47193200D03*
X83210400Y-44907200D03*
D22*
%TO.N,IOVDD*%
X80746600Y-42087800D03*
X77165200Y-38481000D03*
D21*
%TO.N,INT*%
X84455000Y-55651400D03*
X82854800Y-43967400D03*
X85521800Y-49352200D03*
D22*
X79349600Y-42722800D03*
D21*
X87045800Y-44932600D03*
X85521800Y-47802800D03*
%TO.N,SDA*%
X87553800Y-47777400D03*
X84709000Y-52755800D03*
X81015300Y-57150000D03*
X90608600Y-41891400D03*
%TO.N,SCL*%
X83083400Y-47802800D03*
X80365600Y-56515000D03*
X81457800Y-50825400D03*
X89662000Y-41249600D03*
%TO.N,NCS*%
X79197200Y-50788200D03*
D22*
X76454000Y-41783000D03*
%TO.N,LPn_EN_COM*%
X78836435Y-38831435D03*
D21*
X86385400Y-42600000D03*
X83743800Y-56616600D03*
X90271600Y-47828200D03*
X87122000Y-53924200D03*
X91922600Y-42164000D03*
D20*
%TO.N,Data_P1*%
X111506000Y-31953200D03*
X127329473Y-29422800D03*
%TO.N,Data_N1*%
X112522000Y-32461200D03*
X135737600Y-29362400D03*
D21*
%TO.N,WSCLK*%
X89992200Y-33959800D03*
X93421200Y-33959800D03*
%TO.N,STBY*%
X88976200Y-47349000D03*
X92075000Y-44170600D03*
%TO.N,RC*%
X67767200Y-56794400D03*
X56489600Y-41681400D03*
D22*
%TO.N,MUTE*%
X119151400Y-38912800D03*
X81457800Y-37821119D03*
D21*
%TO.N,SHDN*%
X76987400Y-45796200D03*
D20*
X112649000Y-38912800D03*
D22*
%TO.N,Data_N2*%
X86309200Y-39725600D03*
X111591281Y-38421119D03*
%TO.N,Data_P2*%
X101828600Y-37160200D03*
X89509600Y-37109400D03*
D21*
%TO.N,UART RX*%
X62153800Y-44475400D03*
X72898000Y-44475400D03*
%TO.N,UART TX*%
X72136000Y-45516800D03*
X65760600Y-53594000D03*
%TD*%
D23*
%TO.N,GND*%
X62865000Y-39039800D02*
X62763400Y-39039800D01*
X102031800Y-47472600D02*
X97028000Y-47472600D01*
X95707200Y-47472600D02*
X93675200Y-45440600D01*
X93268800Y-51612800D02*
X91567000Y-51612800D01*
X56997600Y-38557200D02*
X57023000Y-38582600D01*
X80340200Y-49682400D02*
X80340200Y-51023762D01*
X59029600Y-26695400D02*
X59029600Y-30988000D01*
D24*
X79756000Y-45974000D02*
X80494181Y-45235819D01*
X78308200Y-45974000D02*
X79756000Y-45974000D01*
D23*
X80340200Y-51023762D02*
X77388962Y-53975000D01*
X91567000Y-51612800D02*
X89027000Y-49072800D01*
X62763400Y-39039800D02*
X62687200Y-38963600D01*
X52197000Y-38557200D02*
X56997600Y-38557200D01*
X67335400Y-39039800D02*
X62865000Y-39039800D01*
X99999800Y-51612800D02*
X93268800Y-51612800D01*
X77388962Y-53975000D02*
X75285600Y-53975000D01*
X97028000Y-47472600D02*
X95707200Y-47472600D01*
X104648000Y-44856400D02*
X102031800Y-47472600D01*
%TO.N,+5V*%
X96291400Y-46101000D02*
X100609400Y-46101000D01*
X100609400Y-46101000D02*
X106095800Y-40614600D01*
D25*
%TO.N,INL*%
X78155800Y-48006000D02*
X78054200Y-47904400D01*
D26*
X89509600Y-40386000D02*
X81889600Y-48006000D01*
X96443800Y-40386000D02*
X89509600Y-40386000D01*
X81889600Y-48006000D02*
X78155800Y-48006000D01*
D23*
%TO.N,+3.3V*%
X80924400Y-47193200D02*
X83210400Y-44907200D01*
X79095600Y-47193200D02*
X80924400Y-47193200D01*
%TO.N,IOVDD*%
X77165200Y-38506400D02*
X80746600Y-42087800D01*
X77165200Y-38481000D02*
X77165200Y-38506400D01*
D26*
%TO.N,INT*%
X80594200Y-43967400D02*
X79349600Y-42722800D01*
X82854800Y-43967400D02*
X80594200Y-43967400D01*
X85521800Y-47802800D02*
X85521800Y-46456600D01*
X85521800Y-46456600D02*
X87045800Y-44932600D01*
X85521800Y-54584600D02*
X85521800Y-49352200D01*
X84455000Y-55651400D02*
X85521800Y-54584600D01*
%TO.N,SDA*%
X90608600Y-41891400D02*
X90608600Y-44722600D01*
X84709000Y-52755800D02*
X81015300Y-56449500D01*
X90608600Y-44722600D02*
X87553800Y-47777400D01*
D25*
X81015300Y-56449500D02*
X81015300Y-57150000D01*
%TO.N,SCL*%
X83083400Y-47802800D02*
X83083400Y-47777400D01*
D26*
X81457800Y-50825400D02*
X80365600Y-51917600D01*
X80365600Y-51917600D02*
X80365600Y-56515000D01*
X89662000Y-41249600D02*
X83083400Y-47828200D01*
D25*
X83083400Y-47828200D02*
X83083400Y-47802800D01*
D26*
%TO.N,NCS*%
X76387400Y-47978400D02*
X79197200Y-50788200D01*
D25*
X76454000Y-41783000D02*
X76387400Y-41849600D01*
D26*
X76387400Y-41849600D02*
X76387400Y-47978400D01*
%TO.N,LPn_EN_COM*%
X92684600Y-45415200D02*
X90271600Y-47828200D01*
X91922600Y-42164000D02*
X92684600Y-42926000D01*
X86385400Y-42600000D02*
X82605000Y-42600000D01*
X87122000Y-53924200D02*
X84429600Y-56616600D01*
X84429600Y-56616600D02*
X83743800Y-56616600D01*
X92684600Y-42926000D02*
X92684600Y-45415200D01*
X82605000Y-42600000D02*
X78836435Y-38831435D01*
%TO.N,Data_P1*%
X114036400Y-29422800D02*
X111506000Y-31953200D01*
X127329473Y-29422800D02*
X114036400Y-29422800D01*
%TO.N,Data_N1*%
X135712200Y-29387800D02*
X135737600Y-29362400D01*
X128346200Y-29387800D02*
X127685800Y-30048200D01*
X114884200Y-30048200D02*
X112522000Y-32410400D01*
X128346200Y-29387800D02*
X135712200Y-29387800D01*
X127685800Y-30048200D02*
X114884200Y-30048200D01*
D25*
X112522000Y-32410400D02*
X112522000Y-32461200D01*
D26*
%TO.N,WSCLK*%
X93421200Y-33959800D02*
X89992200Y-33959800D01*
D25*
%TO.N,STBY*%
X88998200Y-47349000D02*
X92075000Y-44272200D01*
X92075000Y-44272200D02*
X92075000Y-44170600D01*
X88976200Y-47349000D02*
X88998200Y-47349000D01*
D26*
%TO.N,RC*%
X60680600Y-53086000D02*
X60680600Y-45872400D01*
X67614800Y-56946800D02*
X64541400Y-56946800D01*
X64541400Y-56946800D02*
X60680600Y-53086000D01*
X60680600Y-45872400D02*
X56489600Y-41681400D01*
D25*
X67767200Y-56794400D02*
X67614800Y-56946800D01*
D26*
%TO.N,MUTE*%
X118059719Y-37821119D02*
X119151400Y-38912800D01*
X81457800Y-37821119D02*
X118059719Y-37821119D01*
%TO.N,SHDN*%
X78396839Y-48481000D02*
X77782271Y-48481000D01*
X87843529Y-48437800D02*
X86055200Y-48437800D01*
X77782271Y-48481000D02*
X76987400Y-47686129D01*
X81980285Y-48481000D02*
X78396839Y-48481000D01*
X90529729Y-48437800D02*
X90520129Y-48428200D01*
X86055200Y-48437800D02*
X86012000Y-48481000D01*
X90520129Y-48428200D02*
X87853129Y-48428200D01*
X86012000Y-48481000D02*
X81980285Y-48481000D01*
X103124000Y-48437800D02*
X90529729Y-48437800D01*
X112649000Y-38912800D02*
X103124000Y-48437800D01*
X76987400Y-47686129D02*
X76987400Y-45796200D01*
X87853129Y-48428200D02*
X87843529Y-48437800D01*
%TO.N,Data_N2*%
X110286800Y-39725600D02*
X111591281Y-38421119D01*
X86309200Y-39725600D02*
X110286800Y-39725600D01*
D25*
%TO.N,Data_P2*%
X101777800Y-37109400D02*
X101828600Y-37160200D01*
D26*
X89509600Y-37109400D02*
X101777800Y-37109400D01*
%TO.N,UART RX*%
X62153800Y-44475400D02*
X72898000Y-44475400D01*
%TO.N,UART TX*%
X65760600Y-52781200D02*
X65760600Y-53594000D01*
X72136000Y-46405800D02*
X65760600Y-52781200D01*
X72136000Y-45516800D02*
X72136000Y-46405800D01*
%TD*%
%TA.AperFunction,Conductor*%
%TO.N,GND*%
G36*
X84670434Y-49126185D02*
G01*
X84716189Y-49178989D01*
X84726133Y-49248147D01*
X84725013Y-49254689D01*
X84721300Y-49273357D01*
X84721300Y-49431046D01*
X84752061Y-49585689D01*
X84752064Y-49585701D01*
X84812402Y-49731372D01*
X84812409Y-49731384D01*
X84875402Y-49825659D01*
X84896280Y-49892336D01*
X84896300Y-49894550D01*
X84896300Y-51831300D01*
X84876615Y-51898339D01*
X84823811Y-51944094D01*
X84772300Y-51955300D01*
X84630155Y-51955300D01*
X84475510Y-51986061D01*
X84475498Y-51986064D01*
X84329827Y-52046402D01*
X84329814Y-52046409D01*
X84198711Y-52134010D01*
X84198707Y-52134013D01*
X84087213Y-52245507D01*
X84087210Y-52245511D01*
X83999609Y-52376614D01*
X83999602Y-52376627D01*
X83939264Y-52522298D01*
X83939261Y-52522308D01*
X83917141Y-52633513D01*
X83884756Y-52695424D01*
X83883205Y-52697002D01*
X81202781Y-55377427D01*
X81141458Y-55410912D01*
X81071766Y-55405928D01*
X81015833Y-55364056D01*
X80991416Y-55298592D01*
X80991100Y-55289746D01*
X80991100Y-52228051D01*
X81010785Y-52161012D01*
X81027415Y-52140374D01*
X81516597Y-51651191D01*
X81577918Y-51617708D01*
X81579928Y-51617289D01*
X81691297Y-51595137D01*
X81836979Y-51534794D01*
X81968089Y-51447189D01*
X82079589Y-51335689D01*
X82167194Y-51204579D01*
X82227537Y-51058897D01*
X82258300Y-50904242D01*
X82258300Y-50746558D01*
X82258300Y-50746555D01*
X82258299Y-50746553D01*
X82249658Y-50703114D01*
X82227537Y-50591903D01*
X82212131Y-50554710D01*
X82167197Y-50446227D01*
X82167190Y-50446214D01*
X82079589Y-50315111D01*
X82079586Y-50315107D01*
X81968092Y-50203613D01*
X81968088Y-50203610D01*
X81836985Y-50116009D01*
X81836972Y-50116002D01*
X81691301Y-50055664D01*
X81691289Y-50055661D01*
X81536645Y-50024900D01*
X81536642Y-50024900D01*
X81378958Y-50024900D01*
X81378955Y-50024900D01*
X81224310Y-50055661D01*
X81224298Y-50055664D01*
X81078627Y-50116002D01*
X81078614Y-50116009D01*
X80947511Y-50203610D01*
X80947507Y-50203613D01*
X80836013Y-50315107D01*
X80836010Y-50315111D01*
X80748409Y-50446214D01*
X80748402Y-50446227D01*
X80688064Y-50591898D01*
X80688061Y-50591908D01*
X80665941Y-50703114D01*
X80633556Y-50765025D01*
X80632005Y-50766603D01*
X80117844Y-51280764D01*
X80056521Y-51314249D01*
X79986829Y-51309265D01*
X79930896Y-51267393D01*
X79906479Y-51201929D01*
X79915601Y-51145632D01*
X79966937Y-51021697D01*
X79997700Y-50867042D01*
X79997700Y-50709358D01*
X79997700Y-50709355D01*
X79997699Y-50709353D01*
X79979583Y-50618280D01*
X79966937Y-50554703D01*
X79944390Y-50500269D01*
X79906597Y-50409027D01*
X79906590Y-50409014D01*
X79818989Y-50277911D01*
X79818986Y-50277907D01*
X79707492Y-50166413D01*
X79707488Y-50166410D01*
X79576385Y-50078809D01*
X79576372Y-50078802D01*
X79430701Y-50018464D01*
X79430689Y-50018461D01*
X79319485Y-49996341D01*
X79257574Y-49963956D01*
X79255995Y-49962405D01*
X78611771Y-49318181D01*
X78578286Y-49256858D01*
X78583270Y-49187166D01*
X78625142Y-49131233D01*
X78690606Y-49106816D01*
X78699452Y-49106500D01*
X81918679Y-49106500D01*
X84603395Y-49106500D01*
X84670434Y-49126185D01*
G37*
%TD.AperFunction*%
%TA.AperFunction,Conductor*%
G36*
X84815634Y-47083070D02*
G01*
X84871567Y-47124942D01*
X84895984Y-47190406D01*
X84896300Y-47199252D01*
X84896300Y-47260450D01*
X84876615Y-47327489D01*
X84875402Y-47329341D01*
X84812409Y-47423615D01*
X84812402Y-47423628D01*
X84752064Y-47569298D01*
X84752061Y-47569310D01*
X84721300Y-47723953D01*
X84721300Y-47731500D01*
X84701615Y-47798539D01*
X84648811Y-47844294D01*
X84597300Y-47855500D01*
X84240052Y-47855500D01*
X84173013Y-47835815D01*
X84127258Y-47783011D01*
X84117314Y-47713853D01*
X84146339Y-47650297D01*
X84152371Y-47643819D01*
X84684619Y-47111571D01*
X84745942Y-47078086D01*
X84815634Y-47083070D01*
G37*
%TD.AperFunction*%
%TA.AperFunction,Conductor*%
G36*
X104924189Y-40370785D02*
G01*
X104969944Y-40423589D01*
X104979888Y-40492747D01*
X104950863Y-40556303D01*
X104944831Y-40562780D01*
X102618663Y-42888948D01*
X100293430Y-45214181D01*
X100232107Y-45247666D01*
X100205749Y-45250500D01*
X96615895Y-45250500D01*
X96568446Y-45241062D01*
X96554066Y-45235106D01*
X96554062Y-45235105D01*
X96554058Y-45235103D01*
X96380094Y-45200500D01*
X96380091Y-45200500D01*
X96202709Y-45200500D01*
X96202706Y-45200500D01*
X96028741Y-45235103D01*
X96028732Y-45235106D01*
X95864859Y-45302983D01*
X95864846Y-45302990D01*
X95717365Y-45401535D01*
X95717361Y-45401538D01*
X95591938Y-45526961D01*
X95591935Y-45526965D01*
X95493390Y-45674446D01*
X95493383Y-45674459D01*
X95425506Y-45838332D01*
X95425503Y-45838341D01*
X95390900Y-46012304D01*
X95390900Y-46189695D01*
X95425503Y-46363658D01*
X95425506Y-46363667D01*
X95493383Y-46527540D01*
X95493390Y-46527553D01*
X95591935Y-46675034D01*
X95591938Y-46675038D01*
X95717361Y-46800461D01*
X95717365Y-46800464D01*
X95864846Y-46899009D01*
X95864859Y-46899016D01*
X95940947Y-46930532D01*
X96028734Y-46966894D01*
X96028736Y-46966894D01*
X96028741Y-46966896D01*
X96202704Y-47001499D01*
X96202707Y-47001500D01*
X96202709Y-47001500D01*
X96380093Y-47001500D01*
X96380094Y-47001499D01*
X96460322Y-46985541D01*
X96554058Y-46966896D01*
X96554059Y-46966895D01*
X96554066Y-46966894D01*
X96568446Y-46960937D01*
X96615895Y-46951500D01*
X100693168Y-46951500D01*
X100693169Y-46951499D01*
X100857482Y-46918816D01*
X100923047Y-46891658D01*
X101012263Y-46854704D01*
X101151562Y-46761627D01*
X106467740Y-41445446D01*
X106507971Y-41418567D01*
X106522347Y-41412613D01*
X106669835Y-41314064D01*
X106795264Y-41188635D01*
X106893813Y-41041147D01*
X106961694Y-40877266D01*
X106996300Y-40703291D01*
X106996300Y-40525909D01*
X106996300Y-40525906D01*
X106996299Y-40525904D01*
X106991006Y-40499291D01*
X106997233Y-40429700D01*
X107040096Y-40374522D01*
X107105986Y-40351278D01*
X107112623Y-40351100D01*
X110026748Y-40351100D01*
X110093787Y-40370785D01*
X110139542Y-40423589D01*
X110149486Y-40492747D01*
X110120461Y-40556303D01*
X110114429Y-40562781D01*
X102901229Y-47775981D01*
X102839906Y-47809466D01*
X102813548Y-47812300D01*
X91471452Y-47812300D01*
X91404413Y-47792615D01*
X91358658Y-47739811D01*
X91348714Y-47670653D01*
X91377739Y-47607097D01*
X91383771Y-47600619D01*
X92129689Y-46854701D01*
X93170457Y-45813934D01*
X93172556Y-45810794D01*
X93174621Y-45807703D01*
X93238907Y-45711492D01*
X93238907Y-45711491D01*
X93238911Y-45711486D01*
X93286063Y-45597652D01*
X93298081Y-45537229D01*
X93310100Y-45476807D01*
X93310100Y-45353594D01*
X93310100Y-42864394D01*
X93286063Y-42743548D01*
X93253237Y-42664300D01*
X93238912Y-42629715D01*
X93219587Y-42600794D01*
X93170458Y-42527267D01*
X93170456Y-42527264D01*
X93080237Y-42437045D01*
X93080206Y-42437016D01*
X92748393Y-42105203D01*
X92714908Y-42043880D01*
X92714487Y-42041864D01*
X92692337Y-41930503D01*
X92650426Y-41829319D01*
X92631997Y-41784827D01*
X92631990Y-41784814D01*
X92544389Y-41653711D01*
X92544386Y-41653707D01*
X92432892Y-41542213D01*
X92432888Y-41542210D01*
X92301785Y-41454609D01*
X92301772Y-41454602D01*
X92156101Y-41394264D01*
X92156089Y-41394261D01*
X92001445Y-41363500D01*
X92001442Y-41363500D01*
X91843758Y-41363500D01*
X91843755Y-41363500D01*
X91689110Y-41394261D01*
X91689098Y-41394264D01*
X91543427Y-41454602D01*
X91543416Y-41454608D01*
X91464060Y-41507632D01*
X91397382Y-41528509D01*
X91330002Y-41510024D01*
X91292068Y-41473420D01*
X91230389Y-41381110D01*
X91118892Y-41269613D01*
X91118884Y-41269607D01*
X91072482Y-41238602D01*
X91027676Y-41184990D01*
X91018969Y-41115665D01*
X91049123Y-41052638D01*
X91108566Y-41015918D01*
X91141372Y-41011500D01*
X95815149Y-41011500D01*
X95882188Y-41031185D01*
X95896778Y-41042942D01*
X95896928Y-41042761D01*
X95901637Y-41046626D01*
X95921071Y-41059611D01*
X96040937Y-41139703D01*
X96195718Y-41203816D01*
X96360028Y-41236499D01*
X96360032Y-41236500D01*
X96360033Y-41236500D01*
X96527568Y-41236500D01*
X96527569Y-41236499D01*
X96691882Y-41203816D01*
X96846663Y-41139703D01*
X96985962Y-41046626D01*
X97104426Y-40928162D01*
X97197503Y-40788863D01*
X97261616Y-40634082D01*
X97294300Y-40469767D01*
X97294300Y-40469760D01*
X97294897Y-40463706D01*
X97297568Y-40463969D01*
X97313985Y-40408061D01*
X97366789Y-40362306D01*
X97418300Y-40351100D01*
X104857150Y-40351100D01*
X104924189Y-40370785D01*
G37*
%TD.AperFunction*%
%TA.AperFunction,Conductor*%
G36*
X147496989Y-20539806D02*
G01*
X147505210Y-20540083D01*
X147734694Y-20555478D01*
X147751145Y-20557695D01*
X147997356Y-20607848D01*
X148013357Y-20612242D01*
X148122105Y-20650090D01*
X148250653Y-20694829D01*
X148265930Y-20701322D01*
X148380665Y-20759443D01*
X148490078Y-20814867D01*
X148504345Y-20823340D01*
X148643386Y-20919048D01*
X148711312Y-20965804D01*
X148724325Y-20976110D01*
X148910414Y-21144946D01*
X148921933Y-21156898D01*
X149027963Y-21282781D01*
X149083796Y-21349067D01*
X149093616Y-21362450D01*
X149228362Y-21574519D01*
X149236307Y-21589094D01*
X149341525Y-21817271D01*
X149347451Y-21832777D01*
X149421243Y-22072946D01*
X149425046Y-22089104D01*
X149466101Y-22336992D01*
X149467711Y-22353514D01*
X149475158Y-22600347D01*
X149475214Y-22604021D01*
X149475222Y-22619195D01*
X149475138Y-22623823D01*
X149473113Y-22678817D01*
X149473877Y-22686912D01*
X149473545Y-22686943D01*
X149475272Y-22702189D01*
X149499497Y-63495896D01*
X149499232Y-63504080D01*
X149482925Y-63752883D01*
X149480807Y-63768964D01*
X149432954Y-64009535D01*
X149428756Y-64025202D01*
X149349909Y-64257479D01*
X149343702Y-64272465D01*
X149235212Y-64492460D01*
X149227102Y-64506506D01*
X149090825Y-64710460D01*
X149080951Y-64723329D01*
X148919218Y-64907749D01*
X148907749Y-64919218D01*
X148723329Y-65080951D01*
X148710460Y-65090825D01*
X148506506Y-65227102D01*
X148492460Y-65235212D01*
X148272465Y-65343702D01*
X148257479Y-65349909D01*
X148025202Y-65428756D01*
X148009535Y-65432954D01*
X147768964Y-65480807D01*
X147752883Y-65482925D01*
X147504043Y-65499235D01*
X147495933Y-65499500D01*
X22504067Y-65499500D01*
X22495957Y-65499235D01*
X22247116Y-65482925D01*
X22231035Y-65480807D01*
X21990464Y-65432954D01*
X21974797Y-65428756D01*
X21742520Y-65349909D01*
X21727534Y-65343702D01*
X21507539Y-65235212D01*
X21493493Y-65227102D01*
X21289539Y-65090825D01*
X21276670Y-65080951D01*
X21092250Y-64919218D01*
X21080781Y-64907749D01*
X20919048Y-64723329D01*
X20909174Y-64710460D01*
X20772897Y-64506506D01*
X20764787Y-64492460D01*
X20658855Y-64277652D01*
X20656294Y-64272458D01*
X20650090Y-64257479D01*
X20571243Y-64025202D01*
X20567045Y-64009535D01*
X20559186Y-63970026D01*
X20519190Y-63768953D01*
X20517075Y-63752895D01*
X20500765Y-63504043D01*
X20500500Y-63495933D01*
X20500500Y-59296803D01*
X21541500Y-59296803D01*
X21541500Y-59625996D01*
X21573765Y-59953601D01*
X21573768Y-59953618D01*
X21637984Y-60276466D01*
X21637987Y-60276477D01*
X21733552Y-60591512D01*
X21851621Y-60876555D01*
X21859531Y-60895651D01*
X21902211Y-60975500D01*
X22014707Y-61185967D01*
X22014718Y-61185985D01*
X22197601Y-61459689D01*
X22197611Y-61459703D01*
X22406453Y-61714177D01*
X22639222Y-61946946D01*
X22639227Y-61946950D01*
X22639228Y-61946951D01*
X22893702Y-62155793D01*
X23167421Y-62338686D01*
X23457749Y-62493869D01*
X23761889Y-62619848D01*
X24076913Y-62715410D01*
X24076919Y-62715411D01*
X24076922Y-62715412D01*
X24076933Y-62715415D01*
X24257361Y-62751303D01*
X24399787Y-62779633D01*
X24727400Y-62811900D01*
X24727403Y-62811900D01*
X25056597Y-62811900D01*
X25056600Y-62811900D01*
X25384213Y-62779633D01*
X25561760Y-62744316D01*
X25707066Y-62715415D01*
X25707077Y-62715412D01*
X25707077Y-62715411D01*
X25707087Y-62715410D01*
X26022111Y-62619848D01*
X26326251Y-62493869D01*
X26616579Y-62338686D01*
X26890298Y-62155793D01*
X27144772Y-61946951D01*
X27377551Y-61714172D01*
X27586393Y-61459698D01*
X27769286Y-61185979D01*
X27924469Y-60895651D01*
X28050448Y-60591511D01*
X28146010Y-60276487D01*
X28146012Y-60276477D01*
X28146015Y-60276466D01*
X28174916Y-60131160D01*
X28210233Y-59953613D01*
X28242500Y-59626000D01*
X28242500Y-59296800D01*
X28210233Y-58969187D01*
X28151713Y-58674983D01*
X133399500Y-58674983D01*
X133399500Y-60275001D01*
X133399501Y-60275018D01*
X133410000Y-60377796D01*
X133410001Y-60377799D01*
X133455894Y-60516294D01*
X133465186Y-60544334D01*
X133557288Y-60693656D01*
X133681344Y-60817712D01*
X133830666Y-60909814D01*
X133997203Y-60964999D01*
X134099991Y-60975500D01*
X135400008Y-60975499D01*
X135502797Y-60964999D01*
X135669334Y-60909814D01*
X135818656Y-60817712D01*
X135942712Y-60693656D01*
X136034814Y-60544334D01*
X136034814Y-60544331D01*
X136038178Y-60538879D01*
X136090126Y-60492154D01*
X136159088Y-60480931D01*
X136223170Y-60508774D01*
X136231398Y-60516294D01*
X136370213Y-60655109D01*
X136542179Y-60780048D01*
X136542181Y-60780049D01*
X136542184Y-60780051D01*
X136731588Y-60876557D01*
X136933757Y-60942246D01*
X137143713Y-60975500D01*
X137143714Y-60975500D01*
X137356286Y-60975500D01*
X137356287Y-60975500D01*
X137566243Y-60942246D01*
X137768412Y-60876557D01*
X137957816Y-60780051D01*
X137979789Y-60764086D01*
X138129786Y-60655109D01*
X138129788Y-60655106D01*
X138129792Y-60655104D01*
X138280104Y-60504792D01*
X138280106Y-60504788D01*
X138280109Y-60504786D01*
X138405048Y-60332820D01*
X138405047Y-60332820D01*
X138405051Y-60332816D01*
X138501557Y-60143412D01*
X138567246Y-59941243D01*
X138600500Y-59731287D01*
X138600500Y-59296803D01*
X140744400Y-59296803D01*
X140744400Y-59625996D01*
X140776665Y-59953601D01*
X140776668Y-59953618D01*
X140840884Y-60276466D01*
X140840887Y-60276477D01*
X140936452Y-60591512D01*
X141054521Y-60876555D01*
X141062431Y-60895651D01*
X141105111Y-60975500D01*
X141217607Y-61185967D01*
X141217618Y-61185985D01*
X141400501Y-61459689D01*
X141400511Y-61459703D01*
X141609353Y-61714177D01*
X141842122Y-61946946D01*
X141842127Y-61946950D01*
X141842128Y-61946951D01*
X142096602Y-62155793D01*
X142370321Y-62338686D01*
X142660649Y-62493869D01*
X142964789Y-62619848D01*
X143279813Y-62715410D01*
X143279819Y-62715411D01*
X143279822Y-62715412D01*
X143279833Y-62715415D01*
X143460261Y-62751303D01*
X143602687Y-62779633D01*
X143930300Y-62811900D01*
X143930303Y-62811900D01*
X144259497Y-62811900D01*
X144259500Y-62811900D01*
X144587113Y-62779633D01*
X144764660Y-62744316D01*
X144909966Y-62715415D01*
X144909977Y-62715412D01*
X144909977Y-62715411D01*
X144909987Y-62715410D01*
X145225011Y-62619848D01*
X145529151Y-62493869D01*
X145819479Y-62338686D01*
X146093198Y-62155793D01*
X146347672Y-61946951D01*
X146580451Y-61714172D01*
X146789293Y-61459698D01*
X146972186Y-61185979D01*
X147127369Y-60895651D01*
X147253348Y-60591511D01*
X147348910Y-60276487D01*
X147348912Y-60276477D01*
X147348915Y-60276466D01*
X147377816Y-60131160D01*
X147413133Y-59953613D01*
X147445400Y-59626000D01*
X147445400Y-59296800D01*
X147413133Y-58969187D01*
X147380790Y-58806585D01*
X147348915Y-58646333D01*
X147348912Y-58646322D01*
X147348911Y-58646318D01*
X147348910Y-58646313D01*
X147253348Y-58331289D01*
X147127369Y-58027149D01*
X146972186Y-57736821D01*
X146789293Y-57463102D01*
X146580451Y-57208628D01*
X146580450Y-57208627D01*
X146580446Y-57208622D01*
X146347677Y-56975853D01*
X146093203Y-56767011D01*
X146093202Y-56767010D01*
X146093198Y-56767007D01*
X145819479Y-56584114D01*
X145819474Y-56584111D01*
X145819467Y-56584107D01*
X145618017Y-56476430D01*
X145529151Y-56428931D01*
X145496052Y-56415221D01*
X145225012Y-56302952D01*
X144909977Y-56207387D01*
X144909966Y-56207384D01*
X144587118Y-56143168D01*
X144587113Y-56143167D01*
X144587111Y-56143166D01*
X144587101Y-56143165D01*
X144346422Y-56119461D01*
X144259500Y-56110900D01*
X143930300Y-56110900D01*
X143850440Y-56118765D01*
X143602698Y-56143165D01*
X143602681Y-56143168D01*
X143279833Y-56207384D01*
X143279822Y-56207387D01*
X142964787Y-56302952D01*
X142660655Y-56428928D01*
X142660641Y-56428935D01*
X142370332Y-56584107D01*
X142370314Y-56584118D01*
X142096610Y-56767001D01*
X142096596Y-56767011D01*
X141842122Y-56975853D01*
X141609353Y-57208622D01*
X141400511Y-57463096D01*
X141400501Y-57463110D01*
X141217618Y-57736814D01*
X141217607Y-57736832D01*
X141062435Y-58027141D01*
X141062428Y-58027155D01*
X140936452Y-58331287D01*
X140840887Y-58646322D01*
X140840884Y-58646333D01*
X140776668Y-58969181D01*
X140776665Y-58969198D01*
X140744400Y-59296803D01*
X138600500Y-59296803D01*
X138600500Y-59218713D01*
X138567246Y-59008757D01*
X138501557Y-58806588D01*
X138405051Y-58617184D01*
X138405049Y-58617181D01*
X138405048Y-58617179D01*
X138280109Y-58445213D01*
X138129786Y-58294890D01*
X137957820Y-58169951D01*
X137768414Y-58073444D01*
X137768413Y-58073443D01*
X137768412Y-58073443D01*
X137566243Y-58007754D01*
X137566241Y-58007753D01*
X137566240Y-58007753D01*
X137404957Y-57982208D01*
X137356287Y-57974500D01*
X137143713Y-57974500D01*
X137095042Y-57982208D01*
X136933760Y-58007753D01*
X136731585Y-58073444D01*
X136542179Y-58169951D01*
X136370215Y-58294889D01*
X136231398Y-58433706D01*
X136170075Y-58467190D01*
X136100383Y-58462206D01*
X136044450Y-58420334D01*
X136038178Y-58411120D01*
X135942712Y-58256344D01*
X135818657Y-58132289D01*
X135818656Y-58132288D01*
X135669334Y-58040186D01*
X135502797Y-57985001D01*
X135502795Y-57985000D01*
X135400010Y-57974500D01*
X134099998Y-57974500D01*
X134099981Y-57974501D01*
X133997203Y-57985000D01*
X133997200Y-57985001D01*
X133830668Y-58040185D01*
X133830663Y-58040187D01*
X133681342Y-58132289D01*
X133557289Y-58256342D01*
X133465187Y-58405663D01*
X133465185Y-58405668D01*
X133460325Y-58420334D01*
X133410001Y-58572203D01*
X133410001Y-58572204D01*
X133410000Y-58572204D01*
X133399500Y-58674983D01*
X28151713Y-58674983D01*
X28146010Y-58646313D01*
X28050448Y-58331289D01*
X27924469Y-58027149D01*
X27769286Y-57736821D01*
X27586393Y-57463102D01*
X27377551Y-57208628D01*
X27377550Y-57208627D01*
X27377546Y-57208622D01*
X27144777Y-56975853D01*
X26890303Y-56767011D01*
X26890302Y-56767010D01*
X26890298Y-56767007D01*
X26616579Y-56584114D01*
X26616574Y-56584111D01*
X26616567Y-56584107D01*
X26415117Y-56476430D01*
X26326251Y-56428931D01*
X26293152Y-56415221D01*
X26022112Y-56302952D01*
X25707077Y-56207387D01*
X25707066Y-56207384D01*
X25384218Y-56143168D01*
X25384213Y-56143167D01*
X25384211Y-56143166D01*
X25384201Y-56143165D01*
X25143522Y-56119461D01*
X25056600Y-56110900D01*
X24727400Y-56110900D01*
X24647540Y-56118765D01*
X24399798Y-56143165D01*
X24399781Y-56143168D01*
X24076933Y-56207384D01*
X24076922Y-56207387D01*
X23761887Y-56302952D01*
X23457755Y-56428928D01*
X23457741Y-56428935D01*
X23167432Y-56584107D01*
X23167414Y-56584118D01*
X22893710Y-56767001D01*
X22893696Y-56767011D01*
X22639222Y-56975853D01*
X22406453Y-57208622D01*
X22197611Y-57463096D01*
X22197601Y-57463110D01*
X22014718Y-57736814D01*
X22014707Y-57736832D01*
X21859535Y-58027141D01*
X21859528Y-58027155D01*
X21733552Y-58331287D01*
X21637987Y-58646322D01*
X21637984Y-58646333D01*
X21573768Y-58969181D01*
X21573765Y-58969198D01*
X21541500Y-59296803D01*
X20500500Y-59296803D01*
X20500500Y-45899983D01*
X33424500Y-45899983D01*
X33424500Y-47100001D01*
X33424501Y-47100018D01*
X33435000Y-47202796D01*
X33435001Y-47202799D01*
X33490185Y-47369331D01*
X33490187Y-47369336D01*
X33508007Y-47398227D01*
X33582288Y-47518656D01*
X33706344Y-47642712D01*
X33855666Y-47734814D01*
X34022203Y-47789999D01*
X34124991Y-47800500D01*
X35325008Y-47800499D01*
X35427797Y-47789999D01*
X35594334Y-47734814D01*
X35743656Y-47642712D01*
X35867712Y-47518656D01*
X35959814Y-47369334D01*
X36014999Y-47202797D01*
X36025500Y-47100009D01*
X36025499Y-46397648D01*
X41044500Y-46397648D01*
X41044500Y-46602351D01*
X41076522Y-46804534D01*
X41139781Y-46999223D01*
X41191135Y-47100009D01*
X41219465Y-47155610D01*
X41232715Y-47181613D01*
X41353028Y-47347213D01*
X41497786Y-47491971D01*
X41647330Y-47600619D01*
X41663390Y-47612287D01*
X41737989Y-47650297D01*
X41845776Y-47705218D01*
X41845778Y-47705218D01*
X41845781Y-47705220D01*
X41950137Y-47739127D01*
X42040465Y-47768477D01*
X42141557Y-47784488D01*
X42242648Y-47800500D01*
X42242649Y-47800500D01*
X42447351Y-47800500D01*
X42447352Y-47800500D01*
X42649534Y-47768477D01*
X42844219Y-47705220D01*
X43026610Y-47612287D01*
X43155482Y-47518657D01*
X43192213Y-47491971D01*
X43192215Y-47491968D01*
X43192219Y-47491966D01*
X43336966Y-47347219D01*
X43336968Y-47347215D01*
X43336971Y-47347213D01*
X43441892Y-47202799D01*
X43457287Y-47181610D01*
X43550220Y-46999219D01*
X43613477Y-46804534D01*
X43645500Y-46602352D01*
X43645500Y-46397648D01*
X43634358Y-46327303D01*
X43613477Y-46195465D01*
X43580889Y-46095171D01*
X43550220Y-46000781D01*
X43550218Y-46000778D01*
X43550218Y-46000776D01*
X43498865Y-45899991D01*
X43457287Y-45818390D01*
X43407815Y-45750297D01*
X43336971Y-45652786D01*
X43192213Y-45508028D01*
X43026613Y-45387715D01*
X43026612Y-45387714D01*
X43026610Y-45387713D01*
X42959648Y-45353594D01*
X42844223Y-45294781D01*
X42649534Y-45231522D01*
X42474995Y-45203878D01*
X42447352Y-45199500D01*
X42242648Y-45199500D01*
X42218329Y-45203351D01*
X42040465Y-45231522D01*
X41845776Y-45294781D01*
X41663386Y-45387715D01*
X41497786Y-45508028D01*
X41353028Y-45652786D01*
X41232715Y-45818386D01*
X41139781Y-46000776D01*
X41076522Y-46195465D01*
X41044500Y-46397648D01*
X36025499Y-46397648D01*
X36025499Y-45899992D01*
X36016708Y-45813938D01*
X36014999Y-45797203D01*
X36014998Y-45797200D01*
X35959814Y-45630666D01*
X35867712Y-45481344D01*
X35743656Y-45357288D01*
X35623718Y-45283310D01*
X35594336Y-45265187D01*
X35594331Y-45265185D01*
X35592862Y-45264698D01*
X35427797Y-45210001D01*
X35427795Y-45210000D01*
X35325010Y-45199500D01*
X34124998Y-45199500D01*
X34124981Y-45199501D01*
X34022203Y-45210000D01*
X34022200Y-45210001D01*
X33855668Y-45265185D01*
X33855663Y-45265187D01*
X33706342Y-45357289D01*
X33582289Y-45481342D01*
X33490187Y-45630663D01*
X33490185Y-45630668D01*
X33463406Y-45711483D01*
X33435001Y-45797203D01*
X33435001Y-45797204D01*
X33435000Y-45797204D01*
X33424500Y-45899983D01*
X20500500Y-45899983D01*
X20500500Y-40399203D01*
X21541500Y-40399203D01*
X21541500Y-40728396D01*
X21573765Y-41056001D01*
X21573768Y-41056018D01*
X21637984Y-41378866D01*
X21637987Y-41378877D01*
X21733552Y-41693912D01*
X21849776Y-41974500D01*
X21859531Y-41998051D01*
X21878848Y-42034191D01*
X22014707Y-42288367D01*
X22014718Y-42288385D01*
X22197601Y-42562089D01*
X22197611Y-42562103D01*
X22406453Y-42816577D01*
X22639222Y-43049346D01*
X22639227Y-43049350D01*
X22639228Y-43049351D01*
X22893702Y-43258193D01*
X23167421Y-43441086D01*
X23457749Y-43596269D01*
X23761889Y-43722248D01*
X24076913Y-43817810D01*
X24076919Y-43817811D01*
X24076922Y-43817812D01*
X24076933Y-43817815D01*
X24256894Y-43853610D01*
X24399787Y-43882033D01*
X24727400Y-43914300D01*
X24727403Y-43914300D01*
X25056597Y-43914300D01*
X25056600Y-43914300D01*
X25384213Y-43882033D01*
X25561760Y-43846716D01*
X25707066Y-43817815D01*
X25707077Y-43817812D01*
X25707077Y-43817811D01*
X25707087Y-43817810D01*
X26022111Y-43722248D01*
X26326251Y-43596269D01*
X26616579Y-43441086D01*
X26890298Y-43258193D01*
X27144772Y-43049351D01*
X27377551Y-42816572D01*
X27586393Y-42562098D01*
X27769286Y-42288379D01*
X27924469Y-41998051D01*
X28050448Y-41693911D01*
X28078161Y-41602553D01*
X55689100Y-41602553D01*
X55689100Y-41760246D01*
X55719861Y-41914889D01*
X55719864Y-41914901D01*
X55780202Y-42060572D01*
X55780209Y-42060585D01*
X55867810Y-42191688D01*
X55867813Y-42191692D01*
X55979307Y-42303186D01*
X55979311Y-42303189D01*
X56110414Y-42390790D01*
X56110427Y-42390797D01*
X56186935Y-42422487D01*
X56256103Y-42451137D01*
X56367316Y-42473258D01*
X56429223Y-42505641D01*
X56430803Y-42507193D01*
X60018781Y-46095171D01*
X60052266Y-46156494D01*
X60055100Y-46182852D01*
X60055100Y-53147606D01*
X60061409Y-53179329D01*
X60066713Y-53205996D01*
X60068466Y-53214806D01*
X60079137Y-53268451D01*
X60126288Y-53382286D01*
X60160515Y-53433509D01*
X60194742Y-53484733D01*
X60281867Y-53571858D01*
X60281869Y-53571859D01*
X60291832Y-53581822D01*
X64142663Y-57432655D01*
X64142667Y-57432658D01*
X64245110Y-57501109D01*
X64245111Y-57501109D01*
X64245115Y-57501112D01*
X64311796Y-57528731D01*
X64311798Y-57528733D01*
X64341529Y-57541047D01*
X64358948Y-57548263D01*
X64479794Y-57572300D01*
X64603007Y-57572300D01*
X67562530Y-57572300D01*
X67586720Y-57574682D01*
X67611008Y-57579514D01*
X67688355Y-57594900D01*
X67688358Y-57594900D01*
X67846044Y-57594900D01*
X67846045Y-57594899D01*
X68000697Y-57564137D01*
X68146379Y-57503794D01*
X68277489Y-57416189D01*
X68388989Y-57304689D01*
X68476594Y-57173579D01*
X68536937Y-57027897D01*
X68567700Y-56873242D01*
X68567700Y-56715558D01*
X68567700Y-56715555D01*
X68567699Y-56715553D01*
X68563699Y-56695442D01*
X68536937Y-56560903D01*
X68527348Y-56537753D01*
X68476597Y-56415227D01*
X68476590Y-56415214D01*
X68388989Y-56284111D01*
X68388986Y-56284107D01*
X68277492Y-56172613D01*
X68277488Y-56172610D01*
X68146385Y-56085009D01*
X68146372Y-56085002D01*
X68000701Y-56024664D01*
X68000689Y-56024661D01*
X67846045Y-55993900D01*
X67846042Y-55993900D01*
X67688358Y-55993900D01*
X67688355Y-55993900D01*
X67533710Y-56024661D01*
X67533698Y-56024664D01*
X67388027Y-56085002D01*
X67388014Y-56085009D01*
X67256911Y-56172610D01*
X67256907Y-56172613D01*
X67144540Y-56284981D01*
X67083217Y-56318466D01*
X67056859Y-56321300D01*
X64851853Y-56321300D01*
X64784814Y-56301615D01*
X64764172Y-56284981D01*
X61342419Y-52863228D01*
X61308934Y-52801905D01*
X61306100Y-52775547D01*
X61306100Y-45810793D01*
X61306099Y-45810789D01*
X61295677Y-45758393D01*
X61282063Y-45689948D01*
X61262200Y-45641994D01*
X61234912Y-45576114D01*
X61189421Y-45508034D01*
X61166458Y-45473667D01*
X61166456Y-45473664D01*
X61076237Y-45383445D01*
X61076206Y-45383416D01*
X60089343Y-44396553D01*
X61353300Y-44396553D01*
X61353300Y-44554246D01*
X61384061Y-44708889D01*
X61384064Y-44708901D01*
X61444402Y-44854572D01*
X61444409Y-44854585D01*
X61532010Y-44985688D01*
X61532013Y-44985692D01*
X61643507Y-45097186D01*
X61643511Y-45097189D01*
X61774614Y-45184790D01*
X61774627Y-45184797D01*
X61910465Y-45241062D01*
X61920303Y-45245137D01*
X62023157Y-45265596D01*
X62074953Y-45275899D01*
X62074956Y-45275900D01*
X62074958Y-45275900D01*
X62232644Y-45275900D01*
X62232645Y-45275899D01*
X62387297Y-45245137D01*
X62532979Y-45184794D01*
X62627259Y-45121798D01*
X62693936Y-45100920D01*
X62696150Y-45100900D01*
X71256238Y-45100900D01*
X71323277Y-45120585D01*
X71369032Y-45173389D01*
X71378976Y-45242547D01*
X71370800Y-45272348D01*
X71366263Y-45283303D01*
X71366262Y-45283306D01*
X71366261Y-45283310D01*
X71335500Y-45437953D01*
X71335500Y-45595646D01*
X71366261Y-45750289D01*
X71366264Y-45750301D01*
X71426602Y-45895972D01*
X71426609Y-45895984D01*
X71489602Y-45990259D01*
X71495252Y-46008305D01*
X71505477Y-46024215D01*
X71509928Y-46055174D01*
X71510480Y-46056936D01*
X71510500Y-46059150D01*
X71510500Y-46095347D01*
X71490815Y-46162386D01*
X71474181Y-46183028D01*
X68409062Y-49248147D01*
X65361870Y-52295339D01*
X65361867Y-52295342D01*
X65318303Y-52338905D01*
X65274740Y-52382468D01*
X65260717Y-52403456D01*
X65206289Y-52484912D01*
X65206285Y-52484919D01*
X65159140Y-52598738D01*
X65159135Y-52598754D01*
X65143580Y-52676959D01*
X65135100Y-52719589D01*
X65135100Y-53051650D01*
X65115415Y-53118689D01*
X65114202Y-53120541D01*
X65051209Y-53214815D01*
X65051202Y-53214828D01*
X64990864Y-53360498D01*
X64990861Y-53360510D01*
X64960100Y-53515153D01*
X64960100Y-53672846D01*
X64990861Y-53827489D01*
X64990864Y-53827501D01*
X65051202Y-53973172D01*
X65051209Y-53973185D01*
X65138810Y-54104288D01*
X65138813Y-54104292D01*
X65250307Y-54215786D01*
X65250311Y-54215789D01*
X65381414Y-54303390D01*
X65381427Y-54303397D01*
X65522494Y-54361828D01*
X65527103Y-54363737D01*
X65681753Y-54394499D01*
X65681756Y-54394500D01*
X65681758Y-54394500D01*
X65839444Y-54394500D01*
X65839445Y-54394499D01*
X65994097Y-54363737D01*
X66139779Y-54303394D01*
X66270889Y-54215789D01*
X66382389Y-54104289D01*
X66469994Y-53973179D01*
X66530337Y-53827497D01*
X66561100Y-53672842D01*
X66561100Y-53515158D01*
X66561100Y-53515155D01*
X66561099Y-53515153D01*
X66543520Y-53426779D01*
X66530337Y-53360503D01*
X66469994Y-53214821D01*
X66423019Y-53144518D01*
X66402142Y-53077843D01*
X66420626Y-53010463D01*
X66438437Y-52987952D01*
X72534729Y-46891660D01*
X72534733Y-46891658D01*
X72621858Y-46804533D01*
X72659298Y-46748500D01*
X72690312Y-46702086D01*
X72727921Y-46611289D01*
X72737463Y-46588252D01*
X72753904Y-46505594D01*
X72761500Y-46467407D01*
X72761500Y-46344193D01*
X72761500Y-46059150D01*
X72781185Y-45992111D01*
X72782398Y-45990259D01*
X72782809Y-45989643D01*
X72845394Y-45895979D01*
X72854066Y-45875044D01*
X72879382Y-45813924D01*
X72905737Y-45750297D01*
X72936500Y-45595642D01*
X72936500Y-45437958D01*
X72931218Y-45411404D01*
X72937444Y-45341815D01*
X72980306Y-45286637D01*
X73028644Y-45265596D01*
X73046952Y-45261953D01*
X73131497Y-45245137D01*
X73277179Y-45184794D01*
X73408289Y-45097189D01*
X73519789Y-44985689D01*
X73607394Y-44854579D01*
X73667737Y-44708897D01*
X73698500Y-44554242D01*
X73698500Y-44396558D01*
X73698500Y-44396555D01*
X73698499Y-44396553D01*
X73675810Y-44282488D01*
X73667737Y-44241903D01*
X73645316Y-44187774D01*
X73607397Y-44096227D01*
X73607390Y-44096214D01*
X73519789Y-43965111D01*
X73519786Y-43965107D01*
X73408292Y-43853613D01*
X73408288Y-43853610D01*
X73277185Y-43766009D01*
X73277172Y-43766002D01*
X73131501Y-43705664D01*
X73131489Y-43705661D01*
X72976845Y-43674900D01*
X72976842Y-43674900D01*
X72819158Y-43674900D01*
X72819155Y-43674900D01*
X72664510Y-43705661D01*
X72664498Y-43705664D01*
X72518827Y-43766002D01*
X72518815Y-43766009D01*
X72424541Y-43829002D01*
X72357864Y-43849880D01*
X72355650Y-43849900D01*
X62696150Y-43849900D01*
X62629111Y-43830215D01*
X62627259Y-43829002D01*
X62532984Y-43766009D01*
X62532972Y-43766002D01*
X62387301Y-43705664D01*
X62387289Y-43705661D01*
X62232645Y-43674900D01*
X62232642Y-43674900D01*
X62074958Y-43674900D01*
X62074955Y-43674900D01*
X61920310Y-43705661D01*
X61920298Y-43705664D01*
X61774627Y-43766002D01*
X61774614Y-43766009D01*
X61643511Y-43853610D01*
X61643507Y-43853613D01*
X61532013Y-43965107D01*
X61532010Y-43965111D01*
X61444409Y-44096214D01*
X61444402Y-44096227D01*
X61384064Y-44241898D01*
X61384061Y-44241910D01*
X61353300Y-44396553D01*
X60089343Y-44396553D01*
X57392018Y-41699228D01*
X75603500Y-41699228D01*
X75603500Y-41866771D01*
X75636182Y-42031074D01*
X75636184Y-42031082D01*
X75700295Y-42185860D01*
X75700296Y-42185862D01*
X75700297Y-42185863D01*
X75741002Y-42246783D01*
X75761880Y-42313458D01*
X75761900Y-42315672D01*
X75761900Y-48040006D01*
X75785937Y-48160852D01*
X75792267Y-48176133D01*
X75833088Y-48274686D01*
X75858749Y-48313089D01*
X75863292Y-48319888D01*
X75863294Y-48319892D01*
X75901541Y-48377133D01*
X75992986Y-48468578D01*
X75993008Y-48468598D01*
X78371405Y-50846995D01*
X78404890Y-50908318D01*
X78405341Y-50910485D01*
X78427461Y-51021689D01*
X78427464Y-51021701D01*
X78487802Y-51167372D01*
X78487809Y-51167385D01*
X78575410Y-51298488D01*
X78575413Y-51298492D01*
X78686907Y-51409986D01*
X78686911Y-51409989D01*
X78818014Y-51497590D01*
X78818027Y-51497597D01*
X78927861Y-51543091D01*
X78963703Y-51557937D01*
X79118353Y-51588699D01*
X79118356Y-51588700D01*
X79118358Y-51588700D01*
X79276044Y-51588700D01*
X79276045Y-51588699D01*
X79430697Y-51557937D01*
X79576379Y-51497594D01*
X79576384Y-51497590D01*
X79576387Y-51497589D01*
X79633057Y-51459723D01*
X79665713Y-51449497D01*
X79698272Y-51438879D01*
X79699007Y-51439071D01*
X79699734Y-51438844D01*
X79732768Y-51447906D01*
X79765866Y-51456567D01*
X79766380Y-51457126D01*
X79767115Y-51457328D01*
X79790011Y-51482817D01*
X79813166Y-51507991D01*
X79813296Y-51508739D01*
X79813805Y-51509306D01*
X79819280Y-51543091D01*
X79825156Y-51576824D01*
X79824886Y-51577688D01*
X79824982Y-51578276D01*
X79816221Y-51610968D01*
X79812841Y-51618988D01*
X79811288Y-51621314D01*
X79777947Y-51701807D01*
X79777847Y-51702049D01*
X79764137Y-51735145D01*
X79764135Y-51735153D01*
X79740100Y-51855989D01*
X79740100Y-55972650D01*
X79720415Y-56039689D01*
X79719202Y-56041541D01*
X79656209Y-56135815D01*
X79656202Y-56135828D01*
X79595864Y-56281498D01*
X79595861Y-56281510D01*
X79565100Y-56436153D01*
X79565100Y-56593846D01*
X79595861Y-56748489D01*
X79595864Y-56748501D01*
X79656202Y-56894172D01*
X79656209Y-56894185D01*
X79743810Y-57025288D01*
X79743813Y-57025292D01*
X79855307Y-57136786D01*
X79855311Y-57136789D01*
X79986414Y-57224390D01*
X79986427Y-57224397D01*
X80073830Y-57260599D01*
X80132103Y-57284737D01*
X80148517Y-57288002D01*
X80210428Y-57320384D01*
X80243158Y-57377857D01*
X80243794Y-57377665D01*
X80244643Y-57380464D01*
X80245004Y-57381098D01*
X80245432Y-57383066D01*
X80245564Y-57383501D01*
X80305902Y-57529172D01*
X80305909Y-57529185D01*
X80393510Y-57660288D01*
X80393513Y-57660292D01*
X80505007Y-57771786D01*
X80505011Y-57771789D01*
X80636114Y-57859390D01*
X80636127Y-57859397D01*
X80781798Y-57919735D01*
X80781803Y-57919737D01*
X80936453Y-57950499D01*
X80936456Y-57950500D01*
X80936458Y-57950500D01*
X81094144Y-57950500D01*
X81094145Y-57950499D01*
X81248797Y-57919737D01*
X81394479Y-57859394D01*
X81525589Y-57771789D01*
X81637089Y-57660289D01*
X81724694Y-57529179D01*
X81735208Y-57503797D01*
X81771118Y-57417100D01*
X81785037Y-57383497D01*
X81815800Y-57228842D01*
X81815800Y-57071158D01*
X81815800Y-57071155D01*
X81815799Y-57071153D01*
X81785037Y-56916503D01*
X81757528Y-56850089D01*
X81724697Y-56770827D01*
X81724690Y-56770814D01*
X81722704Y-56767842D01*
X81722141Y-56766045D01*
X81721821Y-56765446D01*
X81721934Y-56765385D01*
X81701823Y-56701166D01*
X81720305Y-56633785D01*
X81738118Y-56611270D01*
X84684621Y-53664768D01*
X84745942Y-53631285D01*
X84815634Y-53636269D01*
X84871567Y-53678141D01*
X84895984Y-53743605D01*
X84896300Y-53752451D01*
X84896300Y-54274147D01*
X84876615Y-54341186D01*
X84859981Y-54361828D01*
X84396203Y-54825605D01*
X84334880Y-54859090D01*
X84332714Y-54859541D01*
X84221508Y-54881661D01*
X84221498Y-54881664D01*
X84075827Y-54942002D01*
X84075814Y-54942009D01*
X83944711Y-55029610D01*
X83944707Y-55029613D01*
X83833213Y-55141107D01*
X83833210Y-55141111D01*
X83745609Y-55272214D01*
X83745602Y-55272227D01*
X83685264Y-55417898D01*
X83685261Y-55417910D01*
X83654500Y-55572553D01*
X83654500Y-55716416D01*
X83634815Y-55783455D01*
X83582011Y-55829210D01*
X83554692Y-55838033D01*
X83510308Y-55846861D01*
X83510298Y-55846864D01*
X83364627Y-55907202D01*
X83364614Y-55907209D01*
X83233511Y-55994810D01*
X83233507Y-55994813D01*
X83122013Y-56106307D01*
X83122010Y-56106311D01*
X83034409Y-56237414D01*
X83034402Y-56237427D01*
X82974064Y-56383098D01*
X82974061Y-56383110D01*
X82943300Y-56537753D01*
X82943300Y-56695446D01*
X82974061Y-56850089D01*
X82974064Y-56850101D01*
X83034402Y-56995772D01*
X83034409Y-56995785D01*
X83122010Y-57126888D01*
X83122013Y-57126892D01*
X83233507Y-57238386D01*
X83233511Y-57238389D01*
X83364614Y-57325990D01*
X83364627Y-57325997D01*
X83503456Y-57383501D01*
X83510303Y-57386337D01*
X83660363Y-57416186D01*
X83664953Y-57417099D01*
X83664956Y-57417100D01*
X83664958Y-57417100D01*
X83822644Y-57417100D01*
X83822645Y-57417099D01*
X83977297Y-57386337D01*
X84122979Y-57325994D01*
X84217259Y-57262998D01*
X84283936Y-57242120D01*
X84286150Y-57242100D01*
X84491208Y-57242100D01*
X84491208Y-57242099D01*
X84556780Y-57229057D01*
X84612052Y-57218063D01*
X84645392Y-57204252D01*
X84725886Y-57170912D01*
X84788233Y-57129252D01*
X84828333Y-57102458D01*
X84915458Y-57015333D01*
X84915458Y-57015331D01*
X84925666Y-57005124D01*
X84925667Y-57005121D01*
X87180798Y-54749991D01*
X87242119Y-54716508D01*
X87244114Y-54716092D01*
X87355497Y-54693937D01*
X87501179Y-54633594D01*
X87632289Y-54545989D01*
X87743789Y-54434489D01*
X87831394Y-54303379D01*
X87891737Y-54157697D01*
X87922500Y-54003042D01*
X87922500Y-53845358D01*
X87922500Y-53845355D01*
X87922499Y-53845353D01*
X87891737Y-53690703D01*
X87886534Y-53678141D01*
X87831397Y-53545027D01*
X87831390Y-53545014D01*
X87743789Y-53413911D01*
X87743786Y-53413907D01*
X87632292Y-53302413D01*
X87632288Y-53302410D01*
X87501185Y-53214809D01*
X87501172Y-53214802D01*
X87355501Y-53154464D01*
X87355489Y-53154461D01*
X87200845Y-53123700D01*
X87200842Y-53123700D01*
X87043158Y-53123700D01*
X87043155Y-53123700D01*
X86888510Y-53154461D01*
X86888498Y-53154464D01*
X86742827Y-53214802D01*
X86742814Y-53214809D01*
X86611711Y-53302410D01*
X86611707Y-53302413D01*
X86500213Y-53413907D01*
X86500210Y-53413911D01*
X86412609Y-53545014D01*
X86412604Y-53545023D01*
X86385861Y-53609589D01*
X86342020Y-53663992D01*
X86275726Y-53686057D01*
X86208027Y-53668778D01*
X86160416Y-53617641D01*
X86147300Y-53562136D01*
X86147300Y-49894550D01*
X86166985Y-49827511D01*
X86168198Y-49825659D01*
X86186649Y-49798045D01*
X86231194Y-49731379D01*
X86291537Y-49585697D01*
X86322300Y-49431042D01*
X86322300Y-49273358D01*
X86322300Y-49273357D01*
X86322300Y-49273355D01*
X86309994Y-49211492D01*
X86316221Y-49141901D01*
X86359083Y-49086723D01*
X86424973Y-49063478D01*
X86431611Y-49063300D01*
X87905137Y-49063300D01*
X87905137Y-49063299D01*
X87941419Y-49056082D01*
X87965610Y-49053700D01*
X90407644Y-49053700D01*
X90431833Y-49056081D01*
X90468122Y-49063300D01*
X90468123Y-49063300D01*
X103185607Y-49063300D01*
X103246029Y-49051281D01*
X103306452Y-49039263D01*
X103339792Y-49025452D01*
X103420286Y-48992112D01*
X103478121Y-48953467D01*
X103522733Y-48923658D01*
X103609858Y-48836533D01*
X103609859Y-48836531D01*
X103616925Y-48829465D01*
X103616927Y-48829461D01*
X107064394Y-45381995D01*
X128924500Y-45381995D01*
X128924500Y-45618004D01*
X128924501Y-45618020D01*
X128955306Y-45852010D01*
X129016394Y-46079993D01*
X129106714Y-46298045D01*
X129106719Y-46298056D01*
X129177677Y-46420957D01*
X129224727Y-46502450D01*
X129224729Y-46502453D01*
X129224730Y-46502454D01*
X129368406Y-46689697D01*
X129368412Y-46689704D01*
X129535295Y-46856587D01*
X129535302Y-46856593D01*
X129616392Y-46918815D01*
X129722550Y-47000273D01*
X129836084Y-47065822D01*
X129926943Y-47118280D01*
X129926948Y-47118282D01*
X129926951Y-47118284D01*
X129926961Y-47118288D01*
X129968366Y-47135439D01*
X130022769Y-47179280D01*
X130044834Y-47245574D01*
X130027555Y-47313274D01*
X129976417Y-47360884D01*
X129968366Y-47364561D01*
X129926954Y-47381714D01*
X129926943Y-47381719D01*
X129722545Y-47499730D01*
X129535302Y-47643406D01*
X129535295Y-47643412D01*
X129368412Y-47810295D01*
X129368406Y-47810302D01*
X129224730Y-47997545D01*
X129106719Y-48201943D01*
X129106714Y-48201954D01*
X129016394Y-48420006D01*
X128955306Y-48647989D01*
X128924501Y-48881979D01*
X128924500Y-48881995D01*
X128924500Y-49118004D01*
X128924501Y-49118020D01*
X128955306Y-49352010D01*
X129016394Y-49579993D01*
X129106714Y-49798045D01*
X129106719Y-49798056D01*
X129162431Y-49894550D01*
X129224727Y-50002450D01*
X129224729Y-50002453D01*
X129224730Y-50002454D01*
X129368406Y-50189697D01*
X129368412Y-50189704D01*
X129535295Y-50356587D01*
X129535301Y-50356592D01*
X129722550Y-50500273D01*
X129816817Y-50554698D01*
X129926943Y-50618280D01*
X129926948Y-50618282D01*
X129926951Y-50618284D01*
X130145007Y-50708606D01*
X130372986Y-50769693D01*
X130606989Y-50800500D01*
X130606996Y-50800500D01*
X130843004Y-50800500D01*
X130843011Y-50800500D01*
X131077014Y-50769693D01*
X131304993Y-50708606D01*
X131523049Y-50618284D01*
X131727450Y-50500273D01*
X131914699Y-50356592D01*
X132081592Y-50189699D01*
X132225273Y-50002450D01*
X132343284Y-49798049D01*
X132433606Y-49579993D01*
X132494693Y-49352014D01*
X132525500Y-49118011D01*
X132525500Y-48881989D01*
X132494693Y-48647986D01*
X132433606Y-48420007D01*
X132343284Y-48201951D01*
X132343282Y-48201948D01*
X132343280Y-48201943D01*
X132301118Y-48128918D01*
X132225273Y-47997550D01*
X132081592Y-47810301D01*
X132081587Y-47810295D01*
X131914704Y-47643412D01*
X131914697Y-47643406D01*
X131727454Y-47499730D01*
X131727453Y-47499729D01*
X131727450Y-47499727D01*
X131618331Y-47436727D01*
X131523056Y-47381719D01*
X131523040Y-47381711D01*
X131481634Y-47364561D01*
X131427230Y-47320721D01*
X131405165Y-47254427D01*
X131422444Y-47186727D01*
X131473581Y-47139116D01*
X131481634Y-47135439D01*
X131523040Y-47118288D01*
X131523043Y-47118286D01*
X131523049Y-47118284D01*
X131727450Y-47000273D01*
X131914699Y-46856592D01*
X132081592Y-46689699D01*
X132225273Y-46502450D01*
X132343284Y-46298049D01*
X132433606Y-46079993D01*
X132494693Y-45852014D01*
X132523659Y-45631995D01*
X138924500Y-45631995D01*
X138924500Y-45868004D01*
X138924501Y-45868020D01*
X138952407Y-46079993D01*
X138955307Y-46102014D01*
X139000724Y-46271511D01*
X139016394Y-46329993D01*
X139106714Y-46548045D01*
X139106719Y-46548056D01*
X139177677Y-46670957D01*
X139224727Y-46752450D01*
X139224729Y-46752453D01*
X139224730Y-46752454D01*
X139368406Y-46939697D01*
X139368412Y-46939704D01*
X139535295Y-47106587D01*
X139535302Y-47106593D01*
X139633070Y-47181613D01*
X139722550Y-47250273D01*
X139853918Y-47326118D01*
X139926943Y-47368280D01*
X139926948Y-47368282D01*
X139926951Y-47368284D01*
X139926961Y-47368288D01*
X139968366Y-47385439D01*
X140022769Y-47429280D01*
X140044834Y-47495574D01*
X140027555Y-47563274D01*
X139976417Y-47610884D01*
X139968366Y-47614561D01*
X139926954Y-47631714D01*
X139926943Y-47631719D01*
X139722545Y-47749730D01*
X139535302Y-47893406D01*
X139535295Y-47893412D01*
X139368412Y-48060295D01*
X139368406Y-48060302D01*
X139224730Y-48247545D01*
X139106719Y-48451943D01*
X139106714Y-48451954D01*
X139016394Y-48670006D01*
X138955306Y-48897989D01*
X138924501Y-49131979D01*
X138924500Y-49131995D01*
X138924500Y-49368004D01*
X138924501Y-49368020D01*
X138953158Y-49585697D01*
X138955307Y-49602014D01*
X138989970Y-49731379D01*
X139016394Y-49829993D01*
X139106714Y-50048045D01*
X139106719Y-50048056D01*
X139177677Y-50170957D01*
X139224727Y-50252450D01*
X139224729Y-50252453D01*
X139224730Y-50252454D01*
X139368406Y-50439697D01*
X139368412Y-50439704D01*
X139535295Y-50606587D01*
X139535302Y-50606593D01*
X139645306Y-50691001D01*
X139722550Y-50750273D01*
X139809546Y-50800500D01*
X139926943Y-50868280D01*
X139926948Y-50868282D01*
X139926951Y-50868284D01*
X140145007Y-50958606D01*
X140372986Y-51019693D01*
X140606989Y-51050500D01*
X140606996Y-51050500D01*
X140843004Y-51050500D01*
X140843011Y-51050500D01*
X141077014Y-51019693D01*
X141304993Y-50958606D01*
X141523049Y-50868284D01*
X141727450Y-50750273D01*
X141914699Y-50606592D01*
X142081592Y-50439699D01*
X142225273Y-50252450D01*
X142343284Y-50048049D01*
X142433606Y-49829993D01*
X142494693Y-49602014D01*
X142525500Y-49368011D01*
X142525500Y-49131989D01*
X142494693Y-48897986D01*
X142433606Y-48670007D01*
X142343284Y-48451951D01*
X142343282Y-48451948D01*
X142343280Y-48451943D01*
X142300088Y-48377133D01*
X142225273Y-48247550D01*
X142081592Y-48060301D01*
X142081587Y-48060295D01*
X141914704Y-47893412D01*
X141914697Y-47893406D01*
X141727454Y-47749730D01*
X141727453Y-47749729D01*
X141727450Y-47749727D01*
X141638811Y-47698551D01*
X141523056Y-47631719D01*
X141523040Y-47631711D01*
X141481634Y-47614561D01*
X141427230Y-47570721D01*
X141405165Y-47504427D01*
X141422444Y-47436727D01*
X141473581Y-47389116D01*
X141481634Y-47385439D01*
X141523040Y-47368288D01*
X141523043Y-47368286D01*
X141523049Y-47368284D01*
X141727450Y-47250273D01*
X141914699Y-47106592D01*
X142081592Y-46939699D01*
X142225273Y-46752450D01*
X142343284Y-46548049D01*
X142433606Y-46329993D01*
X142494693Y-46102014D01*
X142525500Y-45868011D01*
X142525500Y-45631989D01*
X142494693Y-45397986D01*
X142433606Y-45170007D01*
X142343284Y-44951951D01*
X142343282Y-44951948D01*
X142343280Y-44951943D01*
X142301118Y-44878918D01*
X142225273Y-44747550D01*
X142088161Y-44568862D01*
X142081593Y-44560302D01*
X142081587Y-44560295D01*
X141914704Y-44393412D01*
X141914697Y-44393406D01*
X141727454Y-44249730D01*
X141727453Y-44249729D01*
X141727450Y-44249727D01*
X141645957Y-44202677D01*
X141523056Y-44131719D01*
X141523045Y-44131714D01*
X141304993Y-44041394D01*
X141077010Y-43980306D01*
X140843020Y-43949501D01*
X140843017Y-43949500D01*
X140843011Y-43949500D01*
X140606989Y-43949500D01*
X140606983Y-43949500D01*
X140606979Y-43949501D01*
X140372989Y-43980306D01*
X140145006Y-44041394D01*
X139926954Y-44131714D01*
X139926943Y-44131719D01*
X139722545Y-44249730D01*
X139535302Y-44393406D01*
X139535295Y-44393412D01*
X139368412Y-44560295D01*
X139368406Y-44560302D01*
X139224730Y-44747545D01*
X139106719Y-44951943D01*
X139106714Y-44951954D01*
X139016394Y-45170006D01*
X138955306Y-45397989D01*
X138924501Y-45631979D01*
X138924500Y-45631995D01*
X132523659Y-45631995D01*
X132525500Y-45618011D01*
X132525500Y-45381989D01*
X132494693Y-45147986D01*
X132433606Y-44920007D01*
X132343284Y-44701951D01*
X132343282Y-44701948D01*
X132343280Y-44701943D01*
X132301118Y-44628918D01*
X132225273Y-44497550D01*
X132099133Y-44333161D01*
X132081593Y-44310302D01*
X132081587Y-44310295D01*
X131914704Y-44143412D01*
X131914697Y-44143406D01*
X131727454Y-43999730D01*
X131727453Y-43999729D01*
X131727450Y-43999727D01*
X131618982Y-43937103D01*
X131523056Y-43881719D01*
X131523045Y-43881714D01*
X131304993Y-43791394D01*
X131210229Y-43766002D01*
X131077014Y-43730307D01*
X131077013Y-43730306D01*
X131077010Y-43730306D01*
X130843020Y-43699501D01*
X130843017Y-43699500D01*
X130843011Y-43699500D01*
X130606989Y-43699500D01*
X130606983Y-43699500D01*
X130606979Y-43699501D01*
X130372989Y-43730306D01*
X130145006Y-43791394D01*
X129926954Y-43881714D01*
X129926943Y-43881719D01*
X129722545Y-43999730D01*
X129535302Y-44143406D01*
X129535295Y-44143412D01*
X129368412Y-44310295D01*
X129368406Y-44310302D01*
X129224730Y-44497545D01*
X129106719Y-44701943D01*
X129106714Y-44701954D01*
X129016394Y-44920006D01*
X128955306Y-45147989D01*
X128924501Y-45381979D01*
X128924500Y-45381995D01*
X107064394Y-45381995D01*
X112047187Y-40399203D01*
X140744400Y-40399203D01*
X140744400Y-40728396D01*
X140776665Y-41056001D01*
X140776668Y-41056018D01*
X140840884Y-41378866D01*
X140840887Y-41378877D01*
X140936452Y-41693912D01*
X141052676Y-41974500D01*
X141062431Y-41998051D01*
X141081748Y-42034191D01*
X141217607Y-42288367D01*
X141217618Y-42288385D01*
X141400501Y-42562089D01*
X141400511Y-42562103D01*
X141609353Y-42816577D01*
X141842122Y-43049346D01*
X141842127Y-43049350D01*
X141842128Y-43049351D01*
X142096602Y-43258193D01*
X142370321Y-43441086D01*
X142660649Y-43596269D01*
X142964789Y-43722248D01*
X143279813Y-43817810D01*
X143279819Y-43817811D01*
X143279822Y-43817812D01*
X143279833Y-43817815D01*
X143459794Y-43853610D01*
X143602687Y-43882033D01*
X143930300Y-43914300D01*
X143930303Y-43914300D01*
X144259497Y-43914300D01*
X144259500Y-43914300D01*
X144587113Y-43882033D01*
X144764660Y-43846716D01*
X144909966Y-43817815D01*
X144909977Y-43817812D01*
X144909977Y-43817811D01*
X144909987Y-43817810D01*
X145225011Y-43722248D01*
X145529151Y-43596269D01*
X145819479Y-43441086D01*
X146093198Y-43258193D01*
X146347672Y-43049351D01*
X146580451Y-42816572D01*
X146789293Y-42562098D01*
X146972186Y-42288379D01*
X147127369Y-41998051D01*
X147253348Y-41693911D01*
X147348910Y-41378887D01*
X147348912Y-41378877D01*
X147348915Y-41378866D01*
X147383733Y-41203816D01*
X147413133Y-41056013D01*
X147445400Y-40728400D01*
X147445400Y-40399200D01*
X147413133Y-40071587D01*
X147384803Y-39929161D01*
X147348915Y-39748733D01*
X147348912Y-39748722D01*
X147348911Y-39748719D01*
X147348910Y-39748713D01*
X147253348Y-39433689D01*
X147127369Y-39129549D01*
X146972186Y-38839221D01*
X146789293Y-38565502D01*
X146580451Y-38311028D01*
X146580450Y-38311027D01*
X146580446Y-38311022D01*
X146347677Y-38078253D01*
X146093203Y-37869411D01*
X146093202Y-37869410D01*
X146093198Y-37869407D01*
X145819479Y-37686514D01*
X145819474Y-37686511D01*
X145819467Y-37686507D01*
X145607176Y-37573036D01*
X145529151Y-37531331D01*
X145459436Y-37502454D01*
X145225012Y-37405352D01*
X144909977Y-37309787D01*
X144909966Y-37309784D01*
X144587118Y-37245568D01*
X144587113Y-37245567D01*
X144587111Y-37245566D01*
X144587101Y-37245565D01*
X144346422Y-37221861D01*
X144259500Y-37213300D01*
X143930300Y-37213300D01*
X143850440Y-37221165D01*
X143602698Y-37245565D01*
X143602681Y-37245568D01*
X143279833Y-37309784D01*
X143279822Y-37309787D01*
X142964787Y-37405352D01*
X142660655Y-37531328D01*
X142660641Y-37531335D01*
X142370332Y-37686507D01*
X142370314Y-37686518D01*
X142096610Y-37869401D01*
X142096596Y-37869411D01*
X141842122Y-38078253D01*
X141609353Y-38311022D01*
X141400511Y-38565496D01*
X141400501Y-38565510D01*
X141217618Y-38839214D01*
X141217607Y-38839232D01*
X141062435Y-39129541D01*
X141062428Y-39129555D01*
X140936452Y-39433687D01*
X140840887Y-39748722D01*
X140840884Y-39748733D01*
X140776668Y-40071581D01*
X140776665Y-40071598D01*
X140771065Y-40128463D01*
X140746059Y-40382361D01*
X140744400Y-40399203D01*
X112047187Y-40399203D01*
X112596771Y-39849619D01*
X112658094Y-39816134D01*
X112684452Y-39813300D01*
X112737693Y-39813300D01*
X112737694Y-39813299D01*
X112795682Y-39801764D01*
X112911658Y-39778696D01*
X112911661Y-39778694D01*
X112911666Y-39778694D01*
X113075547Y-39710813D01*
X113223035Y-39612264D01*
X113348464Y-39486835D01*
X113447013Y-39339347D01*
X113514894Y-39175466D01*
X113524027Y-39129555D01*
X113549499Y-39001495D01*
X113549500Y-39001493D01*
X113549500Y-38824106D01*
X113549499Y-38824104D01*
X113514896Y-38650141D01*
X113514893Y-38650132D01*
X113501613Y-38618071D01*
X113494144Y-38548602D01*
X113525419Y-38486123D01*
X113585508Y-38450471D01*
X113616174Y-38446619D01*
X117749267Y-38446619D01*
X117816306Y-38466304D01*
X117836948Y-38482938D01*
X118264581Y-38910571D01*
X118298066Y-38971894D01*
X118300069Y-38990528D01*
X118300303Y-38990506D01*
X118300900Y-38996571D01*
X118333582Y-39160874D01*
X118333584Y-39160882D01*
X118397695Y-39315660D01*
X118490773Y-39454962D01*
X118609237Y-39573426D01*
X118667358Y-39612261D01*
X118748537Y-39666503D01*
X118903318Y-39730616D01*
X119067628Y-39763299D01*
X119067632Y-39763300D01*
X119067633Y-39763300D01*
X119235168Y-39763300D01*
X119235169Y-39763299D01*
X119399482Y-39730616D01*
X119554263Y-39666503D01*
X119693562Y-39573426D01*
X119812026Y-39454962D01*
X119905103Y-39315663D01*
X119969216Y-39160882D01*
X120001900Y-38996567D01*
X120001900Y-38829033D01*
X119969216Y-38664718D01*
X119905103Y-38509937D01*
X119850738Y-38428574D01*
X119812026Y-38370637D01*
X119693562Y-38252173D01*
X119554260Y-38159095D01*
X119399482Y-38094984D01*
X119399474Y-38094982D01*
X119235171Y-38062300D01*
X119229106Y-38061703D01*
X119229266Y-38060072D01*
X119169813Y-38042615D01*
X119149171Y-38025981D01*
X118552869Y-37429679D01*
X118545579Y-37422389D01*
X118545577Y-37422386D01*
X118458452Y-37335261D01*
X118407228Y-37301034D01*
X118356005Y-37266807D01*
X118356002Y-37266805D01*
X118355999Y-37266804D01*
X118282322Y-37236287D01*
X118282320Y-37236286D01*
X118275511Y-37233466D01*
X118242171Y-37219656D01*
X118181748Y-37207637D01*
X118177025Y-37206697D01*
X118177023Y-37206697D01*
X118121329Y-37195619D01*
X118121326Y-37195619D01*
X118121325Y-37195619D01*
X102803100Y-37195619D01*
X102736061Y-37175934D01*
X102690306Y-37123130D01*
X102681428Y-37082323D01*
X102679697Y-37082494D01*
X102679100Y-37076438D01*
X102679100Y-37076433D01*
X102646416Y-36912118D01*
X102582303Y-36757337D01*
X102521276Y-36666004D01*
X102489226Y-36618037D01*
X102370762Y-36499573D01*
X102231460Y-36406495D01*
X102076682Y-36342384D01*
X102076674Y-36342382D01*
X101912371Y-36309700D01*
X101912367Y-36309700D01*
X101744833Y-36309700D01*
X101744828Y-36309700D01*
X101580525Y-36342382D01*
X101580517Y-36342384D01*
X101425739Y-36406495D01*
X101341172Y-36463002D01*
X101274494Y-36483880D01*
X101272281Y-36483900D01*
X90138251Y-36483900D01*
X90071212Y-36464215D01*
X90056621Y-36452457D01*
X90056472Y-36452639D01*
X90051762Y-36448773D01*
X89912460Y-36355695D01*
X89757682Y-36291584D01*
X89757674Y-36291582D01*
X89593371Y-36258900D01*
X89593367Y-36258900D01*
X89425833Y-36258900D01*
X89425828Y-36258900D01*
X89261525Y-36291582D01*
X89261517Y-36291584D01*
X89106739Y-36355695D01*
X88967437Y-36448773D01*
X88848973Y-36567237D01*
X88755895Y-36706539D01*
X88691784Y-36861317D01*
X88691782Y-36861325D01*
X88659100Y-37025628D01*
X88659100Y-37071619D01*
X88639415Y-37138658D01*
X88586611Y-37184413D01*
X88535100Y-37195619D01*
X82086451Y-37195619D01*
X82019412Y-37175934D01*
X82004821Y-37164176D01*
X82004672Y-37164358D01*
X81999962Y-37160492D01*
X81860660Y-37067414D01*
X81705882Y-37003303D01*
X81705874Y-37003301D01*
X81541571Y-36970619D01*
X81541567Y-36970619D01*
X81374033Y-36970619D01*
X81374028Y-36970619D01*
X81209725Y-37003301D01*
X81209717Y-37003303D01*
X81054939Y-37067414D01*
X80915637Y-37160492D01*
X80797173Y-37278956D01*
X80704095Y-37418258D01*
X80639984Y-37573036D01*
X80639982Y-37573044D01*
X80607300Y-37737347D01*
X80607300Y-37904890D01*
X80639982Y-38069193D01*
X80639984Y-38069201D01*
X80704095Y-38223979D01*
X80797173Y-38363281D01*
X80915637Y-38481745D01*
X80957830Y-38509937D01*
X81054937Y-38574822D01*
X81209718Y-38638935D01*
X81374028Y-38671618D01*
X81374032Y-38671619D01*
X81374033Y-38671619D01*
X81541568Y-38671619D01*
X81541569Y-38671618D01*
X81705882Y-38638935D01*
X81860663Y-38574822D01*
X81999962Y-38481745D01*
X82004672Y-38477880D01*
X82005712Y-38479147D01*
X82060093Y-38449453D01*
X82086451Y-38446619D01*
X110381828Y-38446619D01*
X110448867Y-38466304D01*
X110494622Y-38519108D01*
X110504566Y-38588266D01*
X110475541Y-38651822D01*
X110469509Y-38658300D01*
X110064029Y-39063781D01*
X110002706Y-39097266D01*
X109976348Y-39100100D01*
X86937851Y-39100100D01*
X86870812Y-39080415D01*
X86856221Y-39068657D01*
X86856072Y-39068839D01*
X86851362Y-39064973D01*
X86712060Y-38971895D01*
X86557282Y-38907784D01*
X86557274Y-38907782D01*
X86392971Y-38875100D01*
X86392967Y-38875100D01*
X86225433Y-38875100D01*
X86225428Y-38875100D01*
X86061125Y-38907782D01*
X86061117Y-38907784D01*
X85906339Y-38971895D01*
X85767037Y-39064973D01*
X85648573Y-39183437D01*
X85555495Y-39322739D01*
X85491384Y-39477517D01*
X85491382Y-39477525D01*
X85458700Y-39641828D01*
X85458700Y-39809371D01*
X85491382Y-39973674D01*
X85491384Y-39973682D01*
X85555495Y-40128460D01*
X85648573Y-40267762D01*
X85767037Y-40386226D01*
X85786459Y-40399203D01*
X85906337Y-40479303D01*
X86061118Y-40543416D01*
X86225428Y-40576099D01*
X86225432Y-40576100D01*
X86225433Y-40576100D01*
X86392968Y-40576100D01*
X86392969Y-40576099D01*
X86557282Y-40543416D01*
X86712063Y-40479303D01*
X86851362Y-40386226D01*
X86856072Y-40382361D01*
X86857112Y-40383628D01*
X86911493Y-40353934D01*
X86937851Y-40351100D01*
X88360547Y-40351100D01*
X88427586Y-40370785D01*
X88473341Y-40423589D01*
X88483285Y-40492747D01*
X88454260Y-40556303D01*
X88448228Y-40562781D01*
X87049837Y-41961170D01*
X86988514Y-41994655D01*
X86918822Y-41989671D01*
X86893265Y-41976591D01*
X86764585Y-41890609D01*
X86764572Y-41890602D01*
X86618901Y-41830264D01*
X86618889Y-41830261D01*
X86464245Y-41799500D01*
X86464242Y-41799500D01*
X86306558Y-41799500D01*
X86306555Y-41799500D01*
X86151910Y-41830261D01*
X86151898Y-41830264D01*
X86006227Y-41890602D01*
X86006215Y-41890609D01*
X85911941Y-41953602D01*
X85845264Y-41974480D01*
X85843050Y-41974500D01*
X82915453Y-41974500D01*
X82848414Y-41954815D01*
X82827772Y-41938181D01*
X79723254Y-38833663D01*
X79689769Y-38772340D01*
X79687765Y-38753706D01*
X79687532Y-38753729D01*
X79686935Y-38747673D01*
X79686935Y-38747668D01*
X79654251Y-38583353D01*
X79590138Y-38428572D01*
X79546512Y-38363281D01*
X79497061Y-38289272D01*
X79378597Y-38170808D01*
X79239295Y-38077730D01*
X79084517Y-38013619D01*
X79084509Y-38013617D01*
X78920206Y-37980935D01*
X78920202Y-37980935D01*
X78752668Y-37980935D01*
X78752663Y-37980935D01*
X78588360Y-38013617D01*
X78588352Y-38013619D01*
X78433574Y-38077730D01*
X78294272Y-38170808D01*
X78294269Y-38170811D01*
X78251016Y-38214065D01*
X78189693Y-38247550D01*
X78120001Y-38242566D01*
X78075654Y-38214065D01*
X77885608Y-38024019D01*
X77870187Y-38005228D01*
X77825829Y-37938842D01*
X77825823Y-37938834D01*
X77707362Y-37820373D01*
X77568060Y-37727295D01*
X77413282Y-37663184D01*
X77413274Y-37663182D01*
X77248971Y-37630500D01*
X77248967Y-37630500D01*
X77081433Y-37630500D01*
X77081428Y-37630500D01*
X76917125Y-37663182D01*
X76917117Y-37663184D01*
X76762339Y-37727295D01*
X76623037Y-37820373D01*
X76504573Y-37938837D01*
X76411495Y-38078139D01*
X76347384Y-38232917D01*
X76347382Y-38232925D01*
X76314700Y-38397228D01*
X76314700Y-38590171D01*
X76347382Y-38754474D01*
X76347385Y-38754486D01*
X76366161Y-38799814D01*
X76366162Y-38799816D01*
X76411496Y-38909263D01*
X76411497Y-38909266D01*
X76504572Y-39048561D01*
X76504575Y-39048565D01*
X79154316Y-41698304D01*
X79187801Y-41759627D01*
X79182817Y-41829319D01*
X79140945Y-41885252D01*
X79107046Y-41902413D01*
X79107146Y-41902653D01*
X79103999Y-41903956D01*
X79102649Y-41904640D01*
X79101526Y-41904980D01*
X78946739Y-41969095D01*
X78807437Y-42062173D01*
X78688973Y-42180637D01*
X78595895Y-42319939D01*
X78531784Y-42474717D01*
X78531782Y-42474725D01*
X78499100Y-42639028D01*
X78499100Y-42806571D01*
X78531782Y-42970874D01*
X78531784Y-42970882D01*
X78595895Y-43125660D01*
X78688973Y-43264962D01*
X78807437Y-43383426D01*
X78878193Y-43430703D01*
X78946737Y-43476503D01*
X79101518Y-43540616D01*
X79265833Y-43573300D01*
X79265838Y-43573300D01*
X79271894Y-43573897D01*
X79271733Y-43575527D01*
X79331187Y-43592985D01*
X79351829Y-43609619D01*
X80105216Y-44363006D01*
X80105245Y-44363037D01*
X80195463Y-44453255D01*
X80195467Y-44453258D01*
X80297907Y-44521707D01*
X80297913Y-44521710D01*
X80297914Y-44521711D01*
X80411748Y-44568863D01*
X80472171Y-44580881D01*
X80532593Y-44592900D01*
X80532594Y-44592900D01*
X82022550Y-44592900D01*
X82089589Y-44612585D01*
X82135344Y-44665389D01*
X82145288Y-44734547D01*
X82116263Y-44798103D01*
X82110232Y-44804579D01*
X81352113Y-45562698D01*
X80608430Y-46306381D01*
X80547107Y-46339866D01*
X80520749Y-46342700D01*
X79420095Y-46342700D01*
X79372646Y-46333262D01*
X79358266Y-46327306D01*
X79358262Y-46327305D01*
X79358258Y-46327303D01*
X79184294Y-46292700D01*
X79184291Y-46292700D01*
X79006909Y-46292700D01*
X79006906Y-46292700D01*
X78832941Y-46327303D01*
X78832932Y-46327306D01*
X78669059Y-46395183D01*
X78669046Y-46395190D01*
X78521565Y-46493735D01*
X78521561Y-46493738D01*
X78396138Y-46619161D01*
X78396135Y-46619165D01*
X78297590Y-46766646D01*
X78297583Y-46766659D01*
X78229706Y-46930532D01*
X78229703Y-46930541D01*
X78215074Y-47004091D01*
X78182689Y-47066002D01*
X78121973Y-47100576D01*
X78093457Y-47103900D01*
X77975355Y-47103900D01*
X77820710Y-47134661D01*
X77820702Y-47134663D01*
X77784351Y-47149720D01*
X77714881Y-47157187D01*
X77652403Y-47125911D01*
X77616751Y-47065822D01*
X77612900Y-47035158D01*
X77612900Y-46338550D01*
X77632585Y-46271511D01*
X77633798Y-46269659D01*
X77683372Y-46195466D01*
X77696794Y-46175379D01*
X77757137Y-46029697D01*
X77787900Y-45875042D01*
X77787900Y-45717358D01*
X77787900Y-45717355D01*
X77787899Y-45717353D01*
X77779367Y-45674459D01*
X77757137Y-45562703D01*
X77753692Y-45554386D01*
X77696797Y-45417027D01*
X77696790Y-45417014D01*
X77609189Y-45285911D01*
X77609186Y-45285907D01*
X77497692Y-45174413D01*
X77497688Y-45174410D01*
X77366585Y-45086809D01*
X77366572Y-45086802D01*
X77220901Y-45026464D01*
X77220891Y-45026461D01*
X77112708Y-45004942D01*
X77050797Y-44972557D01*
X77016223Y-44911841D01*
X77012900Y-44883325D01*
X77012900Y-42478250D01*
X77032585Y-42411211D01*
X77049214Y-42390573D01*
X77114626Y-42325162D01*
X77207703Y-42185863D01*
X77271816Y-42031082D01*
X77304500Y-41866767D01*
X77304500Y-41699233D01*
X77271816Y-41534918D01*
X77213554Y-41394263D01*
X77207704Y-41380139D01*
X77206867Y-41378887D01*
X77155641Y-41302221D01*
X77114626Y-41240837D01*
X76996162Y-41122373D01*
X76856860Y-41029295D01*
X76702082Y-40965184D01*
X76702074Y-40965182D01*
X76537771Y-40932500D01*
X76537767Y-40932500D01*
X76370233Y-40932500D01*
X76370228Y-40932500D01*
X76205925Y-40965182D01*
X76205917Y-40965184D01*
X76051139Y-41029295D01*
X75911837Y-41122373D01*
X75793373Y-41240837D01*
X75700295Y-41380139D01*
X75636184Y-41534917D01*
X75636182Y-41534925D01*
X75603500Y-41699228D01*
X57392018Y-41699228D01*
X57315393Y-41622603D01*
X57281908Y-41561280D01*
X57281487Y-41559264D01*
X57259337Y-41447903D01*
X57231671Y-41381110D01*
X57198997Y-41302227D01*
X57198990Y-41302214D01*
X57111389Y-41171111D01*
X57111386Y-41171107D01*
X56999892Y-41059613D01*
X56999888Y-41059610D01*
X56868785Y-40972009D01*
X56868772Y-40972002D01*
X56723101Y-40911664D01*
X56723089Y-40911661D01*
X56568445Y-40880900D01*
X56568442Y-40880900D01*
X56410758Y-40880900D01*
X56410755Y-40880900D01*
X56256110Y-40911661D01*
X56256098Y-40911664D01*
X56110427Y-40972002D01*
X56110414Y-40972009D01*
X55979311Y-41059610D01*
X55979307Y-41059613D01*
X55867813Y-41171107D01*
X55867810Y-41171111D01*
X55780209Y-41302214D01*
X55780202Y-41302227D01*
X55719864Y-41447898D01*
X55719861Y-41447910D01*
X55689100Y-41602553D01*
X28078161Y-41602553D01*
X28146010Y-41378887D01*
X28146013Y-41378870D01*
X28146015Y-41378866D01*
X28180833Y-41203816D01*
X28210233Y-41056013D01*
X28242500Y-40728400D01*
X28242500Y-40399200D01*
X28210233Y-40071587D01*
X28181903Y-39929161D01*
X28146015Y-39748733D01*
X28146012Y-39748722D01*
X28146011Y-39748719D01*
X28146010Y-39748713D01*
X28050448Y-39433689D01*
X27924469Y-39129549D01*
X27769286Y-38839221D01*
X27586393Y-38565502D01*
X27377551Y-38311028D01*
X27377550Y-38311027D01*
X27377546Y-38311022D01*
X27144777Y-38078253D01*
X26890303Y-37869411D01*
X26890302Y-37869410D01*
X26890298Y-37869407D01*
X26616579Y-37686514D01*
X26616574Y-37686511D01*
X26616567Y-37686507D01*
X26404276Y-37573036D01*
X26326251Y-37531331D01*
X26256536Y-37502454D01*
X26022112Y-37405352D01*
X25707077Y-37309787D01*
X25707066Y-37309784D01*
X25384218Y-37245568D01*
X25384213Y-37245567D01*
X25384211Y-37245566D01*
X25384201Y-37245565D01*
X25143522Y-37221861D01*
X25056600Y-37213300D01*
X24727400Y-37213300D01*
X24647540Y-37221165D01*
X24399798Y-37245565D01*
X24399781Y-37245568D01*
X24076933Y-37309784D01*
X24076922Y-37309787D01*
X23761887Y-37405352D01*
X23457755Y-37531328D01*
X23457741Y-37531335D01*
X23167432Y-37686507D01*
X23167414Y-37686518D01*
X22893710Y-37869401D01*
X22893696Y-37869411D01*
X22639222Y-38078253D01*
X22406453Y-38311022D01*
X22197611Y-38565496D01*
X22197601Y-38565510D01*
X22014718Y-38839214D01*
X22014707Y-38839232D01*
X21859535Y-39129541D01*
X21859528Y-39129555D01*
X21733552Y-39433687D01*
X21637987Y-39748722D01*
X21637984Y-39748733D01*
X21573768Y-40071581D01*
X21573765Y-40071598D01*
X21568165Y-40128463D01*
X21543159Y-40382361D01*
X21541500Y-40399203D01*
X20500500Y-40399203D01*
X20500500Y-32881995D01*
X29924500Y-32881995D01*
X29924500Y-33118004D01*
X29924501Y-33118020D01*
X29953463Y-33338013D01*
X29955307Y-33352014D01*
X29968168Y-33400010D01*
X30016394Y-33579993D01*
X30106714Y-33798045D01*
X30106719Y-33798056D01*
X30161774Y-33893412D01*
X30224727Y-34002450D01*
X30224729Y-34002453D01*
X30224730Y-34002454D01*
X30368406Y-34189697D01*
X30368412Y-34189704D01*
X30535295Y-34356587D01*
X30535301Y-34356592D01*
X30722550Y-34500273D01*
X30853918Y-34576118D01*
X30926943Y-34618280D01*
X30926948Y-34618282D01*
X30926951Y-34618284D01*
X30926961Y-34618288D01*
X30968366Y-34635439D01*
X31022769Y-34679280D01*
X31044834Y-34745574D01*
X31027555Y-34813274D01*
X30976417Y-34860884D01*
X30968366Y-34864561D01*
X30926954Y-34881714D01*
X30926943Y-34881719D01*
X30722545Y-34999730D01*
X30535302Y-35143406D01*
X30535295Y-35143412D01*
X30368412Y-35310295D01*
X30368406Y-35310302D01*
X30224730Y-35497545D01*
X30106719Y-35701943D01*
X30106714Y-35701954D01*
X30016394Y-35920006D01*
X29955306Y-36147989D01*
X29924501Y-36381979D01*
X29924500Y-36381995D01*
X29924500Y-36618004D01*
X29924501Y-36618020D01*
X29942842Y-36757339D01*
X29955307Y-36852014D01*
X29959667Y-36868284D01*
X30016394Y-37079993D01*
X30106714Y-37298045D01*
X30106719Y-37298056D01*
X30168667Y-37405352D01*
X30224727Y-37502450D01*
X30224729Y-37502453D01*
X30224730Y-37502454D01*
X30368406Y-37689697D01*
X30368412Y-37689704D01*
X30535295Y-37856587D01*
X30535301Y-37856592D01*
X30722550Y-38000273D01*
X30826125Y-38060072D01*
X30926943Y-38118280D01*
X30926948Y-38118282D01*
X30926951Y-38118284D01*
X31145007Y-38208606D01*
X31372986Y-38269693D01*
X31606989Y-38300500D01*
X31606996Y-38300500D01*
X31843004Y-38300500D01*
X31843011Y-38300500D01*
X32077014Y-38269693D01*
X32304993Y-38208606D01*
X32523049Y-38118284D01*
X32727450Y-38000273D01*
X32914699Y-37856592D01*
X33081592Y-37689699D01*
X33225273Y-37502450D01*
X33343284Y-37298049D01*
X33433606Y-37079993D01*
X33494693Y-36852014D01*
X33525500Y-36618011D01*
X33525500Y-36381989D01*
X33494693Y-36147986D01*
X33433606Y-35920007D01*
X33343284Y-35701951D01*
X33343282Y-35701948D01*
X33343280Y-35701943D01*
X33285583Y-35602010D01*
X33225273Y-35497550D01*
X33125869Y-35368004D01*
X33081593Y-35310302D01*
X33081587Y-35310295D01*
X32914704Y-35143412D01*
X32914697Y-35143406D01*
X32727454Y-34999730D01*
X32727453Y-34999729D01*
X32727450Y-34999727D01*
X32606193Y-34929719D01*
X32523056Y-34881719D01*
X32523040Y-34881711D01*
X32481634Y-34864561D01*
X32427230Y-34820721D01*
X32405165Y-34754427D01*
X32422444Y-34686727D01*
X32473581Y-34639116D01*
X32481634Y-34635439D01*
X32523040Y-34618288D01*
X32523043Y-34618286D01*
X32523049Y-34618284D01*
X32727450Y-34500273D01*
X32914699Y-34356592D01*
X33081592Y-34189699D01*
X33225273Y-34002450D01*
X33343284Y-33798049D01*
X33433606Y-33579993D01*
X33494693Y-33352014D01*
X33525500Y-33118011D01*
X33525500Y-32929995D01*
X40541300Y-32929995D01*
X40541300Y-33166004D01*
X40541301Y-33166020D01*
X40567929Y-33368285D01*
X40572107Y-33400014D01*
X40609990Y-33541394D01*
X40633194Y-33627993D01*
X40723514Y-33846045D01*
X40723519Y-33846056D01*
X40794477Y-33968957D01*
X40841527Y-34050450D01*
X40841529Y-34050453D01*
X40841530Y-34050454D01*
X40985206Y-34237697D01*
X40985212Y-34237704D01*
X41152095Y-34404587D01*
X41152102Y-34404593D01*
X41213824Y-34451954D01*
X41339350Y-34548273D01*
X41439679Y-34606198D01*
X41543743Y-34666280D01*
X41543748Y-34666282D01*
X41543751Y-34666284D01*
X41550784Y-34669197D01*
X41585166Y-34683439D01*
X41639569Y-34727280D01*
X41661634Y-34793574D01*
X41644355Y-34861274D01*
X41593217Y-34908884D01*
X41585166Y-34912561D01*
X41543754Y-34929714D01*
X41543743Y-34929719D01*
X41339345Y-35047730D01*
X41152102Y-35191406D01*
X41152095Y-35191412D01*
X40985212Y-35358295D01*
X40985206Y-35358302D01*
X40841530Y-35545545D01*
X40723519Y-35749943D01*
X40723514Y-35749954D01*
X40633194Y-35968006D01*
X40572106Y-36195989D01*
X40541301Y-36429979D01*
X40541300Y-36429995D01*
X40541300Y-36666004D01*
X40541301Y-36666020D01*
X40567929Y-36868285D01*
X40572107Y-36900014D01*
X40620332Y-37079993D01*
X40633194Y-37127993D01*
X40723514Y-37346045D01*
X40723519Y-37346056D01*
X40794477Y-37468957D01*
X40841527Y-37550450D01*
X40841529Y-37550453D01*
X40841530Y-37550454D01*
X40985206Y-37737697D01*
X40985212Y-37737704D01*
X41152095Y-37904587D01*
X41152102Y-37904593D01*
X41251593Y-37980935D01*
X41339350Y-38048273D01*
X41460606Y-38118280D01*
X41543743Y-38166280D01*
X41543748Y-38166282D01*
X41543751Y-38166284D01*
X41761807Y-38256606D01*
X41989786Y-38317693D01*
X42223789Y-38348500D01*
X42223796Y-38348500D01*
X42459804Y-38348500D01*
X42459811Y-38348500D01*
X42693814Y-38317693D01*
X42921793Y-38256606D01*
X43139849Y-38166284D01*
X43344250Y-38048273D01*
X43531499Y-37904592D01*
X43698392Y-37737699D01*
X43842073Y-37550450D01*
X43960084Y-37346049D01*
X44050406Y-37127993D01*
X44111493Y-36900014D01*
X44142300Y-36666011D01*
X44142300Y-36429989D01*
X44111493Y-36195986D01*
X44050406Y-35968007D01*
X43960084Y-35749951D01*
X43960082Y-35749948D01*
X43960080Y-35749943D01*
X43917918Y-35676918D01*
X43842073Y-35545550D01*
X43705843Y-35368011D01*
X43698393Y-35358302D01*
X43698387Y-35358295D01*
X43531504Y-35191412D01*
X43531497Y-35191406D01*
X43344254Y-35047730D01*
X43344253Y-35047729D01*
X43344250Y-35047727D01*
X43261112Y-34999727D01*
X43139856Y-34929719D01*
X43139840Y-34929711D01*
X43098434Y-34912561D01*
X43044030Y-34868721D01*
X43021965Y-34802427D01*
X43039244Y-34734727D01*
X43090381Y-34687116D01*
X43098434Y-34683439D01*
X43139840Y-34666288D01*
X43139843Y-34666286D01*
X43139849Y-34666284D01*
X43344250Y-34548273D01*
X43531499Y-34404592D01*
X43698392Y-34237699D01*
X43842073Y-34050450D01*
X43960084Y-33846049D01*
X44050406Y-33627993D01*
X44111493Y-33400014D01*
X44142300Y-33166011D01*
X44142300Y-32929989D01*
X44111493Y-32695986D01*
X44050406Y-32468007D01*
X43960084Y-32249951D01*
X43960082Y-32249948D01*
X43960080Y-32249943D01*
X43917918Y-32176918D01*
X43842073Y-32045550D01*
X43705843Y-31868011D01*
X43698393Y-31858302D01*
X43698387Y-31858295D01*
X43531504Y-31691412D01*
X43531497Y-31691406D01*
X43454071Y-31631995D01*
X51924500Y-31631995D01*
X51924500Y-31868004D01*
X51924501Y-31868020D01*
X51947872Y-32045545D01*
X51955307Y-32102014D01*
X51979863Y-32193657D01*
X52016394Y-32329993D01*
X52106714Y-32548045D01*
X52106719Y-32548056D01*
X52177677Y-32670957D01*
X52224727Y-32752450D01*
X52224729Y-32752453D01*
X52224730Y-32752454D01*
X52368406Y-32939697D01*
X52368412Y-32939704D01*
X52535295Y-33106587D01*
X52535302Y-33106593D01*
X52605765Y-33160661D01*
X52722550Y-33250273D01*
X52831893Y-33313402D01*
X52926943Y-33368280D01*
X52926948Y-33368282D01*
X52926951Y-33368284D01*
X52926961Y-33368288D01*
X52968366Y-33385439D01*
X53022769Y-33429280D01*
X53044834Y-33495574D01*
X53027555Y-33563274D01*
X52976417Y-33610884D01*
X52968366Y-33614561D01*
X52926954Y-33631714D01*
X52926943Y-33631719D01*
X52722545Y-33749730D01*
X52535302Y-33893406D01*
X52535295Y-33893412D01*
X52368412Y-34060295D01*
X52368406Y-34060302D01*
X52224730Y-34247545D01*
X52106719Y-34451943D01*
X52106714Y-34451954D01*
X52016394Y-34670006D01*
X51955306Y-34897989D01*
X51924501Y-35131979D01*
X51924500Y-35131995D01*
X51924500Y-35368004D01*
X51924501Y-35368020D01*
X51955306Y-35602010D01*
X52016394Y-35829993D01*
X52106714Y-36048045D01*
X52106719Y-36048056D01*
X52164416Y-36147989D01*
X52224727Y-36252450D01*
X52224729Y-36252453D01*
X52224730Y-36252454D01*
X52368406Y-36439697D01*
X52368412Y-36439704D01*
X52535295Y-36606587D01*
X52535302Y-36606593D01*
X52612728Y-36666004D01*
X52722550Y-36750273D01*
X52853918Y-36826118D01*
X52926943Y-36868280D01*
X52926948Y-36868282D01*
X52926951Y-36868284D01*
X53145007Y-36958606D01*
X53372986Y-37019693D01*
X53606989Y-37050500D01*
X53606996Y-37050500D01*
X53843004Y-37050500D01*
X53843011Y-37050500D01*
X54077014Y-37019693D01*
X54304993Y-36958606D01*
X54523049Y-36868284D01*
X54727450Y-36750273D01*
X54914699Y-36606592D01*
X55081592Y-36439699D01*
X55225273Y-36252450D01*
X55343284Y-36048049D01*
X55433606Y-35829993D01*
X55494693Y-35602014D01*
X55525500Y-35368011D01*
X55525500Y-35131989D01*
X55494693Y-34897986D01*
X55433606Y-34670007D01*
X55343284Y-34451951D01*
X55343282Y-34451948D01*
X55343280Y-34451943D01*
X55288228Y-34356592D01*
X55225273Y-34247550D01*
X55081592Y-34060301D01*
X55081587Y-34060295D01*
X54914704Y-33893412D01*
X54914697Y-33893406D01*
X54727454Y-33749730D01*
X54727453Y-33749729D01*
X54727450Y-33749727D01*
X54645957Y-33702677D01*
X54523056Y-33631719D01*
X54523040Y-33631711D01*
X54481634Y-33614561D01*
X54427230Y-33570721D01*
X54405165Y-33504427D01*
X54422444Y-33436727D01*
X54473581Y-33389116D01*
X54481634Y-33385439D01*
X54523040Y-33368288D01*
X54523043Y-33368286D01*
X54523049Y-33368284D01*
X54727450Y-33250273D01*
X54914699Y-33106592D01*
X55081592Y-32939699D01*
X55225273Y-32752450D01*
X55343284Y-32548049D01*
X55433606Y-32329993D01*
X55494693Y-32102014D01*
X55525500Y-31868011D01*
X55525500Y-31631995D01*
X63424500Y-31631995D01*
X63424500Y-31868004D01*
X63424501Y-31868020D01*
X63447872Y-32045545D01*
X63455307Y-32102014D01*
X63479863Y-32193657D01*
X63516394Y-32329993D01*
X63606714Y-32548045D01*
X63606719Y-32548056D01*
X63677677Y-32670957D01*
X63724727Y-32752450D01*
X63724729Y-32752453D01*
X63724730Y-32752454D01*
X63868406Y-32939697D01*
X63868412Y-32939704D01*
X64035295Y-33106587D01*
X64035302Y-33106593D01*
X64105765Y-33160661D01*
X64222550Y-33250273D01*
X64331893Y-33313402D01*
X64426943Y-33368280D01*
X64426948Y-33368282D01*
X64426951Y-33368284D01*
X64426961Y-33368288D01*
X64468366Y-33385439D01*
X64522769Y-33429280D01*
X64544834Y-33495574D01*
X64527555Y-33563274D01*
X64476417Y-33610884D01*
X64468366Y-33614561D01*
X64426954Y-33631714D01*
X64426943Y-33631719D01*
X64222545Y-33749730D01*
X64035302Y-33893406D01*
X64035295Y-33893412D01*
X63868412Y-34060295D01*
X63868406Y-34060302D01*
X63724730Y-34247545D01*
X63606719Y-34451943D01*
X63606714Y-34451954D01*
X63516394Y-34670006D01*
X63455306Y-34897989D01*
X63424501Y-35131979D01*
X63424500Y-35131995D01*
X63424500Y-35368004D01*
X63424501Y-35368020D01*
X63455306Y-35602010D01*
X63516394Y-35829993D01*
X63606714Y-36048045D01*
X63606719Y-36048056D01*
X63664416Y-36147989D01*
X63724727Y-36252450D01*
X63724729Y-36252453D01*
X63724730Y-36252454D01*
X63868406Y-36439697D01*
X63868412Y-36439704D01*
X64035295Y-36606587D01*
X64035302Y-36606593D01*
X64112728Y-36666004D01*
X64222550Y-36750273D01*
X64353918Y-36826118D01*
X64426943Y-36868280D01*
X64426948Y-36868282D01*
X64426951Y-36868284D01*
X64645007Y-36958606D01*
X64872986Y-37019693D01*
X65106989Y-37050500D01*
X65106996Y-37050500D01*
X65343004Y-37050500D01*
X65343011Y-37050500D01*
X65577014Y-37019693D01*
X65804993Y-36958606D01*
X66023049Y-36868284D01*
X66227450Y-36750273D01*
X66414699Y-36606592D01*
X66581592Y-36439699D01*
X66725273Y-36252450D01*
X66843284Y-36048049D01*
X66933606Y-35829993D01*
X66994693Y-35602014D01*
X67025500Y-35368011D01*
X67025500Y-35131989D01*
X66994693Y-34897986D01*
X66933606Y-34670007D01*
X66843284Y-34451951D01*
X66843282Y-34451948D01*
X66843280Y-34451943D01*
X66788228Y-34356592D01*
X66725273Y-34247550D01*
X66581592Y-34060301D01*
X66581587Y-34060295D01*
X66414704Y-33893412D01*
X66414697Y-33893406D01*
X66398468Y-33880953D01*
X89191700Y-33880953D01*
X89191700Y-34038646D01*
X89222461Y-34193289D01*
X89222464Y-34193301D01*
X89282802Y-34338972D01*
X89282809Y-34338985D01*
X89370410Y-34470088D01*
X89370413Y-34470092D01*
X89481907Y-34581586D01*
X89481911Y-34581589D01*
X89613014Y-34669190D01*
X89613027Y-34669197D01*
X89753254Y-34727280D01*
X89758703Y-34729537D01*
X89861577Y-34750000D01*
X89913353Y-34760299D01*
X89913356Y-34760300D01*
X89913358Y-34760300D01*
X90071044Y-34760300D01*
X90071045Y-34760299D01*
X90225697Y-34729537D01*
X90371379Y-34669194D01*
X90465659Y-34606198D01*
X90532336Y-34585320D01*
X90534550Y-34585300D01*
X92878850Y-34585300D01*
X92945889Y-34604985D01*
X92947741Y-34606198D01*
X93042021Y-34669194D01*
X93042023Y-34669195D01*
X93042027Y-34669197D01*
X93182254Y-34727280D01*
X93187703Y-34729537D01*
X93290577Y-34750000D01*
X93342353Y-34760299D01*
X93342356Y-34760300D01*
X93342358Y-34760300D01*
X93500044Y-34760300D01*
X93500045Y-34760299D01*
X93654697Y-34729537D01*
X93800379Y-34669194D01*
X93931489Y-34581589D01*
X94042989Y-34470089D01*
X94130594Y-34338979D01*
X94190937Y-34193297D01*
X94221700Y-34038642D01*
X94221700Y-33880958D01*
X94221700Y-33880955D01*
X94221699Y-33880953D01*
X94190937Y-33726303D01*
X94190935Y-33726298D01*
X94130597Y-33580627D01*
X94130590Y-33580614D01*
X94042989Y-33449511D01*
X94042986Y-33449507D01*
X93931492Y-33338013D01*
X93931488Y-33338010D01*
X93800385Y-33250409D01*
X93800372Y-33250402D01*
X93654701Y-33190064D01*
X93654689Y-33190061D01*
X93500045Y-33159300D01*
X93500042Y-33159300D01*
X93342358Y-33159300D01*
X93342355Y-33159300D01*
X93187710Y-33190061D01*
X93187698Y-33190064D01*
X93042027Y-33250402D01*
X93042015Y-33250409D01*
X92947741Y-33313402D01*
X92881064Y-33334280D01*
X92878850Y-33334300D01*
X90534550Y-33334300D01*
X90467511Y-33314615D01*
X90465659Y-33313402D01*
X90371384Y-33250409D01*
X90371372Y-33250402D01*
X90225701Y-33190064D01*
X90225689Y-33190061D01*
X90071045Y-33159300D01*
X90071042Y-33159300D01*
X89913358Y-33159300D01*
X89913355Y-33159300D01*
X89758710Y-33190061D01*
X89758698Y-33190064D01*
X89613027Y-33250402D01*
X89613014Y-33250409D01*
X89481911Y-33338010D01*
X89481907Y-33338013D01*
X89370413Y-33449507D01*
X89370410Y-33449511D01*
X89282809Y-33580614D01*
X89282802Y-33580627D01*
X89222464Y-33726298D01*
X89222461Y-33726310D01*
X89191700Y-33880953D01*
X66398468Y-33880953D01*
X66227454Y-33749730D01*
X66227453Y-33749729D01*
X66227450Y-33749727D01*
X66145957Y-33702677D01*
X66023056Y-33631719D01*
X66023040Y-33631711D01*
X65981634Y-33614561D01*
X65927230Y-33570721D01*
X65905165Y-33504427D01*
X65922444Y-33436727D01*
X65973581Y-33389116D01*
X65981634Y-33385439D01*
X66023040Y-33368288D01*
X66023043Y-33368286D01*
X66023049Y-33368284D01*
X66227450Y-33250273D01*
X66414699Y-33106592D01*
X66581592Y-32939699D01*
X66725273Y-32752450D01*
X66843284Y-32548049D01*
X66933606Y-32329993D01*
X66994693Y-32102014D01*
X67025500Y-31868011D01*
X67025500Y-31631989D01*
X66994693Y-31397986D01*
X66933606Y-31170007D01*
X66843284Y-30951951D01*
X66737491Y-30768713D01*
X87874500Y-30768713D01*
X87874500Y-31231287D01*
X87878056Y-31253736D01*
X87905928Y-31429719D01*
X87907754Y-31441243D01*
X87969733Y-31631995D01*
X87973444Y-31643414D01*
X88069951Y-31832820D01*
X88194890Y-32004786D01*
X88345213Y-32155109D01*
X88517179Y-32280048D01*
X88517181Y-32280049D01*
X88517184Y-32280051D01*
X88706588Y-32376557D01*
X88908757Y-32442246D01*
X89118713Y-32475500D01*
X89118714Y-32475500D01*
X89331286Y-32475500D01*
X89331287Y-32475500D01*
X89541243Y-32442246D01*
X89743412Y-32376557D01*
X89932816Y-32280051D01*
X89974241Y-32249954D01*
X90104786Y-32155109D01*
X90104788Y-32155106D01*
X90104792Y-32155104D01*
X90255104Y-32004792D01*
X90374683Y-31840204D01*
X90430011Y-31797540D01*
X90499624Y-31791561D01*
X90561420Y-31824166D01*
X90575313Y-31840199D01*
X90678925Y-31982809D01*
X90694896Y-32004792D01*
X90845213Y-32155109D01*
X91017179Y-32280048D01*
X91017181Y-32280049D01*
X91017184Y-32280051D01*
X91206588Y-32376557D01*
X91408757Y-32442246D01*
X91618713Y-32475500D01*
X91618714Y-32475500D01*
X91831286Y-32475500D01*
X91831287Y-32475500D01*
X92041243Y-32442246D01*
X92243412Y-32376557D01*
X92432816Y-32280051D01*
X92474241Y-32249954D01*
X92604786Y-32155109D01*
X92604788Y-32155106D01*
X92604792Y-32155104D01*
X92755104Y-32004792D01*
X92874683Y-31840204D01*
X92930011Y-31797540D01*
X92999624Y-31791561D01*
X93061420Y-31824166D01*
X93075313Y-31840199D01*
X93178925Y-31982809D01*
X93194896Y-32004792D01*
X93345213Y-32155109D01*
X93517179Y-32280048D01*
X93517181Y-32280049D01*
X93517184Y-32280051D01*
X93706588Y-32376557D01*
X93908757Y-32442246D01*
X94118713Y-32475500D01*
X94118714Y-32475500D01*
X94331286Y-32475500D01*
X94331287Y-32475500D01*
X94541243Y-32442246D01*
X94743412Y-32376557D01*
X94932816Y-32280051D01*
X94974241Y-32249954D01*
X95104786Y-32155109D01*
X95104788Y-32155106D01*
X95104792Y-32155104D01*
X95255104Y-32004792D01*
X95374991Y-31839779D01*
X95430320Y-31797115D01*
X95499933Y-31791136D01*
X95561729Y-31823741D01*
X95575627Y-31839781D01*
X95695272Y-32004459D01*
X95695276Y-32004464D01*
X95845535Y-32154723D01*
X95845540Y-32154727D01*
X96017442Y-32279620D01*
X96206782Y-32376095D01*
X96408871Y-32441757D01*
X96475000Y-32452231D01*
X96475000Y-31404145D01*
X96541657Y-31442630D01*
X96662465Y-31475000D01*
X96787535Y-31475000D01*
X96908343Y-31442630D01*
X96975000Y-31404145D01*
X96975000Y-32452230D01*
X97041126Y-32441757D01*
X97041129Y-32441757D01*
X97243217Y-32376095D01*
X97432557Y-32279620D01*
X97604459Y-32154727D01*
X97604464Y-32154723D01*
X97754721Y-32004466D01*
X97874371Y-31839781D01*
X97929701Y-31797115D01*
X97999314Y-31791136D01*
X98061110Y-31823741D01*
X98075008Y-31839781D01*
X98194890Y-32004785D01*
X98194894Y-32004790D01*
X98345213Y-32155109D01*
X98517179Y-32280048D01*
X98517181Y-32280049D01*
X98517184Y-32280051D01*
X98706588Y-32376557D01*
X98908757Y-32442246D01*
X99118713Y-32475500D01*
X99118714Y-32475500D01*
X99331286Y-32475500D01*
X99331287Y-32475500D01*
X99541243Y-32442246D01*
X99743412Y-32376557D01*
X99932816Y-32280051D01*
X100104792Y-32155104D01*
X100243604Y-32016291D01*
X100304923Y-31982809D01*
X100374615Y-31987793D01*
X100430549Y-32029664D01*
X100436821Y-32038878D01*
X100440185Y-32044333D01*
X100440186Y-32044334D01*
X100532288Y-32193656D01*
X100656344Y-32317712D01*
X100805666Y-32409814D01*
X100972203Y-32464999D01*
X101074991Y-32475500D01*
X102375008Y-32475499D01*
X102477797Y-32464999D01*
X102644334Y-32409814D01*
X102793656Y-32317712D01*
X102917712Y-32193656D01*
X103009814Y-32044334D01*
X103064999Y-31877797D01*
X103066357Y-31864504D01*
X110605500Y-31864504D01*
X110605500Y-32041895D01*
X110640103Y-32215858D01*
X110640106Y-32215867D01*
X110707983Y-32379740D01*
X110707990Y-32379753D01*
X110806535Y-32527234D01*
X110806538Y-32527238D01*
X110931961Y-32652661D01*
X110931965Y-32652664D01*
X111079446Y-32751209D01*
X111079459Y-32751216D01*
X111202363Y-32802123D01*
X111243334Y-32819094D01*
X111243336Y-32819094D01*
X111243341Y-32819096D01*
X111417304Y-32853699D01*
X111417307Y-32853700D01*
X111417309Y-32853700D01*
X111594690Y-32853700D01*
X111594691Y-32853700D01*
X111607474Y-32851157D01*
X111677064Y-32857383D01*
X111732242Y-32900244D01*
X111734763Y-32903875D01*
X111758704Y-32939704D01*
X111822535Y-33035234D01*
X111822538Y-33035238D01*
X111947961Y-33160661D01*
X111947965Y-33160664D01*
X112095446Y-33259209D01*
X112095459Y-33259216D01*
X112218363Y-33310123D01*
X112259334Y-33327094D01*
X112259336Y-33327094D01*
X112259341Y-33327096D01*
X112433304Y-33361699D01*
X112433307Y-33361700D01*
X112433309Y-33361700D01*
X112610693Y-33361700D01*
X112610694Y-33361699D01*
X112668682Y-33350164D01*
X112784658Y-33327096D01*
X112784661Y-33327094D01*
X112784666Y-33327094D01*
X112948547Y-33259213D01*
X113096035Y-33160664D01*
X113221464Y-33035235D01*
X113320013Y-32887747D01*
X113387894Y-32723866D01*
X113422500Y-32549891D01*
X113422500Y-32445852D01*
X113442185Y-32378813D01*
X113458819Y-32358171D01*
X115106971Y-30710019D01*
X115168294Y-30676534D01*
X115194652Y-30673700D01*
X127747407Y-30673700D01*
X127807829Y-30661681D01*
X127868252Y-30649663D01*
X127901592Y-30635852D01*
X127982086Y-30602512D01*
X128033309Y-30568284D01*
X128084533Y-30534058D01*
X128171658Y-30446933D01*
X128171659Y-30446930D01*
X128568973Y-30049616D01*
X128630295Y-30016134D01*
X128656653Y-30013300D01*
X135063638Y-30013300D01*
X135130677Y-30032985D01*
X135151319Y-30049619D01*
X135163561Y-30061861D01*
X135163565Y-30061864D01*
X135311046Y-30160409D01*
X135311059Y-30160416D01*
X135412562Y-30202459D01*
X135474934Y-30228294D01*
X135474936Y-30228294D01*
X135474941Y-30228296D01*
X135648904Y-30262899D01*
X135648907Y-30262900D01*
X135648909Y-30262900D01*
X135826293Y-30262900D01*
X135826294Y-30262899D01*
X135892516Y-30249727D01*
X136000258Y-30228296D01*
X136000261Y-30228294D01*
X136000266Y-30228294D01*
X136164147Y-30160413D01*
X136311635Y-30061864D01*
X136437064Y-29936435D01*
X136535613Y-29788947D01*
X136603494Y-29625066D01*
X136603726Y-29623903D01*
X136638099Y-29451095D01*
X136638100Y-29451093D01*
X136638100Y-29273706D01*
X136638099Y-29273704D01*
X136603496Y-29099741D01*
X136603493Y-29099732D01*
X136535616Y-28935859D01*
X136535609Y-28935846D01*
X136437064Y-28788365D01*
X136437061Y-28788361D01*
X136311638Y-28662938D01*
X136311634Y-28662935D01*
X136164153Y-28564390D01*
X136164140Y-28564383D01*
X136000267Y-28496506D01*
X136000259Y-28496504D01*
X135940576Y-28484632D01*
X135878665Y-28452247D01*
X135844091Y-28391531D01*
X135847832Y-28321761D01*
X135888698Y-28265089D01*
X135895870Y-28259917D01*
X135942682Y-28228639D01*
X136082039Y-28089282D01*
X136191532Y-27925414D01*
X136266951Y-27743335D01*
X136305400Y-27550041D01*
X136305400Y-27032833D01*
X136325085Y-26965794D01*
X136377889Y-26920039D01*
X136447047Y-26910095D01*
X136491401Y-26925447D01*
X136512759Y-26937778D01*
X136512760Y-26937778D01*
X136512765Y-26937781D01*
X136659134Y-26977000D01*
X136659136Y-26977000D01*
X136810664Y-26977000D01*
X136810666Y-26977000D01*
X136957035Y-26937781D01*
X137088265Y-26862015D01*
X137195415Y-26754865D01*
X137271181Y-26623635D01*
X137310400Y-26477266D01*
X137310400Y-26325734D01*
X141939400Y-26325734D01*
X141939400Y-26477266D01*
X141953440Y-26529664D01*
X141978619Y-26623636D01*
X141996791Y-26655110D01*
X142054385Y-26754865D01*
X142161535Y-26862015D01*
X142244325Y-26909814D01*
X142292761Y-26937779D01*
X142292765Y-26937781D01*
X142439134Y-26977000D01*
X142439136Y-26977000D01*
X142590664Y-26977000D01*
X142590666Y-26977000D01*
X142737035Y-26937781D01*
X142747351Y-26931825D01*
X142758399Y-26925447D01*
X142826298Y-26908973D01*
X142892326Y-26931825D01*
X142935517Y-26986745D01*
X142944400Y-27032833D01*
X142944400Y-27550041D01*
X142944400Y-27550043D01*
X142944399Y-27550043D01*
X142982847Y-27743329D01*
X142982850Y-27743339D01*
X143058264Y-27925407D01*
X143058271Y-27925420D01*
X143167760Y-28089281D01*
X143167763Y-28089285D01*
X143307114Y-28228636D01*
X143307118Y-28228639D01*
X143470979Y-28338128D01*
X143470992Y-28338135D01*
X143653060Y-28413549D01*
X143653065Y-28413551D01*
X143653069Y-28413551D01*
X143653070Y-28413552D01*
X143846356Y-28452000D01*
X143846359Y-28452000D01*
X144043443Y-28452000D01*
X144173482Y-28426132D01*
X144236735Y-28413551D01*
X144418814Y-28338132D01*
X144582682Y-28228639D01*
X144722039Y-28089282D01*
X144831532Y-27925414D01*
X144906951Y-27743335D01*
X144945400Y-27550041D01*
X144945400Y-26252959D01*
X144945400Y-26252956D01*
X144906952Y-26059670D01*
X144906951Y-26059669D01*
X144906951Y-26059665D01*
X144871882Y-25975000D01*
X144831535Y-25877592D01*
X144831528Y-25877579D01*
X144722039Y-25713718D01*
X144722036Y-25713714D01*
X144582685Y-25574363D01*
X144582681Y-25574360D01*
X144418820Y-25464871D01*
X144418807Y-25464864D01*
X144236739Y-25389450D01*
X144236729Y-25389447D01*
X144043443Y-25351000D01*
X144043441Y-25351000D01*
X143846359Y-25351000D01*
X143846357Y-25351000D01*
X143653070Y-25389447D01*
X143653060Y-25389450D01*
X143470992Y-25464864D01*
X143470979Y-25464871D01*
X143307118Y-25574360D01*
X143307114Y-25574363D01*
X143167763Y-25713714D01*
X143167760Y-25713718D01*
X143058271Y-25877579D01*
X143058263Y-25877594D01*
X143054356Y-25887028D01*
X143010515Y-25941431D01*
X142944220Y-25963495D01*
X142876521Y-25946215D01*
X142871868Y-25943066D01*
X142868266Y-25940986D01*
X142868265Y-25940985D01*
X142762801Y-25880095D01*
X142737036Y-25865219D01*
X142663850Y-25845609D01*
X142590666Y-25826000D01*
X142439134Y-25826000D01*
X142292763Y-25865219D01*
X142161535Y-25940985D01*
X142161532Y-25940987D01*
X142054387Y-26048132D01*
X142054385Y-26048135D01*
X141978619Y-26179363D01*
X141947068Y-26297115D01*
X141939400Y-26325734D01*
X137310400Y-26325734D01*
X137271181Y-26179365D01*
X137195415Y-26048135D01*
X137088265Y-25940985D01*
X137017738Y-25900266D01*
X136957036Y-25865219D01*
X136883850Y-25845609D01*
X136810666Y-25826000D01*
X136659134Y-25826000D01*
X136512763Y-25865219D01*
X136421328Y-25918010D01*
X136381535Y-25940985D01*
X136381533Y-25940986D01*
X136374497Y-25945049D01*
X136373154Y-25942724D01*
X136320291Y-25963147D01*
X136251849Y-25949092D01*
X136201871Y-25900266D01*
X136195440Y-25887022D01*
X136191532Y-25877587D01*
X136191528Y-25877579D01*
X136082039Y-25713718D01*
X136082036Y-25713714D01*
X135942685Y-25574363D01*
X135942681Y-25574360D01*
X135778820Y-25464871D01*
X135778807Y-25464864D01*
X135596739Y-25389450D01*
X135596729Y-25389447D01*
X135403443Y-25351000D01*
X135403441Y-25351000D01*
X135206359Y-25351000D01*
X135206357Y-25351000D01*
X135013070Y-25389447D01*
X135013060Y-25389450D01*
X134830992Y-25464864D01*
X134830979Y-25464871D01*
X134667118Y-25574360D01*
X134667114Y-25574363D01*
X134527763Y-25713714D01*
X134527760Y-25713718D01*
X134418271Y-25877579D01*
X134418264Y-25877592D01*
X134342850Y-26059660D01*
X134342847Y-26059670D01*
X134304400Y-26252956D01*
X134304400Y-26252959D01*
X134304400Y-27550041D01*
X134304400Y-27550043D01*
X134304399Y-27550043D01*
X134342847Y-27743329D01*
X134342850Y-27743339D01*
X134418264Y-27925407D01*
X134418271Y-27925420D01*
X134527760Y-28089281D01*
X134527763Y-28089285D01*
X134667114Y-28228636D01*
X134667118Y-28228639D01*
X134830979Y-28338128D01*
X134830992Y-28338135D01*
X135013060Y-28413549D01*
X135013065Y-28413551D01*
X135013069Y-28413551D01*
X135013070Y-28413552D01*
X135123040Y-28435427D01*
X135184950Y-28467812D01*
X135219525Y-28528528D01*
X135215785Y-28598297D01*
X135184003Y-28647180D01*
X135176410Y-28654352D01*
X135163565Y-28662936D01*
X135099278Y-28727222D01*
X135097994Y-28728436D01*
X135068388Y-28743526D01*
X135039198Y-28759466D01*
X135036562Y-28759749D01*
X135035745Y-28760166D01*
X135034161Y-28760007D01*
X135012839Y-28762300D01*
X128413941Y-28762300D01*
X128413921Y-28762299D01*
X128407807Y-28762299D01*
X128284594Y-28762299D01*
X128284592Y-28762299D01*
X128205208Y-28778090D01*
X128205206Y-28778090D01*
X128198377Y-28779449D01*
X128163748Y-28786337D01*
X128116597Y-28805867D01*
X128111771Y-28807865D01*
X128111771Y-28807866D01*
X128100820Y-28812402D01*
X128031350Y-28819867D01*
X127968872Y-28788588D01*
X127965692Y-28785519D01*
X127903511Y-28723338D01*
X127903507Y-28723335D01*
X127756026Y-28624790D01*
X127756013Y-28624783D01*
X127592140Y-28556906D01*
X127592131Y-28556903D01*
X127418167Y-28522300D01*
X127418164Y-28522300D01*
X127240782Y-28522300D01*
X127240779Y-28522300D01*
X127066814Y-28556903D01*
X127066805Y-28556906D01*
X126902932Y-28624783D01*
X126902919Y-28624790D01*
X126755438Y-28723335D01*
X126755434Y-28723338D01*
X126717794Y-28760980D01*
X126656472Y-28794466D01*
X126630112Y-28797300D01*
X113974792Y-28797300D01*
X113931723Y-28805867D01*
X113920557Y-28808088D01*
X113853948Y-28821337D01*
X113824613Y-28833488D01*
X113817341Y-28836499D01*
X113817330Y-28836503D01*
X113740118Y-28868485D01*
X113740109Y-28868490D01*
X113690049Y-28901941D01*
X113690047Y-28901942D01*
X113637671Y-28936938D01*
X113637669Y-28936939D01*
X113594106Y-28980503D01*
X113550542Y-29024067D01*
X113550539Y-29024070D01*
X112541625Y-30032985D01*
X111558229Y-31016381D01*
X111496906Y-31049866D01*
X111470548Y-31052700D01*
X111417306Y-31052700D01*
X111243341Y-31087303D01*
X111243332Y-31087306D01*
X111079459Y-31155183D01*
X111079446Y-31155190D01*
X110931965Y-31253735D01*
X110931961Y-31253738D01*
X110806538Y-31379161D01*
X110806535Y-31379165D01*
X110707990Y-31526646D01*
X110707983Y-31526659D01*
X110640106Y-31690532D01*
X110640103Y-31690541D01*
X110605500Y-31864504D01*
X103066357Y-31864504D01*
X103075500Y-31775009D01*
X103075499Y-30224992D01*
X103073851Y-30208863D01*
X103064999Y-30122203D01*
X103064998Y-30122200D01*
X103009814Y-29955666D01*
X102917712Y-29806344D01*
X102793656Y-29682288D01*
X102644334Y-29590186D01*
X102477797Y-29535001D01*
X102477795Y-29535000D01*
X102375010Y-29524500D01*
X101074998Y-29524500D01*
X101074981Y-29524501D01*
X100972203Y-29535000D01*
X100972200Y-29535001D01*
X100805668Y-29590185D01*
X100805663Y-29590187D01*
X100656342Y-29682289D01*
X100532289Y-29806342D01*
X100436821Y-29961121D01*
X100384873Y-30007845D01*
X100315910Y-30019068D01*
X100251828Y-29991224D01*
X100243601Y-29983705D01*
X100104786Y-29844890D01*
X99932820Y-29719951D01*
X99743414Y-29623444D01*
X99743413Y-29623443D01*
X99743412Y-29623443D01*
X99541243Y-29557754D01*
X99541241Y-29557753D01*
X99541240Y-29557753D01*
X99379957Y-29532208D01*
X99331287Y-29524500D01*
X99118713Y-29524500D01*
X99070042Y-29532208D01*
X98908760Y-29557753D01*
X98706585Y-29623444D01*
X98517179Y-29719951D01*
X98345213Y-29844890D01*
X98194894Y-29995209D01*
X98194890Y-29995214D01*
X98075008Y-30160218D01*
X98019678Y-30202884D01*
X97950065Y-30208863D01*
X97888270Y-30176257D01*
X97874372Y-30160218D01*
X97754727Y-29995540D01*
X97754723Y-29995535D01*
X97604464Y-29845276D01*
X97604459Y-29845272D01*
X97432557Y-29720379D01*
X97243215Y-29623903D01*
X97041124Y-29558241D01*
X96975000Y-29547768D01*
X96975000Y-30595854D01*
X96908343Y-30557370D01*
X96787535Y-30525000D01*
X96662465Y-30525000D01*
X96541657Y-30557370D01*
X96475000Y-30595854D01*
X96475000Y-29547768D01*
X96474999Y-29547768D01*
X96408875Y-29558241D01*
X96206784Y-29623903D01*
X96017442Y-29720379D01*
X95845540Y-29845272D01*
X95845535Y-29845276D01*
X95695276Y-29995535D01*
X95695272Y-29995540D01*
X95575627Y-30160218D01*
X95520297Y-30202884D01*
X95450684Y-30208863D01*
X95388889Y-30176257D01*
X95374991Y-30160218D01*
X95255109Y-29995214D01*
X95255105Y-29995209D01*
X95104786Y-29844890D01*
X94932820Y-29719951D01*
X94743414Y-29623444D01*
X94743413Y-29623443D01*
X94743412Y-29623443D01*
X94541243Y-29557754D01*
X94541241Y-29557753D01*
X94541240Y-29557753D01*
X94379957Y-29532208D01*
X94331287Y-29524500D01*
X94118713Y-29524500D01*
X94070042Y-29532208D01*
X93908760Y-29557753D01*
X93706585Y-29623444D01*
X93517179Y-29719951D01*
X93345213Y-29844890D01*
X93194894Y-29995209D01*
X93194890Y-29995214D01*
X93075318Y-30159793D01*
X93019989Y-30202459D01*
X92950375Y-30208438D01*
X92888580Y-30175833D01*
X92874682Y-30159793D01*
X92755109Y-29995214D01*
X92755105Y-29995209D01*
X92604786Y-29844890D01*
X92432820Y-29719951D01*
X92243414Y-29623444D01*
X92243413Y-29623443D01*
X92243412Y-29623443D01*
X92041243Y-29557754D01*
X92041241Y-29557753D01*
X92041240Y-29557753D01*
X91879957Y-29532208D01*
X91831287Y-29524500D01*
X91618713Y-29524500D01*
X91570042Y-29532208D01*
X91408760Y-29557753D01*
X91206585Y-29623444D01*
X91017179Y-29719951D01*
X90845213Y-29844890D01*
X90694894Y-29995209D01*
X90694890Y-29995214D01*
X90575318Y-30159793D01*
X90519989Y-30202459D01*
X90450375Y-30208438D01*
X90388580Y-30175833D01*
X90374682Y-30159793D01*
X90255109Y-29995214D01*
X90255105Y-29995209D01*
X90104786Y-29844890D01*
X89932820Y-29719951D01*
X89743414Y-29623444D01*
X89743413Y-29623443D01*
X89743412Y-29623443D01*
X89541243Y-29557754D01*
X89541241Y-29557753D01*
X89541240Y-29557753D01*
X89379957Y-29532208D01*
X89331287Y-29524500D01*
X89118713Y-29524500D01*
X89070042Y-29532208D01*
X88908760Y-29557753D01*
X88706585Y-29623444D01*
X88517179Y-29719951D01*
X88345213Y-29844890D01*
X88194890Y-29995213D01*
X88069951Y-30167179D01*
X87973444Y-30356585D01*
X87907753Y-30558760D01*
X87889100Y-30676534D01*
X87874500Y-30768713D01*
X66737491Y-30768713D01*
X66725273Y-30747550D01*
X66660103Y-30662619D01*
X66581593Y-30560302D01*
X66581587Y-30560295D01*
X66414704Y-30393412D01*
X66414697Y-30393406D01*
X66227454Y-30249730D01*
X66227453Y-30249729D01*
X66227450Y-30249727D01*
X66145579Y-30202459D01*
X66023056Y-30131719D01*
X66023045Y-30131714D01*
X65804993Y-30041394D01*
X65773610Y-30032985D01*
X65577014Y-29980307D01*
X65577013Y-29980306D01*
X65577010Y-29980306D01*
X65343020Y-29949501D01*
X65343017Y-29949500D01*
X65343011Y-29949500D01*
X65106989Y-29949500D01*
X65106983Y-29949500D01*
X65106979Y-29949501D01*
X64872989Y-29980306D01*
X64645006Y-30041394D01*
X64426954Y-30131714D01*
X64426943Y-30131719D01*
X64222545Y-30249730D01*
X64035302Y-30393406D01*
X64035295Y-30393412D01*
X63868412Y-30560295D01*
X63868406Y-30560302D01*
X63724730Y-30747545D01*
X63606719Y-30951943D01*
X63606714Y-30951954D01*
X63516394Y-31170006D01*
X63455306Y-31397989D01*
X63424501Y-31631979D01*
X63424500Y-31631995D01*
X55525500Y-31631995D01*
X55525500Y-31631989D01*
X55494693Y-31397986D01*
X55433606Y-31170007D01*
X55343284Y-30951951D01*
X55343282Y-30951948D01*
X55343280Y-30951943D01*
X55301118Y-30878918D01*
X55225273Y-30747550D01*
X55160103Y-30662619D01*
X55081593Y-30560302D01*
X55081587Y-30560295D01*
X54914704Y-30393412D01*
X54914697Y-30393406D01*
X54727454Y-30249730D01*
X54727453Y-30249729D01*
X54727450Y-30249727D01*
X54645579Y-30202459D01*
X54523056Y-30131719D01*
X54523045Y-30131714D01*
X54304993Y-30041394D01*
X54273610Y-30032985D01*
X54077014Y-29980307D01*
X54077013Y-29980306D01*
X54077010Y-29980306D01*
X53843020Y-29949501D01*
X53843017Y-29949500D01*
X53843011Y-29949500D01*
X53606989Y-29949500D01*
X53606983Y-29949500D01*
X53606979Y-29949501D01*
X53372989Y-29980306D01*
X53145006Y-30041394D01*
X52926954Y-30131714D01*
X52926943Y-30131719D01*
X52722545Y-30249730D01*
X52535302Y-30393406D01*
X52535295Y-30393412D01*
X52368412Y-30560295D01*
X52368406Y-30560302D01*
X52224730Y-30747545D01*
X52106719Y-30951943D01*
X52106714Y-30951954D01*
X52016394Y-31170006D01*
X51955306Y-31397989D01*
X51924501Y-31631979D01*
X51924500Y-31631995D01*
X43454071Y-31631995D01*
X43344254Y-31547730D01*
X43344253Y-31547729D01*
X43344250Y-31547727D01*
X43261112Y-31499727D01*
X43139856Y-31429719D01*
X43139845Y-31429714D01*
X42921793Y-31339394D01*
X42693814Y-31278307D01*
X42693813Y-31278306D01*
X42693810Y-31278306D01*
X42459820Y-31247501D01*
X42459817Y-31247500D01*
X42459811Y-31247500D01*
X42223789Y-31247500D01*
X42223783Y-31247500D01*
X42223779Y-31247501D01*
X41989789Y-31278306D01*
X41761806Y-31339394D01*
X41543754Y-31429714D01*
X41543743Y-31429719D01*
X41339345Y-31547730D01*
X41152102Y-31691406D01*
X41152095Y-31691412D01*
X40985212Y-31858295D01*
X40985206Y-31858302D01*
X40841530Y-32045545D01*
X40723519Y-32249943D01*
X40723514Y-32249954D01*
X40633194Y-32468006D01*
X40572106Y-32695989D01*
X40541301Y-32929979D01*
X40541300Y-32929995D01*
X33525500Y-32929995D01*
X33525500Y-32881989D01*
X33494693Y-32647986D01*
X33433606Y-32420007D01*
X33343284Y-32201951D01*
X33343282Y-32201948D01*
X33343280Y-32201943D01*
X33285583Y-32102010D01*
X33225273Y-31997550D01*
X33166001Y-31920306D01*
X33081593Y-31810302D01*
X33081587Y-31810295D01*
X32914704Y-31643412D01*
X32914697Y-31643406D01*
X32727454Y-31499730D01*
X32727453Y-31499729D01*
X32727450Y-31499727D01*
X32606193Y-31429719D01*
X32523056Y-31381719D01*
X32523045Y-31381714D01*
X32304993Y-31291394D01*
X32164448Y-31253735D01*
X32077014Y-31230307D01*
X32077013Y-31230306D01*
X32077010Y-31230306D01*
X31843020Y-31199501D01*
X31843017Y-31199500D01*
X31843011Y-31199500D01*
X31606989Y-31199500D01*
X31606983Y-31199500D01*
X31606979Y-31199501D01*
X31372989Y-31230306D01*
X31145006Y-31291394D01*
X30926954Y-31381714D01*
X30926943Y-31381719D01*
X30722545Y-31499730D01*
X30535302Y-31643406D01*
X30535295Y-31643412D01*
X30368412Y-31810295D01*
X30368406Y-31810302D01*
X30224730Y-31997545D01*
X30106719Y-32201943D01*
X30106714Y-32201954D01*
X30016394Y-32420006D01*
X29955306Y-32647989D01*
X29924501Y-32881979D01*
X29924500Y-32881995D01*
X20500500Y-32881995D01*
X20500500Y-25268713D01*
X36874500Y-25268713D01*
X36874500Y-25731286D01*
X36897672Y-25877592D01*
X36907754Y-25941243D01*
X36946233Y-26059670D01*
X36973444Y-26143414D01*
X37069951Y-26332820D01*
X37194890Y-26504786D01*
X37345213Y-26655109D01*
X37517179Y-26780048D01*
X37517181Y-26780049D01*
X37517184Y-26780051D01*
X37706588Y-26876557D01*
X37908757Y-26942246D01*
X38118713Y-26975500D01*
X38118714Y-26975500D01*
X38331286Y-26975500D01*
X38331287Y-26975500D01*
X38541243Y-26942246D01*
X38743412Y-26876557D01*
X38932816Y-26780051D01*
X38967483Y-26754864D01*
X39104786Y-26655109D01*
X39104788Y-26655106D01*
X39104792Y-26655104D01*
X39255104Y-26504792D01*
X39374683Y-26340204D01*
X39430011Y-26297540D01*
X39499624Y-26291561D01*
X39561420Y-26324166D01*
X39575313Y-26340199D01*
X39674896Y-26477264D01*
X39694896Y-26504792D01*
X39845213Y-26655109D01*
X40017179Y-26780048D01*
X40017181Y-26780049D01*
X40017184Y-26780051D01*
X40206588Y-26876557D01*
X40408757Y-26942246D01*
X40618713Y-26975500D01*
X40618714Y-26975500D01*
X40831286Y-26975500D01*
X40831287Y-26975500D01*
X41041243Y-26942246D01*
X41243412Y-26876557D01*
X41432816Y-26780051D01*
X41467483Y-26754864D01*
X41604786Y-26655109D01*
X41604788Y-26655106D01*
X41604792Y-26655104D01*
X41755104Y-26504792D01*
X41874683Y-26340204D01*
X41930011Y-26297540D01*
X41999624Y-26291561D01*
X42061420Y-26324166D01*
X42075313Y-26340199D01*
X42174896Y-26477264D01*
X42194896Y-26504792D01*
X42345213Y-26655109D01*
X42517179Y-26780048D01*
X42517181Y-26780049D01*
X42517184Y-26780051D01*
X42706588Y-26876557D01*
X42908757Y-26942246D01*
X43118713Y-26975500D01*
X43118714Y-26975500D01*
X43331286Y-26975500D01*
X43331287Y-26975500D01*
X43541243Y-26942246D01*
X43743412Y-26876557D01*
X43932816Y-26780051D01*
X43967483Y-26754864D01*
X44104786Y-26655109D01*
X44104788Y-26655106D01*
X44104792Y-26655104D01*
X44255104Y-26504792D01*
X44374683Y-26340204D01*
X44430011Y-26297540D01*
X44499624Y-26291561D01*
X44561420Y-26324166D01*
X44575313Y-26340199D01*
X44674896Y-26477264D01*
X44694896Y-26504792D01*
X44845213Y-26655109D01*
X45017179Y-26780048D01*
X45017181Y-26780049D01*
X45017184Y-26780051D01*
X45206588Y-26876557D01*
X45408757Y-26942246D01*
X45618713Y-26975500D01*
X45618714Y-26975500D01*
X45831286Y-26975500D01*
X45831287Y-26975500D01*
X46041243Y-26942246D01*
X46243412Y-26876557D01*
X46432816Y-26780051D01*
X46604792Y-26655104D01*
X46743604Y-26516291D01*
X46804923Y-26482809D01*
X46874615Y-26487793D01*
X46930549Y-26529664D01*
X46936821Y-26538878D01*
X46940185Y-26544333D01*
X46940186Y-26544334D01*
X47032288Y-26693656D01*
X47156344Y-26817712D01*
X47305666Y-26909814D01*
X47472203Y-26964999D01*
X47574991Y-26975500D01*
X48875008Y-26975499D01*
X48977797Y-26964999D01*
X49144334Y-26909814D01*
X49293656Y-26817712D01*
X49417712Y-26693656D01*
X49509814Y-26544334D01*
X49564999Y-26377797D01*
X49575500Y-26275009D01*
X49575499Y-25268713D01*
X65874500Y-25268713D01*
X65874500Y-25731286D01*
X65897672Y-25877592D01*
X65907754Y-25941243D01*
X65946233Y-26059670D01*
X65973444Y-26143414D01*
X66069951Y-26332820D01*
X66194890Y-26504786D01*
X66345213Y-26655109D01*
X66517179Y-26780048D01*
X66517181Y-26780049D01*
X66517184Y-26780051D01*
X66706588Y-26876557D01*
X66908757Y-26942246D01*
X67118713Y-26975500D01*
X67118714Y-26975500D01*
X67331286Y-26975500D01*
X67331287Y-26975500D01*
X67541243Y-26942246D01*
X67743412Y-26876557D01*
X67932816Y-26780051D01*
X67967483Y-26754864D01*
X68104786Y-26655109D01*
X68104788Y-26655106D01*
X68104792Y-26655104D01*
X68255104Y-26504792D01*
X68374683Y-26340204D01*
X68430011Y-26297540D01*
X68499624Y-26291561D01*
X68561420Y-26324166D01*
X68575313Y-26340199D01*
X68674896Y-26477264D01*
X68694896Y-26504792D01*
X68845213Y-26655109D01*
X69017179Y-26780048D01*
X69017181Y-26780049D01*
X69017184Y-26780051D01*
X69206588Y-26876557D01*
X69408757Y-26942246D01*
X69618713Y-26975500D01*
X69618714Y-26975500D01*
X69831286Y-26975500D01*
X69831287Y-26975500D01*
X70041243Y-26942246D01*
X70243412Y-26876557D01*
X70432816Y-26780051D01*
X70467483Y-26754864D01*
X70604786Y-26655109D01*
X70604788Y-26655106D01*
X70604792Y-26655104D01*
X70755104Y-26504792D01*
X70874683Y-26340204D01*
X70930011Y-26297540D01*
X70999624Y-26291561D01*
X71061420Y-26324166D01*
X71075313Y-26340199D01*
X71174896Y-26477264D01*
X71194896Y-26504792D01*
X71345213Y-26655109D01*
X71517179Y-26780048D01*
X71517181Y-26780049D01*
X71517184Y-26780051D01*
X71706588Y-26876557D01*
X71908757Y-26942246D01*
X72118713Y-26975500D01*
X72118714Y-26975500D01*
X72331286Y-26975500D01*
X72331287Y-26975500D01*
X72541243Y-26942246D01*
X72743412Y-26876557D01*
X72932816Y-26780051D01*
X72967483Y-26754864D01*
X73104786Y-26655109D01*
X73104788Y-26655106D01*
X73104792Y-26655104D01*
X73255104Y-26504792D01*
X73374991Y-26339779D01*
X73430320Y-26297115D01*
X73499933Y-26291136D01*
X73561729Y-26323741D01*
X73575627Y-26339781D01*
X73695272Y-26504459D01*
X73695276Y-26504464D01*
X73845535Y-26654723D01*
X73845540Y-26654727D01*
X74017442Y-26779620D01*
X74206782Y-26876095D01*
X74408871Y-26941757D01*
X74475000Y-26952231D01*
X74475000Y-25904145D01*
X74541657Y-25942630D01*
X74662465Y-25975000D01*
X74787535Y-25975000D01*
X74908343Y-25942630D01*
X74975000Y-25904145D01*
X74975000Y-26952230D01*
X75041126Y-26941757D01*
X75041129Y-26941757D01*
X75243217Y-26876095D01*
X75432557Y-26779620D01*
X75604458Y-26654728D01*
X75743330Y-26515856D01*
X75804653Y-26482371D01*
X75874345Y-26487355D01*
X75930279Y-26529226D01*
X75936551Y-26538440D01*
X75940185Y-26544331D01*
X75940186Y-26544334D01*
X76032288Y-26693656D01*
X76156344Y-26817712D01*
X76305666Y-26909814D01*
X76472203Y-26964999D01*
X76574991Y-26975500D01*
X77875008Y-26975499D01*
X77977797Y-26964999D01*
X78144334Y-26909814D01*
X78293656Y-26817712D01*
X78417712Y-26693656D01*
X78509814Y-26544334D01*
X78564999Y-26377797D01*
X78575500Y-26275009D01*
X78575499Y-24724992D01*
X78573851Y-24708863D01*
X78564999Y-24622203D01*
X78564998Y-24622200D01*
X78509814Y-24455666D01*
X78417712Y-24306344D01*
X78293656Y-24182288D01*
X78144334Y-24090186D01*
X77977797Y-24035001D01*
X77977795Y-24035000D01*
X77875010Y-24024500D01*
X76574998Y-24024500D01*
X76574981Y-24024501D01*
X76472203Y-24035000D01*
X76472200Y-24035001D01*
X76305668Y-24090185D01*
X76305663Y-24090187D01*
X76156342Y-24182289D01*
X76032289Y-24306342D01*
X75936551Y-24461559D01*
X75884603Y-24508283D01*
X75815640Y-24519506D01*
X75751558Y-24491662D01*
X75743331Y-24484143D01*
X75604464Y-24345276D01*
X75604459Y-24345272D01*
X75432557Y-24220379D01*
X75243215Y-24123903D01*
X75041124Y-24058241D01*
X74975000Y-24047768D01*
X74975000Y-25095854D01*
X74908343Y-25057370D01*
X74787535Y-25025000D01*
X74662465Y-25025000D01*
X74541657Y-25057370D01*
X74475000Y-25095854D01*
X74475000Y-24047768D01*
X74474999Y-24047768D01*
X74408875Y-24058241D01*
X74206784Y-24123903D01*
X74017442Y-24220379D01*
X73845540Y-24345272D01*
X73845535Y-24345276D01*
X73695276Y-24495535D01*
X73695272Y-24495540D01*
X73575627Y-24660218D01*
X73520297Y-24702884D01*
X73450684Y-24708863D01*
X73388889Y-24676257D01*
X73374991Y-24660218D01*
X73255109Y-24495214D01*
X73255105Y-24495209D01*
X73104786Y-24344890D01*
X72932820Y-24219951D01*
X72743414Y-24123444D01*
X72743413Y-24123443D01*
X72743412Y-24123443D01*
X72541243Y-24057754D01*
X72541241Y-24057753D01*
X72541240Y-24057753D01*
X72379957Y-24032208D01*
X72331287Y-24024500D01*
X72118713Y-24024500D01*
X72070042Y-24032208D01*
X71908760Y-24057753D01*
X71706585Y-24123444D01*
X71517179Y-24219951D01*
X71345213Y-24344890D01*
X71194894Y-24495209D01*
X71194890Y-24495214D01*
X71075318Y-24659793D01*
X71019989Y-24702459D01*
X70950375Y-24708438D01*
X70888580Y-24675833D01*
X70874682Y-24659793D01*
X70755109Y-24495214D01*
X70755105Y-24495209D01*
X70604786Y-24344890D01*
X70432820Y-24219951D01*
X70243414Y-24123444D01*
X70243413Y-24123443D01*
X70243412Y-24123443D01*
X70041243Y-24057754D01*
X70041241Y-24057753D01*
X70041240Y-24057753D01*
X69879957Y-24032208D01*
X69831287Y-24024500D01*
X69618713Y-24024500D01*
X69570042Y-24032208D01*
X69408760Y-24057753D01*
X69206585Y-24123444D01*
X69017179Y-24219951D01*
X68845213Y-24344890D01*
X68694894Y-24495209D01*
X68694890Y-24495214D01*
X68575318Y-24659793D01*
X68519989Y-24702459D01*
X68450375Y-24708438D01*
X68388580Y-24675833D01*
X68374682Y-24659793D01*
X68255109Y-24495214D01*
X68255105Y-24495209D01*
X68104786Y-24344890D01*
X67932820Y-24219951D01*
X67743414Y-24123444D01*
X67743413Y-24123443D01*
X67743412Y-24123443D01*
X67541243Y-24057754D01*
X67541241Y-24057753D01*
X67541240Y-24057753D01*
X67379957Y-24032208D01*
X67331287Y-24024500D01*
X67118713Y-24024500D01*
X67070042Y-24032208D01*
X66908760Y-24057753D01*
X66706585Y-24123444D01*
X66517179Y-24219951D01*
X66345213Y-24344890D01*
X66194890Y-24495213D01*
X66069951Y-24667179D01*
X65973444Y-24856585D01*
X65907753Y-25058760D01*
X65874500Y-25268713D01*
X49575499Y-25268713D01*
X49575499Y-24724992D01*
X49573851Y-24708863D01*
X49564999Y-24622203D01*
X49564998Y-24622200D01*
X49509814Y-24455666D01*
X49417712Y-24306344D01*
X49293656Y-24182288D01*
X49144334Y-24090186D01*
X48977797Y-24035001D01*
X48977795Y-24035000D01*
X48875010Y-24024500D01*
X47574998Y-24024500D01*
X47574981Y-24024501D01*
X47472203Y-24035000D01*
X47472200Y-24035001D01*
X47305668Y-24090185D01*
X47305663Y-24090187D01*
X47156342Y-24182289D01*
X47032289Y-24306342D01*
X46936821Y-24461121D01*
X46884873Y-24507845D01*
X46815910Y-24519068D01*
X46751828Y-24491224D01*
X46743601Y-24483705D01*
X46604786Y-24344890D01*
X46432820Y-24219951D01*
X46243414Y-24123444D01*
X46243413Y-24123443D01*
X46243412Y-24123443D01*
X46041243Y-24057754D01*
X46041241Y-24057753D01*
X46041240Y-24057753D01*
X45879957Y-24032208D01*
X45831287Y-24024500D01*
X45618713Y-24024500D01*
X45570042Y-24032208D01*
X45408760Y-24057753D01*
X45206585Y-24123444D01*
X45017179Y-24219951D01*
X44845213Y-24344890D01*
X44694894Y-24495209D01*
X44694890Y-24495214D01*
X44575318Y-24659793D01*
X44519989Y-24702459D01*
X44450375Y-24708438D01*
X44388580Y-24675833D01*
X44374682Y-24659793D01*
X44255109Y-24495214D01*
X44255105Y-24495209D01*
X44104786Y-24344890D01*
X43932820Y-24219951D01*
X43743414Y-24123444D01*
X43743413Y-24123443D01*
X43743412Y-24123443D01*
X43541243Y-24057754D01*
X43541241Y-24057753D01*
X43541240Y-24057753D01*
X43379957Y-24032208D01*
X43331287Y-24024500D01*
X43118713Y-24024500D01*
X43070042Y-24032208D01*
X42908760Y-24057753D01*
X42706585Y-24123444D01*
X42517179Y-24219951D01*
X42345213Y-24344890D01*
X42194894Y-24495209D01*
X42194890Y-24495214D01*
X42075318Y-24659793D01*
X42019989Y-24702459D01*
X41950375Y-24708438D01*
X41888580Y-24675833D01*
X41874682Y-24659793D01*
X41755109Y-24495214D01*
X41755105Y-24495209D01*
X41604786Y-24344890D01*
X41432820Y-24219951D01*
X41243414Y-24123444D01*
X41243413Y-24123443D01*
X41243412Y-24123443D01*
X41041243Y-24057754D01*
X41041241Y-24057753D01*
X41041240Y-24057753D01*
X40879957Y-24032208D01*
X40831287Y-24024500D01*
X40618713Y-24024500D01*
X40570042Y-24032208D01*
X40408760Y-24057753D01*
X40206585Y-24123444D01*
X40017179Y-24219951D01*
X39845213Y-24344890D01*
X39694894Y-24495209D01*
X39694890Y-24495214D01*
X39575318Y-24659793D01*
X39519989Y-24702459D01*
X39450375Y-24708438D01*
X39388580Y-24675833D01*
X39374682Y-24659793D01*
X39255109Y-24495214D01*
X39255105Y-24495209D01*
X39104786Y-24344890D01*
X38932820Y-24219951D01*
X38743414Y-24123444D01*
X38743413Y-24123443D01*
X38743412Y-24123443D01*
X38541243Y-24057754D01*
X38541241Y-24057753D01*
X38541240Y-24057753D01*
X38379957Y-24032208D01*
X38331287Y-24024500D01*
X38118713Y-24024500D01*
X38070042Y-24032208D01*
X37908760Y-24057753D01*
X37706585Y-24123444D01*
X37517179Y-24219951D01*
X37345213Y-24344890D01*
X37194890Y-24495213D01*
X37069951Y-24667179D01*
X36973444Y-24856585D01*
X36907753Y-25058760D01*
X36874500Y-25268713D01*
X20500500Y-25268713D01*
X20500500Y-23220043D01*
X134304399Y-23220043D01*
X134342847Y-23413329D01*
X134342850Y-23413339D01*
X134418264Y-23595407D01*
X134418271Y-23595420D01*
X134527760Y-23759281D01*
X134527763Y-23759285D01*
X134667114Y-23898636D01*
X134667118Y-23898639D01*
X134830979Y-24008128D01*
X134830992Y-24008135D01*
X135013060Y-24083549D01*
X135013065Y-24083551D01*
X135013069Y-24083551D01*
X135013070Y-24083552D01*
X135206356Y-24122000D01*
X135206359Y-24122000D01*
X135403443Y-24122000D01*
X135533482Y-24096132D01*
X135596735Y-24083551D01*
X135778814Y-24008132D01*
X135942682Y-23898639D01*
X136082039Y-23759282D01*
X136191532Y-23595414D01*
X136266951Y-23413335D01*
X136305400Y-23220043D01*
X142944399Y-23220043D01*
X142982847Y-23413329D01*
X142982850Y-23413339D01*
X143058264Y-23595407D01*
X143058271Y-23595420D01*
X143167760Y-23759281D01*
X143167763Y-23759285D01*
X143307114Y-23898636D01*
X143307118Y-23898639D01*
X143470979Y-24008128D01*
X143470992Y-24008135D01*
X143653060Y-24083549D01*
X143653065Y-24083551D01*
X143653069Y-24083551D01*
X143653070Y-24083552D01*
X143846356Y-24122000D01*
X143846359Y-24122000D01*
X144043443Y-24122000D01*
X144173482Y-24096132D01*
X144236735Y-24083551D01*
X144418814Y-24008132D01*
X144582682Y-23898639D01*
X144722039Y-23759282D01*
X144831532Y-23595414D01*
X144906951Y-23413335D01*
X144945400Y-23220041D01*
X144945400Y-22222959D01*
X144945400Y-22222956D01*
X144906952Y-22029670D01*
X144906951Y-22029669D01*
X144906951Y-22029665D01*
X144832796Y-21850637D01*
X144831535Y-21847592D01*
X144831528Y-21847579D01*
X144722039Y-21683718D01*
X144722036Y-21683714D01*
X144582685Y-21544363D01*
X144582681Y-21544360D01*
X144418820Y-21434871D01*
X144418807Y-21434864D01*
X144236739Y-21359450D01*
X144236729Y-21359447D01*
X144043443Y-21321000D01*
X144043441Y-21321000D01*
X143846359Y-21321000D01*
X143846357Y-21321000D01*
X143653070Y-21359447D01*
X143653060Y-21359450D01*
X143470992Y-21434864D01*
X143470979Y-21434871D01*
X143307118Y-21544360D01*
X143307114Y-21544363D01*
X143167763Y-21683714D01*
X143167760Y-21683718D01*
X143058271Y-21847579D01*
X143058264Y-21847592D01*
X142982850Y-22029660D01*
X142982847Y-22029670D01*
X142944400Y-22222956D01*
X142944400Y-22222959D01*
X142944400Y-23220041D01*
X142944400Y-23220043D01*
X142944399Y-23220043D01*
X136305400Y-23220043D01*
X136305400Y-23220041D01*
X136305400Y-22222959D01*
X136305400Y-22222956D01*
X136266952Y-22029670D01*
X136266951Y-22029669D01*
X136266951Y-22029665D01*
X136192796Y-21850637D01*
X136191535Y-21847592D01*
X136191528Y-21847579D01*
X136082039Y-21683718D01*
X136082036Y-21683714D01*
X135942685Y-21544363D01*
X135942681Y-21544360D01*
X135778820Y-21434871D01*
X135778807Y-21434864D01*
X135596739Y-21359450D01*
X135596729Y-21359447D01*
X135403443Y-21321000D01*
X135403441Y-21321000D01*
X135206359Y-21321000D01*
X135206357Y-21321000D01*
X135013070Y-21359447D01*
X135013060Y-21359450D01*
X134830992Y-21434864D01*
X134830979Y-21434871D01*
X134667118Y-21544360D01*
X134667114Y-21544363D01*
X134527763Y-21683714D01*
X134527760Y-21683718D01*
X134418271Y-21847579D01*
X134418264Y-21847592D01*
X134342850Y-22029660D01*
X134342847Y-22029670D01*
X134304400Y-22222956D01*
X134304400Y-22222959D01*
X134304400Y-23220041D01*
X134304400Y-23220043D01*
X134304399Y-23220043D01*
X20500500Y-23220043D01*
X20500500Y-22504066D01*
X20500765Y-22495956D01*
X20510646Y-22345199D01*
X20517075Y-22247102D01*
X20519190Y-22231048D01*
X20567046Y-21990458D01*
X20571243Y-21974797D01*
X20594337Y-21906762D01*
X20650093Y-21742512D01*
X20656291Y-21727547D01*
X20764790Y-21507533D01*
X20772897Y-21493493D01*
X20909174Y-21289539D01*
X20919039Y-21276681D01*
X21080786Y-21092244D01*
X21092244Y-21080786D01*
X21276681Y-20919039D01*
X21289534Y-20909177D01*
X21493493Y-20772897D01*
X21507533Y-20764790D01*
X21727547Y-20656291D01*
X21742512Y-20650093D01*
X21906762Y-20594337D01*
X21974797Y-20571243D01*
X21990464Y-20567045D01*
X22231048Y-20519190D01*
X22247102Y-20517075D01*
X22495943Y-20500765D01*
X22504087Y-20500501D01*
X147496989Y-20539806D01*
G37*
%TD.AperFunction*%
%TD*%
M02*
